<svg id="Grupo_196059" data-name="Grupo 196059" xmlns="http://www.w3.org/2000/svg" xmlns:xlink="http://www.w3.org/1999/xlink" width="135.971" height="135.591" viewBox="0 0 135.971 135.591">
  <defs>
    <clipPath id="clip-path">
      <rect id="Rectángulo_150322" data-name="Rectángulo 150322" width="135.971" height="135.591" fill="none"/>
    </clipPath>
    <clipPath id="clip-path-2">
      <rect id="Rectángulo_150309" data-name="Rectángulo 150309" width="16.153" height="4.529" fill="#ff001d"/>
    </clipPath>
    <clipPath id="clip-path-3">
      <rect id="Rectángulo_150310" data-name="Rectángulo 150310" width="0.028" height="0.049" fill="none"/>
    </clipPath>
    <clipPath id="clip-path-4">
      <rect id="Rectángulo_150316" data-name="Rectángulo 150316" width="7.033" height="10.672" fill="#ff001d"/>
    </clipPath>
    <clipPath id="clip-path-5">
      <rect id="Rectángulo_150317" data-name="Rectángulo 150317" width="13.921" height="6.08" fill="none"/>
    </clipPath>
    <clipPath id="clip-path-7">
      <rect id="Rectángulo_150319" data-name="Rectángulo 150319" width="0.981" height="3.472" fill="none"/>
    </clipPath>
    <clipPath id="clip-path-8">
      <rect id="Rectángulo_150320" data-name="Rectángulo 150320" width="1.234" height="3.112" fill="none"/>
    </clipPath>
    <clipPath id="clip-path-9">
      <rect id="Rectángulo_150321" data-name="Rectángulo 150321" width="0.964" height="2.688" fill="none"/>
    </clipPath>
    <clipPath id="clip-path-11">
      <rect id="Rectángulo_150323" data-name="Rectángulo 150323" width="12.921" height="61.116" fill="none"/>
    </clipPath>
    <clipPath id="clip-path-12">
      <rect id="Rectángulo_150324" data-name="Rectángulo 150324" width="42.846" height="8.484" fill="none"/>
    </clipPath>
    <clipPath id="clip-path-13">
      <rect id="Rectángulo_150325" data-name="Rectángulo 150325" width="46.518" height="54.578" fill="#ff001d"/>
    </clipPath>
    <clipPath id="clip-path-14">
      <rect id="Rectángulo_150326" data-name="Rectángulo 150326" width="25.694" height="18.288" fill="none"/>
    </clipPath>
    <clipPath id="clip-path-15">
      <rect id="Rectángulo_150327" data-name="Rectángulo 150327" width="23.673" height="12.338" fill="none"/>
    </clipPath>
  </defs>
  <g id="Grupo_196228" data-name="Grupo 196228">
    <g id="Grupo_196038" data-name="Grupo 196038">
      <g id="Grupo_196037" data-name="Grupo 196037" clip-path="url(#clip-path)">
        <path id="Trazado_47014" data-name="Trazado 47014" d="M280.185.259l-9.4-.006A2.335,2.335,0,0,0,268.5,2.638v1.7a2.335,2.335,0,0,1-2.283,2.385L247.9,6.717a2.337,2.337,0,0,1-2.282-2.387V2.624A2.337,2.337,0,0,0,243.333.237l-3.306,0L231.8.23a7.4,7.4,0,0,0-7.4,7.4l-.023,118.635a7.4,7.4,0,0,0,7.392,7.4l48.384.028a7.4,7.4,0,0,0,7.4-7.395l.023-118.635a7.4,7.4,0,0,0-7.392-7.4" transform="translate(-151.682 -0.155)" fill="#fff"/>
        <path id="Trazado_47015" data-name="Trazado 47015" d="M279.967.1s.085,0,.253.007a5.543,5.543,0,0,1,.75.058,6.969,6.969,0,0,1,2.775.958,7.1,7.1,0,0,1,1.687,1.367A7.4,7.4,0,0,1,286.841,4.7a7.662,7.662,0,0,1,.554,3q0,1.638,0,3.487c.006,9.856.015,24.113.025,41.731s.006,38.6.01,61.892q0,4.368,0,8.842V125.9a7.919,7.919,0,0,1-.283,2.256,7.486,7.486,0,0,1-.945,2.085,7.994,7.994,0,0,1-1.541,1.71,7.484,7.484,0,0,1-4.271,1.658c-1.551.045-3.091.011-4.649.021l-9.42,0-19.332-.01-9.887-.005-4.994,0a7.817,7.817,0,0,1-4.817-1.33,7.57,7.57,0,0,1-2.932-4.049,8.139,8.139,0,0,1-.309-2.5q0-1.249,0-2.493,0-4.979,0-9.891,0-9.82.005-19.337c0-12.677.009-24.906.013-36.555s.011-22.718.016-33.078q0-7.77.009-14.991,0-.9,0-1.794c0-.3.026-.6.042-.9.052-.294.075-.594.151-.882a7.561,7.561,0,0,1,1.556-3.134,7.7,7.7,0,0,1,2.743-2.05A7.756,7.756,0,0,1,231.883,0l6.447.007,3.1,0,1.52,0a2.367,2.367,0,0,1,1.456.407,2.446,2.446,0,0,1,.9,1.188,3.96,3.96,0,0,1,.15,1.461q0,.362,0,.72a5.377,5.377,0,0,0,.023.7,2.339,2.339,0,0,0,.552,1.238,2.183,2.183,0,0,0,1.13.7,2.511,2.511,0,0,0,.666.065h.682l2.669,0,9.753.015,4.3.007c.34-.006.685.016,1.007-.013a2.174,2.174,0,0,0,.906-.318,2.342,2.342,0,0,0,1.036-1.49,4.087,4.087,0,0,0,.058-.9q0-.449,0-.884a5.08,5.08,0,0,1,.039-.863,2.506,2.506,0,0,1,.279-.792A2.334,2.334,0,0,1,269.745.224a3.709,3.709,0,0,1,1.469-.157l4.8.013,2.95.012c.665,0,1.005.011,1.005.011s-.34.007-1.005.01l-2.95.009-4.8.007a3.655,3.655,0,0,0-1.444.157A2.266,2.266,0,0,0,268.627,1.3a2.431,2.431,0,0,0-.269.77,4.974,4.974,0,0,0-.035.85q0,.435,0,.884a4.162,4.162,0,0,1-.057.915,2.426,2.426,0,0,1-1.07,1.546,2.263,2.263,0,0,1-.941.333c-.342.03-.674.009-1.017.016l-4.3,0-9.753,0h-3.351a2.629,2.629,0,0,1-.7-.068,2.3,2.3,0,0,1-1.195-.739,2.464,2.464,0,0,1-.584-1.3,5.464,5.464,0,0,1-.025-.722q0-.359,0-.72a3.849,3.849,0,0,0-.145-1.416,2.311,2.311,0,0,0-.857-1.123,2.231,2.231,0,0,0-1.381-.382H231.883a7.611,7.611,0,0,0-3.227.613,7.548,7.548,0,0,0-2.685,2.011,7.411,7.411,0,0,0-1.52,3.07c-.075.282-.1.575-.147.863-.015.293-.036.584-.04.881q0,.893,0,1.794,0,7.212,0,14.991c0,10.36,0,21.429,0,33.078s0,23.878,0,36.555q0,9.508,0,19.337,0,4.91,0,9.891,0,1.245,0,2.493a7.94,7.94,0,0,0,.3,2.443,7.361,7.361,0,0,0,2.851,3.937,7.6,7.6,0,0,0,4.7,1.293l4.994,0,9.887.006,19.332.013,9.42.006c1.553-.009,3.11.025,4.637-.019a7.282,7.282,0,0,0,4.157-1.612,7.791,7.791,0,0,0,1.5-1.664,7.292,7.292,0,0,0,.92-2.028,7.713,7.713,0,0,0,.277-2.2q0-1.125,0-2.243,0-4.473,0-8.842c.013-23.294.025-44.273.034-61.892s.032-31.875.041-41.731q0-1.848.005-3.487a7.6,7.6,0,0,0-.539-2.979,7.357,7.357,0,0,0-1.39-2.2,7.078,7.078,0,0,0-1.67-1.366A7.01,7.01,0,0,0,280.967.19a5.921,5.921,0,0,0-.747-.069c-.168-.01-.253-.018-.253-.018" transform="translate(-151.464 0)" fill="#263238"/>
        <path id="Trazado_47016" data-name="Trazado 47016" d="M250.027,37.21c0,.032-1.222.068-2.73.08s-2.731,0-2.731-.035,1.222-.067,2.73-.08,2.731,0,2.731.035" transform="translate(-165.33 -25.128)" fill="#263238"/>
        <path id="Trazado_47017" data-name="Trazado 47017" d="M250.063,41.523c0,.032-1.222.068-2.73.08s-2.731,0-2.731-.035,1.222-.068,2.73-.08,2.731,0,2.731.035" transform="translate(-165.354 -28.044)" fill="#263238"/>
        <path id="Trazado_47018" data-name="Trazado 47018" d="M250.1,45.835c0,.032-1.222.068-2.73.08s-2.731,0-2.731-.035,1.222-.067,2.73-.08,2.731,0,2.731.035" transform="translate(-165.378 -30.959)" fill="#263238"/>
        <rect id="Rectángulo_150308" data-name="Rectángulo 150308" width="24.315" height="24.315" transform="translate(78.317 103.559)" fill="#f5f5f5"/>
        <path id="Trazado_47019" data-name="Trazado 47019" d="M273.939,353.748a10.868,10.868,0,0,0-9.6-4.146,8.164,8.164,0,0,0-6.557,4.446,1.25,1.25,0,0,0,.964,1.8,56.973,56.973,0,0,0,13.878-.047c.71-.09,1.555-.286,1.6-1.165a1.409,1.409,0,0,0-.292-.886" transform="translate(-174.178 -236.279)" fill="#e8505b"/>
        <g id="Grupo_196013" data-name="Grupo 196013" transform="translate(83.607 113.24)" opacity="0.5">
          <g id="Grupo_196012" data-name="Grupo 196012">
            <g id="Grupo_196011" data-name="Grupo 196011" clip-path="url(#clip-path-2)">
              <path id="Trazado_47020" data-name="Trazado 47020" d="M274.21,353.748a10.867,10.867,0,0,0-9.6-4.146,8.164,8.164,0,0,0-6.557,4.446" transform="translate(-258.057 -349.519)" fill="#ff001d"/>
            </g>
          </g>
        </g>
        <path id="Trazado_47021" data-name="Trazado 47021" d="M272.14,355.262c-.016.013-.158-.127-.348-.387a3.2,3.2,0,0,1-.524-1.147,5.677,5.677,0,0,1-.1-1.251,1.6,1.6,0,0,1,.042-.516,1.61,1.61,0,0,1,.077.512,9.432,9.432,0,0,0,.148,1.218,3.964,3.964,0,0,0,.46,1.119,1.96,1.96,0,0,1,.247.452" transform="translate(-183.311 -237.93)" fill="#f5f5f5"/>
        <path id="Trazado_47022" data-name="Trazado 47022" d="M282.459,354.521c-.051-.005.022-.786-.081-1.738s-.331-1.7-.282-1.717a5.729,5.729,0,0,1,.363,3.455" transform="translate(-190.696 -237.325)" fill="#f5f5f5"/>
        <path id="Trazado_47023" data-name="Trazado 47023" d="M292.57,355.167c-.047-.02.181-.544.236-1.231s-.07-1.241-.021-1.253a2.759,2.759,0,0,1-.215,2.484" transform="translate(-197.776 -238.418)" fill="#f5f5f5"/>
        <g id="Grupo_196016" data-name="Grupo 196016" transform="translate(91.223 113.453)" opacity="0.3">
          <g id="Grupo_196015" data-name="Grupo 196015">
            <g id="Grupo_196014" data-name="Grupo 196014" clip-path="url(#clip-path-3)">
              <path id="Trazado_47024" data-name="Trazado 47024" d="M281.564,350.178c.01.016.017.033.026.049v0Z" transform="translate(-281.564 -350.178)"/>
            </g>
          </g>
        </g>
        <rect id="Rectángulo_150311" data-name="Rectángulo 150311" width="24.598" height="36.872" transform="translate(78.317 24.954)" fill="#f5f5f5"/>
        <rect id="Rectángulo_150312" data-name="Rectángulo 150312" width="24.598" height="36.872" transform="translate(78.317 64.609)" fill="#f5f5f5"/>
        <rect id="Rectángulo_150313" data-name="Rectángulo 150313" width="24.598" height="34.427" transform="translate(105.256 57.646)" fill="#f5f5f5"/>
        <rect id="Rectángulo_150314" data-name="Rectángulo 150314" width="24.598" height="33.379" transform="translate(105.056 94.495)" fill="#f5f5f5"/>
        <rect id="Rectángulo_150315" data-name="Rectángulo 150315" width="24.598" height="30.456" transform="translate(105.256 24.954)" fill="#f5f5f5"/>
        <path id="Trazado_47025" data-name="Trazado 47025" d="M275.487,96.546a.078.078,0,0,0,0,.015v10.2c0,.447-.36.91-1.024,1.26a6.2,6.2,0,0,1-2.834.591h-.015c-2.415,0-3.857-.954-3.857-1.851v-10.2a.086.086,0,0,0,0-.015c0-.005,0-.013,0-.02a6.062,6.062,0,0,1,1.476-3.068,4.357,4.357,0,0,0,.638-2.258c0-.069.005-.131.005-.188h-.067a.539.539,0,0,1-.576-.494v-.432a.539.539,0,0,1,.576-.5h3.626a.586.586,0,0,1,.532.3.458.458,0,0,1,.044.2v.432a.539.539,0,0,1-.576.494h-.067c0,.057,0,.119.005.188a4.36,4.36,0,0,0,.638,2.258,6.062,6.062,0,0,1,1.476,3.068c0,.008,0,.015,0,.02" transform="translate(-181.009 -60.564)" fill="#fafafa"/>
        <path id="Trazado_47026" data-name="Trazado 47026" d="M275.312,96.394s0-.035-.009-.1a2.629,2.629,0,0,0-.041-.3,3.953,3.953,0,0,0-.427-1.1,15.14,15.14,0,0,0-1.048-1.578,4.476,4.476,0,0,1-.646-2.446V90.8l.056.005a.519.519,0,0,0,.581-.387c.007-.129,0-.288,0-.434a.407.407,0,0,0-.148-.355.575.575,0,0,0-.391-.128h-.476l-.984,0-2.088,0a.572.572,0,0,0-.446.158.393.393,0,0,0-.105.2,2.457,2.457,0,0,0-.006.266c0,.089,0,.2,0,.272a.389.389,0,0,0,.1.211.569.569,0,0,0,.465.164l.077,0v.08a6.2,6.2,0,0,1-.136,1.244,3.44,3.44,0,0,1-.489,1.2,9.838,9.838,0,0,0-1.338,2.265,2.716,2.716,0,0,0-.142.648c-.011.216-.006.457-.007.686q0,.7,0,1.407,0,1.421,0,2.889c0,1.718,0,3.4,0,5.017a3.074,3.074,0,0,0,.026.583,1.117,1.117,0,0,0,.27.483,2.7,2.7,0,0,0,.94.64,6.337,6.337,0,0,0,2.2.452,7.622,7.622,0,0,0,2.138-.193,3.371,3.371,0,0,0,1.742-.932,1.187,1.187,0,0,0,.227-.4,1.526,1.526,0,0,0,.038-.46q0-.479,0-.94,0-.921.005-1.767c.011-2.245.02-4.065.027-5.334.007-.622.012-1.109.016-1.45s.014-.505.014-.505a3.7,3.7,0,0,1,.02.505c0,.341.009.828.016,1.45.007,1.269.016,3.089.027,5.334q0,.845.005,1.767,0,.461,0,.94a1.651,1.651,0,0,1-.041.5,1.322,1.322,0,0,1-.251.452,3.494,3.494,0,0,1-1.814.987,7.753,7.753,0,0,1-2.18.2,6.473,6.473,0,0,1-2.257-.46,2.844,2.844,0,0,1-1-.679,1.281,1.281,0,0,1-.307-.552,3.12,3.12,0,0,1-.031-.622c0-1.621,0-3.3,0-5.017q0-1.466,0-2.889,0-.711,0-1.407c0-.235,0-.457.008-.7a2.878,2.878,0,0,1,.151-.688,9.932,9.932,0,0,1,1.363-2.3,4.442,4.442,0,0,0,.6-2.358l.076.076a.72.72,0,0,1-.575-.215.532.532,0,0,1-.138-.293c-.008-.112,0-.192,0-.29a2.323,2.323,0,0,1,.009-.291.538.538,0,0,1,.144-.28.715.715,0,0,1,.551-.2l2.088,0,.984,0,.476,0a.7.7,0,0,1,.471.16.531.531,0,0,1,.189.449c0,.153,0,.289-.007.45a.63.63,0,0,1-.7.481l.055-.055a4.408,4.408,0,0,0,.607,2.4,14.515,14.515,0,0,1,1.03,1.6,3.807,3.807,0,0,1,.4,1.124,2.062,2.062,0,0,1,.026.309c0,.07,0,.1-.007.1" transform="translate(-180.833 -60.412)" fill="#263238"/>
        <path id="Trazado_47027" data-name="Trazado 47027" d="M277.71,93.727a15.507,15.507,0,0,1-3.228,0,15.508,15.508,0,0,1,3.228,0" transform="translate(-185.553 -63.304)" fill="#263238"/>
        <path id="Trazado_47028" data-name="Trazado 47028" d="M275.844,114a1.157,1.157,0,0,0-1.106.047,4.165,4.165,0,0,1-1.061.46,2.045,2.045,0,0,1-1.3-.332,8,8,0,0,0-1.2-.655,2.341,2.341,0,0,0-2.412.568v8.763s.481,1.5,3.87,1.26,3.122-1.73,3.122-1.73Z" transform="translate(-181.688 -76.656)" fill="#ff001d"/>
        <path id="Trazado_47029" data-name="Trazado 47029" d="M355.429,315.563a.079.079,0,0,0,0,.015v10.138c0,.444-.358.9-1.017,1.252a6.155,6.155,0,0,1-2.815.587h-.015c-2.4,0-3.832-.948-3.832-1.839V315.578a.088.088,0,0,0,0-.015s0-.013,0-.02a6.023,6.023,0,0,1,1.466-3.048,4.328,4.328,0,0,0,.633-2.243c0-.069.005-.131.005-.187h-.066a.536.536,0,0,1-.572-.491v-.429a.536.536,0,0,1,.572-.493h3.6a.582.582,0,0,1,.529.3.456.456,0,0,1,.043.194v.429a.536.536,0,0,1-.572.491h-.066c0,.056,0,.118,0,.187a4.333,4.333,0,0,0,.634,2.243,6.021,6.021,0,0,1,1.467,3.048c0,.008,0,.016,0,.02" transform="translate(-235.084 -208.652)" fill="#fafafa"/>
        <path id="Trazado_47030" data-name="Trazado 47030" d="M355.252,315.411s0-.035-.009-.1a2.654,2.654,0,0,0-.041-.3,3.944,3.944,0,0,0-.424-1.094,15.156,15.156,0,0,0-1.042-1.568,4.447,4.447,0,0,1-.642-2.43v-.06l.056.005a.515.515,0,0,0,.576-.385c.007-.128,0-.286,0-.431a.4.4,0,0,0-.147-.353.571.571,0,0,0-.389-.127h-.473l-.977,0-2.075,0a.568.568,0,0,0-.443.157.389.389,0,0,0-.1.2,2.514,2.514,0,0,0-.005.264c0,.089,0,.2,0,.27a.383.383,0,0,0,.1.209.566.566,0,0,0,.461.163l.077,0v.081a6.14,6.14,0,0,1-.135,1.236,3.413,3.413,0,0,1-.486,1.2,9.773,9.773,0,0,0-1.329,2.25,2.7,2.7,0,0,0-.141.643c-.011.215-.006.454-.007.682q0,.693,0,1.4,0,1.411,0,2.87c0,1.707,0,3.374,0,4.984a3.06,3.06,0,0,0,.026.579,1.108,1.108,0,0,0,.269.48,2.665,2.665,0,0,0,.933.635,6.291,6.291,0,0,0,2.185.449,7.571,7.571,0,0,0,2.124-.192,3.345,3.345,0,0,0,1.731-.926,1.18,1.18,0,0,0,.225-.4,1.52,1.52,0,0,0,.037-.457q0-.476,0-.934,0-.915.005-1.756c.011-2.23.021-4.038.027-5.3.007-.618.012-1.1.016-1.44s.014-.5.014-.5a3.64,3.64,0,0,1,.02.5c0,.339.009.822.016,1.44.007,1.261.016,3.069.027,5.3q0,.839.005,1.756,0,.458,0,.934a1.634,1.634,0,0,1-.041.5,1.312,1.312,0,0,1-.249.448,3.475,3.475,0,0,1-1.8.981,7.715,7.715,0,0,1-2.167.2,6.435,6.435,0,0,1-2.243-.457,2.833,2.833,0,0,1-.992-.675,1.271,1.271,0,0,1-.305-.549,3.061,3.061,0,0,1-.031-.618c0-1.61,0-3.277,0-4.984q0-1.456,0-2.87,0-.706,0-1.4c0-.234,0-.454.009-.695a2.847,2.847,0,0,1,.15-.684A9.859,9.859,0,0,1,349,312.255a4.412,4.412,0,0,0,.6-2.342l.076.076a.716.716,0,0,1-.572-.214.533.533,0,0,1-.137-.292c-.007-.111,0-.191,0-.288a2.355,2.355,0,0,1,.009-.289.537.537,0,0,1,.144-.278.711.711,0,0,1,.548-.2l2.075,0,.977,0,.473,0a.7.7,0,0,1,.468.159.527.527,0,0,1,.187.446c0,.152,0,.287-.006.447a.627.627,0,0,1-.692.479l.055-.055a4.38,4.38,0,0,0,.6,2.38,14.406,14.406,0,0,1,1.023,1.589,3.785,3.785,0,0,1,.4,1.117,2.075,2.075,0,0,1,.026.307c0,.069,0,.1-.007.1" transform="translate(-234.908 -208.5)" fill="#263238"/>
        <path id="Trazado_47031" data-name="Trazado 47031" d="M357.636,312.761a15.315,15.315,0,0,1-3.207,0,15.3,15.3,0,0,1,3.207,0" transform="translate(-239.598 -211.373)" fill="#263238"/>
        <path id="Trazado_47032" data-name="Trazado 47032" d="M355.783,332.905a1.149,1.149,0,0,0-1.1.046,4.127,4.127,0,0,1-1.054.456,2.03,2.03,0,0,1-1.288-.329,7.948,7.948,0,0,0-1.194-.651,2.326,2.326,0,0,0-2.4.564V341.7s.479,1.485,3.845,1.252,3.1-1.719,3.1-1.719Z" transform="translate(-235.759 -224.64)" fill="#e8505b"/>
        <g id="Grupo_196020" data-name="Grupo 196020" transform="translate(112.991 107.662)" opacity="0.5">
          <g id="Grupo_196019" data-name="Grupo 196019">
            <g id="Grupo_196018" data-name="Grupo 196018" clip-path="url(#clip-path-4)">
              <path id="Trazado_47033" data-name="Trazado 47033" d="M355.783,332.905a1.149,1.149,0,0,0-1.1.046,4.127,4.127,0,0,1-1.054.456,2.03,2.03,0,0,1-1.288-.329,7.948,7.948,0,0,0-1.194-.651,2.326,2.326,0,0,0-2.4.564V341.7s.479,1.485,3.845,1.252,3.1-1.719,3.1-1.719Z" transform="translate(-348.75 -332.302)" fill="#ff001d"/>
            </g>
          </g>
        </g>
        <path id="Trazado_47034" data-name="Trazado 47034" d="M355.212,207.753a.712.712,0,0,0-.681.08,1.477,1.477,0,0,0-.15.11,9.324,9.324,0,0,1-5.689,1.823c-3.982,0-7.278-2.232-7.87-5.148v-.552a.4.4,0,1,0-.793,0v1.544a.388.388,0,0,0,.021.1,4.778,4.778,0,0,0-.423,1.926c0,3.366,3.566,6.1,7.972,6.1,3.7,0,6.81-1.923,7.712-4.537a.073.073,0,0,0,.02-.04,1.616,1.616,0,0,0,.171-.671.764.764,0,0,0-.291-.741" transform="translate(-229.593 -137.683)" fill="#ff001d"/>
        <g id="Grupo_196023" data-name="Grupo 196023" transform="translate(110.934 68.439)" opacity="0.3">
          <g id="Grupo_196022" data-name="Grupo 196022">
            <g id="Grupo_196021" data-name="Grupo 196021" clip-path="url(#clip-path-5)">
              <path id="Trazado_47035" data-name="Trazado 47035" d="M342.4,211.24s3.752,8.636,13.921,2.583a13.008,13.008,0,0,1-6.04,3.383c-3.087.6-7.671-1.146-7.881-5.967" transform="translate(-342.4 -211.24)"/>
            </g>
          </g>
        </g>
        <path id="Trazado_47036" data-name="Trazado 47036" d="M386.768,216.558c-.063.15-.306.19-.543.09s-.377-.3-.314-.453.307-.19.543-.09.377.3.314.452" transform="translate(-260.871 -146.053)" fill="#263238"/>
        <path id="Trazado_47037" data-name="Trazado 47037" d="M388.55,37.595a.5.5,0,0,1-.08.006l-.23.006-.852.013-2.861.026H384.5l0-.023c-.022-.151-.046-.311-.069-.474-.2-1.387-.375-2.624-.49-3.433l.017.015-.762,0-.2,0a.4.4,0,0,1-.07,0,.368.368,0,0,1,.07-.005l.2-.006.762-.012h.015l0,.015c.12.808.3,2.045.51,3.43l.069.474-.027-.023,2.861-.008.852,0,.23,0a.5.5,0,0,1,.08,0" transform="translate(-258.861 -22.779)" fill="#263238"/>
        <path id="Trazado_47038" data-name="Trazado 47038" d="M386.757,38.031l.02,0,.059,0,.23-.006.861-.013,2.969-.027-.025.021.272-1.6c.049-.288.1-.571.144-.84l.027.031-3.5.012-1.036,0-.279,0-.072,0-.025,0a.078.078,0,0,1,.025,0l.072,0,.279-.006,1.036-.014,3.5-.03h.032l-.006.031c-.046.27-.094.553-.143.841l-.274,1.6,0,.022H390.9l-2.969.008-.861,0-.23,0-.06,0-.02,0" transform="translate(-261.212 -24.024)" fill="#263238"/>
        <path id="Trazado_47039" data-name="Trazado 47039" d="M389.262,48.274s-.005-.036-.023-.1a.4.4,0,0,0-.149-.208.379.379,0,1,0,0,.609.4.4,0,0,0,.146-.21c.017-.06.017-.1.022-.1a.2.2,0,0,1,0,.1.4.4,0,0,1-.144.235.42.42,0,0,1-.4.069.426.426,0,0,1,0-.8.419.419,0,0,1,.4.064.4.4,0,0,1,.147.233.207.207,0,0,1,0,.1" transform="translate(-262.583 -32.348)" fill="#263238"/>
        <path id="Trazado_47040" data-name="Trazado 47040" d="M397.254,48.226s-.005-.036-.023-.1a.4.4,0,0,0-.149-.208.379.379,0,1,0,0,.609.4.4,0,0,0,.146-.21c.017-.06.017-.1.022-.1a.2.2,0,0,1,0,.1.4.4,0,0,1-.144.235.42.42,0,0,1-.4.069.426.426,0,0,1,0-.8.42.42,0,0,1,.4.064.4.4,0,0,1,.147.233.207.207,0,0,1,0,.1" transform="translate(-267.986 -32.316)" fill="#263238"/>
        <path id="Trazado_47041" data-name="Trazado 47041" d="M399.628,31.966a1.148,1.148,0,1,1-1.155-1.141,1.148,1.148,0,0,1,1.155,1.141" transform="translate(-268.601 -20.838)" fill="#ff001d"/>
        <path id="Trazado_47042" data-name="Trazado 47042" d="M400.525,33l-.007.872-.2,0,.005-.71-.174,0,0-.162Z" transform="translate(-270.504 -22.305)" fill="#fff"/>
        <path id="Trazado_47043" data-name="Trazado 47043" d="M272.846,226.767a4.767,4.767,0,0,0-4.016-5.442.475.475,0,0,0-.341.04.486.486,0,0,0-.127.459,5.758,5.758,0,0,0,4.479,5.081" transform="translate(-181.412 -149.609)" fill="#455a64"/>
        <path id="Trazado_47044" data-name="Trazado 47044" d="M259.433,245.919c1.2,2.478,2.93,4.147,5.07,4.228.428.015.751-.266,1.16-.29a2.639,2.639,0,0,1,.685.258.948.948,0,0,0,.357.081c2.212-.119,4.1-1.675,5.366-4.276,1.768-3.644,1.222-7.558-1.218-8.747a5.817,5.817,0,0,0-1-.39,4.113,4.113,0,0,0-1.214-.143,9.074,9.074,0,0,0-2.773.628l-.119.043a5.688,5.688,0,0,0-5.1-.138c-2.44,1.189-2.983,5.1-1.213,8.747" transform="translate(-174.677 -159.967)" fill="#ff001d"/>
        <path id="Trazado_47045" data-name="Trazado 47045" d="M261.253,244.5a1.888,1.888,0,0,1-.2-.733,3.954,3.954,0,0,1,1.238-3.349,1.887,1.887,0,0,1,.63-.425c.017.026-.226.183-.547.51a4.3,4.3,0,0,0-1.2,3.252c.03.458.113.735.084.744" transform="translate(-176.454 -162.235)" fill="#fafafa"/>
        <path id="Trazado_47046" data-name="Trazado 47046" d="M262.667,257.566c-.045.01-.124-.162-.175-.384s-.056-.411-.011-.422.124.161.175.384.056.412.011.422" transform="translate(-177.419 -173.573)" fill="#fafafa"/>
        <path id="Trazado_47047" data-name="Trazado 47047" d="M286.5,219.747c.012.03-.457.206-1.145.617a9.131,9.131,0,0,0-1.143.815,9.115,9.115,0,0,0-2.165,2.645,9.178,9.178,0,0,0-.573,1.281c-.267.756-.346,1.251-.378,1.244a1.427,1.427,0,0,1,.038-.35,3.354,3.354,0,0,1,.082-.4c.04-.156.077-.337.146-.528a8.151,8.151,0,0,1,.548-1.317,8.59,8.59,0,0,1,2.2-2.691,8.15,8.15,0,0,1,1.182-.8,5.389,5.389,0,0,1,.488-.247,3.352,3.352,0,0,1,.381-.161,1.393,1.393,0,0,1,.336-.106" transform="translate(-190.022 -148.55)" fill="#263238"/>
        <path id="Trazado_47048" data-name="Trazado 47048" d="M356.42,106.266a10.868,10.868,0,0,0-9.6-4.146,8.164,8.164,0,0,0-6.557,4.446,1.25,1.25,0,0,0,.964,1.8,56.974,56.974,0,0,0,13.878-.047c.71-.09,1.555-.286,1.6-1.165a1.408,1.408,0,0,0-.292-.886" transform="translate(-229.936 -68.978)" fill="#ff001d"/>
        <path id="Trazado_47049" data-name="Trazado 47049" d="M354.622,107.781c-.016.013-.158-.127-.348-.387a3.2,3.2,0,0,1-.524-1.147,5.671,5.671,0,0,1-.1-1.251.261.261,0,1,1,.119,0,9.429,9.429,0,0,0,.148,1.218,3.963,3.963,0,0,0,.46,1.119,1.954,1.954,0,0,1,.247.452" transform="translate(-239.07 -70.63)" fill="#263238"/>
        <path id="Trazado_47050" data-name="Trazado 47050" d="M364.941,107.04c-.051-.005.022-.786-.081-1.738s-.331-1.7-.282-1.717a5.725,5.725,0,0,1,.362,3.455" transform="translate(-246.455 -70.025)" fill="#263238"/>
        <path id="Trazado_47051" data-name="Trazado 47051" d="M375.052,107.686c-.047-.02.18-.544.236-1.231s-.07-1.241-.021-1.253a2.757,2.757,0,0,1-.215,2.484" transform="translate(-253.535 -71.118)" fill="#263238"/>
        <g id="Grupo_196026" data-name="Grupo 196026" transform="translate(117.947 33.272)" opacity="0.3">
          <g id="Grupo_196025" data-name="Grupo 196025">
            <g id="Grupo_196024" data-name="Grupo 196024" clip-path="url(#clip-path-3)">
              <path id="Trazado_47052" data-name="Trazado 47052" d="M364.046,102.7c.01.016.017.033.026.049v0Z" transform="translate(-364.046 -102.696)"/>
            </g>
          </g>
        </g>
        <g id="Grupo_196029" data-name="Grupo 196029" transform="translate(117.61 33.321)" opacity="0.3">
          <g id="Grupo_196028" data-name="Grupo 196028">
            <g id="Grupo_196027" data-name="Grupo 196027" clip-path="url(#clip-path-7)">
              <path id="Trazado_47053" data-name="Trazado 47053" d="M363.369,102.846a2.937,2.937,0,0,0,.485,3.472,4.766,4.766,0,0,0-.485-3.472" transform="translate(-363.006 -102.846)"/>
            </g>
          </g>
        </g>
        <g id="Grupo_196033" data-name="Grupo 196033" transform="translate(114.003 33.969)" opacity="0.3">
          <g id="Grupo_196032" data-name="Grupo 196032">
            <g id="Grupo_196031" data-name="Grupo 196031" clip-path="url(#clip-path-8)">
              <path id="Trazado_47054" data-name="Trazado 47054" d="M353.025,107.54a4.484,4.484,0,0,1-.55-1.848,2.774,2.774,0,0,0-.126-.848,2.144,2.144,0,0,0,.277,2.977.532.532,0,0,0,.226.13.217.217,0,0,0,.231-.085c.058-.1,0-.225-.059-.326" transform="translate(-351.874 -104.845)"/>
            </g>
          </g>
        </g>
        <g id="Grupo_196036" data-name="Grupo 196036" transform="translate(120.848 33.872)" opacity="0.3">
          <g id="Grupo_196035" data-name="Grupo 196035">
            <g id="Grupo_196034" data-name="Grupo 196034" clip-path="url(#clip-path-9)">
              <path id="Trazado_47055" data-name="Trazado 47055" d="M373.933,105.015h0a.859.859,0,0,0-.1-.318.29.29,0,0,0-.278-.148c-.153.026-.226.2-.272.345a3.826,3.826,0,0,0-.225,2.016c.038.155.136.334.295.323.121-.009.2-.127.256-.235a3.249,3.249,0,0,0,.32-1.983" transform="translate(-373 -104.546)"/>
            </g>
          </g>
        </g>
        <path id="Trazado_47056" data-name="Trazado 47056" d="M257.66,165.335v.3h-.223v-.3a1.189,1.189,0,0,1-.665-.226l.122-.274a1.045,1.045,0,0,0,.543.206V164.5c-.3-.073-.624-.171-.624-.548,0-.277.2-.518.624-.559v-.307h.223v.3a1.167,1.167,0,0,1,.551.166l-.111.274a1.125,1.125,0,0,0-.44-.146v.548c.3.073.629.168.629.546,0,.277-.2.516-.629.559m-.223-1.161v-.483c-.192.03-.274.128-.274.247s.117.19.274.236m.5.627c0-.133-.119-.2-.282-.241v.48c.2-.03.282-.122.282-.239" transform="translate(-173.582 -110.249)" fill="#263238"/>
        <path id="Trazado_47057" data-name="Trazado 47057" d="M264.888,164.093v1.9h-.353v-1.6h-.4v-.3Z" transform="translate(-178.557 -110.929)" fill="#263238"/>
        <path id="Trazado_47058" data-name="Trazado 47058" d="M268.051,168.851a.616.616,0,0,1-.062.234l-.139.383h-.22l.109-.415a.209.209,0,0,1-.127-.2.22.22,0,1,1,.44,0" transform="translate(-180.908 -113.993)" fill="#263238"/>
        <path id="Trazado_47059" data-name="Trazado 47059" d="M270.88,165.41c0,.334-.242.611-.752.611a1.187,1.187,0,0,1-.714-.22l.149-.274a.9.9,0,0,0,.559.187c.252,0,.4-.111.4-.29s-.117-.3-.51-.3h-.458l.1-1.034h1.116v.3h-.817l-.041.44h.182c.562,0,.787.244.787.581" transform="translate(-182.128 -110.929)" fill="#263238"/>
        <path id="Trazado_47060" data-name="Trazado 47060" d="M274.568,164.986c0-.624.342-.977.793-.977s.8.353.8.977-.342.977-.8.977-.793-.353-.793-.977m1.232,0c0-.459-.179-.67-.44-.67s-.437.212-.437.67.179.67.437.67.44-.212.44-.67" transform="translate(-185.611 -110.872)" fill="#263238"/>
        <path id="Trazado_47061" data-name="Trazado 47061" d="M271.234,177.254c0,.047-3.484.084-7.781.084s-7.783-.038-7.783-.084,3.484-.084,7.783-.084,7.781.038,7.781.084" transform="translate(-172.836 -119.769)" fill="#263238"/>
        <path id="Trazado_47062" data-name="Trazado 47062" d="M262.974,181.164c0,.047-1.618.084-3.613.084s-3.613-.038-3.613-.084,1.618-.084,3.613-.084,3.613.038,3.613.084" transform="translate(-172.889 -122.412)" fill="#263238"/>
        <path id="Trazado_47063" data-name="Trazado 47063" d="M341.829,141.36v.3h-.223v-.3a1.189,1.189,0,0,1-.665-.225l.122-.274a1.044,1.044,0,0,0,.543.206v-.543c-.3-.074-.624-.171-.624-.548,0-.277.2-.518.624-.559v-.307h.223v.3a1.167,1.167,0,0,1,.551.166l-.111.274a1.125,1.125,0,0,0-.44-.146v.548c.3.073.63.168.63.546,0,.277-.2.516-.63.559m-.223-1.161v-.483c-.192.03-.274.128-.274.247s.117.19.274.236m.5.627c0-.133-.119-.2-.282-.241v.48c.2-.03.282-.122.282-.239" transform="translate(-230.481 -94.042)" fill="#263238"/>
        <path id="Trazado_47064" data-name="Trazado 47064" d="M349.776,141.663v.3h-1.4v-.236l.755-.716c.184-.177.217-.288.217-.394,0-.174-.119-.274-.353-.274a.536.536,0,0,0-.445.2l-.247-.19a.877.877,0,0,1,.722-.315c.412,0,.678.209.678.545a.762.762,0,0,1-.315.6l-.508.483Z" transform="translate(-235.456 -94.665)" fill="#263238"/>
        <path id="Trazado_47065" data-name="Trazado 47065" d="M353.989,144.876a.616.616,0,0,1-.062.234l-.139.383h-.22l.109-.415a.208.208,0,0,1-.127-.2.22.22,0,1,1,.44,0" transform="translate(-239.003 -97.786)" fill="#263238"/>
        <path id="Trazado_47066" data-name="Trazado 47066" d="M356.867,141.663v.3h-1.4v-.236l.755-.716c.184-.177.217-.288.217-.394,0-.174-.119-.274-.353-.274a.537.537,0,0,0-.445.2l-.247-.19a.877.877,0,0,1,.722-.315c.412,0,.678.209.678.545a.762.762,0,0,1-.315.6l-.508.483Z" transform="translate(-240.25 -94.665)" fill="#263238"/>
        <path id="Trazado_47067" data-name="Trazado 47067" d="M361.779,141.435c0,.334-.242.611-.752.611a1.187,1.187,0,0,1-.714-.22l.149-.274a.9.9,0,0,0,.559.187c.252,0,.4-.111.4-.29s-.117-.3-.51-.3h-.458l.1-1.034h1.116v.3h-.817l-.041.44h.182c.562,0,.787.244.787.581" transform="translate(-243.577 -94.722)" fill="#263238"/>
        <path id="Trazado_47068" data-name="Trazado 47068" d="M355.4,153.28c0,.047-3.484.084-7.782.084s-7.783-.038-7.783-.084,3.484-.084,7.783-.084,7.782.038,7.782.084" transform="translate(-229.735 -103.562)" fill="#263238"/>
        <path id="Trazado_47069" data-name="Trazado 47069" d="M347.142,157.19c0,.047-1.618.084-3.613.084s-3.613-.038-3.613-.084,1.618-.084,3.613-.084,3.613.038,3.613.084" transform="translate(-229.787 -106.206)" fill="#263238"/>
        <path id="Trazado_47070" data-name="Trazado 47070" d="M255.743,287.038v.3h-.223v-.3a1.186,1.186,0,0,1-.665-.225l.122-.274a1.044,1.044,0,0,0,.543.206V286.2c-.3-.073-.624-.171-.624-.548,0-.277.2-.518.624-.559v-.307h.223v.3a1.168,1.168,0,0,1,.551.166l-.111.274a1.119,1.119,0,0,0-.44-.146v.548c.3.074.63.168.63.546,0,.277-.2.515-.63.559m-.223-1.162v-.483c-.192.03-.274.128-.274.247s.117.19.274.236m.5.627c0-.133-.119-.2-.282-.242v.48c.2-.03.282-.122.282-.239" transform="translate(-172.286 -192.522)" fill="#263238"/>
        <path id="Trazado_47071" data-name="Trazado 47071" d="M262.517,286.689c0-.624.342-.977.793-.977s.8.353.8.977-.342.977-.8.977-.793-.353-.793-.977m1.232,0c0-.459-.179-.67-.44-.67s-.437.212-.437.67.179.67.437.67.44-.212.44-.67" transform="translate(-177.465 -193.145)" fill="#263238"/>
        <path id="Trazado_47072" data-name="Trazado 47072" d="M268.482,290.553a.616.616,0,0,1-.062.234l-.139.382h-.22l.109-.415a.209.209,0,0,1-.127-.2.22.22,0,1,1,.44,0" transform="translate(-181.2 -196.265)" fill="#263238"/>
        <path id="Trazado_47073" data-name="Trazado 47073" d="M271.31,287.112c0,.334-.242.611-.752.611a1.188,1.188,0,0,1-.714-.22l.149-.274a.9.9,0,0,0,.559.187c.252,0,.4-.111.4-.29s-.117-.3-.51-.3h-.458l.1-1.034H271.2v.3h-.817l-.041.44h.182c.562,0,.787.244.787.581" transform="translate(-182.418 -193.201)" fill="#263238"/>
        <path id="Trazado_47074" data-name="Trazado 47074" d="M275,286.689c0-.624.342-.977.793-.977s.8.353.8.977-.342.977-.8.977-.793-.353-.793-.977m1.232,0c0-.459-.179-.67-.44-.67s-.437.212-.437.67.179.67.437.67.44-.212.44-.67" transform="translate(-185.902 -193.145)" fill="#263238"/>
        <path id="Trazado_47075" data-name="Trazado 47075" d="M269.317,298.957c0,.047-3.484.084-7.782.084s-7.782-.038-7.782-.084,3.483-.084,7.782-.084,7.782.038,7.782.084" transform="translate(-171.54 -202.042)" fill="#263238"/>
        <path id="Trazado_47076" data-name="Trazado 47076" d="M261.057,302.867c0,.047-1.618.084-3.613.084s-3.613-.038-3.613-.084,1.618-.084,3.613-.084,3.613.038,3.613.084" transform="translate(-171.593 -204.685)" fill="#263238"/>
        <path id="Trazado_47077" data-name="Trazado 47077" d="M337.935,255.307v.3h-.223v-.3a1.186,1.186,0,0,1-.665-.225l.122-.274a1.045,1.045,0,0,0,.543.206v-.543c-.3-.073-.624-.171-.624-.548,0-.277.2-.518.624-.559v-.306h.223v.3a1.167,1.167,0,0,1,.551.166l-.111.274a1.12,1.12,0,0,0-.44-.146v.548c.3.074.63.168.63.546,0,.277-.2.515-.63.559m-.223-1.162v-.483c-.192.03-.274.128-.274.247s.117.19.274.236m.5.627c0-.133-.119-.2-.282-.242v.48c.2-.03.282-.122.282-.239" transform="translate(-227.848 -171.072)" fill="#263238"/>
        <path id="Trazado_47078" data-name="Trazado 47078" d="M345.162,254.065v1.9h-.353v-1.6h-.4v-.3Z" transform="translate(-232.824 -171.751)" fill="#263238"/>
        <path id="Trazado_47079" data-name="Trazado 47079" d="M348.325,258.822a.616.616,0,0,1-.062.234l-.139.382h-.22l.109-.415a.209.209,0,0,1-.128-.2.22.22,0,1,1,.44,0" transform="translate(-235.174 -174.815)" fill="#263238"/>
        <path id="Trazado_47080" data-name="Trazado 47080" d="M349.847,254.958c0-.624.342-.977.792-.977s.8.353.8.977-.342.977-.8.977-.792-.353-.792-.977m1.232,0c0-.459-.179-.67-.44-.67s-.437.212-.437.67.179.67.437.67.44-.212.44-.67" transform="translate(-236.501 -171.694)" fill="#263238"/>
        <path id="Trazado_47081" data-name="Trazado 47081" d="M355.487,254.958c0-.624.342-.977.793-.977s.8.353.8.977-.342.977-.8.977-.793-.353-.793-.977m1.232,0c0-.459-.179-.67-.44-.67s-.437.212-.437.67.179.67.437.67.44-.212.44-.67" transform="translate(-240.313 -171.694)" fill="#263238"/>
        <path id="Trazado_47082" data-name="Trazado 47082" d="M351.508,267.225c0,.047-3.484.084-7.782.084s-7.782-.038-7.782-.084,3.484-.084,7.782-.084,7.782.038,7.782.084" transform="translate(-227.102 -180.59)" fill="#263238"/>
        <path id="Trazado_47083" data-name="Trazado 47083" d="M343.248,271.135c0,.047-1.618.084-3.613.084s-3.613-.038-3.613-.084,1.617-.084,3.613-.084,3.613.038,3.613.084" transform="translate(-227.155 -183.234)" fill="#263238"/>
        <path id="Trazado_47084" data-name="Trazado 47084" d="M312.8,43.086c0,.047-3.755.084-8.386.084s-8.387-.038-8.387-.084S299.779,43,304.412,43s8.386.038,8.386.084" transform="translate(-200.116 -29.07)" fill="#ff001d"/>
      </g>
    </g>
    <g id="Grupo_196057" data-name="Grupo 196057">
      <g id="Grupo_196056" data-name="Grupo 196056" clip-path="url(#clip-path)">
        <path id="Trazado_47085" data-name="Trazado 47085" d="M3.444,353.787a2.24,2.24,0,0,0-2.1,1.795A21.733,21.733,0,0,0,.845,358s-1.9,1.708,0,2.166,2.6-2.1,2.6-2.1l.293-4.271Z" transform="translate(0 -239.164)" fill="#ffbe9d"/>
        <path id="Trazado_47086" data-name="Trazado 47086" d="M69.413,181.1s5.943-19.954,6.548-20.814c1-1.421,10.617-5.7,10.617-5.7l2.579-5.264,15.99-2.556,3.96,5.1,11.135,8.157-.426,15.492-.351,12.735-.413,19.709,2.107,24.6-50.575-.077,2.288-5.182,2.4-44.747Z" transform="translate(-46.924 -99.215)" fill="#ff001d"/>
        <path id="Trazado_47087" data-name="Trazado 47087" d="M90.334,211.312a.588.588,0,0,1-.02-.161c-.007-.125-.015-.278-.025-.462-.018-.4-.035-.983-.049-1.7-.027-1.438-.028-3.424.035-5.617s.178-4.177.287-5.611c.054-.717.1-1.3.146-1.7.02-.184.037-.336.051-.46a.58.58,0,0,1,.029-.159.59.59,0,0,1,0,.162c-.005.125-.012.278-.019.463-.023.427-.054,1-.092,1.7-.078,1.435-.174,3.417-.238,5.608s-.08,4.175-.084,5.611c0,.7,0,1.274,0,1.7,0,.185-.005.338-.007.463a.593.593,0,0,1-.014.162" transform="translate(-60.992 -132.121)" fill="#263238"/>
        <g id="Grupo_196041" data-name="Grupo 196041" transform="translate(39.243 72.227)" opacity="0.3">
          <g id="Grupo_196040" data-name="Grupo 196040">
            <g id="Grupo_196039" data-name="Grupo 196039" clip-path="url(#clip-path-11)">
              <path id="Trazado_47088" data-name="Trazado 47088" d="M122.679,224.156a.985.985,0,0,1,.186-.624,1.6,1.6,0,0,1,1.888-.469,3.048,3.048,0,0,1,1.439,2.3c.186,1.011.159,2.053.35,3.064a3.678,3.678,0,0,0,1.539,2.565c1.1.648,2.54.354,3.694.9,1.718.809,2.116,3.042,2.2,4.939.163,3.592.008,7.189-.147,10.781q-.5,11.473-.993,22.945l-.9,11.511-4.654,1.978-6.154-40.44Z" transform="translate(-121.125 -222.93)"/>
            </g>
          </g>
        </g>
        <path id="Trazado_47089" data-name="Trazado 47089" d="M126.513,191.648a.339.339,0,0,1-.121.065.832.832,0,0,1-.393.039,1.355,1.355,0,0,1-1.057-.924,2.451,2.451,0,0,1-.094-1,11,11,0,0,1,.187-1.12l.505-2.535c.364-1.8.7-3.424.955-4.6l.308-1.39a3.121,3.121,0,0,1,.135-.505,3.042,3.042,0,0,1-.071.518l-.256,1.4c-.223,1.181-.543,2.811-.906,4.609l-.519,2.533a4.184,4.184,0,0,0-.132,2.05,1.3,1.3,0,0,0,.954.9,1.122,1.122,0,0,0,.5-.039" transform="translate(-84.391 -121.466)" fill="#263238"/>
        <path id="Trazado_47090" data-name="Trazado 47090" d="M131.756,193.425c0,.016-.132.015-.353.085a1.626,1.626,0,0,0-.78.55,1.381,1.381,0,0,0-.241,1.328,1.445,1.445,0,0,0,2.682.214,1.383,1.383,0,0,0-.028-1.349,1.63,1.63,0,0,0-.684-.667c-.207-.1-.338-.123-.335-.139s.034,0,.1,0a1.046,1.046,0,0,1,.266.075,1.65,1.65,0,0,1,.985,1.343,1.453,1.453,0,0,1-.164.805,1.593,1.593,0,0,1-2.967-.237,1.454,1.454,0,0,1-.034-.821,1.652,1.652,0,0,1,1.185-1.17,1.044,1.044,0,0,1,.274-.032c.063,0,.1.006.1.011" transform="translate(-87.988 -130.75)" fill="#263238"/>
        <path id="Trazado_47091" data-name="Trazado 47091" d="M62.484,246.087,33.272,240.8l-13.634,2.99,30.513,5.494Z" transform="translate(-13.276 -162.785)" fill="#e8505b"/>
        <g id="Grupo_196044" data-name="Grupo 196044" transform="translate(6.363 78.017)" opacity="0.6">
          <g id="Grupo_196043" data-name="Grupo 196043">
            <g id="Grupo_196042" data-name="Grupo 196042" clip-path="url(#clip-path-12)">
              <path id="Trazado_47092" data-name="Trazado 47092" d="M62.484,246.087,33.272,240.8l-13.634,2.99,30.513,5.494Z" transform="translate(-19.638 -240.802)"/>
            </g>
          </g>
        </g>
        <path id="Trazado_47093" data-name="Trazado 47093" d="M94.234,231.8c.4-5.384,1.873-19.058,2.98-24.342a12.2,12.2,0,0,1,1.633-4.527,4.439,4.439,0,0,1,4.1-2.071,4.389,4.389,0,0,1,3.149,2.7,9.6,9.6,0,0,1,.735,4.237c-.275,6.531-.839,13.848-.834,19.9" transform="translate(-63.703 -135.757)" fill="#ffcc51"/>
        <path id="Trazado_47094" data-name="Trazado 47094" d="M110.116,256.851c.006.026-.415.134-1.083.343a21.75,21.75,0,0,0-4.967,2.252c-.6.365-.956.61-.972.589s.075-.081.23-.2.385-.29.677-.486a17.05,17.05,0,0,1,5-2.267c.34-.09.619-.154.813-.189a1.081,1.081,0,0,1,.3-.039" transform="translate(-69.693 -173.632)" fill="#263238"/>
        <path id="Trazado_47095" data-name="Trazado 47095" d="M111.461,237.666c.006.028-.439.125-1.139.341a15.386,15.386,0,0,0-5.031,2.645c-.575.454-.907.765-.927.745a1.176,1.176,0,0,1,.21-.243c.142-.15.36-.354.641-.595a13.124,13.124,0,0,1,5.073-2.667c.357-.095.649-.158.853-.191a1.185,1.185,0,0,1,.319-.036" transform="translate(-70.551 -160.662)" fill="#263238"/>
        <path id="Trazado_47096" data-name="Trazado 47096" d="M113.012,222.2c0,.029-.346.045-.894.145a7.731,7.731,0,0,0-3.832,1.909c-.41.376-.632.644-.654.626s.038-.081.132-.208a4.7,4.7,0,0,1,.439-.5,6.808,6.808,0,0,1,3.9-1.94,4.651,4.651,0,0,1,.667-.047.7.7,0,0,1,.245.019" transform="translate(-72.76 -150.193)" fill="#263238"/>
        <path id="Trazado_47097" data-name="Trazado 47097" d="M83.509,243.733a.142.142,0,0,0,.005.028v18.693c0,.819-.66,1.667-1.875,2.308a11.353,11.353,0,0,1-5.191,1.083H76.42c-4.423-.009-7.066-1.748-7.066-3.391V243.761a.151.151,0,0,0,0-.028c0-.009,0-.023,0-.037.01-1.828,1.353-3.736,2.7-5.62a7.979,7.979,0,0,0,1.168-4.136c0-.127.01-.24.01-.344h-.122a.988.988,0,0,1-1.055-.9V231.9a.988.988,0,0,1,1.055-.909h6.641a1.073,1.073,0,0,1,.975.551.846.846,0,0,1,.08.358v.791a.988.988,0,0,1-1.056.9h-.122c0,.1,0,.217.009.344a7.984,7.984,0,0,0,1.168,4.136c1.352,1.885,2.694,3.792,2.7,5.62,0,.014-.005.028-.005.037" transform="translate(-46.884 -156.153)" fill="#fafafa"/>
        <path id="Trazado_47098" data-name="Trazado 47098" d="M83.334,243.579a1.8,1.8,0,0,0-.01-.191,4.5,4.5,0,0,0-.069-.559,7.188,7.188,0,0,0-.773-2.027,27.523,27.523,0,0,0-1.913-2.9,5.943,5.943,0,0,1-.867-2.01,10.957,10.957,0,0,1-.3-2.449v-.057l.056,0a1.22,1.22,0,0,0,.706-.162.84.84,0,0,0,.406-.587c.015-.249,0-.531.006-.8a.8.8,0,0,0-.288-.69,1.109,1.109,0,0,0-.75-.247h-.871l-1.8,0-3.826,0a1.106,1.106,0,0,0-.861.307.782.782,0,0,0-.209.406,4.422,4.422,0,0,0-.011.5c0,.167-.005.352.006.505a.769.769,0,0,0,.2.42,1.106,1.106,0,0,0,.9.322l.077,0v.081a11.3,11.3,0,0,1-.249,2.266A6.243,6.243,0,0,1,72,237.888c-.456.65-.928,1.3-1.359,1.982a10.59,10.59,0,0,0-1.1,2.182,5.041,5.041,0,0,0-.263,1.2c-.021.407-.012.839-.014,1.263q0,1.277,0,2.578,0,2.6,0,5.292c0,3.148,0,6.222,0,9.19a5.573,5.573,0,0,0,.05,1.084,2.113,2.113,0,0,0,.51.914,5,5,0,0,0,1.745,1.188,9.724,9.724,0,0,0,2.009.6,13.363,13.363,0,0,0,2.043.232,14.024,14.024,0,0,0,3.935-.358,8.6,8.6,0,0,0,1.776-.644,4.537,4.537,0,0,0,1.446-1.086,2.226,2.226,0,0,0,.425-.757,2.844,2.844,0,0,0,.07-.859q0-.878,0-1.722,0-1.689.006-3.238c.011-4.122.02-7.459.027-9.771s.028-3.582.028-3.582a.921.921,0,0,1,.014.235q0,.242.008.691c0,.613.009,1.507.016,2.656.006,2.312.016,5.649.027,9.771q0,1.547.006,3.238,0,.844,0,1.722v.442a1.778,1.778,0,0,1-.073.456,2.367,2.367,0,0,1-.449.806,4.665,4.665,0,0,1-1.488,1.126,8.718,8.718,0,0,1-1.805.659,14.167,14.167,0,0,1-3.977.37,13.552,13.552,0,0,1-2.067-.232,9.907,9.907,0,0,1-2.043-.607,5.145,5.145,0,0,1-1.8-1.228,2.273,2.273,0,0,1-.548-.983,5.634,5.634,0,0,1-.056-1.123c0-2.969,0-6.042,0-9.19q0-2.686,0-5.292,0-1.3,0-2.578c0-.429-.008-.843.015-1.276A5.188,5.188,0,0,1,69.383,242a10.715,10.715,0,0,1,1.121-2.215c.435-.69.911-1.342,1.365-1.986a6.091,6.091,0,0,0,.866-2.125,11.15,11.15,0,0,0,.249-2.232l.076.076a1.256,1.256,0,0,1-1.009-.373.919.919,0,0,1-.237-.5c-.013-.19,0-.349-.006-.524a4.285,4.285,0,0,1,.015-.522.928.928,0,0,1,.249-.481,1.25,1.25,0,0,1,.965-.35l3.826.005,1.8,0h.871a1.233,1.233,0,0,1,.829.279.921.921,0,0,1,.329.784c0,.277.008.536-.01.817a.955.955,0,0,1-.462.667,1.333,1.333,0,0,1-.765.176l.055-.055a8.1,8.1,0,0,0,1.127,4.41,26.923,26.923,0,0,1,1.895,2.922,7.026,7.026,0,0,1,.75,2.05,3.911,3.911,0,0,1,.054.564.558.558,0,0,1-.005.192" transform="translate(-46.708 -155.998)" fill="#263238"/>
        <path id="Trazado_47099" data-name="Trazado 47099" d="M87.581,238.715a25.987,25.987,0,0,1-2.957.084,25.985,25.985,0,0,1-2.957-.084,25.97,25.97,0,0,1,2.957-.084,25.971,25.971,0,0,1,2.957.084" transform="translate(-55.208 -161.317)" fill="#263238"/>
        <path id="Trazado_47100" data-name="Trazado 47100" d="M84.163,275.709a2.12,2.12,0,0,0-2.026.086,7.632,7.632,0,0,1-1.944.842,3.745,3.745,0,0,1-2.375-.608,14.678,14.678,0,0,0-2.2-1.2,4.287,4.287,0,0,0-4.419,1.041v16.052s.882,2.739,7.09,2.308S84,291.06,84,291.06Z" transform="translate(-48.129 -185.631)" fill="#e8505b"/>
        <path id="Trazado_47101" data-name="Trazado 47101" d="M51.516,233.443a4.55,4.55,0,0,0-3.834-5.2.454.454,0,0,0-.326.038.463.463,0,0,0-.121.438,5.5,5.5,0,0,0,4.275,4.849" transform="translate(-31.928 -154.29)" fill="#456447"/>
        <path id="Trazado_47102" data-name="Trazado 47102" d="M38.712,251.725c1.148,2.365,2.8,3.959,4.84,4.036.409.014.717-.254,1.107-.277a2.5,2.5,0,0,1,.654.246.91.91,0,0,0,.341.077c2.111-.113,3.91-1.6,5.122-4.082,1.688-3.478,1.167-7.214-1.163-8.349a5.544,5.544,0,0,0-.953-.373,3.918,3.918,0,0,0-1.158-.136,8.66,8.66,0,0,0-2.647.6l-.113.041a5.429,5.429,0,0,0-4.871-.132c-2.329,1.135-2.847,4.871-1.158,8.349" transform="translate(-25.498 -164.177)" fill="#ff001d"/>
        <path id="Trazado_47103" data-name="Trazado 47103" d="M40.443,250.367a1.752,1.752,0,0,1-.2-.7,3.765,3.765,0,0,1,1.182-3.2,1.753,1.753,0,0,1,.6-.4c.017.025-.215.176-.521.489a4.115,4.115,0,0,0-1.147,3.1c.028.436.106.7.077.71" transform="translate(-27.188 -166.342)" fill="#fafafa"/>
        <path id="Trazado_47104" data-name="Trazado 47104" d="M41.792,262.841c-.045.01-.122-.153-.171-.366s-.052-.393-.006-.4.122.153.171.366.052.393.006.4" transform="translate(-28.11 -177.163)" fill="#fafafa"/>
        <path id="Trazado_47105" data-name="Trazado 47105" d="M64.545,226.743c.012.03-.436.2-1.092.592a8.724,8.724,0,0,0-1.09.778,8.715,8.715,0,0,0-2.065,2.524,8.717,8.717,0,0,0-.547,1.222c-.256.721-.332,1.193-.364,1.187a1.277,1.277,0,0,1,.034-.334,3.155,3.155,0,0,1,.077-.387c.038-.149.074-.321.139-.5a7.752,7.752,0,0,1,.523-1.257,8.189,8.189,0,0,1,2.1-2.57,7.769,7.769,0,0,1,1.129-.761c.166-.1.328-.169.467-.236a3.178,3.178,0,0,1,.364-.153,1.271,1.271,0,0,1,.321-.1" transform="translate(-40.144 -153.28)" fill="#263238"/>
        <path id="Trazado_47106" data-name="Trazado 47106" d="M11.977,250.032,8.3,296.339l34.214,8.271s11.933-4.046,12.1-4.323.207-47.961.207-47.961l-12.333,3.2Z" transform="translate(-5.614 -169.025)" fill="#e8505b"/>
        <g id="Grupo_196048" data-name="Grupo 196048" transform="translate(2.691 81.007)" opacity="0.4">
          <g id="Grupo_196046" data-name="Grupo 196046">
            <g id="Grupo_196045" data-name="Grupo 196045" clip-path="url(#clip-path-13)">
              <path id="Trazado_47107" data-name="Trazado 47107" d="M11.977,250.032,8.3,296.339l34.214,8.271s11.933-4.046,12.1-4.323.207-47.961.207-47.961l-12.333,3.2Z" transform="translate(-8.305 -250.032)" fill="#ff001d"/>
            </g>
          </g>
          <g id="Grupo_196047" data-name="Grupo 196047" transform="matrix(0.998, 0.07, -0.07, 0.998, 5.38, 15.691)" style="mix-blend-mode: normal;isolation: isolate">
            <path id="Trazado_47108" data-name="Trazado 47108" d="M0,12.831c-.016-.078.034-.132.063-.19.373-.765.753-1.526,1.119-2.294a.291.291,0,0,1,.312-.185c1.635,0,3.27,0,4.9,0a1.74,1.74,0,0,0,.471-.041A1.241,1.241,0,0,0,7.7,9.437c.109-.231.209-.467.309-.7.064-.151.059-.158-.116-.159-.557,0-1.115,0-1.673,0-.889,0-1.778-.005-2.667,0a.976.976,0,0,1-.965-.818A1.031,1.031,0,0,1,2.7,7.125Q3.368,5.7,4.031,4.282c.383-.818.757-1.641,1.153-2.453A3.008,3.008,0,0,1,8.022.008c1.62-.018,3.24,0,4.86-.008A1.5,1.5,0,0,1,14.39,1.411a1.65,1.65,0,0,1-.182.805Q13.473,3.756,12.746,5.3q-1.286,2.715-2.571,5.431a3.557,3.557,0,0,1-2.636,2.06,3.286,3.286,0,0,1-.651.063H.2A.36.36,0,0,1,0,12.831ZM7.9,5.893c.309,0,.617,0,.926,0a.832.832,0,0,0,.794-.5q.518-1.077,1.022-2.161a.358.358,0,0,0-.351-.549q-.948-.006-1.9,0a.817.817,0,0,0-.777.487Q7.093,4.247,6.59,5.332a.362.362,0,0,0,.359.561C7.265,5.9,7.581,5.893,7.9,5.893Z" transform="translate(0 0)" fill="#fff"/>
            <path id="Trazado_47109" data-name="Trazado 47109" d="M0,12.844c-.021-.092.036-.152.068-.217.37-.758.745-1.513,1.11-2.274a.292.292,0,0,1,.307-.194c1.643.006,3.286,0,4.929,0a1.715,1.715,0,0,0,.427-.034,1.193,1.193,0,0,0,.8-.609c.152-.293.275-.6.414-.91a.383.383,0,0,0-.248-.036q-2.069,0-4.137,0a1.59,1.59,0,0,1-.36-.023.972.972,0,0,1-.7-1.206,1.521,1.521,0,0,1,.082-.21q1.24-2.65,2.482-5.3A3.075,3.075,0,0,1,7.539.035,2.384,2.384,0,0,1,7.967,0C9.61,0,11.253.01,12.9,0a1.5,1.5,0,0,1,1.493,1.6,1.7,1.7,0,0,1-.178.6Q12.5,5.811,10.8,9.416c-.213.449-.421.9-.639,1.347a3.557,3.557,0,0,1-2.613,2.024,3.036,3.036,0,0,1-.606.064H.135C.091,12.85.047,12.846,0,12.844ZM9.325,2.681h0c-.316,0-.632,0-.948,0a.8.8,0,0,0-.748.46c-.36.736-.705,1.48-1.057,2.22a.351.351,0,0,0-.006.326.374.374,0,0,0,.371.205c.632,0,1.264,0,1.9,0A.818.818,0,0,0,9.61,5.4q.52-1.077,1.024-2.16c.147-.316-.011-.556-.361-.56C9.958,2.678,9.641,2.681,9.325,2.681Z" transform="translate(10.246 0.001)" fill="#fff"/>
          </g>
        </g>
        <path id="Trazado_47110" data-name="Trazado 47110" d="M133.052,56.165,131.144,83.19a8.426,8.426,0,0,1-16.813-1.145c.169-2.572.322-4.679.322-4.679s-6.542-1.017-6.623-7.559c-.047-3.778.605-12.351,1.164-18.92a8.579,8.579,0,0,1,8.551-7.849H121.7a12.106,12.106,0,0,1,11.355,13.126" transform="translate(-73.028 -29.095)" fill="#ffbe9d"/>
        <path id="Trazado_47111" data-name="Trazado 47111" d="M128.234,143.737a15.8,15.8,0,0,0,8.517-2.518s-2.107,4.759-8.634,4.17Z" transform="translate(-86.609 -95.466)" fill="#eb996e"/>
        <path id="Trazado_47112" data-name="Trazado 47112" d="M115.386,86.042c.116.122.823-.4,1.829-.4s1.741.505,1.851.382c.054-.055-.064-.274-.386-.508a2.562,2.562,0,0,0-1.482-.457,2.462,2.462,0,0,0-1.456.47c-.309.237-.414.458-.357.512" transform="translate(-77.992 -57.502)" fill="#263238"/>
        <path id="Trazado_47113" data-name="Trazado 47113" d="M149,89.891a.934.934,0,0,0,.9.942.894.894,0,0,0,.963-.842.935.935,0,0,0-.9-.943.9.9,0,0,0-.964.843" transform="translate(-100.725 -60.197)" fill="#263238"/>
        <path id="Trazado_47114" data-name="Trazado 47114" d="M118.215,89.891a.934.934,0,0,0,.9.942.894.894,0,0,0,.963-.842.935.935,0,0,0-.9-.943.9.9,0,0,0-.964.843" transform="translate(-79.914 -60.197)" fill="#263238"/>
        <path id="Trazado_47115" data-name="Trazado 47115" d="M145.574,86.042c.116.122.825-.4,1.829-.4s1.742.505,1.851.382c.053-.054-.064-.274-.386-.508a2.565,2.565,0,0,0-1.482-.457,2.463,2.463,0,0,0-1.456.47c-.308.237-.414.458-.357.512" transform="translate(-98.4 -57.502)" fill="#263238"/>
        <path id="Trazado_47116" data-name="Trazado 47116" d="M129,93.624a6.67,6.67,0,0,0-1.633-.295c-.257-.027-.5-.077-.543-.253a1.305,1.305,0,0,1,.171-.761l.759-1.955a33.565,33.565,0,0,0,1.7-5.113,33.689,33.689,0,0,0-2.112,4.963c-.254.687-.5,1.34-.727,1.966a1.485,1.485,0,0,0-.133,1.008.643.643,0,0,0,.422.375,1.731,1.731,0,0,0,.436.061,6.533,6.533,0,0,0,1.655,0" transform="translate(-85.475 -57.629)" fill="#263238"/>
        <path id="Trazado_47117" data-name="Trazado 47117" d="M136.791,113.247c-.164-.01-.166,1.082-1.1,1.856s-2.1.654-2.1.807c-.015.068.259.212.75.225a2.718,2.718,0,0,0,1.756-.612,2.366,2.366,0,0,0,.852-1.556c.041-.456-.08-.726-.155-.72" transform="translate(-90.307 -76.556)" fill="#263238"/>
        <path id="Trazado_47118" data-name="Trazado 47118" d="M144.793,76.434c.1.273,1.1.144,2.282.286,1.182.118,2.133.464,2.29.219.07-.117-.1-.375-.48-.639a4,4,0,0,0-3.483-.384c-.433.174-.651.389-.608.519" transform="translate(-97.878 -51.161)" fill="#263238"/>
        <path id="Trazado_47119" data-name="Trazado 47119" d="M115.8,77.037c.177.228.869-.009,1.7-.02.832-.04,1.538.154,1.7-.086.071-.116-.04-.344-.348-.56a2.465,2.465,0,0,0-2.741.085c-.294.235-.391.47-.313.581" transform="translate(-78.262 -51.374)" fill="#263238"/>
        <path id="Trazado_47120" data-name="Trazado 47120" d="M177.926,98.276c.111-.048,4.494-1.329,4.352,3.143s-4.6,3.406-4.607,3.277.255-6.42.255-6.42" transform="translate(-120.108 -66.297)" fill="#ffbe9d"/>
        <path id="Trazado_47121" data-name="Trazado 47121" d="M182.045,106.1c.02-.014.076.057.206.121a.78.78,0,0,0,.582.031,1.929,1.929,0,0,0,.947-1.7,2.568,2.568,0,0,0-.182-1.123.9.9,0,0,0-.567-.617.4.4,0,0,0-.467.2c-.064.123-.038.214-.062.22s-.094-.078-.052-.261a.5.5,0,0,1,.185-.274.59.59,0,0,1,.435-.1,1.1,1.1,0,0,1,.792.72,2.644,2.644,0,0,1,.23,1.255,2.023,2.023,0,0,1-1.2,1.9.835.835,0,0,1-.709-.141c-.135-.115-.155-.215-.14-.223" transform="translate(-123.061 -69.351)" fill="#eb996e"/>
        <path id="Trazado_47122" data-name="Trazado 47122" d="M143.221,59.064a2.351,2.351,0,0,0-2.153,1.1c-.291.639-.355,1.362-.645,2a1.581,1.581,0,0,1-1.628,1.056,1.376,1.376,0,0,1-.932-1.021,3.781,3.781,0,0,1-.013-1.442c.263-2.089.7-4.16.787-6.263a10.746,10.746,0,0,0-1.32-6.081,5.876,5.876,0,0,0-5.231-2.941c-1.39.112-2.664.837-4.045,1.03a5.463,5.463,0,0,1-4.539-1.515c-.15-.149-.848-.61-.848-.61a2.572,2.572,0,0,1,.47-1.383c2.739-2.533,7.676-3.241,11.294-2.33a13.05,13.05,0,0,1,8.567,6.856c1.557,3.391,1.095,8.107.237,11.539" transform="translate(-82.914 -27.236)" fill="#263238"/>
        <path id="Trazado_47123" data-name="Trazado 47123" d="M108.1,57.742a4.27,4.27,0,0,0,3.553,2.3,11.8,11.8,0,0,0,4.365-.636,34.1,34.1,0,0,1,6.721-.992c.222.006.487,0,.6-.185.156-.248-.094-.549-.324-.729-1.95-1.527-6.663-2.464-9.137-2.568a7.281,7.281,0,0,0-6.413,3.042" transform="translate(-72.654 -37.13)" fill="#263238"/>
        <path id="Trazado_47124" data-name="Trazado 47124" d="M111.4,45.45s17.161-5.521,24.584,9.326a27.842,27.842,0,0,0,1.11-5.707c0-1.33-.8-9.252-8.947-11.744,0,0-12.28-4.687-16.747,8.126" transform="translate(-75.31 -24.666)" fill="#e8505b"/>
        <g id="Grupo_196051" data-name="Grupo 196051" transform="translate(36.094 11.821)" opacity="0.4">
          <g id="Grupo_196050" data-name="Grupo 196050">
            <g id="Grupo_196049" data-name="Grupo 196049" clip-path="url(#clip-path-14)">
              <path id="Trazado_47125" data-name="Trazado 47125" d="M111.4,45.45a7.974,7.974,0,0,1,5.457-2.478,21.555,21.555,0,0,1,19.127,11.8,27.842,27.842,0,0,0,1.11-5.707c0-1.33-.8-9.252-8.947-11.744,0,0-12.28-4.687-16.747,8.126" transform="translate(-111.404 -36.487)"/>
            </g>
          </g>
        </g>
        <path id="Trazado_47126" data-name="Trazado 47126" d="M117.887,53.794a32.319,32.319,0,0,0-10-9.576,63.093,63.093,0,0,0-14.963-6.095,9.773,9.773,0,0,0-4.132-.433A3.725,3.725,0,0,0,85.729,40.2c-.427,1.695,2.58,4.31,3.994,5.338a46.34,46.34,0,0,0,4.3,2.537s-.039-3.143,4.992-3.791c6.844-.882,18.875,9.513,18.875,9.513" transform="translate(-57.926 -25.422)" fill="#ff001d"/>
        <path id="Trazado_47127" data-name="Trazado 47127" d="M131.29,42.784a16.189,16.189,0,0,0-4.956-1.687,6.4,6.4,0,0,1,1.347-.808,12.78,12.78,0,0,1,3.862,1.3Z" transform="translate(-85.403 -27.236)" fill="#fafafa"/>
        <path id="Trazado_47128" data-name="Trazado 47128" d="M199.384,183.887a19.12,19.12,0,0,0-4.173,12.823c.072,1.035.123,2.477.25,3.508.791,6.4,2.014,12.341,2.014,12.341h.446l16.358-4.039s-2.465-14.2-3.031-16.086c-1.813-6.035-8.03-9.356-8.03-9.356Z" transform="translate(-131.938 -123.763)" fill="#ff001d"/>
        <path id="Trazado_47129" data-name="Trazado 47129" d="M125.752,304.849s-.005-.082-.007-.241,0-.4,0-.71c0-.629,0-1.551,0-2.739,0-2.388.01-5.846.018-10.148.03-8.613.073-20.6.12-34.123l.1.082-6.223,1.615-6.109,1.585.063-.082c.083,6.779.061,13.174.029,18.953s-.066,10.94-.091,15.258-.017,7.784-.006,10.174c.005,1.192.009,2.115.012,2.746v.712c0,.16-.006.242-.006.242s-.006-.082-.011-.242-.009-.4-.016-.712c-.009-.631-.023-1.554-.041-2.746-.03-2.39-.048-5.858-.046-10.175s.034-9.48.054-15.258.039-12.173-.047-18.95v-.066l.063-.017,6.109-1.586,6.223-1.614.105-.027v.109c-.069,13.521-.131,25.51-.175,34.123-.03,4.3-.053,7.759-.069,10.147-.012,1.188-.021,2.11-.027,2.739q-.007.464-.011.71c0,.16-.009.241-.009.241" transform="translate(-76.751 -173.586)" fill="#263238"/>
        <path id="Trazado_47130" data-name="Trazado 47130" d="M119.8,149.535s-.655,6.224,1.446,7.193c2.363,1.089,4.716.025,6.164-.9,3.858-2.462,9.595-9.3,9.595-9.3l3.877,5.049s-9.79,11.765-11.757,11.689c-1.283-.05-3.288-1.307-4.527-2.176a8.493,8.493,0,0,1-1.8-1.706l-1.693-2.154a12.766,12.766,0,0,0-5.009,4.1s-.565-4.358.449-6.337,3.036-5.386,3.036-5.386Z" transform="translate(-78.37 -99.053)" fill="#ef1019"/>
        <path id="Trazado_47131" data-name="Trazado 47131" d="M115.963,165.926a.557.557,0,0,1-.039.107l-.126.305a6.852,6.852,0,0,0-.29,1.235,19.358,19.358,0,0,0,0,4.667l-.115-.023a8.6,8.6,0,0,1,2.1-2.391,15.726,15.726,0,0,1,3.1-1.967l.053-.026.04.047c.682.794,1.4,1.621,2.168,2.459a15.42,15.42,0,0,0,2.555,2.358,6.4,6.4,0,0,0,1.454.769,4.767,4.767,0,0,0,.776.21,3.349,3.349,0,0,0,.786.029,4.914,4.914,0,0,0,2.683-1.335l-.006.006,6.7-7.146,1.943-2.05.523-.542.137-.137a.241.241,0,0,1,.05-.043.237.237,0,0,1-.04.053l-.127.147-.5.56-1.909,2.082-6.657,7.187,0,0,0,0a7.042,7.042,0,0,1-1.248.893,3.9,3.9,0,0,1-1.525.489,3.509,3.509,0,0,1-.827-.03,4.917,4.917,0,0,1-.806-.217,6.575,6.575,0,0,1-1.493-.789,15.5,15.5,0,0,1-2.582-2.385c-.765-.841-1.485-1.67-2.166-2.468l.093.021a15.715,15.715,0,0,0-3.077,1.934,8.531,8.531,0,0,0-2.081,2.34l-.1.168-.018-.191a18.66,18.66,0,0,1,.052-4.692,6.3,6.3,0,0,1,.324-1.237c.059-.134.111-.233.144-.3a.558.558,0,0,1,.055-.1" transform="translate(-77.924 -109.822)" fill="#263238"/>
        <g id="Grupo_196054" data-name="Grupo 196054" transform="translate(38.215 53.308)" opacity="0.3">
          <g id="Grupo_196053" data-name="Grupo 196053">
            <g id="Grupo_196052" data-name="Grupo 196052" clip-path="url(#clip-path-15)">
              <path id="Trazado_47132" data-name="Trazado 47132" d="M118.015,172.58a.829.829,0,0,0,.239.947.788.788,0,0,0,.805-.144,2.954,2.954,0,0,0,.545-.665,7.16,7.16,0,0,1,1.383-1.484,1.809,1.809,0,0,1,1.838-.477,2.071,2.071,0,0,1,.81,1.031,9.661,9.661,0,0,0,3.378,4.3,6.457,6.457,0,0,0,5.388.373,10.629,10.629,0,0,0,4.445-3.262,31.257,31.257,0,0,0,3.074-4.646,11.976,11.976,0,0,0,1.7-4.017c-.2.114-.674.841-.877.954,0,0-7.55,8.318-8.261,8.745s-2.666,3.3-8.211-2.909l-1.833-1.989s-3.491,1.69-4.428,3.241" transform="translate(-117.952 -164.537)"/>
            </g>
          </g>
        </g>
        <rect id="Rectángulo_150328" data-name="Rectángulo 150328" width="2.536" height="8.401" transform="matrix(0.152, -0.988, 0.988, 0.152, 49.823, 80.524)" fill="#fff"/>
        <path id="Trazado_47133" data-name="Trazado 47133" d="M149.413,262.575l-12.974,3.132,1.5,12.226-24.816,18.638c-.993.139-2.008.3-2.573.44-1.357.339-3.754,3.744-4.433,4.083l-4.836,3.733s-.424,1.7,1.782,1.358,4.666-2.036,4.921-2.036,1.027.517.662,1.612c-.325.974-1.655,4.314-1.655,4.314l-1.64,3.014s7.1.232,9.087-2.4c1.348-1.788,5.5-6.86,5.5-6.86s29.211-14.371,30.965-17.38c2.381-4.085-1.486-23.872-1.486-23.872" transform="translate(-68.443 -177.504)" fill="#ffbe9d"/>
        <path id="Trazado_47134" data-name="Trazado 47134" d="M219.407,314.911a8.092,8.092,0,0,0-.058-1.336,4.653,4.653,0,0,0-4.39-3.972,8.078,8.078,0,0,0-1.335.075,1.264,1.264,0,0,1,.349-.106,4.141,4.141,0,0,1,.991-.088,4.614,4.614,0,0,1,4.5,4.074,4.152,4.152,0,0,1,.011,1,1.256,1.256,0,0,1-.071.358" transform="translate(-144.412 -209.214)" fill="#eb996e"/>
        <path id="Trazado_47135" data-name="Trazado 47135" d="M125.543,404.422a3.76,3.76,0,0,1-.17.818,8.693,8.693,0,0,1-.717,1.89,3.79,3.79,0,0,1-1.367,1.493,2.066,2.066,0,0,1-.574.233.515.515,0,0,1-.226.024,5.343,5.343,0,0,0,.737-.358,4.07,4.07,0,0,0,1.281-1.472,11.3,11.3,0,0,0,.751-1.843,4.51,4.51,0,0,1,.285-.784" transform="translate(-82.804 -273.394)" fill="#eb996e"/>
        <path id="Trazado_47136" data-name="Trazado 47136" d="M136.889,400.933a3.405,3.405,0,0,1-.25.789,15.58,15.58,0,0,1-1.923,3.492,3.443,3.443,0,0,1-.533.634,4.877,4.877,0,0,1,.434-.7c.278-.425.65-1.02,1.024-1.7s.676-1.311.887-1.773a4.942,4.942,0,0,1,.361-.743" transform="translate(-90.708 -271.035)" fill="#eb996e"/>
        <path id="Trazado_47137" data-name="Trazado 47137" d="M139.109,335.64a1.953,1.953,0,0,1,.058.412c.028.266.052.653.065,1.131a22.318,22.318,0,0,1-1.069,7.375c-.148.455-.281.819-.383,1.067a1.949,1.949,0,0,1-.172.378,1.968,1.968,0,0,1,.111-.4c.083-.253.2-.622.331-1.079a26.3,26.3,0,0,0,1.064-7.339c0-.476,0-.862-.011-1.129a1.983,1.983,0,0,1,.008-.416" transform="translate(-93.023 -226.897)" fill="#263238"/>
        <path id="Trazado_47138" data-name="Trazado 47138" d="M120.565,347.65a8,8,0,0,1,.41,1.02c.238.634.572,1.509.963,2.466s.767,1.814,1.042,2.434a8.076,8.076,0,0,1,.423,1.014,6.347,6.347,0,0,1-.531-.964c-.3-.608-.7-1.46-1.09-2.42s-.71-1.844-.92-2.49a6.372,6.372,0,0,1-.3-1.059" transform="translate(-81.501 -235.015)" fill="#263238"/>
        <path id="Trazado_47139" data-name="Trazado 47139" d="M71.863,370.259a.988.988,0,0,1-.2.06l-.594.141c-.258.062-.575.132-.946.195s-.792.152-1.263.211-.985.139-1.541.186c-.555.064-1.15.092-1.777.129a33.857,33.857,0,0,1-8.126-.62c-.614-.132-1.2-.249-1.737-.4-.543-.131-1.041-.279-1.495-.418s-.86-.279-1.216-.4-.66-.236-.906-.336l-.566-.23a1.04,1.04,0,0,1-.193-.09,1.009,1.009,0,0,1,.205.059l.576.2c.248.091.554.2.913.308s.763.253,1.22.375.953.272,1.495.4c.538.141,1.121.253,1.733.38a35.614,35.614,0,0,0,8.09.617c.624-.033,1.218-.055,1.771-.113.554-.04,1.068-.1,1.537-.165s.891-.129,1.263-.185.69-.114.95-.166l.6-.11a1.014,1.014,0,0,1,.212-.027" transform="translate(-34.679 -249.238)" fill="#263238"/>
        <path id="Trazado_47140" data-name="Trazado 47140" d="M104.7,352.737a17.3,17.3,0,0,1-3-1.631,17.253,17.253,0,0,1,3,1.631" transform="translate(-68.755 -237.349)" fill="#263238"/>
        <path id="Trazado_47141" data-name="Trazado 47141" d="M214.2,210.728a.382.382,0,0,1-.08.027l-.239.064-.929.237-3.485.862-12.053,2.928-.085.021-.013-.087c-.342-2.226-.807-4.628-1.257-7.128-.3-1.668-.552-3.3-.726-4.894s-.255-3.133-.275-4.6a24.7,24.7,0,0,1,.243-4.166,12.038,12.038,0,0,1,1.062-3.476,8.755,8.755,0,0,1,1.787-2.407,7.062,7.062,0,0,1,1.871-1.275,6.059,6.059,0,0,1,1.366-.429c.162-.024.286-.037.37-.047a.7.7,0,0,1,.126-.009.693.693,0,0,1-.124.027l-.365.063a6.477,6.477,0,0,0-1.345.455,7.128,7.128,0,0,0-1.833,1.284,8.731,8.731,0,0,0-1.745,2.392,11.987,11.987,0,0,0-1.031,3.445,24.851,24.851,0,0,0-.225,4.143c.025,1.464.11,3,.284,4.585s.433,3.217.728,4.883c.449,2.5.912,4.9,1.25,7.133l-.1-.066,12.067-2.87,3.5-.816.935-.211.242-.051a.38.38,0,0,1,.083-.013" transform="translate(-131.861 -125.971)" fill="#263238"/>
        <g id="Grupo_196055" data-name="Grupo 196055" transform="translate(51.96 72.885) rotate(7)">
          <path id="Trazado_47142" data-name="Trazado 47142" d="M0,3.743c0-.023.01-.039.018-.056.109-.223.22-.445.327-.669a.085.085,0,0,1,.091-.054c.477,0,.953,0,1.43,0A.508.508,0,0,0,2,2.953a.362.362,0,0,0,.24-.2c.032-.067.061-.136.09-.205C2.354,2.5,2.352,2.5,2.3,2.5H1.814c-.259,0-.519,0-.778,0a.285.285,0,0,1-.282-.239.3.3,0,0,1,.033-.185c.13-.276.259-.553.389-.829C1.288,1.01,1.4.77,1.512.533A.878.878,0,0,1,2.34,0C2.812,0,3.285,0,3.757,0A.438.438,0,0,1,4.2.412a.481.481,0,0,1-.054.235q-.214.449-.426.9-.375.792-.75,1.584a1.037,1.037,0,0,1-.769.6.953.953,0,0,1-.19.018H.058A.1.1,0,0,1,0,3.743ZM2.3,1.719h.27A.243.243,0,0,0,2.8,1.573q.151-.314.3-.63A.1.1,0,0,0,3,.783q-.276,0-.553,0a.238.238,0,0,0-.227.142q-.152.314-.3.63a.106.106,0,0,0,.1.163C2.119,1.72,2.211,1.719,2.3,1.719Z" transform="translate(0 0)" fill="#fff"/>
          <path id="Trazado_47143" data-name="Trazado 47143" d="M0,3.746C0,3.719.012,3.7.021,3.683c.108-.221.217-.442.324-.663a.085.085,0,0,1,.09-.056c.479,0,.958,0,1.438,0A.5.5,0,0,0,2,2.955a.348.348,0,0,0,.235-.178c.044-.085.08-.175.121-.265A.113.113,0,0,0,2.28,2.5H1.073a.464.464,0,0,1-.105-.007.283.283,0,0,1-.205-.352.471.471,0,0,1,.024-.061c.241-.515.481-1.031.724-1.546A.9.9,0,0,1,2.2.01.69.69,0,0,1,2.324,0C2.8,0,3.282,0,3.761,0A.437.437,0,0,1,4.2.468a.5.5,0,0,1-.052.176l-1,2.1c-.062.131-.123.263-.186.393a1.037,1.037,0,0,1-.762.59.868.868,0,0,1-.177.019H.039ZM2.72.782h0c-.092,0-.184,0-.277,0a.234.234,0,0,0-.218.134c-.105.215-.206.432-.308.647a.1.1,0,0,0,0,.095.109.109,0,0,0,.108.06c.184,0,.369,0,.553,0A.238.238,0,0,0,2.8,1.576q.152-.314.3-.63C3.145.854,3.1.783,3,.782S2.812.782,2.72.782Z" transform="translate(2.988 0)" fill="#fff"/>
        </g>
      </g>
    </g>
  </g>
</svg>
