<?xml version="1.0" ?>
<svg xmlns="http://www.w3.org/2000/svg" width="25" height="7" viewBox="0 0 25 7">
  <path d="M3.5,6.75C1.705,6.75 0.25,5.295 0.25,3.5S1.705,0.25 3.5,0.25 6.75,1.705 6.75,3.5 5.295,6.75 3.5,6.75zM3.5,5.25c0.966,0 1.75,-0.784 1.75,-1.75S4.466,1.75 3.5,1.75s-1.75,0.784 -1.75,1.75 0.784,1.75 1.75,1.75zM12.5,6.75c-1.795,0 -3.25,-1.455 -3.25,-3.25S10.705,0.25 12.5,0.25s3.25,1.455 3.25,3.25 -1.455,3.25 -3.25,3.25zM12.5,5.25c0.966,0 1.75,-0.784 1.75,-1.75s-0.784,-1.75 -1.75,-1.75 -1.75,0.784 -1.75,1.75 0.784,1.75 1.75,1.75zM21.5,6.75c-1.795,0 -3.25,-1.455 -3.25,-3.25S19.705,0.25 21.5,0.25s3.25,1.455 3.25,3.25 -1.455,3.25 -3.25,3.25zM21.5,5.25c0.966,0 1.75,-0.784 1.75,-1.75s-0.784,-1.75 -1.75,-1.75 -1.75,0.784 -1.75,1.75 0.784,1.75 1.75,1.75z" fill="#B2B2B2"/>
</svg>
