<?xml version="1.0" ?>
<svg xmlns="http://www.w3.org/2000/svg" width="25" height="7" viewBox="0 0 25 7">
  <path d="M3.5,6C2.12,6 1,4.88 1,3.5S2.12,1 3.5,1 6,2.12 6,3.5 4.88,6 3.5,6zM12.5,6C11.12,6 10,4.88 10,3.5S11.12,1 12.5,1 15,2.12 15,3.5 13.88,6 12.5,6zM21.5,6C20.12,6 19,4.88 19,3.5S20.12,1 21.5,1 24,2.12 24,3.5 22.88,6 21.5,6z" fill="#CF202E"/>
  <path d="M3.25,6.5C1.455,6.5 0,5.045 0,3.25S1.455,0 3.25,0 6.5,1.455 6.5,3.25 5.045,6.5 3.25,6.5zM3.25,5C4.216,5 5,4.216 5,3.25S4.216,1.5 3.25,1.5 1.5,2.284 1.5,3.25 2.284,5 3.25,5zM12.25,6.5C10.455,6.5 9,5.045 9,3.25S10.455,0 12.25,0s3.25,1.455 3.25,3.25 -1.455,3.25 -3.25,3.25zM12.25,5C13.216,5 14,4.216 14,3.25s-0.784,-1.75 -1.75,-1.75 -1.75,0.784 -1.75,1.75S11.284,5 12.25,5zM21.25,6.5C19.455,6.5 18,5.045 18,3.25S19.455,0 21.25,0s3.25,1.455 3.25,3.25 -1.455,3.25 -3.25,3.25zM21.25,5C22.216,5 23,4.216 23,3.25s-0.784,-1.75 -1.75,-1.75 -1.75,0.784 -1.75,1.75S20.284,5 21.25,5z" fill="#CF202E"/>
</svg>
