<?xml version="1.0" ?>
<svg xmlns="http://www.w3.org/2000/svg" width="24" height="20" viewBox="0 0 24 20">
  <path d="M19.827,1.013L4.173,1.013C2.423,1.013 1,2.46 1,4.237v12.037c0,1.777 1.423,3.224 3.173,3.224h15.654c1.75,0 3.173,-1.447 3.173,-3.224L23,4.237C23,2.46 21.577,1.013 19.827,1.013zM21.73,12.19h-4.654c-1.05,0 -1.904,-0.868 -1.904,-1.934 0,-1.067 0.854,-1.935 1.904,-1.935h4.654v3.869zM21.73,7.032h-4.654c-1.75,0 -3.173,1.446 -3.173,3.224 0,1.777 1.423,3.223 3.173,3.223h4.654v2.795c0,1.066 -0.854,1.934 -1.904,1.934L4.173,18.208c-1.05,0 -1.904,-0.868 -1.904,-1.934L2.269,4.237c0,-1.066 0.854,-1.934 1.904,-1.934h15.654c1.05,0 1.904,0.868 1.904,1.934v2.795z" fill="#AAADCB" stroke-width=".55" stroke="#AAADCB"/>
  <path d="M17.923,9.61h-0.846c-0.35,0 -0.635,0.29 -0.635,0.646 0,0.356 0.284,0.644 0.635,0.644h0.846c0.35,0 0.635,-0.288 0.635,-0.644 0,-0.357 -0.284,-0.645 -0.635,-0.645z" fill="#AAADCB" stroke-width=".55" stroke="#AAADCB"/>
</svg>
