<svg xmlns="http://www.w3.org/2000/svg" xmlns:xlink="http://www.w3.org/1999/xlink" width="21" height="21" viewBox="0 0 21 21">
  <defs>
    <clipPath id="clip-path">
      <rect id="Rect치ngulo_148571" data-name="Rect치ngulo 148571" width="21" height="21" transform="translate(-23092 -24785)" fill="#fff" stroke="#707070" stroke-width="1"/>
    </clipPath>
  </defs>
  <g id="Enmascarar_grupo_1" data-name="Enmascarar grupo 1" transform="translate(23092 24785)" clip-path="url(#clip-path)">
    <g id="Grupo_191966" data-name="Grupo 191966" transform="translate(-23143 -25163)">
      <path id="add_circle_FILL0_wght400_GRAD0_opsz48" d="M88.414-866.465h1.354v-3.745h3.767v-1.354H89.768v-3.925H88.414v3.925h-3.9v1.354h3.9Zm.615,4.512a8.736,8.736,0,0,1-3.508-.71,9.171,9.171,0,0,1-2.871-1.94,9.163,9.163,0,0,1-1.94-2.873A8.75,8.75,0,0,1,80-870.988a8.75,8.75,0,0,1,.711-3.511,9.028,9.028,0,0,1,1.94-2.861,9.262,9.262,0,0,1,2.873-1.929A8.752,8.752,0,0,1,89.035-880a8.752,8.752,0,0,1,3.511.711,9.124,9.124,0,0,1,2.861,1.929,9.111,9.111,0,0,1,1.929,2.865,8.771,8.771,0,0,1,.711,3.513,8.735,8.735,0,0,1-.711,3.508,9.215,9.215,0,0,1-1.929,2.867,9.111,9.111,0,0,1-2.865,1.94A8.729,8.729,0,0,1,89.029-861.953Zm.005-1.354a7.367,7.367,0,0,0,5.425-2.245,7.424,7.424,0,0,0,2.233-5.437,7.393,7.393,0,0,0-2.229-5.425,7.4,7.4,0,0,0-5.441-2.233,7.417,7.417,0,0,0-5.425,2.229,7.376,7.376,0,0,0-2.245,5.441,7.391,7.391,0,0,0,2.245,5.425A7.4,7.4,0,0,0,89.035-863.307ZM89.023-870.977Z" transform="translate(-27.023 1258.977)"/>
      <rect id="Rect치ngulo_148638" data-name="Rect치ngulo 148638" width="22" height="22" transform="translate(51 377)" fill="none"/>
    </g>
  </g>
</svg>
