<?xml version="1.0" ?>
<svg xmlns="http://www.w3.org/2000/svg" width="25" height="29" viewBox="0 0 25 29">
  <path d="M16.315,9.852C14.625,7.404 11.944,6 8.962,6 5.98,6 3.3,7.404 1.609,9.852 -0.074,12.287 -0.463,15.37 0.567,18.094c0.275,0.744 0.713,1.467 1.298,2.144l6.507,7.643c0.147,0.173 0.363,0.273 0.59,0.273 0.227,0 0.442,-0.1 0.59,-0.273l6.505,-7.64c0.587,-0.682 1.025,-1.404 1.298,-2.142 1.032,-2.729 0.643,-5.812 -1.04,-8.247zM15.905,17.557c-0.211,0.57 -0.555,1.132 -1.022,1.674 -0.002,0 -0.003,0.002 -0.004,0.004l-5.917,6.95 -5.92,-6.955c-0.468,-0.54 -0.811,-1.103 -1.024,-1.678 -0.852,-2.253 -0.529,-4.802 0.865,-6.82C4.28,8.71 6.497,7.55 8.962,7.55s4.68,1.16 6.079,3.184c1.394,2.017 1.717,4.566 0.863,6.824z" fill="#FFF"/>
  <path d="M8.962,10.596c-2.392,0 -4.338,1.946 -4.338,4.338 0,2.392 1.946,4.338 4.338,4.338 2.392,0 4.338,-1.946 4.338,-4.338 0,-2.392 -1.946,-4.338 -4.338,-4.338zM8.962,17.722c-1.538,0 -2.789,-1.25 -2.789,-2.788 0,-1.538 1.251,-2.789 2.789,-2.789 1.538,0 2.789,1.251 2.789,2.789 0,1.537 -1.251,2.788 -2.79,2.788z" fill="#FFF"/>
  <path d="M18,7m-7,0a7,7 0,1 1,14 0a7,7 0,1 1,-14 0" fill="#FFF"/>
  <path d="M14,6.878L16.032,9.723 21.821,5" fill="#00000000" stroke-linejoin="round" stroke-linecap="round" stroke-width="1.5" stroke="#444A68"/>
</svg>
