<?xml version="1.0" ?>
<svg xmlns="http://www.w3.org/2000/svg" width="19" height="19" viewBox="0 0 19 19">
  <path d="M19,9.5289C19,10.0962 18.5496,10.548 17.984,10.548L10.516,10.548L10.516,17.9809C10.516,18.5482 10.0656,19 9.5,19C8.9344,19 8.484,18.5482 8.484,17.9809L8.484,10.548L1.016,10.548C0.4504,10.548 0,10.0962 0,9.5289C0,8.9615 0.4504,8.5098 1.016,8.5098L8.4264,8.5098L8.4264,1.0191C8.4264,0.4518 8.8768,0 9.4425,0C10.0081,0 10.4585,0.4518 10.4585,1.0191L10.4585,8.452L17.8689,8.452C18.5496,8.452 19,8.9616 19,9.5289Z" fill="@color/gray" stroke-width="1" stroke="#00000000"/>
</svg>
