<?xml version="1.0" ?>
<svg xmlns="http://www.w3.org/2000/svg" width="22" height="22" viewBox="0 0 22 22">
  <path d="M11,1C5.4772,1 1,5.4772 1,11C1,16.5228 5.4772,21 11,21C16.5228,21 21,16.5228 21,11C20.9935,5.4799 16.5201,1.0065 11,1ZM11,19.1818C6.4813,19.1818 2.8182,15.5187 2.8182,11C2.8182,6.4813 6.4813,2.8182 11,2.8182C15.5187,2.8182 19.1818,6.4813 19.1818,11C19.1763,15.5164 15.5164,19.1763 11,19.1818L11,19.1818Z" fill="#CF202E" stroke-width="0.6" stroke="#F5F5F5"/>
  <path d="M11,5.5455C10.4979,5.5455 10.0909,5.9525 10.0909,6.4545L10.0909,12.8182C10.0909,13.3203 10.4979,13.7273 11,13.7273C11.5021,13.7273 11.9091,13.3203 11.9091,12.8182L11.9091,6.4545C11.9091,5.9525 11.5021,5.5455 11,5.5455Z" fill="#CF202E" stroke-width="0.6" stroke="#F5F5F5"/>
  <path d="M11,15.5455m-1,0a1,1 0,1 1,2 0a1,1 0,1 1,-2 0" fill="#CF202E" stroke-width="0.2" stroke="#F5F5F5"/>
</svg>
