<svg xmlns="http://www.w3.org/2000/svg" width="24" height="24" viewBox="0 0 24 24">
  <g id="Grupo_190736" data-name="Grupo 190736" transform="translate(0 0.001)">
    <rect id="Rectángulo_147374" data-name="Rectángulo 147374" width="24" height="24" transform="translate(0 -0.001)" fill="none"/>
    <path id="error_FILL0_wght400_GRAD0_opsz48_1_" data-name="error_FILL0_wght400_GRAD0_opsz48 (1)" d="M89.63-865.554a.769.769,0,0,0,.566-.228.768.768,0,0,0,.229-.566.77.77,0,0,0-.228-.566.768.768,0,0,0-.566-.229.77.77,0,0,0-.566.228.768.768,0,0,0-.229.566.77.77,0,0,0,.228.566A.767.767,0,0,0,89.63-865.554Zm-.65-3.684h1.445v-6.091H88.981Zm.656,8.5a9.321,9.321,0,0,1-3.744-.758,9.787,9.787,0,0,1-3.064-2.071,9.78,9.78,0,0,1-2.071-3.066A9.339,9.339,0,0,1,80-870.381a9.339,9.339,0,0,1,.758-3.748,9.636,9.636,0,0,1,2.071-3.054,9.884,9.884,0,0,1,3.066-2.059A9.34,9.34,0,0,1,89.643-880a9.34,9.34,0,0,1,3.748.758,9.736,9.736,0,0,1,3.054,2.059,9.725,9.725,0,0,1,2.059,3.058,9.362,9.362,0,0,1,.758,3.75,9.321,9.321,0,0,1-.758,3.744,9.836,9.836,0,0,1-2.059,3.06,9.721,9.721,0,0,1-3.058,2.071A9.315,9.315,0,0,1,89.637-860.739Zm.006-1.445a7.863,7.863,0,0,0,5.79-2.4,7.923,7.923,0,0,0,2.384-5.8,7.891,7.891,0,0,0-2.379-5.79,7.893,7.893,0,0,0-5.807-2.383,7.916,7.916,0,0,0-5.79,2.379,7.873,7.873,0,0,0-2.4,5.807,7.889,7.889,0,0,0,2.4,5.79A7.9,7.9,0,0,0,89.643-862.183ZM89.631-870.369Z" transform="translate(-77.718 882.119)"/>
  </g>
</svg>
