<?xml version="1.0" ?>
<svg xmlns="http://www.w3.org/2000/svg" width="24" height="20" viewBox="0 0 24 20">
  <path d="M22.6509,8.0851L22.6884,8.0933L6.6287,8.0933L11.6773,3.0336C11.9245,2.7865 12.0601,2.4519 12.0601,2.1007C12.0601,1.7495 11.9245,1.4172 11.6773,1.1696L10.8917,0.3836C10.6447,0.1366 10.3155,0 9.9645,0C9.6133,0 9.2839,0.1356 9.0369,0.3826L0.3826,9.0361C0.1346,9.2841 -0.001,9.6144 0,9.9659C-0.001,10.3192 0.1346,10.6498 0.3826,10.8974L9.0369,19.5516C9.2839,19.7984 9.6131,19.9342 9.9645,19.9342C10.3155,19.9342 10.6447,19.7982 10.8917,19.5516L11.6773,18.7657C11.9245,18.519 12.0601,18.1897 12.0601,17.8384C12.0601,17.4874 11.9245,17.1754 11.6773,16.9286L6.5717,11.8406L22.6689,11.8406C23.3922,11.8406 24,11.2172 24,10.4942L24,9.3826C24,8.6597 23.3742,8.0851 22.6509,8.0851Z" fill="#CD202E" stroke-width="1" stroke="#00000000"/>
</svg>
