<?xml version="1.0" ?>
<svg xmlns="http://www.w3.org/2000/svg" width="30" height="24" viewBox="0 0 30 24">
  <path d="M5.836,0.542a0.719,0.719 0,1 1,0 1.438L2.24,1.98v3.593a0.719,0.719 0,0 1,-1.439 0L0.801,1.26a0.72,0.72 0,0 1,0.72 -0.719h4.316zM5.836,22.1a0.719,0.719 0,1 1,0 1.438L1.52,23.538a0.72,0.72 0,0 1,-0.72 -0.72v-4.31a0.72,0.72 0,0 1,1.439 0L2.239,22.1h3.597zM28.858,0.542a0.72,0.72 0,0 1,0.72 0.72v4.31a0.72,0.72 0,0 1,-1.44 0L28.138,1.98h-3.597a0.72,0.72 0,1 1,0 -1.438h4.317zM28.858,17.789a0.72,0.72 0,0 1,0.72 0.718v4.312a0.72,0.72 0,0 1,-0.72 0.719h-4.317a0.72,0.72 0,1 1,0 -1.438h3.598v-3.593a0.72,0.72 0,0 1,0.72 -0.718zM5.836,4.854c0.397,0 0.72,0.322 0.72,0.719v12.934a0.719,0.719 0,0 1,-1.44 0L5.116,5.573a0.72,0.72 0,0 1,0.72 -0.72zM8.714,4.854h1.439c0.397,0 0.719,0.322 0.719,0.719v12.934a0.719,0.719 0,0 1,-0.72 0.72L8.715,19.227a0.719,0.719 0,0 1,-0.72 -0.72L7.995,5.573c0,-0.397 0.322,-0.72 0.72,-0.72zM13.03,4.854a0.72,0.72 0,0 1,0.72 0.719v12.934a0.72,0.72 0,0 1,-1.439 0L12.311,5.573c0,-0.397 0.322,-0.72 0.72,-0.72zM15.908,4.854h1.439a0.72,0.72 0,0 1,0.72 0.719v12.934a0.72,0.72 0,0 1,-0.72 0.72h-1.439a0.72,0.72 0,0 1,-0.72 -0.72L15.188,5.573a0.72,0.72 0,0 1,0.72 -0.72zM20.225,4.854a0.72,0.72 0,0 1,0.72 0.719v12.934a0.72,0.72 0,0 1,-1.44 0L19.505,5.573a0.72,0.72 0,0 1,0.72 -0.72zM23.103,4.854h1.438a0.72,0.72 0,0 1,0.72 0.719v12.934a0.72,0.72 0,0 1,-0.72 0.72h-1.438a0.72,0.72 0,0 1,-0.72 -0.72L22.383,5.573a0.72,0.72 0,0 1,0.72 -0.72z" fill="#2A317D"/>
</svg>
