<?xml version="1.0" ?>
<svg xmlns="http://www.w3.org/2000/svg" width="19" height="15" viewBox="0 0 19 15">
  <path d="M3.167,0H0.633C0.283,0 0,0.28 0,0.625v2.5c0,0.345 0.284,0.625 0.633,0.625 0.35,0 0.634,-0.28 0.634,-0.625V1.25h1.9c0.35,0 0.633,-0.28 0.633,-0.625S3.516,0 3.167,0zM18.367,11.25c-0.35,0 -0.634,0.28 -0.634,0.625v1.875h-1.9c-0.35,0 -0.633,0.28 -0.633,0.625s0.284,0.625 0.633,0.625h2.534c0.35,0 0.633,-0.28 0.633,-0.625v-2.5c0,-0.345 -0.284,-0.625 -0.633,-0.625zM18.367,0h-2.534c-0.35,0 -0.633,0.28 -0.633,0.625s0.284,0.625 0.633,0.625h1.9v1.875c0,0.345 0.284,0.625 0.634,0.625 0.35,0 0.633,-0.28 0.633,-0.625v-2.5C19,0.28 18.716,0 18.367,0zM3.167,13.75h-1.9v-1.875c0,-0.345 -0.284,-0.625 -0.634,-0.625 -0.35,0 -0.633,0.28 -0.633,0.625v2.5c0,0.345 0.284,0.625 0.633,0.625h2.534c0.35,0 0.633,-0.28 0.633,-0.625s-0.284,-0.625 -0.633,-0.625zM2.533,2.5H3.8V12.5H2.533z" fill="#263EC2"/>
  <path d="M5.067,2.5H6.334V10H5.067zM7.6,2.5H8.867V10H7.6zM10.133,2.5H11.4V12.5H10.133zM12.667,2.5H13.934V10H12.667z" fill="#CF0A2C"/>
  <path d="M15.2,2.5H16.467V12.5H15.2z" fill="#263EC2"/>
  <path d="M5.067,11.25H6.334V12.5H5.067zM7.6,11.25H8.867V12.5H7.6zM12.667,11.25H13.934V12.5H12.667z" fill="#CF0A2C"/>
</svg>
