<?xml version="1.0" ?>
<svg xmlns="http://www.w3.org/2000/svg" width="22" height="22" viewBox="0 0 22 22">
  <path d="M6.99,20.25c0.414,0 0.75,0.336 0.75,0.75s-0.336,0.75 -0.75,0.75L4.921,21.75C2.342,21.75 0.25,19.658 0.25,17.078v-2.353c0,-0.414 0.336,-0.75 0.75,-0.75s0.75,0.336 0.75,0.75v2.353C1.75,18.83 3.17,20.25 4.922,20.25h2.067zM6.99,0.25c0.414,0 0.75,0.336 0.75,0.75s-0.336,0.75 -0.75,0.75L4.921,1.75C3.17,1.75 1.75,3.17 1.75,4.922v2.353c0,0.414 -0.336,0.75 -0.75,0.75S0.25,7.689 0.25,7.275L0.25,4.922C0.25,2.342 2.342,0.25 4.922,0.25h2.067zM15.01,1.75c-0.414,0 -0.75,-0.336 -0.75,-0.75s0.336,-0.75 0.75,-0.75h2.068c2.58,0 4.672,2.092 4.672,4.672v2.353c0,0.414 -0.336,0.75 -0.75,0.75s-0.75,-0.336 -0.75,-0.75L20.25,4.922C20.25,3.17 18.83,1.75 17.078,1.75h-2.067zM15.01,21.75c-0.414,0 -0.75,-0.336 -0.75,-0.75s0.336,-0.75 0.75,-0.75h2.068C18.83,20.25 20.25,18.83 20.25,17.078v-2.353c0,-0.414 0.336,-0.75 0.75,-0.75s0.75,0.336 0.75,0.75v2.353c0,2.58 -2.092,4.672 -4.672,4.672h-2.067z" fill="#939EAB"/>
  <path d="M5,14.26L5,8.703M13,14.26L13,8.703M17,14.26L17,8.703M9,14.26L9,8.703" fill="#00000000" stroke-linejoin="round" stroke-linecap="round" stroke-width="1.5" stroke="#939EAB"/>
</svg>
