<?xml version="1.0" ?>
<svg xmlns="http://www.w3.org/2000/svg" width="26" height="17" viewBox="0 0 26 17">
  <path d="M1.855,2.273h2.972V0.82H0.393v4.358h1.462zM20.906,0.82v1.453h2.973v2.905h1.461V0.82zM23.879,15.348h-2.973V16.8h4.434v-4.359H23.88zM3.365,3.726h1.462v10.17H3.365zM6.289,3.726H7.75v7.264H6.29zM9.212,3.726h1.462v7.264H9.212zM12.136,3.726h1.461v10.17h-1.461zM15.06,3.726h1.461v7.264h-1.462zM17.983,3.726h1.462v7.264h-1.462zM20.906,3.726h1.462v10.17h-1.462zM6.289,12.442H7.75v1.453H6.29zM9.212,12.442h1.462v1.453H9.212zM4.827,15.348H1.855v-2.906H0.393v4.359h4.434zM15.06,12.442h1.461v1.453h-1.462zM17.983,12.442h1.462v1.453h-1.462z" fill="#2A317D"/>
</svg>
