<?xml version="1.0" ?>
<svg xmlns="http://www.w3.org/2000/svg" width="20" height="18" viewBox="0 0 20 18">
  <path d="M15.333,9.625a4.148,4.148 0,1 0,0 8.294,4.148 4.148,0 0,0 0,-8.294zM15.599,16.839v-0.358a0.267,0.267 0,1 0,-0.534 0v0.358a3.081,3.081 0,0 1,-2.799 -2.8h0.36a0.267,0.267 0,0 0,0 -0.533h-0.36a3.082,3.082 0,0 1,2.8 -2.8v0.36a0.267,0.267 0,1 0,0.533 0v-0.36a3.08,3.08 0,0 1,2.8 2.8h-0.36a0.266,0.266 0,1 0,0 0.533h0.36a3.08,3.08 0,0 1,-2.8 2.8z" fill="#E5E5EE"/>
  <path d="M16.878,13.372h-0.962a0.71,0.71 0,0 0,-0.583 -0.308l-0.012,0.002 -0.877,-1.235a0.402,0.402 0,0 0,-0.652 0.465l0.877,1.235a0.707,0.707 0,0 0,1.247 0.642h0.962a0.4,0.4 0,1 0,0 -0.8zM4.272,5.517c0.726,0 1.313,-0.588 1.313,-1.313V1.355a1.313,1.313 0,1 0,-2.625 0v2.85c0,0.724 0.587,1.312 1.312,1.312zM12.314,5.517c0.726,0 1.313,-0.588 1.313,-1.313V1.355a1.313,1.313 0,1 0,-2.626 0v2.85c0,0.724 0.588,1.312 1.313,1.312zM6.051,9.163a0.678,0.678 0,0 0,-0.679 -0.679H4.114a0.679,0.679 0,0 0,-0.68 0.679v1.258c0,0.375 0.305,0.68 0.68,0.68h1.258a0.68,0.68 0,0 0,0.68 -0.68V9.163zM9.602,9.164a0.678,0.678 0,0 0,-0.678 -0.678h-1.26a0.678,0.678 0,0 0,-0.677 0.678v1.258c0,0.374 0.303,0.678 0.678,0.678h1.259a0.679,0.679 0,0 0,0.678 -0.678V9.164zM11.215,8.484a0.679,0.679 0,0 0,-0.68 0.679v1.258c0,0.34 0.254,0.607 0.578,0.658A5.042,5.042 0,0 1,13.15 9.27v-0.107a0.678,0.678 0,0 0,-0.678 -0.679h-1.257zM4.115,11.894a0.679,0.679 0,0 0,-0.68 0.678v1.258c0,0.375 0.305,0.678 0.68,0.678h1.258a0.678,0.678 0,0 0,0.678 -0.678v-1.258a0.678,0.678 0,0 0,-0.678 -0.678H4.115zM8.922,11.894H7.665a0.678,0.678 0,0 0,-0.679 0.679v1.257c0,0.375 0.304,0.678 0.679,0.678h1.257a0.678,0.678 0,0 0,0.679 -0.678v-1.257a0.679,0.679 0,0 0,-0.679 -0.679z" fill="#E5E5EE"/>
  <path d="M10.757,15.808H4.373a1.995,1.995 0,0 1,-1.993 -1.992V7.149h11.827v1.744a5.006,5.006 0,0 1,1.126 -0.132c0.333,0 0.658,0.034 0.973,0.097v-6.27h-1.891v1.616c0,1.159 -0.942,2.1 -2.101,2.1s-2.1,-0.941 -2.1,-2.1V2.588H6.372v1.616c0,1.159 -0.942,2.1 -2.101,2.1 -1.158,0 -2.1,-0.941 -2.1,-2.1V2.588H0.28v11.228a4.094,4.094 0,0 0,4.093 4.093h7.84c0.093,0 0.185,-0.008 0.276,-0.014a5.04,5.04 0,0 1,-1.732 -2.087z" fill="#E5E5EE"/>
</svg>
