<?xml version="1.0" ?>
<svg xmlns="http://www.w3.org/2000/svg" width="33" height="32" viewBox="0 0 33 32">
  <path d="M23.684,19.028a9.15,9.15 0,0 1,-2.823 -0.448,0.781 0.781,0 0,0 -0.807,0.192l-1.256,1.575c-2.263,-1.08 -4.381,-3.118 -5.509,-5.461l1.56,-1.328a0.816,0.816 0,0 0,0.191 -0.815,8.918 8.918,0 0,1 -0.448,-2.823 0.799,0.799 0,0 0,-0.791 -0.791L11.034,9.129c-0.432,0 -0.951,0.192 -0.951,0.791 0,7.429 6.18,13.601 13.6,13.601 0.569,0 0.792,-0.503 0.792,-0.943v-2.759a0.799,0.799 0,0 0,-0.791 -0.791z" fill="#223BC1"/>
  <path d="M16.799,15.845m-15.352,0a15.352,15.352 0,1 1,30.704 0a15.352,15.352 0,1 1,-30.704 0" fill="#00000000" stroke-width=".96" stroke="#223BC1"/>
</svg>
