<?xml version="1.0" ?>
<svg xmlns="http://www.w3.org/2000/svg" width="18" height="18" viewBox="0 0 18 18">
  <path d="M13.64,10.907c-0.328,-0.34 -0.722,-0.523 -1.141,-0.523 -0.415,0 -0.814,0.18 -1.154,0.52l-1.067,1.063c-0.088,-0.047 -0.176,-0.09 -0.26,-0.135 -0.122,-0.06 -0.236,-0.118 -0.334,-0.179 -1,-0.634 -1.907,-1.461 -2.778,-2.531 -0.422,-0.534 -0.706,-0.983 -0.912,-1.438 0.277,-0.253 0.534,-0.517 0.783,-0.77 0.095,-0.094 0.19,-0.192 0.284,-0.287 0.709,-0.709 0.709,-1.627 0,-2.336l-0.922,-0.921c-0.104,-0.105 -0.212,-0.213 -0.313,-0.32 -0.203,-0.21 -0.416,-0.426 -0.635,-0.629 -0.328,-0.324 -0.72,-0.496 -1.13,-0.496 -0.413,0 -0.811,0.172 -1.149,0.496l-0.006,0.007L1.758,3.586c-0.432,0.432 -0.678,0.959 -0.732,1.57 -0.081,0.985 0.209,1.903 0.432,2.504 0.546,1.475 1.363,2.842 2.582,4.307 1.478,1.766 3.257,3.16 5.29,4.142 0.776,0.368 1.812,0.803 2.97,0.878 0.07,0.003 0.145,0.006 0.212,0.006 0.78,0 1.435,-0.28 1.948,-0.837 0.003,-0.006 0.01,-0.01 0.014,-0.017 0.175,-0.212 0.378,-0.405 0.59,-0.61 0.145,-0.139 0.294,-0.284 0.44,-0.436 0.333,-0.348 0.509,-0.753 0.509,-1.168 0,-0.418 -0.179,-0.82 -0.52,-1.158l-1.853,-1.86zM14.848,14.462c-0.003,0 -0.003,0.003 0,0 -0.131,0.142 -0.266,0.27 -0.412,0.412 -0.219,0.209 -0.442,0.428 -0.651,0.675 -0.34,0.364 -0.743,0.536 -1.27,0.536 -0.05,0 -0.104,0 -0.154,-0.003 -1.003,-0.064 -1.935,-0.456 -2.633,-0.79 -1.91,-0.925 -3.589,-2.238 -4.983,-3.902 -1.15,-1.387 -1.92,-2.67 -2.43,-4.047 -0.314,-0.84 -0.429,-1.496 -0.378,-2.113 0.034,-0.395 0.186,-0.723 0.466,-1.003l1.15,-1.15c0.166,-0.156 0.342,-0.24 0.514,-0.24 0.213,0 0.385,0.128 0.493,0.236l0.01,0.01c0.206,0.192 0.402,0.391 0.607,0.604 0.105,0.108 0.213,0.216 0.321,0.328l0.922,0.921c0.357,0.358 0.357,0.689 0,1.046 -0.098,0.098 -0.193,0.196 -0.29,0.29 -0.284,0.291 -0.554,0.561 -0.848,0.824 -0.007,0.007 -0.013,0.01 -0.017,0.017 -0.29,0.29 -0.236,0.574 -0.175,0.767l0.01,0.03c0.24,0.58 0.577,1.127 1.09,1.779l0.003,0.003c0.932,1.148 1.914,2.042 2.998,2.728 0.138,0.087 0.28,0.158 0.415,0.226 0.122,0.06 0.236,0.118 0.334,0.179 0.014,0.006 0.027,0.017 0.04,0.023 0.116,0.058 0.224,0.085 0.335,0.085 0.28,0 0.456,-0.176 0.513,-0.233l1.154,-1.155c0.115,-0.114 0.298,-0.253 0.51,-0.253 0.21,0 0.382,0.132 0.486,0.247l0.007,0.006 1.86,1.86c0.348,0.345 0.348,0.699 0.003,1.057z" fill="#243DC1" stroke-width=".4" stroke="#2137C4"/>
  <path d="M9.643,4.804c0.885,0.149 1.688,0.568 2.33,1.209 0.64,0.641 1.056,1.445 1.208,2.329 0.037,0.223 0.23,0.378 0.449,0.378 0.027,0 0.05,-0.003 0.077,-0.007 0.25,-0.04 0.416,-0.277 0.375,-0.526 -0.182,-1.07 -0.689,-2.046 -1.462,-2.819 -0.773,-0.773 -1.748,-1.28 -2.818,-1.461 -0.25,-0.041 -0.483,0.124 -0.527,0.37 -0.044,0.247 0.118,0.487 0.368,0.527zM16.975,8.055c-0.3,-1.762 -1.13,-3.365 -2.407,-4.641C13.292,2.138 11.688,1.307 9.927,1.007c-0.247,-0.044 -0.48,0.125 -0.523,0.371 -0.04,0.25 0.124,0.483 0.374,0.527 1.573,0.267 3.008,1.013 4.149,2.15 1.14,1.141 1.883,2.576 2.15,4.149 0.037,0.222 0.23,0.378 0.449,0.378 0.027,0 0.05,-0.004 0.078,-0.007 0.246,-0.037 0.415,-0.274 0.37,-0.52z" fill="#CF0A2C" stroke-width=".4" stroke="#D10025"/>
</svg>
