<?xml version="1.0" ?>
<svg xmlns="http://www.w3.org/2000/svg" width="21" height="18" viewBox="0 0 21 18">
  <path d="M10.27,7.25a3,3 0,1 1,-0.001 6,3 3,0 0,1 0.001,-6zM17.603,2.917a2.672,2.672 0,0 1,2.666 2.666v9.333a2.672,2.672 0,0 1,-2.666 2.666L2.938,17.582A2.672,2.672 0,0 1,0.27 14.916L0.27,5.583a2.672,2.672 0,0 1,2.667 -2.666L5.27,2.917L5.802,1.5C6.062,0.813 6.875,0.25 7.604,0.25h5.333c0.729,0 1.541,0.563 1.802,1.25l0.53,1.417h2.334zM10.27,14.916a4.672,4.672 0,0 0,4.667 -4.667,4.672 4.672,0 0,0 -4.667,-4.666 4.672,4.672 0,0 0,-4.666 4.666,4.672 4.672,0 0,0 4.666,4.667z" fill="#2A317D"/>
</svg>
