<?xml version="1.0" ?>
<svg xmlns="http://www.w3.org/2000/svg" width="30" height="30" viewBox="0 0 30 30">
  <path d="M25.6,4.387c-5.85,-5.85 -15.364,-5.85 -21.214,0 -5.848,5.848 -5.848,15.365 0,21.213 2.925,2.924 6.766,4.385 10.607,4.385 3.841,0 7.681,-1.461 10.606,-4.385 5.85,-5.848 5.85,-15.365 0,-21.213z" fill="#000"/>
  <path d="M21.18,19.413c0.488,0.489 0.488,1.279 0,1.767 -0.244,0.244 -0.564,0.367 -0.884,0.367 -0.32,0 -0.64,-0.123 -0.884,-0.367l-4.419,-4.42 -4.417,4.419c-0.245,0.244 -0.565,0.366 -0.884,0.366 -0.32,0 -0.64,-0.122 -0.884,-0.366 -0.489,-0.489 -0.489,-1.28 0,-1.767l4.418,-4.42 -4.42,-4.418c-0.488,-0.489 -0.488,-1.28 0,-1.767 0.488,-0.49 1.28,-0.49 1.768,0l4.419,4.418 4.419,-4.418c0.488,-0.49 1.278,-0.49 1.767,0 0.489,0.487 0.489,1.278 0,1.767l-4.419,4.419 4.42,4.42z" fill="#FFF"/>
</svg>
