<?xml version="1.0" ?>
<svg xmlns="http://www.w3.org/2000/svg" width="31" height="20" viewBox="0 0 31 20">
  <path d="M1,0L30,0A1,1 0,0 1,31 1L31,19A1,1 0,0 1,30 20L1,20A1,1 0,0 1,0 19L0,1A1,1 0,0 1,1 0z" fill="#DCDFE6"/>
  <path d="M7.583,15.958L4.417,15.958C4.187,15.958 4,15.771 4,15.541L4,14.375C4,14.145 4.187,13.958 4.417,13.958h3.166C7.813,13.958 8,14.145 8,14.375v1.166c0,0.23 -0.187,0.417 -0.417,0.417zM13.583,15.958L10.417,15.958C10.187,15.958 10,15.771 10,15.541L10,14.375C10,14.145 10.187,13.958 10.417,13.958h3.166c0.23,0 0.417,0.187 0.417,0.417v1.166c0,0.23 -0.187,0.417 -0.417,0.417zM19.583,15.958h-3.166c-0.23,0 -0.417,-0.187 -0.417,-0.417L16,14.375c0,-0.23 0.187,-0.417 0.417,-0.417h3.166c0.23,0 0.417,0.187 0.417,0.417v1.166c0,0.23 -0.187,0.417 -0.417,0.417zM25.583,15.958h-3.166c-0.23,0 -0.417,-0.187 -0.417,-0.417L22,14.375c0,-0.23 0.187,-0.417 0.417,-0.417h3.166c0.23,0 0.417,0.187 0.417,0.417v1.166c0,0.23 -0.187,0.417 -0.417,0.417z" fill="#B0B2C2"/>
  <path d="M4.5,4L8.5,4A0.5,0.5 0,0 1,9 4.5L9,8.5A0.5,0.5 0,0 1,8.5 9L4.5,9A0.5,0.5 0,0 1,4 8.5L4,4.5A0.5,0.5 0,0 1,4.5 4z" fill="#FFF"/>
</svg>
