<svg xmlns="http://www.w3.org/2000/svg" xmlns:xlink="http://www.w3.org/1999/xlink" width="22" height="22" viewBox="0 0 22 22">
  <defs>
    <clipPath id="clip-path">
      <rect id="Rectángulo_2507" data-name="Rectángulo 2507" width="12.449" height="4.858" fill="#b7b7b7"/>
    </clipPath>
  </defs>
  <g id="Grupo_199124" data-name="Grupo 199124" transform="translate(-22 -22)">
    <g id="Grupo_196380" data-name="Grupo 196380" transform="translate(10480 -1933.273)">
      <g id="Rectángulo_150104" data-name="Rectángulo 150104" transform="translate(-10456 1963.974) rotate(-13)" fill="none" stroke="#b7b7b7" stroke-width="1">
        <rect width="16.461" height="7.553" rx="2" stroke="none"/>
        <rect x="0.5" y="0.5" width="15.461" height="6.553" rx="1.5" fill="none"/>
      </g>
      <g id="Rectángulo_150103" data-name="Rectángulo 150103" transform="translate(-10456 1964.166) rotate(-8)" fill="#fff" stroke="#b7b7b7" stroke-width="1">
        <rect width="16.461" height="7.553" rx="2" stroke="none"/>
        <rect x="0.5" y="0.5" width="15.461" height="6.553" rx="1.5" fill="none"/>
      </g>
      <g id="Rectángulo_150102" data-name="Rectángulo 150102" transform="translate(-10455.929 1963.323)" fill="#fff" stroke="#b7b7b7" stroke-width="1">
        <rect width="16" height="8" rx="2" stroke="none"/>
        <rect x="0.5" y="0.5" width="15" height="7" rx="1.5" fill="none"/>
      </g>
      <g id="Grupo_195560" data-name="Grupo 195560" transform="translate(-10453.738 1965.251)">
        <g id="Grupo_190000" data-name="Grupo 190000" transform="translate(0 0)" clip-path="url(#clip-path)">
          <path id="Trazado_2344" data-name="Trazado 2344" d="M419.309,1.215l-.4.836a.324.324,0,0,1-.293.186h-.738a.135.135,0,0,1-.122-.193l.4-.836a.324.324,0,0,1,.293-.186h.738a.135.135,0,0,1,.122.193m.848-1.207h-1.847a1.176,1.176,0,0,0-1.064.674l-.959,2.046a.367.367,0,0,0,.332.524h1.714l-.144.327a.48.48,0,0,1-.433.273h-1.993l-.5,1.014h2.621a1.361,1.361,0,0,0,1.23-.779L420.666.812a.563.563,0,0,0-.509-.8" transform="translate(-411.389 -0.008)" fill="#b7b7b7"/>
          <path id="Trazado_2345" data-name="Trazado 2345" d="M4.045,1.207l-.4.836a.324.324,0,0,1-.293.186H2.618A.135.135,0,0,1,2.5,2.035l.4-.836a.324.324,0,0,1,.293-.186h.738a.135.135,0,0,1,.122.193M4.893,0H3.045A1.176,1.176,0,0,0,1.982.674L1.023,2.72a.367.367,0,0,0,.332.524H3.068l-.144.327a.48.48,0,0,1-.433.273H.5L0,4.858H2.621a1.361,1.361,0,0,0,1.23-.779L5.4.8A.563.563,0,0,0,4.893,0" fill="#b7b7b7"/>
          <path id="Trazado_2346" data-name="Trazado 2346" d="M892.189,185.622l.543-1.14h-.887a.187.187,0,0,0-.169.106l-.493,1.034H889.93a.186.186,0,0,0-.169.107l-.353.749h1.368l-.543,1.14h.887a.187.187,0,0,0,.169-.106l.493-1.034h1.254a.187.187,0,0,0,.169-.107l.353-.749Z" transform="translate(-881.108 -182.76)" fill="#b7b7b7"/>
        </g>
      </g>
    </g>
    <rect id="Rectángulo_150809" data-name="Rectángulo 150809" width="22" height="22" transform="translate(22 22)" fill="none"/>
  </g>
</svg>
