<?xml version="1.0" ?>
<svg xmlns="http://www.w3.org/2000/svg" width="18" height="12" viewBox="0 0 18 12">
  <path d="M0.12,11.6L0.12,0.08L17.4,0.08L17.4,11.6L0.12,11.6zM5.034,8.729l0.312,-0.686 0.316,0.686h-0.628zM5.104,7.611L4.21,9.46h0.493l0.19,-0.419h0.92l0.2,0.42h0.506l-0.92,-1.851h-0.494zM7.575,8.395h-0.343v-0.471h0.362c0.188,0 0.3,0.002 0.338,0.006 0.075,0.01 0.133,0.034 0.175,0.073a0.198,0.198 0,0 1,0.062 0.151,0.209 0.209,0 0,1 -0.047,0.14 0.251,0.251 0,0 1,-0.13 0.078,2.176 2.176,0 0,1 -0.417,0.023zM8.29,8.801a1.082,1.082 0,0 0,-0.248 -0.155c0.202,-0.024 0.353,-0.08 0.455,-0.171a0.441,0.441 0,0 0,0.152 -0.345,0.459 0.459,0 0,0 -0.101,-0.292 0.519,0.519 0,0 0,-0.268 -0.177c-0.111,-0.034 -0.29,-0.05 -0.535,-0.05h-0.978v1.85h0.465v-0.77h0.094c0.107,0 0.185,0.006 0.234,0.02 0.05,0.013 0.096,0.04 0.14,0.076 0.044,0.038 0.126,0.128 0.245,0.27l0.334,0.405h0.556l-0.281,-0.36A2.163,2.163 0,0 0,8.29 8.8zM11.876,8.646h1.153v-0.313h-1.153v-0.41h1.238v-0.312h-1.703v1.85h1.748v-0.313h-1.283v-0.502zM13.392,7.611v0.313h0.684v1.538h0.465L14.541,7.924h0.678L15.219,7.61h-1.827zM3.402,9.079a0.531,0.531 0,0 1,-0.319 0.095,0.566 0.566,0 0,1 -0.406,-0.149c-0.105,-0.1 -0.157,-0.266 -0.157,-0.5 0,-0.221 0.053,-0.38 0.158,-0.48a0.583,0.583 0,0 1,0.414 -0.147c0.123,0 0.227,0.028 0.313,0.083a0.39,0.39 0,0 1,0.17 0.227l0.46,-0.087a0.708,0.708 0,0 0,-0.236 -0.341c-0.175,-0.134 -0.403,-0.2 -0.684,-0.2 -0.322,0 -0.581,0.085 -0.779,0.255 -0.197,0.17 -0.296,0.41 -0.296,0.717 0,0.292 0.098,0.52 0.295,0.689 0.196,0.167 0.447,0.252 0.752,0.252 0.247,0 0.45,-0.05 0.61,-0.149a0.815,0.815 0,0 0,0.345 -0.452l-0.45,-0.111a0.527,0.527 0,0 1,-0.19 0.298zM10.486,8.852l-0.947,-1.241h-0.45v1.85h0.43L9.519,8.248l0.932,1.215h0.464L10.915,7.61h-0.43v1.241zM8.594,2.862c2.273,0 4.156,0.895 4.532,2.07 0.045,-0.14 0.073,-0.283 0.073,-0.43C13.2,3.12 11.138,2 8.594,2 6.05,2 3.988,3.12 3.988,4.502c0,0.147 0.028,0.29 0.073,0.43 0.376,-1.175 2.26,-2.07 4.533,-2.07zM8.594,4.35c2.273,0 4.156,0.896 4.532,2.072 0.045,-0.14 0.073,-0.284 0.073,-0.43 0,-1.383 -2.061,-2.503 -4.605,-2.503 -2.544,0 -4.606,1.12 -4.606,2.502 0,0.147 0.028,0.291 0.073,0.43 0.376,-1.175 2.26,-2.07 4.533,-2.07z" fill="#EC1D24"/>
</svg>
