<?xml version="1.0" ?>
<svg xmlns="http://www.w3.org/2000/svg" width="23" height="19" viewBox="0 0 23 19">
  <path d="M2.772,1L5.301,1 9.336,14 19.772,14" fill="#00000000" stroke-linejoin="round" stroke-linecap="round" stroke-width="1.5" stroke="#3F4349"/>
  <path d="M6.034,3L21.772,3 19.655,11 8.534,11" fill="#00000000" stroke-linejoin="round" stroke-linecap="round" stroke-width="1.5" stroke="#3F4349"/>
  <path d="M1,6.314h3M2,9.5h3M3,12.5h3" fill="#00000000" stroke-linecap="round" stroke-width="1.5" stroke="#3F4349"/>
  <path d="M10.772,17m-2,0a2,2 0,1 1,4 0a2,2 0,1 1,-4 0" fill="#3F4349"/>
  <path d="M17.772,17m-2,0a2,2 0,1 1,4 0a2,2 0,1 1,-4 0" fill="#3F4349"/>
</svg>
