<?xml version="1.0" ?>
<svg xmlns="http://www.w3.org/2000/svg" width="13" height="18" viewBox="0 0 13 18">
  <path d="M9.742,3.411v-0.395c0,-0.448 -0.363,-0.81 -0.811,-0.81L7.6,2.206c0.11,-0.201 0.174,-0.45 0.174,-0.701C7.774,0.675 7.099,0 6.27,0c-0.828,0 -1.502,0.675 -1.502,1.505 0,0.252 0.063,0.5 0.174,0.7L3.85,2.205c-0.448,0 -0.811,0.363 -0.811,0.811v0.395h-1.81C0.55,3.411 0,3.962 0,4.641L0,16.77C0,17.449 0.55,18 1.23,18h10.32c0.679,0 1.23,-0.551 1.23,-1.231L12.78,4.641c0,-0.679 -0.551,-1.23 -1.23,-1.23L9.742,3.411zM5.375,1.505c0,-0.494 0.402,-0.897 0.895,-0.897 0.494,0 0.895,0.403 0.895,0.897 0,0.283 -0.131,0.525 -0.337,0.7L5.713,2.205c-0.206,-0.175 -0.338,-0.417 -0.338,-0.7zM11.55,16.037c0,0.418 -0.34,0.757 -0.757,0.757L1.986,16.794c-0.417,0 -0.756,-0.34 -0.756,-0.757L1.23,5.397c0,-0.417 0.339,-0.756 0.756,-0.756h1.052c0,0.333 0.27,0.603 0.602,0.603L9.14,5.244c0.333,0 0.602,-0.27 0.602,-0.603h1.052c0.417,0 0.757,0.34 0.757,0.757v10.64z" fill="#223BC1"/>
  <path d="M3.5,7.6m-1,0a1,1 0,1 1,2 0a1,1 0,1 1,-2 0" fill="#CF0A2C"/>
  <path d="M9.3,7.1h-3c-0.276,0 -0.5,0.222 -0.5,0.5s0.224,0.5 0.5,0.5h3c0.277,0 0.5,-0.222 0.5,-0.5S9.576,7.1 9.3,7.1z" fill="#CF0A2C"/>
  <path d="M3.5,10.8m-1,0a1,1 0,1 1,2 0a1,1 0,1 1,-2 0" fill="#CF0A2C"/>
  <path d="M9.3,10.3h-3c-0.276,0 -0.5,0.228 -0.5,0.5 0,0.273 0.224,0.5 0.5,0.5h3c0.277,0 0.5,-0.227 0.5,-0.5 0,-0.272 -0.224,-0.5 -0.5,-0.5z" fill="#CF0A2C"/>
  <path d="M3.5,14m-1,0a1,1 0,1 1,2 0a1,1 0,1 1,-2 0" fill="#CF0A2C"/>
  <path d="M9.3,13.5h-3c-0.276,0 -0.5,0.228 -0.5,0.5 0,0.273 0.224,0.5 0.5,0.5h3c0.277,0 0.5,-0.227 0.5,-0.5 0,-0.272 -0.224,-0.5 -0.5,-0.5z" fill="#CF0A2C"/>
</svg>
