<?xml version="1.0" ?>
<svg xmlns="http://www.w3.org/2000/svg" width="22" height="23" viewBox="0 0 22 23">
  <path d="M19.258,8.016h-0.968v-0.72C18.29,3.274 15.022,1 11,1S3.71,3.274 3.71,7.29v0.72h-0.963c-0.951,0 -1.725,0.775 -1.725,1.727v10.881c0,0.952 0.774,1.726 1.725,1.726h16.516c0.952,0 1.726,-0.774 1.726,-1.726L20.989,9.737c-0.005,-0.947 -0.78,-1.72 -1.73,-1.72zM5.903,7.29c0,-2.812 2.285,-4.096 5.097,-4.096 2.812,0 5.097,1.284 5.097,4.096v0.715L5.903,8.005L5.903,7.29zM18.785,20.15L3.215,20.15L3.215,10.21L18.79,10.21l-0.005,9.94z" fill="#AAADCB" stroke-width=".2" stroke="#FFF"/>
  <path d="M11,17.51c0.608,0 1.097,-0.488 1.097,-1.096v-2.828c0,-0.608 -0.49,-1.097 -1.097,-1.097 -0.608,0 -1.097,0.49 -1.097,1.097v2.828c0,0.602 0.49,1.097 1.097,1.097z" fill="#AAADCB"/>
</svg>
