<svg id="Grupo_190735" data-name="Grupo 190735" xmlns="http://www.w3.org/2000/svg" width="24" height="24" viewBox="0 0 24 24">
  <rect id="Rectángulo_147374" data-name="Rectángulo 147374" width="24" height="24" fill="none"/>
  <path id="check_circle_FILL0_wght400_GRAD0_opsz48" d="M88.859-864.88l7.352-7.352-1.2-1.169-6.157,6.157-3.117-3.117-1.169,1.169Zm1.533,5.663a10.055,10.055,0,0,1-4.027-.818,10.541,10.541,0,0,1-3.312-2.234,10.542,10.542,0,0,1-2.234-3.312A10.055,10.055,0,0,1,80-869.608a10.119,10.119,0,0,1,.818-4.053,10.385,10.385,0,0,1,2.234-3.3,10.651,10.651,0,0,1,3.312-2.221A10.053,10.053,0,0,1,90.392-880a10.117,10.117,0,0,1,4.053.818,10.492,10.492,0,0,1,3.3,2.221,10.493,10.493,0,0,1,2.221,3.3,10.119,10.119,0,0,1,.818,4.053,10.055,10.055,0,0,1-.818,4.027,10.654,10.654,0,0,1-2.221,3.312,10.385,10.385,0,0,1-3.3,2.234A10.119,10.119,0,0,1,90.392-859.217Zm0-1.559a8.5,8.5,0,0,0,6.261-2.585,8.534,8.534,0,0,0,2.572-6.248,8.521,8.521,0,0,0-2.572-6.261,8.521,8.521,0,0,0-6.261-2.572,8.534,8.534,0,0,0-6.248,2.572,8.5,8.5,0,0,0-2.585,6.261,8.512,8.512,0,0,0,2.585,6.248A8.512,8.512,0,0,0,90.392-860.776ZM90.392-869.608Z" transform="translate(-78.75 881.717)" fill="#16770c"/>
</svg>
