<?xml version="1.0" ?>
<svg xmlns="http://www.w3.org/2000/svg" width="20" height="20" viewBox="0 0 20 20">
  <path d="M9.985,0.84A9.585,9.585 0,0 0,0.4 10.425a9.585,9.585 0,0 0,9.585 9.586,9.585 9.585,0 0,0 9.586,-9.586A9.585,9.585 0,0 0,9.985 0.84zM9.985,19.082c-4.792,0 -8.656,-3.89 -8.656,-8.657 0,-4.767 3.89,-8.656 8.656,-8.656 4.768,0 8.657,3.89 8.657,8.656 0,4.768 -3.89,8.657 -8.657,8.657zM14.2,10.55c0,0.25 -0.2,0.45 -0.45,0.45h-3.314v3.288c0,0.25 -0.2,0.45 -0.45,0.45 -0.251,0 -0.451,-0.2 -0.451,-0.45v-3.287L6.222,11.001c-0.251,0 -0.45,-0.2 -0.45,-0.451s0.199,-0.45 0.45,-0.45h3.287L9.509,6.786c0,-0.25 0.2,-0.45 0.451,-0.45 0.25,0 0.45,0.2 0.45,0.45v3.288h3.288c0.302,0 0.502,0.225 0.502,0.476z" fill="@color/denimBlue"/>
</svg>
