<?xml version="1.0" ?>
<svg xmlns="http://www.w3.org/2000/svg" width="27" height="27" viewBox="0 0 27 27">
  <path d="M4.7485,9.75L2.7716,9.75C2.3574,9.75 2.0216,9.4142 2.0216,9C2.0216,8.5858 2.3574,8.25 2.7716,8.25L5.301,8.25C5.6296,8.25 5.9199,8.4639 6.0173,8.7777L9.8885,21.25L19.7716,21.25C20.1858,21.25 20.5216,21.5858 20.5216,22C20.5216,22.4142 20.1858,22.75 19.7716,22.75L9.336,22.75C9.0074,22.75 8.7171,22.5361 8.6197,22.2223L4.7485,9.75Z" fill="@color/secondaryRed" stroke-width="1" stroke="#00000000"/>
  <path d="M10.2835,10.25C10.4173,10.7696 10.5963,11.2711 10.8161,11.75L6.0345,11.75C5.6203,11.75 5.2845,11.4142 5.2845,11C5.2845,10.5858 5.6203,10.25 6.0345,10.25L10.2835,10.25ZM21.0203,16.7724L20.3802,19.1918C20.2932,19.5208 19.9955,19.75 19.6552,19.75L8.5343,19.75C8.1201,19.75 7.7843,19.4142 7.7843,19C7.7843,18.5858 8.1201,18.25 8.5343,18.25L19.0778,18.25L19.4109,16.9908C19.9617,16.966 20.4996,16.8918 21.0203,16.7724Z" fill="@color/secondaryRed" stroke-width="1" stroke="#00000000"/>
  <path d="M1,15.0644C0.5858,15.0644 0.25,14.7287 0.25,14.3144C0.25,13.9002 0.5858,13.5644 1,13.5644L4,13.5644C4.4142,13.5644 4.75,13.9002 4.75,14.3144C4.75,14.7287 4.4142,15.0644 4,15.0644L1,15.0644Z" fill="@color/secondaryRed" stroke-width="1" stroke="#00000000"/>
  <path d="M2,18.25C1.5858,18.25 1.25,17.9142 1.25,17.5C1.25,17.0858 1.5858,16.75 2,16.75L5,16.75C5.4142,16.75 5.75,17.0858 5.75,17.5C5.75,17.9142 5.4142,18.25 5,18.25L2,18.25Z" fill="@color/secondaryRed" stroke-width="1" stroke="#00000000"/>
  <path d="M3,21.25C2.5858,21.25 2.25,20.9142 2.25,20.5C2.25,20.0858 2.5858,19.75 3,19.75L6,19.75C6.4142,19.75 6.75,20.0858 6.75,20.5C6.75,20.9142 6.4142,21.25 6,21.25L3,21.25Z" fill="@color/secondaryRed" stroke-width="1" stroke="#00000000"/>
  <path d="M10.7716,25m-2,0a2,2 0,1 1,4 0a2,2 0,1 1,-4 0" fill="@color/secondaryRed" stroke-width="1" stroke="#00000000"/>
  <path d="M17.7716,25m-2,0a2,2 0,1 1,4 0a2,2 0,1 1,-4 0" fill="@color/secondaryRed" stroke-width="1" stroke="#00000000"/>
  <path d="M18.1521,8.0981L18.1843,8.0669L15.9142,5.7968C15.6703,5.5529 15.6703,5.1579 15.9142,4.9142C16.158,4.6704 16.5531,4.6704 16.7973,4.9147L18.9019,7.1521L18.9331,7.1843L21.2032,4.9142C21.4471,4.6703 21.8421,4.6703 22.0858,4.9142C22.3296,5.158 22.3296,5.5531 22.0853,5.7973L19.8479,7.9019L19.8157,7.9331L22.0858,10.2032C22.3297,10.4471 22.3297,10.8421 22.0859,11.0858C21.9681,11.2036 21.8102,11.2687 21.6446,11.2687C21.4789,11.2687 21.3209,11.2036 21.2032,11.0858L19.0346,8.848L16.7968,11.0858C16.6791,11.2036 16.5211,11.2687 16.3554,11.2687C16.1898,11.2687 16.0319,11.2036 15.9142,11.0858C15.6703,10.8421 15.6703,10.4469 15.9147,10.2027L18.1521,8.0981ZM19,15.5C14.8644,15.5 11.5,12.1356 11.5,8C11.5,3.8644 14.8644,0.5 19,0.5C23.1356,0.5 26.5,3.8644 26.5,8C26.5,12.1356 23.1356,15.5 19,15.5ZM19,1.7483C15.553,1.7483 12.7483,4.553 12.7483,8C12.7483,11.447 15.553,14.2517 19,14.2517C22.447,14.2517 25.2517,11.447 25.2517,8C25.2517,4.553 22.447,1.7483 19,1.7483Z" fill="@color/secondaryRed" stroke-width="1" stroke="#00000000"/>
</svg>
