<?xml version="1.0" ?>
<svg xmlns="http://www.w3.org/2000/svg" width="16" height="21" viewBox="0 0 16 21">
  <path d="M9.134,18.333H2.209a0.54,0.54 0,0 1,-0.542 -0.577l0.754,-10.92a0.54,0.54 0,0 1,0.542 -0.503H4v1.334h-0.334a0.333,0.333 0,1 0,0 0.666h1.32a0.333,0.333 0,1 0,0 -0.666h-0.32V6.333h6.001v1.334h-0.333a0.333,0.333 0,1 0,0 0.666h1.334a0.333,0.333 0,1 0,0 -0.666h-0.334V6.333h1.037c0.285,0 0.52,0.22 0.54,0.503l0.514,7.447a0.334,0.334 0,0 0,0.667 -0.046l-0.513,-7.445a1.21,1.21 0,0 0,-1.208 -1.125h-1.037v-1a3.667,3.667 0,0 0,-7.334 0v1H2.963A1.21,1.21 0,0 0,1.756 6.79l-0.753,10.918A1.206,1.206 0,0 0,2.209 19h6.925a0.333,0.333 0,1 0,0 -0.667zM4.666,4.667a3,3 0,0 1,6.001 0v1h-6v-1z" fill="#223BC1" stroke-width=".1" stroke="#223BC1"/>
  <path d="m15.813,19.147 l-1.576,-1.79 0.473,-0.377a0.755,0.755 0,0 0,-0.167 -1.283l-4.478,-1.967a0.758,0.758 0,0 0,-1.033 0.898l1.279,4.514a0.758,0.758 0,0 0,1.202 0.385l0.87,-0.693 1.695,1.91a0.763,0.763 0,0 0,0.542 0.256h0.023c0.201,0 0.393,-0.08 0.536,-0.22l0.6,-0.598a0.757,0.757 0,0 0,0.033 -1.034l0.001,-0.001zM15.309,19.709 L14.709,20.307a0.098,0.098 0,0 1,-0.067 0.026,0.093 0.093,0 0,1 -0.067,-0.03l-1.904,-2.147a0.333,0.333 0,0 0,-0.457 -0.04l-1.118,0.89a0.092,0.092 0,0 1,-0.146 -0.045l-1.279,-4.513c-0.01,-0.033 0,-0.07 0.028,-0.091a0.09,0.09 0,0 1,0.097 -0.015l4.478,1.967a0.089,0.089 0,0 1,0.02 0.151l-0.746,0.595a0.333,0.333 0,0 0,-0.043 0.481l1.808,2.053a0.088,0.088 0,0 1,-0.004 0.12z" fill="#223BC1"/>
</svg>
