<svg xmlns="http://www.w3.org/2000/svg" width="34.411" height="32.302" viewBox="0 0 34.411 32.302">
  <g id="Grupo_196067" data-name="Grupo 196067" transform="translate(0.776 0.5)">
    <path id="_98f511d1829a5255cd11613e48fa9d3a" data-name="98f511d1829a5255cd11613e48fa9d3a" d="M15.929,2A13.929,13.929,0,1,0,29.858,15.929,13.929,13.929,0,0,0,15.929,2Z" transform="translate(3.277 1.444)" fill="#ff001d" stroke="#000" stroke-width="1"/>
    <path id="Trazado_47391" data-name="Trazado 47391" d="M4.257,2.128A2.129,2.129,0,1,1,2.133,0,2.127,2.127,0,0,1,4.257,2.128Z" transform="translate(19.563 15.117) rotate(60)"/>
    <g id="Grupo_196068" data-name="Grupo 196068" transform="translate(30.802 4.228) rotate(86)">
      <path id="Trazado_47317" data-name="Trazado 47317" d="M1.3,2.572A1.309,1.309,0,0,0,2.583,1.26,1.31,1.31,0,0,0,1.28,0,1.286,1.286,0,1,0,1.3,2.572Z" transform="translate(10.93 0)" fill="#faa2ac"/>
      <path id="Trazado_47318" data-name="Trazado 47318" d="M1.284,0a1.283,1.283,0,1,0,0,2.565H1.3A1.271,1.271,0,0,0,2.582,1.29,1.284,1.284,0,0,0,1.284,0Z" transform="translate(0 11.084)" fill="#faa2ac"/>
      <path id="Trazado_47319" data-name="Trazado 47319" d="M1.281,0a1.287,1.287,0,1,0,1.3,1.3A1.3,1.3,0,0,0,1.281,0Z" transform="translate(11.058 22.031)" fill="#faa2ac"/>
      <path id="Trazado_47320" data-name="Trazado 47320" d="M2.581,1.267A1.29,1.29,0,0,0,1.266,0,1.273,1.273,0,0,0,0,1.3v.115a1.287,1.287,0,0,0,1.28,1.3,1.3,1.3,0,0,0,1.3-1.3c0-.018-.021-.049-.021-.06C2.559,1.314,2.581,1.3,2.581,1.267Z" transform="translate(22.053 10.892)" fill="#faa2ac"/>
    </g>
    <path id="Trazado_47390" data-name="Trazado 47390" d="M15.089.123,7.55,4.836a.778.778,0,0,0-.412-.661L1.177.923A.794.794,0,0,0,.414,2.316L6.382,5.571a.617.617,0,0,0,.118.048A.792.792,0,0,0,7.621,6.664l8.307-5.2A.8.8,0,0,0,16.184.374.789.789,0,0,0,15.089.123Z" transform="translate(19.848 8.375) rotate(60)"/>
    <g id="Grupo_196069" data-name="Grupo 196069" transform="translate(0 0)">
      <path id="Trazado_47392" data-name="Trazado 47392" d="M-12610.66,6944.827a12.87,12.87,0,0,1,13.047-10.027" transform="translate(12612.73 -6934.8)" fill="none" stroke="#000" stroke-linecap="round" stroke-width="1"/>
      <path id="Trazado_47393" data-name="Trazado 47393" d="M0,0,1.963,2.7,5.238.574" transform="translate(0.329 7.473) rotate(7)" fill="none" stroke="#000" stroke-linecap="round" stroke-width="1"/>
    </g>
  </g>
</svg>
