<?xml version="1.0" ?>
<svg xmlns="http://www.w3.org/2000/svg" width="20" height="20" viewBox="0 0 20 20">
  <path d="M10,19.2C4.927,19.2 0.8,15.073 0.8,10 0.8,4.927 4.927,0.8 10,0.8c5.073,0 9.2,4.127 9.2,9.2 0,5.073 -4.127,9.2 -9.2,9.2zM10,2.325c-4.232,0 -7.675,3.443 -7.675,7.675 0,4.232 3.443,7.675 7.675,7.675 4.232,0 7.675,-3.443 7.675,-7.675 0,-4.232 -3.443,-7.675 -7.675,-7.675z" fill="#223BC1"/>
  <path d="M13.014,12.795c0.273,0.268 0.273,0.706 0,0.974 -0.131,0.13 -0.307,0.2 -0.49,0.2 -0.182,0 -0.358,-0.07 -0.489,-0.2l-3.111,-3.054c-0.131,-0.13 -0.205,-0.304 -0.205,-0.487V6.155c0,-0.38 0.312,-0.686 0.694,-0.686 0.383,0 0.695,0.306 0.695,0.686v3.787l2.906,2.853z" fill="#CF0A2C"/>
</svg>
