<?xml version="1.0" ?>
<svg xmlns="http://www.w3.org/2000/svg" width="103" height="103" viewBox="0 0 103 103">
  <path d="M56.602,86.848l45.173,-20.112c1.184,2.658 -0.012,5.774 -2.671,6.958l-40.424,17.998c0.167,0.992 -0.349,2.009 -1.31,2.437 -1.141,0.508 -2.476,-0.005 -2.984,-1.145L14.686,3.816c-0.508,-1.14 0.004,-2.476 1.145,-2.984 1.14,-0.508 2.476,0.005 2.984,1.145l37.786,84.868z" fill="#8F9EAF"/>
  <path d="M2.388,6.698L15.814,0.72c1.14,-0.508 2.476,0.005 2.984,1.145 0.508,1.14 -0.005,2.476 -1.145,2.984L4.227,10.827c-1.139,0.507 -2.475,-0.006 -2.983,-1.146 -0.508,-1.14 0.005,-2.476 1.145,-2.984z" fill="#8F9EAF"/>
  <path d="M0.993,5.79l9.135,-4.067c0.854,-0.38 1.854,0.004 2.234,0.858L13.928,6.098c0.38,0.854 -0.003,1.854 -0.858,2.234l-9.135,4.067c-0.853,0.38 -1.854,-0.003 -2.234,-0.858L0.135,8.024c-0.38,-0.853 0.004,-1.854 0.858,-2.234zM61.151,101.777c-6.443,2.869 -13.99,-0.027 -16.858,-6.467 -2.867,-6.44 0.03,-13.988 6.474,-16.856 6.444,-2.869 13.993,0.027 16.86,6.467s-0.032,13.987 -6.476,16.856z" fill="#3B4D63"/>
  <path d="M38.546,46.563l44.971,-20.022l17.937,40.287L56.483,86.85l-17.937,-40.287zM75.265,34.297l1.838,4.129l6.636,-2.955l-1.838,-4.129l-6.636,2.955zM61.698,70.193l1.679,-0.748l-4.994,-3.012 -1.069,5.712l1.802,-0.802l2.951,6.628l2.582,-1.149l-2.951,-6.628z" fill="#C5D0D9"/>
  <path d="M29.386,25.917l20.79,-9.256L59.428,37.441L38.638,46.697L29.386,25.917zM37.039,22.559l2.832,6.361l1.477,-2.039 2.587,0.23l-2.832,-6.361l-4.064,1.81z" fill="#DAE2EC"/>
  <path d="M50.356,92.61a6.132,6.134 65.995,1 0,11.207 -4.99a6.132,6.134 65.995,1 0,-11.207 4.99z" fill="#F6F9FA"/>
</svg>
