<?xml version="1.0" ?>
<svg xmlns="http://www.w3.org/2000/svg" width="28" height="28" viewBox="0 0 28 28">
  <path d="M24.752,20.19l-5.809,-5.808 5.807,-5.807c0.71,-0.71 0.71,-1.87 0,-2.581l-2.584,-2.58a1.833,1.833 0,0 0,-2.58 0L13.778,9.22 7.972,3.414a1.833,1.833 0,0 0,-2.581 0l-2.579,2.58a1.83,1.83 0,0 0,0 2.58l5.808,5.808 -5.808,5.809a1.83,1.83 0,0 0,0 2.58l2.581,2.579c0.71,0.71 1.872,0.71 2.58,0l5.807,-5.806 5.807,5.806c0.71,0.71 1.87,0.71 2.584,0l2.581,-2.58c0.71,-0.709 0.71,-1.87 0,-2.58z" fill="#FF5E57" stroke-width="3.84" stroke="#FFF"/>
</svg>
