<?xml version="1.0" ?>
<svg xmlns="http://www.w3.org/2000/svg" width="18" height="18" viewBox="0 0 18 18">
  <path d="M9,6C7.343,6 6,7.343 6,9c0,1.658 1.343,3 3,3 1.658,0 3,-1.342 3,-3 0,-1.657 -1.342,-3 -3,-3zM15.705,8.25c-0.345,-3.128 -2.828,-5.61 -5.955,-5.955L9.75,0.75h-1.5v1.545C5.122,2.64 2.64,5.122 2.295,8.25L0.75,8.25v1.5h1.545c0.345,3.127 2.827,5.61 5.955,5.955v1.545h1.5v-1.545c3.127,-0.345 5.61,-2.828 5.955,-5.955h1.545v-1.5h-1.545zM9,14.25c-2.902,0 -5.25,-2.348 -5.25,-5.25S6.098,3.75 9,3.75 14.25,6.098 14.25,9 11.902,14.25 9,14.25z" fill="#000"/>
</svg>
