<?xml version="1.0" ?>
<svg xmlns="http://www.w3.org/2000/svg" width="17" height="20" viewBox="0 0 17 20">
  <path d="M16.154,3.077h-3.846L12.308,0.769c0,-0.425 -0.345,-0.769 -0.77,-0.769L5.385,0c-0.425,0 -0.77,0.344 -0.77,0.77v2.307L0.77,3.077c-0.425,0 -0.769,0.344 -0.769,0.77 0,0.424 0.344,0.768 0.77,0.768h15.384c0.425,0 0.77,-0.344 0.77,-0.769 0,-0.425 -0.345,-0.77 -0.77,-0.77zM6.154,1.538h4.615v1.539L6.154,3.077L6.154,1.538zM14.615,6.154c-0.424,0 -0.769,0.344 -0.769,0.77v10.768c0,0.425 -0.344,0.77 -0.77,0.77h-9.23c-0.425,0 -0.769,-0.345 -0.77,-0.77L3.076,6.923c0,-0.425 -0.343,-0.77 -0.768,-0.77s-0.77,0.345 -0.77,0.77v10.77C1.54,18.965 2.572,19.998 3.846,20h9.23c1.275,-0.001 2.307,-1.034 2.309,-2.308L15.385,6.923c0,-0.425 -0.345,-0.77 -0.77,-0.77z" fill="#CF202E"/>
  <path d="M7.708,14.615V8.462c0,-0.425 -0.345,-0.77 -0.77,-0.77 -0.424,0 -0.769,0.345 -0.769,0.77v6.153c0,0.425 0.345,0.77 0.77,0.77 0.424,0 0.769,-0.345 0.769,-0.77zM10.754,14.615V8.462c0,-0.425 -0.344,-0.77 -0.769,-0.77 -0.425,0 -0.77,0.345 -0.77,0.77v6.153c0,0.425 0.345,0.77 0.77,0.77 0.425,0 0.77,-0.345 0.77,-0.77z" fill="#CF202E"/>
</svg>
