<?xml version="1.0" ?>
<svg xmlns="http://www.w3.org/2000/svg" width="253" height="173" viewBox="0 0 253 173">
  <path d="M68.55,141.52L22.71,141.52C21.14,141.52 19.87,140.25 19.87,138.68C19.87,137.11 21.14,135.84 22.71,135.84L68.55,135.84C70.12,135.84 71.39,137.11 71.39,138.68C71.39,140.25 70.12,141.52 68.55,141.52Z" fill="#FF9B24" stroke-width="1" stroke="#00000000"/>
  <path d="M69.76,119.31L2.84,119.31C1.27,119.31 0,118.03 0,116.47C0,114.9 1.27,113.63 2.84,113.63L69.76,113.63C71.32,113.63 72.6,114.9 72.6,116.47C72.6,118.03 71.32,119.31 69.76,119.31Z" fill="#FF9B24" stroke-width="1" stroke="#00000000"/>
  <path d="M41.26,97.1L2.84,97.1C1.27,97.1 0,95.82 0,94.25C0,92.69 1.27,91.41 2.84,91.41L41.26,91.41C42.82,91.41 44.1,92.69 44.1,94.25C44.1,95.82 42.83,97.1 41.26,97.1Z" fill="#FF9B24" stroke-width="1" stroke="#00000000"/>
  <path d="M41.26,74.88L22.71,74.88C21.14,74.88 19.87,73.61 19.87,72.04C19.87,70.47 21.14,69.2 22.71,69.2L41.26,69.2C42.83,69.2 44.1,70.47 44.1,72.04C44.1,73.61 42.83,74.88 41.26,74.88Z" fill="#FF9B24" stroke-width="1" stroke="#00000000"/>
  <path d="M120.68,149.92m-22.3,0a22.3,22.3 0,1 1,44.61 0a22.3,22.3 0,1 1,-44.61 0" fill="#332929" stroke-width="1" stroke="#00000000"/>
  <path d="M154.49,87.59L154.49,78.85L118.46,78.85L118.46,85.26L118.46,88.42L118.46,107.99L134.39,107.99C141.28,107.99 146.86,113.57 146.86,120.46L146.86,127.8C146.86,132.04 150.3,135.48 154.54,135.48L167.03,135.48L167.03,107.71C167.03,98.88 161.91,91.25 154.49,87.59Z" fill="#3B65A8" stroke-width="1" stroke="#00000000"/>
  <path d="M120.68,149.92m-11.23,0a11.23,11.23 0,1 1,22.46 0a11.23,11.23 0,1 1,-22.46 0" fill="#EFB65A" stroke-width="1" stroke="#00000000"/>
  <path d="M230.61,149.92m-22.3,0a22.3,22.3 0,1 1,44.61 0a22.3,22.3 0,1 1,-44.61 0" fill="#332929" stroke-width="1" stroke="#00000000"/>
  <path d="M230.61,149.92m-11.23,0a11.23,11.23 0,1 1,22.46 0a11.23,11.23 0,1 1,-22.46 0" fill="#EFB65A" stroke-width="1" stroke="#00000000"/>
  <path d="M216.99,63.93L218.55,63.93C220.44,63.93 221.98,65.47 221.98,67.36L221.98,83.43C221.98,85.33 220.44,86.86 218.55,86.86L216.99,86.86C210.66,86.86 205.53,81.73 205.53,75.4L205.53,75.4C205.53,69.07 210.66,63.93 216.99,63.93Z" fill="#FF9B24" stroke-width="1" stroke="#00000000"/>
  <path d="M90.04,147.35L209.42,147.35C209.42,136.15 223.53,123.42 233.35,123.42L200.26,65.39L186.85,65.39L198.6,120.91C199.13,123.41 198.49,126.01 196.87,127.99L196.87,127.99C195.27,129.93 192.88,131.06 190.37,131.06L154.54,131.06C150.3,131.06 146.86,127.62 146.86,123.38L146.86,116.04C146.86,109.15 141.28,103.57 134.39,103.57L116.32,103.57C104.08,103.57 93.13,111.18 88.86,122.65L83.29,137.63C81.54,142.34 85.02,147.35 90.04,147.35Z" fill="#D71C22" stroke-width="1" stroke="#00000000"/>
  <path d="M196.38,59.83L188.23,59.83L188.23,69.77C191.68,69.97 197.05,70.61 199.78,71.87C200.95,72.41 202.28,71.6 202.28,70.32L202.28,65.72C202.27,62.47 199.64,59.83 196.38,59.83Z" fill="#F6B77D" stroke-width="1" stroke="#00000000"/>
  <path d="M251.23,134.89C248.17,128.47 242.37,123.33 234.58,121.43C224.48,118.96 213.65,123.29 208.06,132.06C204.12,138.23 203.24,145.2 204.8,151.49C205.13,152.82 206.88,153.15 207.72,152.07C217.48,139.61 233.7,133.69 249.32,137.2C250.67,137.5 251.82,136.13 251.23,134.89Z" fill="#C1171D" stroke-width="1" stroke="#00000000"/>
  <path d="M156.51,61.26L156.51,61.26C156.51,69.58 163.25,76.33 171.57,76.33L184.48,76.33C187.77,76.33 190.43,73.66 190.43,70.37L190.43,59.83L180.67,59.83C178.01,59.83 175.68,58.15 174.78,55.65C172.31,48.82 164.52,40.82 154.79,40.82L154.79,40.82C137.15,40.85 122.86,55.15 122.86,72.79L122.86,85.26L144.56,85.26C148.09,85.26 151.42,86.07 154.39,87.52L154.39,87.52C154.31,82.92 157.21,78.32 163.1,73.73" fill="#C1171D" stroke-width="1" stroke="#00000000"/>
  <path d="M187.5,22.17C187.5,34.42 177.58,44.34 165.33,44.34C153.09,44.34 140.93,27.8 140.93,15.55C140.93,3.3 153.09,0 165.33,0C177.58,0 187.5,9.93 187.5,22.17Z" fill="#FF9B24" stroke-width="1" stroke="#00000000"/>
  <path d="M169.33,43.98C178.52,42.3 185.74,34.96 187.22,25.71L170.48,21.69C166.8,20.81 163.54,24.23 164.61,27.86L169.33,43.98Z" fill="#F6B77D" stroke-width="1" stroke="#00000000"/>
  <path d="M68.17,52.65L113.37,52.65C118.62,52.65 122.87,56.91 122.87,62.16L122.87,103.57L68.17,103.57C62.92,103.57 58.66,99.32 58.66,94.07L58.66,62.16C58.66,56.91 62.92,52.65 68.17,52.65Z" fill="#FF9B24" stroke-width="1" stroke="#00000000"/>
</svg>
