<?xml version="1.0" ?>
<svg xmlns="http://www.w3.org/2000/svg" width="33" height="32" viewBox="0 0 33 32">
  <path d="M25.617,15.683l-8.205,-8.207a0.908,0.908 0,0 0,-1.286 0L7.92,15.683a0.908,0.908 0,0 0,0 1.286l8.206,8.206a0.908,0.908 0,0 0,1.286 0l8.206,-8.206a0.908,0.908 0,0 0,0 -1.286zM18.588,18.609v-2.28h-3.647v2.736L13.117,19.065v-3.647c0,-0.502 0.41,-0.912 0.912,-0.912h4.56v-2.28l3.19,3.192 -3.19,3.191z" fill="#223BC1"/>
  <path d="M16.289,15.845m-15.352,0a15.352,15.352 0,1 1,30.704 0a15.352,15.352 0,1 1,-30.704 0" fill="#00000000" stroke-width=".96" stroke="#223BC1"/>
</svg>
