<?xml version="1.0" ?>
<svg xmlns="http://www.w3.org/2000/svg" width="25" height="25" viewBox="0 0 25 25">
  <path d="M19.7164,2.7531L17.4638,0.5006C16.7964,-0.1669 15.7119,-0.1669 15.0445,0.5006L6.98,8.5373C7.3415,9.3437 6.9522,10.2892 6.1457,10.6229C5.7286,10.7898 5.2836,10.7898 4.8665,10.6229L0.5006,15.0445C-0.1669,15.7119 -0.1669,16.7964 0.5006,17.4638L2.7531,19.7164C3.4483,19.0211 4.5884,19.0211 5.2836,19.7164C5.9789,20.4116 5.9789,21.5517 5.2836,22.2469L7.5362,24.4994C8.2036,25.1669 9.2881,25.1669 9.9555,24.4994L14.3493,20.1057C13.9878,19.2992 14.3771,18.3537 15.1835,18.02C15.6007,17.8532 16.0456,17.8532 16.4627,18.02L24.4994,9.9833C25.1669,9.3159 25.1669,8.2314 24.4994,7.564L22.2469,5.3115C21.5517,6.0067 20.4116,5.9789 19.7164,5.2836C19.0211,4.5884 19.0211,3.4483 19.7164,2.7531Z" fill="#F2AB14" stroke-width="1" stroke="#00000000"/>
  <path d="M7.9255,11.5684C8.1201,11.3737 8.1201,11.0679 7.9255,10.8732L7.0078,9.9555C6.98,9.9277 6.98,9.9277 6.9522,9.8999C6.8131,10.178 6.5628,10.4283 6.257,10.5673C6.257,10.5673 6.257,10.5951 6.2848,10.5951C6.2848,10.5951 6.3126,10.6229 6.3126,10.6229L7.2303,11.5406C7.4249,11.7631 7.7308,11.7631 7.9255,11.5684Z" fill="#FFFFFF" stroke-width="1" stroke="#00000000"/>
  <path d="M10.2892,13.2369L9.3715,12.3192C9.1769,12.1246 8.871,12.1246 8.6763,12.3192C8.4816,12.5139 8.4816,12.8198 8.6763,13.0145L9.594,13.9321C9.7887,14.1268 10.0945,14.1268 10.2892,13.9321C10.4839,13.7375 10.4839,13.4316 10.2892,13.2369Z" fill="#FFFFFF" stroke-width="1" stroke="#00000000"/>
  <path d="M15.0723,18.0756C15.0445,18.02 15.0167,17.9922 14.9889,17.9644L14.0712,17.0467C13.8765,16.8521 13.5706,16.8521 13.376,17.0467C13.1813,17.2414 13.1813,17.5473 13.376,17.7419L14.2937,18.6596C14.3215,18.6874 14.3771,18.7152 14.4049,18.743C14.5717,18.465 14.7942,18.2425 15.0723,18.0756L15.0723,18.0756Z" fill="#FFFFFF" stroke-width="1" stroke="#00000000"/>
  <path d="M11.0122,14.683C10.8176,14.8776 10.8176,15.1835 11.0122,15.3504L11.9299,16.2681C12.1246,16.4627 12.4305,16.4627 12.6251,16.2681C12.8198,16.0734 12.8198,15.7675 12.6251,15.5729L11.7075,14.6552C11.5128,14.4883 11.2069,14.4883 11.0122,14.683Z" fill="#FFFFFF" stroke-width="1" stroke="#00000000"/>
  <path d="M11.7909,18.9655L6.0345,13.2369C5.8398,13.0423 5.5339,13.0423 5.3393,13.2369C5.1446,13.4316 5.1446,13.7375 5.3393,13.9043L11.0679,19.6329C11.2625,19.8276 11.5684,19.8276 11.7631,19.6329C11.9577,19.4661 11.9577,19.1602 11.7909,18.9655L11.7909,18.9655Z" fill="#E26814" stroke-width="1" stroke="#00000000"/>
  <path d="M7.9811,18.604C7.7864,18.4093 7.4805,18.4093 7.2859,18.604C7.0912,18.7987 7.0912,19.1046 7.2859,19.2714L9.3715,21.3571C9.5662,21.5517 9.8721,21.5517 10.0667,21.3571C10.2614,21.1624 10.2614,20.8565 10.0667,20.6618L7.9811,18.604Z" fill="#E26814" stroke-width="1" stroke="#00000000"/>
  <path d="M4.3382,14.9611C4.1435,14.7664 3.8376,14.7664 3.6429,14.9611C3.4483,15.1557 3.4483,15.4616 3.6429,15.6563L5.3115,17.3248C5.5061,17.5195 5.812,17.5195 6.0067,17.3248C6.2013,17.1301 6.2013,16.8242 6.0067,16.6574L4.3382,14.9611Z" fill="#E26814" stroke-width="1" stroke="#00000000"/>
  <path d="M12.2914,11.5684C11.8465,11.5684 11.4016,11.4016 11.0679,11.0679C10.4004,10.4004 10.4004,9.2881 11.0679,8.6207C11.4016,8.287 11.8465,8.1201 12.2914,8.1201C12.7364,8.1201 13.1813,8.3148 13.515,8.6207C14.1824,9.2881 14.1824,10.4004 13.515,11.0679C13.1813,11.4016 12.7364,11.5684 12.2914,11.5684L12.2914,11.5684ZM12.2914,9.0656C12.0968,9.0656 11.9021,9.1491 11.7631,9.2881C11.4572,9.594 11.4572,10.0667 11.7631,10.3726C12.069,10.6785 12.5417,10.6785 12.8476,10.3726C13.1535,10.0667 13.1535,9.594 12.8476,9.2881C12.6808,9.1491 12.4861,9.0656 12.2914,9.0656L12.2914,9.0656Z" fill="#FFFFFF" stroke-width="1" stroke="#00000000"/>
  <path d="M18.2981,11.5684C17.8532,11.5684 17.4082,11.4016 17.0745,11.0679C16.4071,10.4004 16.4071,9.2881 17.0745,8.6207C17.7419,7.9533 18.8543,7.9533 19.5217,8.6207C20.1891,9.2881 20.1891,10.4004 19.5217,11.0679C19.188,11.4016 18.743,11.5684 18.2981,11.5684L18.2981,11.5684ZM18.2981,9.0656C18.1034,9.0656 17.9088,9.1491 17.7697,9.2881C17.4638,9.594 17.4638,10.0667 17.7697,10.3726C18.0756,10.6785 18.5484,10.6785 18.8543,10.3726C19.1602,10.0667 19.1602,9.594 18.8543,9.2881C18.6874,9.1491 18.4928,9.0656 18.2981,9.0656Z" fill="#FFFFFF" stroke-width="1" stroke="#00000000"/>
  <path d="M15.2948,14.2102C15.0167,14.2102 14.7942,13.9878 14.7942,13.7097L14.7942,5.9232C14.7942,5.6452 15.0167,5.4227 15.2948,5.4227C15.5729,5.4227 15.7953,5.6452 15.7953,5.9232L15.7953,13.7375C15.7675,13.9878 15.5729,14.2102 15.2948,14.2102L15.2948,14.2102Z" fill="#FFFFFF" stroke-width="1" stroke="#00000000"/>
</svg>
