<?xml version="1.0" ?>
<svg xmlns="http://www.w3.org/2000/svg" width="20" height="20" viewBox="0 0 20 20">
  <path d="M10,14.48l2.54,-2.54c0.122,-0.121 0.288,-0.19 0.46,-0.19h0.3c3.325,0.044 6.006,2.725 6.05,6.05v0.9c0,0.359 -0.291,0.65 -0.65,0.65 -0.359,0 -0.65,-0.291 -0.65,-0.65v-0.895c-0.029,-2.076 -1.38,-3.903 -3.333,-4.53l-0.583,-0.143c-0.275,-0.053 -0.555,-0.08 -0.834,-0.082h-0.03l-2.825,2.824h-0.89L6.731,13.05L6.7,13.05c-0.28,0.001 -0.56,0.029 -0.818,0.078l-0.576,0.14c-1.977,0.634 -3.328,2.46 -3.357,4.532v0.9c0,0.359 -0.291,0.65 -0.65,0.65 -0.359,0 -0.65,-0.291 -0.65,-0.65v-0.905c0.044,-3.32 2.725,-6.001 6.05,-6.045L7,11.75c0.172,0 0.338,0.069 0.46,0.19L10,14.48zM10.053,15.277l0.241,-0.1 -0.139,-0.003 -0.102,0.103zM9.703,15.174l0.244,0.103 -0.102,-0.103h-0.142z" fill="#B2B2B2"/>
  <path d="M4.57,6.944c-0.101,-0.641 0.209,-1.264 0.751,-1.579 -0.25,-1.017 -0.276,-1.325 -0.152,-1.823C5.577,1.911 7.537,0.65 10,0.65c2.463,0 4.423,1.26 4.83,2.892 0.125,0.498 0.098,0.806 -0.151,1.823 0.542,0.315 0.852,0.938 0.751,1.58 -0.103,0.657 -0.612,1.163 -1.247,1.28 -0.228,1.151 -1.066,2.205 -2.195,2.923 -0.025,0.056 -0.034,0.049 -0.052,0.035l-0.123,0.07c-0.1,0.055 -0.251,0.135 -0.455,0.24 -0.417,0.21 -0.874,0.332 -1.376,0.357 -0.466,-0.025 -0.923,-0.146 -1.343,-0.358 -0.2,-0.104 -0.351,-0.184 -0.452,-0.24 -0.072,-0.038 -0.072,-0.038 -0.123,-0.069 -0.018,0.014 -0.027,0.02 -0.052,-0.035 -1.13,-0.719 -1.968,-1.771 -2.195,-2.923 -0.635,-0.117 -1.144,-0.623 -1.247,-1.28zM11.604,10.562c1.062,-0.673 1.817,-1.673 1.926,-2.7l0.034,-0.312h0.337c0.417,0 0.773,-0.303 0.838,-0.715 0.065,-0.412 -0.18,-0.81 -0.578,-0.938l-0.312,-0.1 0.08,-0.319c0.285,-1.13 0.32,-1.38 0.223,-1.766C13.829,2.42 12.165,1.35 10,1.35S6.171,2.42 5.848,3.712c-0.096,0.386 -0.062,0.635 0.223,1.766l0.08,0.319 -0.312,0.1c-0.398,0.128 -0.643,0.526 -0.578,0.938 0.065,0.412 0.42,0.716 0.839,0.715h0.336l0.034,0.313c0.109,1.027 0.863,2.026 1.926,2.7l0.023,0.014 0.054,0.034 0.05,0.027c0.095,0.053 0.242,0.13 0.435,0.23 0.33,0.167 0.691,0.263 1.024,0.282 0.369,-0.019 0.73,-0.115 1.057,-0.28 0.196,-0.102 0.343,-0.18 0.439,-0.232l0.049,-0.027 0.05,-0.032 0.027,-0.017zM7.05,7.6c0,1.363 1.813,2.95 2.95,2.95 1.137,0 2.95,-1.587 2.95,-2.95L12.95,6.12c-0.53,-0.332 -1.075,-0.886 -1.593,-1.534 -1.323,0.817 -2.782,1.393 -4.307,1.699L7.05,7.6zM10,11.25c-1.505,0 -3.65,-1.878 -3.65,-3.65L6.35,5.701l0.289,-0.05c1.643,-0.292 3.21,-0.913 4.607,-1.824l0.273,-0.178 0.197,0.26c0.577,0.758 1.211,1.416 1.749,1.702l0.185,0.099L13.65,7.6c0,1.772 -2.145,3.65 -3.65,3.65zM14.15,6.7c0,0.138 -0.112,0.25 -0.25,0.25v0.35h0.35L14.25,6.1h-0.35v0.35c0.138,0 0.25,0.112 0.25,0.25zM14.85,6.7c0,0.525 -0.425,0.95 -0.95,0.95h-0.35v-1.9h0.35c0.525,0 0.95,0.425 0.95,0.95zM6.422,3.896c-0.045,0.22 -0.024,0.405 0.16,1.151 1.267,-0.261 2.368,-0.651 3.301,-1.12 0.353,-0.177 0.656,-0.353 0.908,-0.519 0.15,-0.098 0.262,-0.18 0.294,-0.208 0.139,-0.115 0.32,-0.167 0.499,-0.144 0.179,0.024 0.34,0.12 0.444,0.267 0.438,0.61 1,1.229 1.428,1.57 0.155,-0.647 0.167,-0.82 0.113,-1.035C13.316,2.845 11.856,1.95 10,1.95c-1.856,0 -3.316,0.895 -3.57,1.908l-0.008,0.038zM6.386,5.798l-0.323,0.06 -0.08,-0.318c-0.289,-1.148 -0.329,-1.387 -0.247,-1.785 0.007,-0.034 0.007,-0.034 0.016,-0.067C6.092,2.328 7.85,1.25 10,1.25c2.15,0 3.909,1.078 4.249,2.438 0.105,0.422 0.067,0.664 -0.23,1.844l-0.1,0.397 -0.376,-0.16c-0.562,-0.239 -1.407,-1.104 -2.053,-1.995 -0.836,0.685 -2.619,1.566 -5.104,2.024zM5.75,6.1v1.2h0.35v-0.35c-0.138,0 -0.25,-0.112 -0.25,-0.25s0.112,-0.25 0.25,-0.25L6.1,6.1h-0.35zM6.45,7.65L6.1,7.65c-0.525,0 -0.95,-0.425 -0.95,-0.95 0,-0.525 0.425,-0.95 0.95,-0.95h0.35v1.9zM4.85,13.162l1.3,-0.304v1.697c0.869,0.224 1.499,1.011 1.5,1.936v1.5c0,0.359 -0.291,0.65 -0.65,0.65h-0.6c-0.359,0 -0.65,-0.291 -0.65,-0.65 0,-0.342 0.264,-0.623 0.6,-0.648v-0.852c0,-0.387 -0.313,-0.7 -0.7,-0.7h-0.3c-0.387,0 -0.7,0.313 -0.7,0.7v0.852c0.336,0.025 0.6,0.306 0.6,0.648 0,0.359 -0.291,0.65 -0.65,0.65L4,18.641c-0.359,0 -0.65,-0.291 -0.65,-0.65v-1.5c0.001,-0.925 0.631,-1.712 1.5,-1.936v-1.393zM5.55,13.717v-0.277l-0.1,0.126v0.175l0.1,-0.024zM13.85,15.687v-2.846l1.3,0.332v2.515c0.604,0.278 0.974,0.922 0.888,1.603 -0.099,0.774 -0.758,1.354 -1.538,1.354s-1.44,-0.58 -1.538,-1.354c-0.086,-0.68 0.284,-1.325 0.888,-1.603zM14.55,13.742v-0.168l-0.1,-0.129v0.272l0.1,0.025zM14.287,16.272c-0.414,0.107 -0.684,0.506 -0.63,0.93 0.054,0.425 0.415,0.743 0.843,0.743s0.79,-0.318 0.843,-0.743c0.054,-0.424 -0.216,-0.823 -0.63,-0.93l-0.213,-0.055 -0.213,0.055zM14.75,17.091c0,-0.138 -0.112,-0.25 -0.25,-0.25s-0.25,0.112 -0.25,0.25 0.112,0.25 0.25,0.25 0.25,-0.112 0.25,-0.25zM15.45,17.091c0,0.524 -0.425,0.95 -0.95,0.95 -0.525,0 -0.95,-0.426 -0.95,-0.95 0,-0.525 0.425,-0.95 0.95,-0.95 0.525,0 0.95,0.425 0.95,0.95z" fill="#B2B2B2"/>
</svg>
