<?xml version="1.0" ?>
<svg xmlns="http://www.w3.org/2000/svg" width="41" height="41" viewBox="0 0 41 41">
  <path d="M-28,-102h360v923H-28z" fill="#F6F8FB"/>
  <path d="M-4,-21.36L308,-21.36A9.6,9.6 0,0 1,317.6 -11.76L317.6,52.56A9.6,9.6 0,0 1,308 62.16L-4,62.16A9.6,9.6 0,0 1,-13.6 52.56L-13.6,-11.76A9.6,9.6 0,0 1,-4 -21.36z" fill="#000"/>
  <path d="M-4,-21.36L308,-21.36A9.6,9.6 0,0 1,317.6 -11.76L317.6,52.56A9.6,9.6 0,0 1,308 62.16L-4,62.16A9.6,9.6 0,0 1,-13.6 52.56L-13.6,-11.76A9.6,9.6 0,0 1,-4 -21.36z" fill="#FFF"/>
  <path d="M27.101,32.993l0.348,0.95a0.28,0.28 0,0 1,-0.261 0.377L13.839,34.32a0.28,0.28 0,0 1,-0.26 -0.377l0.35,-0.96a23.06,23.06 0,0 1,-3.68 -2.871c0.001,0 0.001,0 0,0 -0.128,-0.125 -0.256,-0.25 -0.38,-0.377 -2.361,-0.065 -4.533,-1.817 -5.746,-3.81 -0.086,-0.143 0.064,-0.312 0.215,-0.241a26.79,26.79 0,0 0,3.142 1.24,22.697 22.697,0 0,1 -1.445,-2.26v-0.002a27.115,27.115 0,0 1,-0.25 -0.46c-2.25,-0.746 -3.823,-3.068 -4.408,-5.336 -0.042,-0.162 0.152,-0.279 0.275,-0.167 0.849,0.771 1.727,1.475 2.663,2.129 -0.309,-0.896 -0.556,-1.77 -0.737,-2.61v-0.002a26.959,26.959 0,0 1,-0.104 -0.504C1.504,16.31 0.692,13.56 0.81,11.177c0.009,-0.168 0.23,-0.22 0.313,-0.074a25.65,25.65 0,0 0,1.917 2.898c-0.028,-0.694 -0.005,-1.121 0.066,-1.947v-0.81c0.129,-1.715 0.442,-2.659 0.933,-4.334a0.593,0.593 0,0 1,0.738 -0.405,0.6 0.6,0 0,1 0.401,0.744 23.73,23.73 0,0 0,-0.684 3.08,24.94 24.94,0 0,1 2.124,-1.9c0.126,-0.1 0.309,0.02 0.266,0.178 -0.521,1.933 -1.38,3.847 -2.652,5.392 0.008,0.226 0.02,0.454 0.034,0.684v0.001c0.05,0.775 0.151,1.592 0.304,2.436 0.464,-0.87 0.972,-1.7 1.541,-2.512a0.168,0.168 0,0 1,0.306 0.09c0.081,1.949 -0.194,3.994 -0.961,5.792a25.78,25.78 0,0 0,0.226 0.624c0.27,0.719 0.602,1.462 0.99,2.217 0.194,-0.965 0.442,-1.905 0.756,-2.846 0.05,-0.151 0.264,-0.154 0.317,-0.003 0.643,1.83 0.956,3.863 0.74,5.8a21.135,21.135 0,0 0,1.992 2.372,23.387 23.387,0 0,1 -0.108,-2.97c0.004,-0.16 0.208,-0.225 0.303,-0.096 1.153,1.577 2.053,3.447 2.428,5.376 0.173,0.13 0.35,0.258 0.53,0.386 0.22,0.156 0.447,0.36 0.682,0.588l0.257,-0.704a0.278,0.278 0,0 1,0.26 -0.183h11.367c0.116,0 0.22,0.073 0.26,0.183l0.224,0.61c0.234,-0.15 0.462,-0.305 0.681,-0.46l0.001,-0.001c0.164,-0.116 0.325,-0.233 0.483,-0.35 0.367,-1.954 1.274,-3.85 2.441,-5.445 0.095,-0.129 0.299,-0.063 0.303,0.097a23.41,23.41 0,0 1,-0.115 3.044c0.61,-0.627 1.16,-1.26 1.64,-1.888l0.001,-0.001c0.126,-0.164 0.248,-0.327 0.367,-0.49 -0.232,-1.957 0.08,-4.016 0.73,-5.868 0.054,-0.151 0.268,-0.148 0.318,0.003 0.321,0.964 0.574,1.927 0.77,2.917 0.396,-0.768 0.735,-1.524 1.01,-2.255v-0.001c0.076,-0.2 0.148,-0.4 0.217,-0.598 -0.786,-1.812 -1.068,-3.88 -0.986,-5.85a0.168,0.168 0,0 1,0.306 -0.09c0.581,0.83 1.099,1.678 1.57,2.568 0.156,-0.853 0.259,-1.677 0.308,-2.458v-0.001c0.015,-0.228 0.026,-0.454 0.034,-0.677 -1.29,-1.553 -2.16,-3.483 -2.685,-5.433 -0.043,-0.157 0.14,-0.278 0.266,-0.177a24.944,24.944 0,0 1,2.138 1.914c-0.157,-0.905 -0.38,-1.777 -0.665,-2.752a0.594,0.594 0,1 1,1.14 -0.34c0.49,1.676 0.804,3.085 0.932,4.8v-0.74c0.073,0.837 0.095,1.724 0.065,2.647a25.665,25.665 0,0 0,1.885 -2.856c0.083,-0.146 0.304,-0.094 0.313,0.074 0.118,2.363 -0.68,5.089 -2.616,6.502a22.618,22.618 0,0 1,-0.83 3.108,26.436 26.436,0 0,0 2.605,-2.088c0.123,-0.112 0.317,0.005 0.275,0.167 -0.58,2.247 -2.13,4.547 -4.345,5.314 -0.09,0.171 -0.183,0.342 -0.278,0.514v0.002a22.594,22.594 0,0 1,-1.405 2.204,26.814 26.814,0 0,0 3.067,-1.216c0.15,-0.07 0.301,0.098 0.215,0.24 -1.201,1.975 -3.343,3.712 -5.676,3.81a26.63,26.63 0,0 1,-0.417 0.41l-0.001,0.002a23.074,23.074 0,0 1,-2.697 2.217c-0.302,0.214 -0.617,0.425 -0.945,0.63zM20.545,6.48c4.333,0 7.844,3.524 7.845,7.87 0,4.347 -3.512,7.872 -7.845,7.872S12.7,18.697 12.7,14.35c0,-4.346 3.512,-7.87 7.845,-7.87zM22.685,17.39c0.385,-0.433 0.579,-0.975 0.58,-1.622 0,-0.423 -0.094,-0.793 -0.28,-1.11a2.043,2.043 0,0 0,-0.753 -0.745c-0.313,-0.18 -0.746,-0.37 -1.298,-0.573 -0.502,-0.185 -0.83,-0.34 -0.983,-0.466 -0.152,-0.126 -0.23,-0.305 -0.23,-0.54 0,-0.23 0.08,-0.425 0.24,-0.587 0.157,-0.162 0.367,-0.242 0.63,-0.242 0.524,0 0.909,0.361 1.158,1.084l1.28,-0.527c-0.306,-1.054 -0.978,-1.642 -2.016,-1.768v-0.859h-0.929v0.86c-0.688,0.096 -1.191,0.362 -1.512,0.798 -0.32,0.435 -0.48,0.926 -0.48,1.471 0,0.416 0.09,0.78 0.268,1.093 0.18,0.313 0.413,0.557 0.7,0.729 0.288,0.174 0.687,0.35 1.198,0.527 0.568,0.202 0.935,0.367 1.1,0.5 0.164,0.13 0.246,0.323 0.246,0.578a0.883,0.883 0,0 1,-0.247 0.63c-0.164,0.173 -0.423,0.26 -0.773,0.26 -0.748,0 -1.189,-0.406 -1.321,-1.218l-1.437,0.375c0.29,1.291 1.042,2 2.257,2.125v1.108h0.929v-1.114c0.729,-0.078 1.286,-0.332 1.672,-0.767z" fill="#CD202E"/>
</svg>
