<svg xmlns="http://www.w3.org/2000/svg" width="32" height="32" viewBox="0 0 32 32">
    <g fill="none" fill-rule="evenodd">
        <g>
            <g transform="translate(-321 -104) translate(321 104)">
                <circle cx="16" cy="16" r="16" fill="#D5D5D5" opacity=".5"/>
                <g fill="#3F4349" fill-rule="nonzero" stroke="#3F4349" stroke-width=".5">
                    <path d="M13.857 3.187L10.797.128c-.17-.17-.446-.17-.617 0L.129 10.179c-.082.082-.128.193-.128.309L0 13.548c0 .116.046.227.128.309.082.082.193.128.309.128l3.06-.001c.116 0 .227-.046.309-.128l10.05-10.051c.172-.17.172-.447 0-.618zM3.315 13.111H.873l.001-2.441 7.211-7.211 2.441 2.44-7.21 7.212h0zm7.83-7.83l-2.442-2.44 1.786-1.786 2.44 2.441-1.785 1.786z" transform="translate(9 9)"/>
                </g>
            </g>
        </g>
    </g>
</svg>
