<?xml version="1.0" ?>
<svg xmlns="http://www.w3.org/2000/svg" width="16" height="16" viewBox="0 0 16 16">
  <path d="M14.857,4.187l-3.06,-3.059c-0.17,-0.17 -0.446,-0.17 -0.617,0L1.129,11.179c-0.082,0.082 -0.128,0.193 -0.128,0.309L1,14.548c0,0.116 0.046,0.227 0.128,0.309 0.082,0.082 0.193,0.128 0.309,0.128l3.06,-0.001c0.116,0 0.227,-0.046 0.309,-0.128l10.05,-10.051c0.172,-0.17 0.172,-0.447 0,-0.618zM4.315,14.111L1.873,14.111l0.001,-2.441 7.211,-7.211 2.441,2.44 -7.21,7.212h0zM12.145,6.281l-2.442,-2.44 1.786,-1.786 2.44,2.441 -1.785,1.786z" fill="#3F4349" stroke-width=".5" stroke="#3F4349"/>
</svg>
