<?xml version="1.0" ?>
<svg xmlns="http://www.w3.org/2000/svg" width="18" height="24" viewBox="0 0 18 24">
  <path d="M17.499,5.62l-4.8,-4.799A0.478,0.478 0,0 0,12.36 0.68L2.28,0.68C1.222,0.68 0.36,1.541 0.36,2.6v19.2c0,1.059 0.862,1.92 1.92,1.92h13.44c1.058,0 1.92,-0.861 1.92,-1.92L17.64,5.96a0.478,0.478 0,0 0,-0.141 -0.34zM5.16,8.52A1.922,1.922 0,0 1,3.24 6.6c0,-0.833 0.537,-1.537 1.28,-1.802L4.52,4.68a0.64,0.64 0,1 1,1.28 0h0.64a0.64,0.64 0,1 1,0 1.28L5.16,5.96a0.64,0.64 0,0 0,0 1.28c1.059,0 1.92,0.861 1.92,1.92 0,0.833 -0.537,1.537 -1.28,1.802v0.118a0.64,0.64 0,1 1,-1.28 0h-0.64a0.64,0.64 0,1 1,0 -1.28h1.28a0.64,0.64 0,0 0,0 -1.28zM9.48,20.84L3.72,20.84a0.48,0.48 0,1 1,0 -0.96h5.76a0.48,0.48 0,1 1,0 0.96zM14.28,17.96L3.72,17.96a0.48,0.48 0,1 1,0 -0.96h10.56a0.48,0.48 0,1 1,0 0.96zM14.28,15.08L3.72,15.08a0.48,0.48 0,1 1,0 -0.96h10.56a0.48,0.48 0,1 1,0 0.96zM14.28,12.2L8.52,12.2a0.48,0.48 0,1 1,0 -0.96h5.76a0.48,0.48 0,1 1,0 0.96zM13.8,5.48a0.96,0.96 0,0 1,-0.96 -0.96L12.84,2.319l3.161,3.161L13.8,5.48z" fill="#2A317D"/>
</svg>
