<?xml version="1.0" ?>
<svg xmlns="http://www.w3.org/2000/svg" width="18" height="18" viewBox="0 0 18 18">
  <path d="M15.386,2.701h-1.702L13.684,1.772c0,-0.426 -0.35,-0.772 -0.784,-0.772h-0.124c-0.433,0 -0.784,0.346 -0.784,0.772v0.929L5.988,2.701L5.988,1.772c0,-0.426 -0.35,-0.772 -0.784,-0.772L5.08,1c-0.433,0 -0.784,0.346 -0.784,0.772v0.929L2.614,2.701C1.724,2.701 1,3.414 1,4.29L1,15.41C1,16.287 1.724,17 2.614,17h12.772c0.89,0 1.614,-0.713 1.614,-1.589L17,4.29c0,-0.876 -0.724,-1.589 -1.614,-1.589zM15.176,15.204L2.824,15.204L2.824,6.547h12.35v8.657z" fill="#223BC1" stroke-width=".659" stroke="#FFF"/>
  <path d="M8.75,12.42l1.432,0.91c0.061,0.039 0.143,0.02 0.181,-0.04 0.02,-0.03 0.025,-0.066 0.018,-0.1l-0.383,-1.725 1.28,-1.168c0.055,-0.049 0.058,-0.132 0.01,-0.185 -0.023,-0.025 -0.053,-0.04 -0.086,-0.043l-1.68,-0.15 -0.65,-1.616c-0.027,-0.067 -0.104,-0.1 -0.171,-0.073 -0.033,0.014 -0.06,0.04 -0.073,0.073l-0.65,1.616 -1.68,0.15c-0.072,0.007 -0.126,0.07 -0.12,0.143 0.004,0.033 0.019,0.063 0.043,0.085l1.28,1.168 -0.382,1.725c-0.016,0.071 0.03,0.142 0.1,0.157 0.034,0.008 0.07,0.002 0.1,-0.017l1.431,-0.91z" fill="#CF0A2C"/>
</svg>
