<?xml version="1.0" ?>
<svg xmlns="http://www.w3.org/2000/svg" width="51" height="51" viewBox="0 0 51 51">
  <path d="M25.499,0C11.418,0 0,11.418 0,25.499S11.418,51 25.499,51 51,39.58 51,25.499C51,11.418 39.58,0 25.499,0zM30.807,39.52a84.121,84.121 0,0 1,-3.14 1.183c-0.782,0.272 -1.691,0.408 -2.725,0.408 -1.589,0 -2.826,-0.389 -3.707,-1.164 -0.88,-0.775 -1.319,-1.757 -1.319,-2.95 0,-0.465 0.033,-0.94 0.098,-1.423 0.067,-0.484 0.172,-1.028 0.317,-1.639l1.643,-5.802c0.144,-0.557 0.27,-1.086 0.369,-1.578 0.1,-0.497 0.147,-0.952 0.147,-1.367 0,-0.738 -0.154,-1.256 -0.458,-1.548 -0.309,-0.291 -0.89,-0.434 -1.755,-0.434 -0.423,0 -0.86,0.063 -1.306,0.195 -0.443,0.136 -0.827,0.259 -1.142,0.38l0.434,-1.788a40.919,40.919 0,0 1,3.087 -1.125c0.982,-0.315 1.91,-0.47 2.785,-0.47 1.578,0 2.795,0.384 3.652,1.144 0.853,0.762 1.282,1.753 1.282,2.97 0,0.253 -0.03,0.698 -0.088,1.332a8.913,8.913 0,0 1,-0.328 1.751l-1.634,5.785a16.37,16.37 0,0 0,-0.36 1.59c-0.107,0.593 -0.158,1.046 -0.158,1.35 0,0.77 0.17,1.294 0.516,1.572 0.34,0.279 0.939,0.419 1.785,0.419 0.4,0 0.846,-0.071 1.351,-0.21 0.501,-0.138 0.864,-0.26 1.092,-0.366l-0.438,1.785zM30.518,16.037c-0.762,0.708 -1.68,1.062 -2.752,1.062 -1.071,0 -1.995,-0.354 -2.764,-1.062 -0.764,-0.708 -1.15,-1.57 -1.15,-2.575 0,-1.004 0.388,-1.867 1.15,-2.582 0.769,-0.717 1.693,-1.073 2.764,-1.073 1.072,0 1.992,0.356 2.752,1.073 0.762,0.715 1.144,1.578 1.144,2.582 0,1.008 -0.382,1.867 -1.144,2.575z" fill="#BDBDBD"/>
</svg>
