<?xml version="1.0" ?>
<svg id="ojo_contraseña" data-name="ojo contraseña" xmlns="http://www.w3.org/2000/svg" width="24" height="24" viewBox="0 0 24 24">
  <path id="Trazado_51038" data-name="Trazado 51038" d="M0,0H24V24H0Z" fill="none"/>
  <path id="visibility_off_24dp_FILL0_wght400_GRAD0_opsz24" d="M55.1-837.5l-1.45-1.45a2.5,2.5,0,0,0-.675-2.2,2.4,2.4,0,0,0-2.325-.8L49.2-843.4a4.243,4.243,0,0,1,.862-.3,4.2,4.2,0,0,1,.938-.1,4.339,4.339,0,0,1,3.187,1.313A4.342,4.342,0,0,1,55.5-839.3a4.2,4.2,0,0,1-.1.938A4.243,4.243,0,0,1,55.1-837.5Zm3.2,3.151-1.45-1.4a10.95,10.95,0,0,0,1.687-1.588A8.9,8.9,0,0,0,59.8-839.3a9.832,9.832,0,0,0-3.588-4.014A9.5,9.5,0,0,0,51-844.8a10.067,10.067,0,0,0-1.425.1,9.611,9.611,0,0,0-1.375.3l-1.55-1.551a11.082,11.082,0,0,1,2.1-.638A11.577,11.577,0,0,1,51-846.8a11.352,11.352,0,0,1,6.725,2.088A11.9,11.9,0,0,1,62-839.3a11.7,11.7,0,0,1-1.512,2.738A11.01,11.01,0,0,1,58.3-834.346Zm.5,6.152-4.2-4.151a12,12,0,0,1-1.762.413,11.98,11.98,0,0,1-1.837.138,11.353,11.353,0,0,1-6.725-2.088A11.905,11.905,0,0,1,40-839.3a11.856,11.856,0,0,1,1.325-2.463A11.514,11.514,0,0,1,43.15-843.8l-2.75-2.8,1.4-1.4,18.4,18.406ZM44.55-842.4a10.735,10.735,0,0,0-1.325,1.425A9.019,9.019,0,0,0,42.2-839.3a9.833,9.833,0,0,0,3.588,4.014A9.505,9.505,0,0,0,51-833.8a7.464,7.464,0,0,0,.975-.063q.475-.062.975-.138l-.9-.95a4.581,4.581,0,0,1-.525.113A3.543,3.543,0,0,1,51-834.8a4.339,4.339,0,0,1-3.187-1.313A4.342,4.342,0,0,1,46.5-839.3a3.542,3.542,0,0,1,.038-.525,4.594,4.594,0,0,1,.112-.525ZM52.525-840.073ZM48.75-838.2Z" transform="translate(-39 851)" fill="#484848"/>
</svg>
