<?xml version="1.0" ?>
<svg xmlns="http://www.w3.org/2000/svg" width="121" height="109" viewBox="0 0 121 109">
  <path d="M48.763,7.792L2.84,87.825c-5.398,9.409 1.35,21.17 12.147,21.17h91.846c10.797,0 17.545,-11.761 12.147,-21.17L73.057,7.792c-5.399,-9.409 -18.895,-9.409 -24.294,0z" fill="#E94F4E"/>
  <path d="M19.247,88.575L57.58,21.766a3.838,3.838 0,0 1,6.658 0l38.335,66.809a3.838,3.838 0,0 1,-3.33 5.748H22.577a3.838,3.838 0,0 1,-3.33 -5.748z" fill="#FFF"/>
  <path d="M58.213,38.958h5.397c1.06,0 1.919,0.859 1.919,1.919v28.927c0,1.06 -0.86,1.92 -1.92,1.92h-5.396c-1.06,0 -1.919,-0.86 -1.919,-1.92L56.294,40.877c0,-1.06 0.86,-1.92 1.919,-1.92zM60.911,86.884c-2.55,0 -4.617,-2.08 -4.617,-4.646s2.067,-4.646 4.617,-4.646 4.617,2.08 4.617,4.646 -2.067,4.646 -4.617,4.646z" fill="#FF5E57"/>
</svg>
