<?xml version="1.0" ?>
<svg xmlns="http://www.w3.org/2000/svg" width="20" height="19" viewBox="0 0 20 19">
  <path d="M9.998,17.27l0.915,-0.833c4.866,-4.413 6.405,-5.995 7.477,-7.981 0.545,-1.01 0.81,-1.97 0.81,-2.956 0,-2.638 -2.062,-4.7 -4.7,-4.7 -1.477,0 -2.934,0.685 -3.89,1.809l-0.61,0.715 -0.61,-0.715C8.435,1.485 6.978,0.8 5.5,0.8 2.862,0.8 0.8,2.862 0.8,5.5c0,0.982 0.263,1.938 0.803,2.943 1.069,1.989 2.597,3.563 7.483,8.003l0.912,0.824z" fill="#00000000" stroke-width="1.6" stroke="#3F4349"/>
</svg>
