<?xml version="1.0" ?>
<svg xmlns="http://www.w3.org/2000/svg" width="20" height="22" viewBox="0 0 20 22">
  <path d="M16.39,5.443c0.878,0 1.617,0.694 1.684,1.579l1.014,10.22c0.08,1.068 -0.283,2.129 -1,2.913 -0.715,0.784 -1.73,1.234 -2.785,1.234L4.697,21.389c-1.054,0 -2.07,-0.45 -2.786,-1.234 -0.715,-0.784 -1.08,-1.844 -0.999,-2.912l1.014,-10.22c0.067,-0.886 0.806,-1.58 1.684,-1.58h1.902C5.517,2.937 7.528,0.9 10,0.9c2.472,0 4.483,2.037 4.488,4.543h1.902zM12.958,5.443C12.954,3.79 11.628,2.449 10,2.449c-1.628,0 -2.953,1.342 -2.958,2.994h5.916zM17.563,17.366L16.55,7.144c-0.006,-0.086 -0.077,-0.152 -0.159,-0.152h-1.902v1.56c0,0.428 -0.342,0.775 -0.765,0.775s-0.765,-0.347 -0.765,-0.774L12.959,6.992L7.042,6.992v1.56c0,0.428 -0.342,0.775 -0.765,0.775s-0.765,-0.347 -0.765,-0.774L5.512,6.992L3.61,6.992c-0.082,0 -0.153,0.066 -0.16,0.153l-1.013,10.22c-0.049,0.646 0.163,1.263 0.598,1.739 0.434,0.475 1.023,0.736 1.662,0.736h10.606c0.639,0 1.228,-0.26 1.662,-0.736 0.435,-0.476 0.647,-1.094 0.598,-1.738z" fill="#2844C2"/>
  <path d="M11.911,11.662c0.104,0.087 0.122,0.245 0.04,0.352 -0.08,0.108 -0.23,0.124 -0.333,0.036 -0.588,-0.498 -1.344,-0.716 -2.092,-0.584 -1.42,0.25 -2.355,1.671 -2.09,3.174 0.266,1.503 1.63,2.519 3.05,2.269 0.737,-0.13 1.365,-0.582 1.749,-1.236 0.069,-0.116 0.215,-0.15 0.327,-0.076 0.112,0.075 0.147,0.23 0.078,0.347 -0.453,0.772 -1.196,1.306 -2.067,1.46 -1.677,0.295 -3.29,-0.905 -3.604,-2.681C6.656,12.946 7.762,11.267 9.44,10.97c0.884,-0.156 1.778,0.102 2.472,0.69z" fill="#CF0A2C" stroke-width=".605" stroke="#CF0A2C"/>
  <path d="M12.246,10.904C12.23,10.654 12.419,10.43 12.667,10.4c0.25,-0.029 0.464,0.15 0.48,0.4l0.124,1.921c0.016,0.25 -0.174,0.477 -0.423,0.505l-1.913,0.211c-0.25,0.028 -0.463,-0.153 -0.478,-0.403 -0.015,-0.25 0.174,-0.475 0.423,-0.502l1.46,-0.162L12.247,10.904z" fill="#CF0A2C" stroke-width=".5" stroke="#D1222A"/>
</svg>
