<?xml version="1.0" ?>
<svg xmlns="http://www.w3.org/2000/svg" width="22" height="22" viewBox="0 0 22 22">
  <path d="M11.925,2.336H2.403c-0.037,0 -0.067,0.03 -0.067,0.067v17.145c0,0.038 0.03,0.068 0.067,0.068H13.76c0.48,0 0.868,0.389 0.868,0.868 0,0.48 -0.389,0.868 -0.868,0.868H2.403C1.41,21.352 0.6,20.543 0.6,19.548V2.403C0.6,1.41 1.409,0.6 2.403,0.6h10.155c0.23,0 0.451,0.091 0.614,0.254l4.164,4.164c0.162,0.163 0.254,0.383 0.253,0.637 -0.014,0.23 -0.072,0.418 -0.198,0.562 -0.121,0.138 -0.277,0.186 -0.555,0.227 -0.44,0.066 -0.883,-0.08 -1.197,-0.394l-3.714,-3.714z" fill="#223BC1"/>
  <path d="M11.335,16.387c0,0.43 -0.339,0.787 -0.768,0.787L5.368,17.174c-0.429,0 -0.768,-0.357 -0.768,-0.787 0,-0.43 0.34,-0.787 0.768,-0.787h5.2c0.428,0 0.767,0.357 0.767,0.787zM10.535,16.387c0,-0.003 0.01,-0.013 0.032,-0.013L5.368,16.374c0.022,0 0.032,0.01 0.032,0.013 0,0.003 -0.01,0.013 -0.032,0.013h5.2c-0.023,0 -0.033,-0.01 -0.033,-0.013zM11.335,13.5c0,0.43 -0.339,0.787 -0.768,0.787L5.368,14.287c-0.429,0 -0.768,-0.357 -0.768,-0.787 0,-0.43 0.34,-0.787 0.768,-0.787h5.2c0.428,0 0.767,0.357 0.767,0.787zM10.535,13.5c0,-0.003 0.01,-0.013 0.032,-0.013L5.368,13.487c0.022,0 0.032,0.01 0.032,0.013 0,0.003 -0.01,0.013 -0.032,0.013h5.2c-0.023,0 -0.033,-0.01 -0.033,-0.013zM10.208,6.998c0.393,0 0.711,0.319 0.711,0.712 0,0.393 -0.318,0.711 -0.711,0.711L8.42,8.421v1.787c0,0.393 -0.318,0.711 -0.711,0.711 -0.393,0 -0.712,-0.318 -0.712,-0.711L6.997,8.42L5.212,8.42c-0.393,0 -0.712,-0.318 -0.712,-0.711 0,-0.393 0.319,-0.712 0.712,-0.712h1.786L6.998,5.212c0,-0.393 0.319,-0.712 0.712,-0.712 0.393,0 0.711,0.319 0.711,0.712v1.786h1.787z" fill="#223BC1"/>
  <path d="M19.524,10.768c0.273,0.23 0.32,0.641 0.105,0.926 -0.224,0.299 -0.647,0.344 -0.932,0.102 -0.649,-0.551 -1.474,-0.784 -2.283,-0.642 -1.547,0.273 -2.574,1.837 -2.28,3.501 0.293,1.664 1.793,2.783 3.34,2.51 0.797,-0.14 1.484,-0.629 1.907,-1.352 0.19,-0.323 0.603,-0.42 0.914,-0.212 0.296,0.199 0.388,0.601 0.207,0.91 -0.615,1.05 -1.624,1.767 -2.795,1.974 -2.267,0.4 -4.438,-1.22 -4.858,-3.603C12.429,12.497 13.915,10.234 16.182,9.834c1.188,-0.21 2.4,0.133 3.342,0.934z" fill="#CF0A2C"/>
  <path d="M19.713,10.112c-0.02,-0.308 0.213,-0.587 0.52,-0.622 0.307,-0.036 0.572,0.185 0.591,0.493l0.15,2.37c0.02,0.309 -0.214,0.588 -0.522,0.622l-2.36,0.263c-0.306,0.034 -0.57,-0.188 -0.588,-0.496 -0.018,-0.309 0.216,-0.586 0.523,-0.62l1.8,-0.201 -0.114,-1.809z" fill="#CF0A2C" stroke-width=".3" stroke="#CF0A2C"/>
</svg>
