<?xml version="1.0" ?>
<svg xmlns="http://www.w3.org/2000/svg" width="15" height="14" viewBox="0 0 15 14">
  <path d="M10.056,3.587c-0.258,0 -0.467,-0.218 -0.467,-0.484 0,-0.265 0.21,-0.483 0.467,-0.483h0.48c0.258,0 0.467,0.218 0.467,0.483 0,0.266 -0.21,0.484 -0.467,0.484h-0.48zM14.918,0.443c0.134,0.274 0.101,0.595 -0.08,0.843L9.245,8.449v3.226c0,0.359 -0.167,0.696 -0.461,0.922l-1.772,1.26c-0.132,0.097 -0.288,0.143 -0.455,0.143 -0.128,0 -0.244,-0.033 -0.375,-0.1 -0.256,-0.142 -0.411,-0.405 -0.411,-0.702l0.03,-4.642L0.16,1.282C-0.02,1.038 -0.052,0.717 0.084,0.44 0.223,0.175 0.498,0 0.789,0L14.21,0c0.301,0 0.574,0.167 0.708,0.443zM8.238,11.823c0.046,-0.039 0.073,-0.096 0.073,-0.165L8.311,8.335c0,-0.104 0.033,-0.192 0.088,-0.277l0.007,-0.01L13.91,0.95L1.09,0.95l1.304,1.67h6.223c0.258,0 0.467,0.214 0.467,0.475 0,0.26 -0.209,0.475 -0.467,0.475h-5.5l3.389,4.377c0.126,0.078 0.198,0.224 0.198,0.388v4.577l1.532,-1.09z" fill="#949091"/>
</svg>
