<?xml version="1.0" ?>
<svg xmlns="http://www.w3.org/2000/svg" width="21" height="27" viewBox="0 0 21 27">
  <path d="M15.577,1.352c-0.861,-0.89 -2.364,-0.887 -3.223,0 -0.477,0.489 -1.741,2.483 -1.566,3.814h1.37,-0.247c-0.256,-0.272 0.48,-2.259 1.222,-3.02a1.177,1.177 0,0 1,1.666 0c0.462,0.473 0.462,1.249 0,1.724 -0.474,0.489 -1.924,1.296 -2.684,1.296h2.85c0.249,-0.174 0.464,-0.347 0.614,-0.503a2.394,2.394 0,0 0,-0.002 -3.311z" fill="#CD202E"/>
  <path d="M9.14,1.352c-0.861,-0.887 -2.364,-0.887 -3.224,0a2.397,2.397 0,0 0,-0.001 3.311c0.15,0.156 0.365,0.33 0.614,0.503h2.78c-0.76,0 -2.14,-0.807 -2.614,-1.296a1.25,1.25 0,0 1,0 -1.724,1.15 1.15,0 0,1 1.665,0c0.741,0.761 1.477,2.748 1.222,3.02L9.38,5.166h1.328C10.88,3.836 9.617,1.84 9.14,1.352z" fill="#CD202E"/>
  <path d="M9.31,17.783L3.247,17.783c-0.075,0 -0.142,-0.031 -0.214,-0.043v7.692c0,0.72 0.59,1.31 1.31,1.31L9.31,26.742v-8.959zM18.247,17.783h-6.091v8.958h4.97c0.719,0 1.309,-0.59 1.309,-1.31v-7.685c-0.064,0.009 -0.121,0.037 -0.188,0.037z" fill="#CD202E"/>
  <path d="M9.31,5.166L3.247,5.166c-0.706,0 -1.282,0.577 -1.282,1.282v0.873c0,0.706 0.578,1.283 1.282,1.283h6.065L9.312,5.166zM18.247,5.166h-6.091v3.44h6.091c0.707,0 1.283,-0.579 1.283,-1.283v-0.874a1.285,1.285 0,0 0,-1.283 -1.283z" fill="#CD202E"/>
  <path d="M10.733,13.258m-1.32,0a1.32,1.32 0,1 1,2.64 0a1.32,1.32 0,1 1,-2.64 0" fill="#00000000" stroke-width=".5" stroke="#CD202E"/>
  <path d="M15.971,11.189m-1,0a1,1 0,1 1,2 0a1,1 0,1 1,-2 0" fill="#CD202E"/>
  <path d="M5.496,15.325m-1,0a1,1 0,1 1,2 0a1,1 0,1 1,-2 0" fill="#CD202E"/>
  <path d="M1.949,10.594v1.941M2.919,11.564h-1.94" fill="#00000000" stroke-linecap="round" stroke-width=".5" stroke="#CD202E"/>
  <path d="M19.518,13.98v1.94M20.488,14.95h-1.94" fill="#00000000" stroke-linecap="round" stroke-width=".5" stroke="#CD202E"/>
</svg>
