<?xml version="1.0" ?>
<svg xmlns="http://www.w3.org/2000/svg" width="28" height="28" viewBox="0 0 28 28">
  <path d="M26.34,14l1.072,2.798c0.203,0.53 0.043,1.13 -0.399,1.488l-2.324,1.883 -0.47,2.958c-0.09,0.561 -0.53,1.002 -1.092,1.091l-2.958,0.47 -1.881,2.323c-0.25,0.312 -0.628,0.489 -1.022,0.489 -0.16,0 -0.318,-0.029 -0.47,-0.087L14,26.341l-2.794,1.07c-0.532,0.206 -1.134,0.045 -1.491,-0.398L7.83,24.688l-2.958,-0.47c-0.561,-0.09 -1,-0.53 -1.09,-1.091l-0.47,-2.958 -2.325,-1.883c-0.442,-0.358 -0.604,-0.96 -0.4,-1.489L1.66,14.001l-1.072,-2.797c-0.202,-0.53 -0.041,-1.131 0.4,-1.488L3.311,7.83l0.47,-2.958c0.09,-0.56 0.53,-1 1.09,-1.09l2.958,-0.47L9.716,0.986c0.36,-0.44 0.957,-0.601 1.488,-0.397L14,1.66l2.794,-1.073c0.526,-0.205 1.137,-0.044 1.492,0.398l1.883,2.326 2.958,0.47c0.562,0.09 1.002,0.528 1.091,1.09l0.47,2.958 2.325,1.884c0.442,0.359 0.602,0.959 0.4,1.49l-1.073,2.797z" fill="#CF202E" stroke-width="1" stroke="#FFF"/>
  <path d="M3.116,15.09v-0.577c0,-1.2 0.718,-1.952 1.886,-1.952 0.492,0 0.926,0.133 1.244,0.371 0.286,0.206 0.473,0.48 0.473,0.73s-0.175,0.422 -0.426,0.422c-0.123,0 -0.219,-0.041 -0.31,-0.133 -0.258,-0.257 -0.496,-0.505 -0.905,-0.505 -0.6,0 -0.914,0.384 -0.914,1.117v0.524c0,0.724 0.32,1.12 0.904,1.12 0.454,0 0.759,-0.266 0.759,-0.663v-0.184h-0.39c-0.277,0 -0.429,-0.133 -0.429,-0.374 0,-0.239 0.15,-0.369 0.429,-0.369h0.777c0.42,0 0.603,0.181 0.603,0.584v0.264c0,0.955 -0.72,1.603 -1.79,1.603 -1.203,0 -1.91,-0.743 -1.91,-1.978zM8.522,14.69h0.682c0.416,0 0.67,-0.219 0.67,-0.612 0,-0.387 -0.251,-0.606 -0.67,-0.606h-0.682v1.218zM8.522,16.44c0,0.361 -0.185,0.564 -0.518,0.564 -0.34,0 -0.533,-0.206 -0.533,-0.565L7.471,13.4c0,-0.515 0.232,-0.759 0.73,-0.759h1.146c0.97,0 1.568,0.511 1.568,1.343 0,0.545 -0.267,0.974 -0.737,1.193l0.565,1c0.057,0.098 0.086,0.219 0.086,0.33 0,0.289 -0.216,0.492 -0.52,0.492 -0.277,0 -0.423,-0.115 -0.594,-0.451l-0.571,-1.114h-0.622v1.006zM11.775,17.007c-0.286,0 -0.483,-0.177 -0.483,-0.431 0,-0.105 0.029,-0.226 0.102,-0.438l0.958,-2.81c0.172,-0.513 0.42,-0.72 0.876,-0.72 0.457,0 0.699,0.203 0.873,0.72l0.955,2.81c0.058,0.177 0.086,0.304 0.086,0.415 0,0.277 -0.197,0.454 -0.498,0.454 -0.28,0 -0.441,-0.152 -0.546,-0.51l-0.165,-0.518h-1.457l-0.168,0.517c-0.105,0.368 -0.254,0.511 -0.533,0.511zM12.692,15.22h1.028l-0.485,-1.64h-0.051l-0.492,1.64zM17.018,17.004c-0.327,0 -0.524,-0.21 -0.524,-0.552L16.494,13.5h-0.822c-0.241,0 -0.422,-0.184 -0.422,-0.428 0,-0.248 0.18,-0.432 0.422,-0.432h2.701c0.241,0 0.419,0.184 0.419,0.432 0,0.244 -0.178,0.428 -0.419,0.428h-0.828v2.952c0,0.343 -0.2,0.552 -0.527,0.552zM19.712,17.004c-0.336,0 -0.53,-0.206 -0.53,-0.565v-3.266c0,-0.362 0.188,-0.565 0.524,-0.565 0.337,0 0.527,0.207 0.527,0.565v3.266c0,0.362 -0.187,0.565 -0.52,0.565zM20.887,16.08c0,-0.253 0.184,-0.431 0.41,-0.431 0.152,0 0.282,0.057 0.456,0.212 0.26,0.245 0.575,0.378 0.895,0.378 0.454,0 0.698,-0.165 0.698,-0.463 0,-0.241 -0.19,-0.39 -0.647,-0.489l-0.597,-0.136c-0.78,-0.165 -1.164,-0.569 -1.164,-1.232 0,-0.831 0.647,-1.358 1.663,-1.358 0.555,0 1.056,0.162 1.348,0.438 0.188,0.171 0.286,0.362 0.286,0.555 0,0.232 -0.165,0.39 -0.41,0.39 -0.136,0 -0.272,-0.06 -0.406,-0.187 -0.222,-0.244 -0.479,-0.371 -0.806,-0.371 -0.384,0 -0.625,0.174 -0.625,0.447 0,0.238 0.184,0.407 0.587,0.486l0.603,0.13c0.806,0.162 1.197,0.559 1.197,1.216 0,0.853 -0.695,1.403 -1.78,1.403 -0.597,0 -1.127,-0.172 -1.423,-0.451 -0.184,-0.175 -0.285,-0.359 -0.285,-0.537z" fill="#FFF"/>
</svg>
