<?xml version="1.0" ?>
<svg xmlns="http://www.w3.org/2000/svg" width="19" height="19" viewBox="0 0 19 19">
  <path d="M8.102,0.762H1.467a0.663,0.663 0,0 0,-0.663 0.663V8.06c0,0.366 0.297,0.663 0.663,0.663h6.635a0.663,0.663 0,0 0,0.663 -0.663V1.425a0.663,0.663 0,0 0,-0.663 -0.663zM17.39,0.762h-6.634a0.663,0.663 0,0 0,-0.664 0.663V8.06c0,0.366 0.297,0.663 0.664,0.663h6.635a0.663,0.663 0,0 0,0.663 -0.663V1.425a0.663,0.663 0,0 0,-0.663 -0.663zM8.102,10.05H1.467a0.663,0.663 0,0 0,-0.663 0.664v6.635c0,0.366 0.297,0.663 0.663,0.663h6.635a0.663,0.663 0,0 0,0.663 -0.663v-6.635a0.663,0.663 0,0 0,-0.663 -0.664zM17.39,10.05h-6.634a0.663,0.663 0,0 0,-0.664 0.664v6.635c0,0.366 0.297,0.663 0.664,0.663h6.635a0.663,0.663 0,0 0,0.663 -0.663v-6.635a0.663,0.663 0,0 0,-0.663 -0.664z" fill="@color/white_three"/>
</svg>
