<?xml version="1.0" ?>
<svg xmlns="http://www.w3.org/2000/svg" width="12" height="12" viewBox="0 0 12 12">
  <path d="M11.55,0c0.249,0 0.45,0.201 0.45,0.45v4.5c0,0.249 -0.201,0.45 -0.45,0.45h-4.5c-0.249,0 -0.45,-0.201 -0.45,-0.45L6.6,0.45c0,-0.249 0.201,-0.45 0.45,-0.45h4.5zM11.1,4.5L11.1,0.9L7.5,0.9v3.6h3.6zM11.55,6.6c0.249,0 0.45,0.201 0.45,0.45v4.5c0,0.249 -0.201,0.45 -0.45,0.45h-4.5c-0.249,0 -0.45,-0.201 -0.45,-0.45v-4.5c0,-0.249 0.201,-0.45 0.45,-0.45h4.5zM11.1,11.1L11.1,7.5L7.5,7.5v3.6h3.6zM4.95,0c0.249,0 0.45,0.201 0.45,0.45v4.5c0,0.249 -0.201,0.45 -0.45,0.45L0.45,5.4C0.201,5.4 0,5.199 0,4.95L0,0.45C0,0.201 0.201,0 0.45,0h4.5zM4.5,4.5L4.5,0.9L0.9,0.9v3.6h3.6zM4.95,6.6c0.249,0 0.45,0.201 0.45,0.45v4.5c0,0.249 -0.201,0.45 -0.45,0.45L0.45,12c-0.249,0 -0.45,-0.201 -0.45,-0.45v-4.5c0,-0.249 0.201,-0.45 0.45,-0.45h4.5zM4.5,11.1L4.5,7.5L0.9,7.5v3.6h3.6z" fill="#949091"/>
</svg>
