<svg xmlns="http://www.w3.org/2000/svg" width="22" height="22" viewBox="0 0 22 22">
  <g id="Grupo_199122" data-name="Grupo 199122" transform="translate(-6 -14)">
    <path id="help_FILL0_wght200_GRAD0_opsz24" d="M128.786-826.151a.739.739,0,0,0,.544-.223.744.744,0,0,0,.222-.546.739.739,0,0,0-.223-.545.744.744,0,0,0-.546-.222.738.738,0,0,0-.545.223.744.744,0,0,0-.222.546.739.739,0,0,0,.223.545A.744.744,0,0,0,128.786-826.151Zm-.5-3.223h.94a2.634,2.634,0,0,1,.239-1.031,4.38,4.38,0,0,1,.828-1.012,6.736,6.736,0,0,0,.969-1.167,2.226,2.226,0,0,0,.318-1.194,2.278,2.278,0,0,0-.808-1.834,2.869,2.869,0,0,0-1.913-.683,2.812,2.812,0,0,0-1.783.571A3.54,3.54,0,0,0,126-834.412l.895.37a2.854,2.854,0,0,1,.669-.939,1.768,1.768,0,0,1,1.255-.408,1.707,1.707,0,0,1,1.383.519,1.737,1.737,0,0,1,.436,1.143,1.557,1.557,0,0,1-.273.9,4.78,4.78,0,0,1-.711.8,4.952,4.952,0,0,0-1.108,1.323A3.034,3.034,0,0,0,128.283-829.374Zm.479,6.891a8.537,8.537,0,0,1-3.416-.689,8.853,8.853,0,0,1-2.782-1.871,8.842,8.842,0,0,1-1.873-2.78,8.519,8.519,0,0,1-.69-3.415,8.537,8.537,0,0,1,.689-3.416,8.85,8.85,0,0,1,1.872-2.782,8.84,8.84,0,0,1,2.78-1.873,8.52,8.52,0,0,1,3.415-.69,8.537,8.537,0,0,1,3.416.69,8.851,8.851,0,0,1,2.783,1.872,8.84,8.84,0,0,1,1.873,2.78,8.519,8.519,0,0,1,.69,3.415,8.537,8.537,0,0,1-.689,3.416,8.851,8.851,0,0,1-1.872,2.783,8.84,8.84,0,0,1-2.78,1.873A8.518,8.518,0,0,1,128.762-822.483Zm0-.973a7.514,7.514,0,0,0,5.523-2.263,7.514,7.514,0,0,0,2.263-5.523,7.514,7.514,0,0,0-2.263-5.523,7.514,7.514,0,0,0-5.523-2.263,7.514,7.514,0,0,0-5.523,2.263,7.514,7.514,0,0,0-2.263,5.523,7.514,7.514,0,0,0,2.263,5.523A7.514,7.514,0,0,0,128.759-823.456ZM128.759-831.241Z" transform="translate(-111.687 856.741)"/>
    <rect id="Rectángulo_150807" data-name="Rectángulo 150807" width="22" height="22" transform="translate(6 14)" fill="none"/>
  </g>
</svg>
