<svg xmlns="http://www.w3.org/2000/svg" width="40.388" height="30.877" viewBox="0 0 40.388 30.877">
  <g id="_9c93817c0def8172d1eb4b4f7122537f" data-name="9c93817c0def8172d1eb4b4f7122537f" transform="translate(0.5 0.5)">
    <path id="Trazado_47312" data-name="Trazado 47312" d="M51.282,79.9H28.651A3.228,3.228,0,0,0,25.7,83.149V96.92a2.724,2.724,0,0,0,2.951,2.67H32.5v7.465l7.957-7.465H51.282a2.72,2.72,0,0,0,2.951-2.67V83.149A3.241,3.241,0,0,0,51.282,79.9Z" transform="translate(-25.7 -79.9)" fill="#ff001d"/>
    <path id="Trazado_47313" data-name="Trazado 47313" d="M226.8,200.869h8.747a4.415,4.415,0,0,0,4.417-4.417V188.1h-1.792v7.517a2.658,2.658,0,0,1-2.793,2.793H226.8Z" transform="translate(-209.139 -178.598)" fill="#ff4848" opacity="0.32"/>
    <path id="Trazado_47314" data-name="Trazado 47314" d="M51.282,79.9H28.651A3.228,3.228,0,0,0,25.7,83.149V96.92a2.724,2.724,0,0,0,2.951,2.67H32.5v7.465l7.957-7.465H51.282a2.72,2.72,0,0,0,2.951-2.67V83.149A3.241,3.241,0,0,0,51.282,79.9Z" transform="translate(-25.7 -79.9)" fill="none" stroke="#000" stroke-linecap="round" stroke-linejoin="round" stroke-width="1"/>
    <path id="Trazado_47315" data-name="Trazado 47315" d="M237.663,188.2h8.65a2.412,2.412,0,0,1,2.213,2.441v10.328a2.172,2.172,0,0,1-2.187,2.169H243.1v5.427l-5.629-5.427h-8.115a2.517,2.517,0,0,1-2.556-2.169v-2.582" transform="translate(-209.139 -178.689)" fill="none" stroke="#000" stroke-linecap="round" stroke-linejoin="round" stroke-width="1"/>
    <path id="Trazado_47394" data-name="Trazado 47394" d="M11.441,18.866a1.383,1.383,0,1,0-.979-.405,1.334,1.334,0,0,0,.979.405m-.979-4.286h2.025a6.305,6.305,0,0,1,.2-1.418,14.7,14.7,0,0,1,1.283-1.485,6.231,6.231,0,0,0,1.012-1.316,3.012,3.012,0,0,0,.4-1.519A3,3,0,0,0,14.226,6.26a4.505,4.505,0,0,0-2.751-.86,3.816,3.816,0,0,0-2.5.828A4.4,4.4,0,0,0,7.56,8.235l1.89.743a3.132,3.132,0,0,1,.641-1.131,1.717,1.717,0,0,1,1.384-.556,1.743,1.743,0,0,1,1.366.506A1.624,1.624,0,0,1,13.3,8.91a1.682,1.682,0,0,1-.337,1.029,8.428,8.428,0,0,1-.81.929,9.9,9.9,0,0,0-1.435,1.6,10.946,10.946,0,0,0-.252,2.109" transform="translate(2.792 -1.866)" fill="#fff"/>
  </g>
</svg>
