<?xml version="1.0" ?>
<svg xmlns="http://www.w3.org/2000/svg" width="20" height="20" viewBox="0 0 20 20">
  <path d="M9.694,13.407c-0.572,0 -1.035,0.477 -1.035,1.048 0,0.559 0.45,1.049 1.035,1.049s1.048,-0.49 1.048,-1.049c0,-0.571 -0.476,-1.048 -1.048,-1.048zM9.87,5.469c-1.837,0 -2.682,1.09 -2.682,1.824 0,0.531 0.45,0.776 0.817,0.776 0.736,0 0.436,-1.048 1.825,-1.048 0.68,0 1.225,0.3 1.225,0.926 0,0.735 -0.762,1.157 -1.212,1.539 -0.394,0.34 -0.912,0.898 -0.912,2.07 0,0.707 0.19,0.912 0.75,0.912 0.666,0 0.802,-0.3 0.802,-0.559 0,-0.708 0.014,-1.116 0.763,-1.702 0.368,-0.286 1.525,-1.212 1.525,-2.491 0,-1.28 -1.157,-2.247 -2.9,-2.247z" fill="#AAADCB"/>
  <path d="M10,0C4.473,0 0,4.473 0,10v9.219c0,0.431 0.35,0.781 0.781,0.781L10,20c5.527,0 10,-4.473 10,-10S15.527,0 10,0zM10,18.438L1.562,18.438L1.562,10c0,-4.663 3.774,-8.438 8.438,-8.438 4.663,0 8.438,3.774 8.438,8.438 0,4.663 -3.774,8.438 -8.438,8.438z" fill="#AAADCB"/>
</svg>
