<svg id="vector" xmlns="http://www.w3.org/2000/svg" width="22" height="19" viewBox="0 0 22 19"><path fill="#CF202E" d="M10.493,0.832L3.52,6.704 3.135,17.552 8.166,18.01 8.626,13.443 9.749,12.5 11.857,12.025 12.568,12.5 13.074,13.664 13.074,15.666 13.074,18.225 18.4,18.225 18.4,6.704z" stroke-opacity="0.2" fill-rule="evenodd" fill-opacity="0.2" id="path_0"/><path fill="#CF202E" d="M19.607,8.036v10.241c0,0.399 -0.318,0.723 -0.713,0.723h-5.638c-0.375,0 -0.684,-0.293 -0.711,-0.663 -0.003,-0.028 -0.003,-0.028 -0.003,-0.06V14.56c0,-0.868 -0.693,-1.573 -1.542,-1.573 -0.849,0 -1.542,0.705 -1.542,1.573v3.717c0,0.032 0,0.032 -0.002,0.056 -0.029,0.375 -0.337,0.667 -0.711,0.667H3.106c-0.395,0 -0.713,-0.324 -0.713,-0.723V8.037l-1.256,0.935c-0.319,0.238 -0.767,0.167 -1,-0.157 -0.231,-0.32 -0.163,-0.77 0.154,-1.007L10.577,0.141c0.251,-0.188 0.595,-0.188 0.846,0L21.71,7.808c0.317,0.236 0.385,0.686 0.154,1.007 -0.136,0.19 -0.35,0.298 -0.577,0.298 -0.152,0 -0.3,-0.049 -0.423,-0.141l-1.256,-0.936zM11,1.62L3.82,6.972v10.583h4.21V14.56c0,-1.663 1.332,-3.018 2.97,-3.018 1.638,0 2.97,1.355 2.97,3.018v2.995h4.21V6.972L11,1.62z" fill-rule="nonzero" id="path_1"/></svg>