<?xml version="1.0" ?>
<svg xmlns="http://www.w3.org/2000/svg" width="25" height="15" viewBox="0 0 25 15">
  <path d="m17.222,0 l0.078,0.007c0.101,0.02 0.194,0.076 0.26,0.16a0.457,0.457 0,0 1,0.084 0.379l-0.57,2.593 0.09,0.115 3.207,0.001 0.2,0.004C23.031,3.37 25,5.472 25,8.042l-0.795,4.423 -0.02,0.077a0.43,0.43 0,0 1,-0.404 0.288h-0.84l-0.09,0.077 -0.038,0.163C22.517,14.194 21.522,15 20.37,15c-1.206,0 -2.24,-0.884 -2.48,-2.093l-0.09,-0.076h-6.403l-0.092,0.076 -0.037,0.163C10.973,14.194 9.978,15 8.827,15c-1.206,0 -2.24,-0.884 -2.48,-2.093l-0.09,-0.076 -1.628,-0.001 -0.077,-0.007a0.444,0.444 0,0 1,-0.354 -0.44,0.44 0.44,0 0,1 0.431,-0.448h1.627l0.092,-0.077 0.037,-0.162c0.295,-1.125 1.29,-1.931 2.442,-1.931 1.206,0 2.24,0.884 2.48,2.093l0.09,0.077h2.783l0.091,-0.074 2.385,-10.85 -0.092,-0.116L4.63,0.895L4.552,0.888a0.444,0.444 0,0 1,-0.354 -0.44A0.44,0.44 0,0 1,4.629 0h12.593zM20.371,10.66c-0.92,0 -1.668,0.773 -1.668,1.722 0,0.95 0.748,1.723 1.668,1.723 0.92,0 1.667,-0.773 1.667,-1.723 0,-0.949 -0.747,-1.722 -1.667,-1.722zM8.827,10.66c-0.92,0 -1.667,0.773 -1.667,1.722 0,0.95 0.747,1.723 1.667,1.723 0.917,0 1.663,-0.768 1.667,-1.718l-0.005,-0.149 -0.019,-0.146c-0.136,-0.818 -0.825,-1.432 -1.643,-1.432zM20.371,4.15h-3.446l-0.09,0.074 -1.67,7.595 0.09,0.116L17.8,11.935l0.091,-0.077 0.038,-0.162c0.295,-1.125 1.29,-1.931 2.442,-1.931 1.206,0 2.24,0.884 2.48,2.093l0.09,0.077h0.405l0.092,-0.078 0.707,-3.897 -0.005,-0.188c-0.107,-1.996 -1.772,-3.622 -3.77,-3.622zM6.728,8.68l0.078,0.007c0.2,0.038 0.354,0.22 0.354,0.44a0.44,0.44 0,0 1,-0.432 0.448L0.431,9.575l-0.077,-0.007A0.444,0.444 0,0 1,0 9.128a0.44,0.44 0,0 1,0.431 -0.448h6.297zM6.728,5.425 L6.806,5.432c0.2,0.038 0.354,0.22 0.354,0.44a0.44,0.44 0,0 1,-0.432 0.448L1.481,6.32l-0.078,-0.007a0.444,0.444 0,0 1,-0.354 -0.44,0.44 0.44,0 0,1 0.432,-0.448h5.247zM6.728,2.17 L6.806,2.177c0.2,0.038 0.354,0.22 0.354,0.44a0.44,0.44 0,0 1,-0.432 0.448L2.53,3.065l-0.077,-0.007a0.444,0.444 0,0 1,-0.354 -0.44,0.44 0.44,0 0,1 0.431,-0.448h4.198z" fill="#3F4349"/>
</svg>
