<?xml version="1.0" ?>
<svg xmlns="http://www.w3.org/2000/svg" width="23" height="12" viewBox="0 0 23 12">
  <path d="M5.951,0.426h10.833V11.28H5.951z" fill="#FFF"/>
  <path d="M5.951,5.955h10.833v5.427H5.951z" fill="#DAEAE7"/>
  <path d="M5.951,0.426h10.833l-5.417,5.427L5.951,0.426M5.951,11.28h10.833l-5.417,-5.427 -5.416,5.427" fill="#EE3725"/>
  <path d="M5.951,0.426V11.28L0.535,5.853 5.951,0.426" fill="#FF6700"/>
  <path d="M5.951,2.474v8.806L0.535,5.853l5.416,-3.38" fill="#EE3725"/>
  <path d="M16.784,0.426V11.28L22.2,5.853 16.784,0.426" fill="#FF6700"/>
  <path d="M16.784,2.474v8.806L22.2,5.853l-5.416,-3.38" fill="#EE3725"/>
  <path d="M7.893,2.371h6.95l1.94,-1.945H5.952z" fill="#FF6700"/>
  <path d="M16.784,8.822v2.458l2.452,-2.458zM5.951,11.28h10.833L14.33,8.822H8.404zM3.499,8.822L5.95,11.28V8.822z" fill="#D60F05"/>
</svg>
