<?xml version="1.0" ?>
<svg xmlns="http://www.w3.org/2000/svg" width="27" height="27" viewBox="0 0 27 27">
  <path d="M15.581,8.129a0.451,0.451 0,0 0,-0.14 0.328v2.403c0,0.187 -0.154,0.34 -0.344,0.34H7.462a0.458,0.458 0,0 0,-0.462 0.454v4.678c0,0.251 0.207,0.455 0.462,0.455h7.635c0.19,0 0.344,0.152 0.344,0.34v2.41a0.458,0.458 0,0 0,0.454 0.463,0.466 0.466,0 0,0 0.34,-0.138l5.627,-5.54a0.452,0.452 0,0 0,0.138 -0.319c0,-0.122 -0.05,-0.24 -0.138,-0.326l-5.628,-5.54a0.467,0.467 0,0 0,-0.653 -0.008z" fill="#223BC1"/>
  <path d="M3.5,0.5L23.5,0.5A3,3 0,0 1,26.5 3.5L26.5,23.5A3,3 0,0 1,23.5 26.5L3.5,26.5A3,3 0,0 1,0.5 23.5L0.5,3.5A3,3 0,0 1,3.5 0.5z" fill="#00000000" stroke-width="1" stroke="#939EAB"/>
</svg>
