<?xml version="1.0" ?>
<svg xmlns="http://www.w3.org/2000/svg" width="10" height="13" viewBox="0 0 10 13">
  <path d="M8.6364,1.8571L3.1818,1.8571C2.429,1.858 1.819,2.4811 1.8182,3.25L1.8182,11.6071C1.819,12.376 2.429,12.9992 3.1818,13L8.6364,13C9.3891,12.9992 9.9992,12.376 10,11.6071L10,3.25C9.9992,2.4811 9.3891,1.858 8.6364,1.8571L8.6364,1.8571ZM9.0909,11.6071C9.0907,11.8635 8.8873,12.0712 8.6364,12.0714L3.1818,12.0714C2.9309,12.0712 2.7275,11.8635 2.7273,11.6071L2.7273,3.25C2.7275,2.9937 2.9309,2.7859 3.1818,2.7857L8.6364,2.7857C8.8873,2.7859 9.0907,2.9937 9.0909,3.25L9.0909,11.6071Z" fill="#223BC1" stroke-width="1" stroke="#00000000"/>
  <path d="M7.2727,0.9286C7.5238,0.9286 7.7273,0.7207 7.7273,0.4643C7.7273,0.2079 7.5238,0 7.2727,0L2.2727,0C1.0181,0.0015 0.0015,1.04 0,2.3214L0,10.2143C0,10.4707 0.2035,10.6786 0.4545,10.6786C0.7056,10.6786 0.9091,10.4707 0.9091,10.2143L0.9091,2.3214C0.9099,1.5525 1.52,0.9294 2.2727,0.9286L7.2727,0.9286Z" fill="#223BC1" stroke-width="1" stroke="#00000000"/>
</svg>
