<?xml version="1.0" ?>
<svg xmlns="http://www.w3.org/2000/svg" width="20" height="24" viewBox="0 0 20 24">
  <path d="M19.0909,3.6923L14.5455,3.6923L14.5455,0.9231C14.5455,0.4133 14.1384,0 13.6364,0L6.3636,0C5.8616,0 5.4545,0.4133 5.4545,0.9231L5.4545,3.6923L0.9091,3.6923C0.407,3.6923 0,4.1056 0,4.6154C0,5.1252 0.407,5.5385 0.9091,5.5385L19.0909,5.5385C19.593,5.5385 20,5.1252 20,4.6154C20,4.1056 19.593,3.6923 19.0909,3.6923ZM7.2727,1.8462L12.7273,1.8462L12.7273,3.6923L7.2727,3.6923L7.2727,1.8462Z" fill="#AAADCB" stroke-width="1" stroke="#00000000"/>
  <path d="M17.2727,7.3846C16.7707,7.3846 16.3636,7.7979 16.3636,8.3077L16.3636,21.2308C16.3633,21.7404 15.9565,22.1535 15.4545,22.1538L4.5455,22.1538C4.0435,22.1535 3.6367,21.7404 3.6364,21.2308L3.6364,8.3077C3.6364,7.7979 3.2293,7.3846 2.7273,7.3846C2.2252,7.3846 1.8182,7.7979 1.8182,8.3077L1.8182,21.2308C1.8198,22.7595 3.0399,23.9983 4.5455,24L15.4545,24C16.9601,23.9983 18.1802,22.7595 18.1818,21.2308L18.1818,8.3077C18.1818,7.7979 17.7748,7.3846 17.2727,7.3846Z" fill="#AAADCB" stroke-width="1" stroke="#00000000"/>
  <path d="M9.1091,17.5385L9.1091,10.1538C9.1091,9.644 8.7021,9.2308 8.2,9.2308C7.6979,9.2308 7.2909,9.644 7.2909,10.1538L7.2909,17.5385C7.2909,18.0483 7.6979,18.4615 8.2,18.4615C8.7021,18.4615 9.1091,18.0483 9.1091,17.5385Z" fill="#AAADCB" stroke-width="1" stroke="#00000000"/>
  <path d="M12.7095,17.5385L12.7095,10.1538C12.7095,9.644 12.3025,9.2308 11.8005,9.2308C11.2984,9.2308 10.8914,9.644 10.8914,10.1538L10.8914,17.5385C10.8914,18.0483 11.2984,18.4615 11.8005,18.4615C12.3025,18.4615 12.7095,18.0483 12.7095,17.5385Z" fill="#AAADCB" stroke-width="1" stroke="#00000000"/>
</svg>
