<?xml version="1.0" ?>
<svg xmlns="http://www.w3.org/2000/svg" width="17" height="20" viewBox="0 0 17 20">
  <path d="M15.508,2.954h-3.693L11.815,0.738A0.738,0.738 0,0 0,11.077 0L5.169,0a0.738,0.738 0,0 0,-0.738 0.738v2.216L0.738,2.954a0.738,0.738 0,0 0,0 1.477h14.77a0.738,0.738 0,1 0,0 -1.477zM5.908,1.477h4.43v1.477h-4.43L5.908,1.477zM14.03,5.908a0.738,0.738 0,0 0,-0.738 0.738v10.339c0,0.407 -0.33,0.738 -0.738,0.738L3.692,17.723a0.739,0.739 0,0 1,-0.738 -0.738L2.954,6.646a0.738,0.738 0,1 0,-1.477 0v10.339A2.218,2.218 0,0 0,3.692 19.2h8.862a2.218,2.218 0,0 0,2.215 -2.215L14.769,6.646a0.738,0.738 0,0 0,-0.738 -0.738z" fill="#CF202E"/>
  <path d="M7.4,14.03V8.124a0.738,0.738 0,0 0,-1.478 0v5.908a0.738,0.738 0,1 0,1.477 0zM10.324,14.03V8.124a0.738,0.738 0,1 0,-1.477 0v5.908a0.738,0.738 0,1 0,1.477 0z" fill="#CF202E"/>
</svg>
