<?xml version="1.0" ?>
<svg xmlns="http://www.w3.org/2000/svg" width="19" height="16" viewBox="0 0 19 16">
  <path d="M18.755,13.465 L10.962,0.808a1.724,1.724 0,0 0,-2.924 0L0.245,13.465A1.644,1.644 0,0 0,0.22 15.15c0.302,0.524 0.872,0.85 1.486,0.85h15.587c0.615,0 1.185,-0.326 1.487,-0.85a1.644,1.644 0,0 0,-0.025 -1.685zM17.703,14.555a0.472,0.472 0,0 1,-0.41 0.234L1.706,14.789a0.472,0.472 0,0 1,-0.409 -0.234,0.453 0.453,0 0,1 0.007,-0.464L9.098,1.434a0.475,0.475 0,0 1,0.804 0l7.794,12.657c0.087,0.142 0.09,0.32 0.007,0.464z" fill="#CF202E"/>
  <path d="M9.506,4.984c-0.47,0 -0.838,0.247 -0.838,0.686 0,1.337 0.16,3.259 0.16,4.596 0,0.349 0.31,0.495 0.678,0.495 0.275,0 0.665,-0.146 0.665,-0.495 0,-1.337 0.161,-3.259 0.161,-4.596 0,-0.439 -0.379,-0.686 -0.826,-0.686zM9.517,11.536a0.868,0.868 0,0 0,-0.883 0.866c0,0.46 0.378,0.865 0.883,0.865 0.47,0 0.873,-0.405 0.873,-0.865a0.88,0.88 0,0 0,-0.873 -0.866z" fill="#CF202E"/>
</svg>
