<?xml version="1.0" ?>
<svg xmlns="http://www.w3.org/2000/svg" width="20" height="20" viewBox="0 0 20 20">
  <path d="M9.76,9.96m-9.6,0a9.6,9.6 0,1 1,19.2 0a9.6,9.6 0,1 1,-19.2 0" fill="#FFD93B"/>
  <path d="M19.36,9.96a9.6,9.6 0,0 1,-9.6 9.6,9.58 9.58,0 0,1 -7.473,-3.573 9.55,9.55 0,0 0,6.027 2.127,9.6 9.6,0 0,0 9.6,-9.6 9.55,9.55 0,0 0,-2.127 -6.027A9.59,9.59 0,0 1,19.36 9.96z" fill="#F4C534"/>
  <path d="M9.387,8.613c0,2.019 -1.404,3.654 -3.135,3.654 -1.737,0 -3.14,-1.635 -3.14,-3.654s1.403,-3.654 3.14,-3.654c1.731,0 3.135,1.635 3.135,3.654z" fill="#FFF"/>
  <path d="M5.731,8.505a1.453,1.607 0,1 0,2.906 0a1.453,1.607 0,1 0,-2.906 0z" fill="#3E4347"/>
  <path d="M8.064,7.975c-0.085,0.133 -0.296,0.158 -0.468,0.046 -0.172,-0.105 -0.244,-0.303 -0.159,-0.436 0.08,-0.139 0.29,-0.158 0.463,-0.047 0.172,0.107 0.244,0.304 0.164,0.437z" fill="#5A5F63"/>
  <path d="M10.311,8.613c0,2.019 1.404,3.654 3.135,3.654 1.737,0 3.141,-1.635 3.141,-3.654s-1.404,-3.654 -3.14,-3.654c-1.732,0 -3.136,1.635 -3.136,3.654z" fill="#FFF"/>
  <path d="M11.062,8.505a1.453,1.607 0,1 0,2.906 0a1.453,1.607 0,1 0,-2.906 0z" fill="#3E4347"/>
  <path d="M13.394,7.975c-0.085,0.133 -0.296,0.158 -0.468,0.046 -0.172,-0.105 -0.244,-0.303 -0.159,-0.436 0.08,-0.139 0.29,-0.158 0.463,-0.047 0.172,0.107 0.244,0.304 0.164,0.437z" fill="#5A5F63"/>
  <path d="M12.733,14.961c-0.488,-0.881 -1.223,-1.675 -2.56,-1.675 -1.339,0 -2.898,0.794 -3.387,1.675 1.483,-1 3.465,-1 5.947,0z" fill="#3E4347"/>
</svg>
