<?xml version="1.0" ?>
<svg xmlns="http://www.w3.org/2000/svg" width="20" height="20" viewBox="0 0 20 20">
  <path d="M9.64,9.96m-9.6,0a9.6,9.6 0,1 1,19.2 0a9.6,9.6 0,1 1,-19.2 0" fill="#FFD93B"/>
  <path d="M19.24,9.96a9.6,9.6 0,0 1,-9.6 9.6,9.58 9.58,0 0,1 -7.473,-3.573 9.55,9.55 0,0 0,6.027 2.127,9.6 9.6,0 0,0 9.6,-9.6 9.55,9.55 0,0 0,-2.127 -6.027A9.59,9.59 0,0 1,19.24 9.96z" fill="#F4C534"/>
  <path d="M9.146,9.176a3.07,3.07 0,0 1,-3.073 3.066A3.07,3.07 0,0 1,3 9.176a3.072,3.072 0,1 1,6.146 0z" fill="#F4C534"/>
  <path d="M8.56,9.175c0.176,1.384 -0.795,2.51 -2.169,2.51s-2.63,-1.126 -2.804,-2.51C3.41,7.785 4.382,6.66 5.756,6.66S8.385,7.786 8.56,9.175z" fill="#FFF"/>
  <path d="M8.029,9.058c0,0.846 -0.577,1.534 -1.285,1.534s-1.285,-0.688 -1.285,-1.534c0,-0.84 0.577,-1.527 1.285,-1.527s1.285,0.688 1.285,1.527z" fill="#3E4347"/>
  <path d="M6.392,11.686c0.994,0 1.77,-0.594 2.06,-1.445a1.385,1.385 0,0 1,-0.29 -0.1l-0.004,-0.002a1.38,1.38 0,0 0,-1.184 0.001h-0.002c-0.375,0.178 -0.81,0.178 -1.185,0a1.381,1.381 0,0 0,-1.186 0,1.378 1.378,0 0,1 -0.616,0.131c0.51,0.834 1.424,1.415 2.407,1.415z" fill="#65B1EF"/>
  <path d="M6.388,9.404a0.209,0.209 0,0 1,-0.416 0,0.21 0.21,0 0,1 0.208,-0.214 0.21,0.21 0,0 1,0.208 0.214zM7.387,8.44a0.457,0.457 0,0 1,-0.458 0.458,0.453 0.453,0 0,1 -0.458,-0.458c0,-0.25 0.201,-0.45 0.458,-0.45 0.25,0 0.458,0.2 0.458,0.45z" fill="#FFF"/>
  <path d="M7.739,10.016c-0.23,0.354 -0.59,0.576 -0.992,0.576 -0.34,0 -0.645,-0.16 -0.874,-0.417 0.16,0.07 0.333,0.105 0.506,0.105 0.201,0 0.403,-0.049 0.596,-0.139 0.188,-0.09 0.389,-0.138 0.59,-0.138 0.055,-0.002 0.118,0.006 0.174,0.013z" fill="#4E99D2"/>
  <path d="M4.916,12.15c-0.489,0.33 -0.902,0.81 -1.04,1.383 -0.038,0.154 -0.056,0.314 -0.113,0.463 -0.057,0.148 -0.163,0.289 -0.314,0.337a0.466,0.466 0,0 1,-0.438 -0.114,0.843 0.843,0 0,1 -0.23,-0.406c-0.162,-0.567 0.049,-1.201 0.453,-1.633 0.404,-0.431 0.975,-0.677 1.557,-0.78 0.308,-0.054 0.62,-0.071 0.932,-0.068 0.11,0 0.727,-0.04 0.66,0.129 -0.052,0.127 -0.59,0.237 -0.725,0.294 -0.258,0.11 -0.509,0.238 -0.742,0.396zM2.567,12.349c-0.069,0.136 -0.135,0.298 -0.248,0.448 -0.127,0.168 -0.326,0.315 -0.5,0.29 -0.176,-0.026 -0.249,-0.222 -0.222,-0.417 0.023,-0.174 0.112,-0.34 0.203,-0.478 0.263,-0.398 0.594,-0.64 0.906,-0.734 0.17,-0.051 0.35,-0.065 0.528,-0.046 0.149,0.016 0.325,0.094 0.154,0.152 -0.3,0.102 -0.596,0.331 -0.821,0.785zM2.73,10.346a1.325,1.325 0,0 0,-0.954 0.084,0.634 0.634,0 0,0 -0.286,0.248c-0.062,0.112 -0.063,0.265 0.023,0.36 0.077,0.085 0.206,0.107 0.32,0.087 0.113,-0.019 0.218,-0.072 0.325,-0.116 0.184,-0.074 0.379,-0.119 0.575,-0.135 0.199,-0.015 0.438,0.078 0.622,0.05 0.202,-0.03 -0.047,-0.234 -0.14,-0.314a1.316,1.316 0,0 0,-0.485 -0.264z" fill="#65B1EF"/>
  <path d="M3.93,5.361c-0.154,-0.016 -0.17,-0.235 -0.02,-0.271 1.233,-0.282 3.458,-1.102 4.178,-3.373 0.044,-0.137 0.247,-0.124 0.266,0.019C8.76,4.605 7.212,5.75 3.93,5.36z" fill="#3E4347"/>
  <path d="M10.134,9.176a3.07,3.07 0,0 0,3.073 3.066,3.07 3.07,0 0,0 3.073,-3.066 3.072,3.072 0,1 0,-6.146 0z" fill="#F4C534"/>
  <path d="M10.72,9.175c-0.176,1.384 0.795,2.51 2.169,2.51s2.63,-1.126 2.804,-2.51c0.176,-1.39 -0.795,-2.516 -2.169,-2.516 -1.374,0.001 -2.629,1.127 -2.805,2.516z" fill="#FFF"/>
  <path d="M13.821,9.058c0,0.846 -0.577,1.534 -1.285,1.534s-1.285,-0.688 -1.285,-1.534c0,-0.84 0.577,-1.527 1.285,-1.527s1.285,0.688 1.285,1.527z" fill="#3E4347"/>
  <path d="M12.888,11.686c-0.994,0 -1.77,-0.594 -2.06,-1.445 0.098,-0.022 0.196,-0.055 0.29,-0.1l0.003,-0.002a1.38,1.38 0,0 1,1.185 0.001h0.002c0.375,0.179 0.81,0.179 1.185,0 0.376,-0.178 0.811,-0.178 1.186,0 0.195,0.093 0.406,0.136 0.616,0.132 -0.51,0.833 -1.424,1.414 -2.407,1.414z" fill="#65B1EF"/>
  <path d="M12.18,9.404a0.209,0.209 0,0 1,-0.417 0,0.21 0.21,0 0,1 0.209,-0.214 0.21,0.21 0,0 1,0.208 0.214zM13.179,8.44a0.457,0.457 0,0 1,-0.458 0.458,0.453 0.453,0 0,1 -0.458,-0.458c0,-0.25 0.201,-0.45 0.458,-0.45 0.25,0 0.458,0.2 0.458,0.45z" fill="#FFF"/>
  <path d="M11.541,10.016c0.23,0.354 0.59,0.576 0.992,0.576 0.34,0 0.645,-0.16 0.874,-0.417a1.27,1.27 0,0 1,-0.506 0.105c-0.201,0 -0.403,-0.049 -0.596,-0.139a1.363,1.363 0,0 0,-0.59 -0.138,1.212 1.212,0 0,0 -0.174,0.013z" fill="#4E99D2"/>
  <path d="M14.364,12.15c0.489,0.33 0.901,0.81 1.04,1.383 0.039,0.154 0.056,0.314 0.113,0.463 0.057,0.149 0.163,0.29 0.314,0.337 0.15,0.048 0.32,-0.007 0.438,-0.113a0.843,0.843 0,0 0,0.23 -0.406c0.162,-0.569 -0.049,-1.203 -0.453,-1.634 -0.404,-0.431 -0.975,-0.677 -1.557,-0.78a5.095,5.095 0,0 0,-0.932 -0.068c-0.11,0 -0.727,-0.04 -0.66,0.129 0.052,0.127 0.59,0.237 0.725,0.294 0.258,0.11 0.509,0.238 0.742,0.396zM16.713,12.349c0.069,0.136 0.135,0.298 0.248,0.448 0.127,0.168 0.325,0.315 0.5,0.29 0.176,-0.026 0.25,-0.222 0.223,-0.417a1.197,1.197 0,0 0,-0.204 -0.478c-0.262,-0.398 -0.593,-0.64 -0.906,-0.734a1.35,1.35 0,0 0,-0.528 -0.046c-0.148,0.016 -0.324,0.094 -0.153,0.152 0.3,0.102 0.595,0.331 0.82,0.785zM16.55,10.346c0.314,-0.092 0.661,-0.061 0.954,0.084a0.634,0.634 0,0 1,0.286 0.248c0.062,0.112 0.063,0.265 -0.023,0.36 -0.077,0.085 -0.206,0.107 -0.32,0.087 -0.113,-0.019 -0.218,-0.072 -0.325,-0.116a1.94,1.94 0,0 0,-0.575 -0.135c-0.199,-0.015 -0.438,0.078 -0.622,0.05 -0.202,-0.03 0.047,-0.234 0.14,-0.314a1.32,1.32 0,0 1,0.485 -0.264z" fill="#65B1EF"/>
  <path d="M15.35,5.361c0.154,-0.016 0.17,-0.236 0.02,-0.271 -1.233,-0.282 -3.458,-1.102 -4.178,-3.373 -0.044,-0.137 -0.247,-0.124 -0.266,0.019C10.52,4.605 12.069,5.75 15.35,5.36zM9.637,14.096c-1.928,0 -3.324,1.497 -3.21,3.046 0.012,0.164 0.255,0.206 0.334,0.058 0.522,-0.95 1.614,-1.604 2.876,-1.604 1.268,0 2.36,0.654 2.882,1.604 0.079,0.148 0.322,0.106 0.334,-0.058 0.114,-1.547 -1.278,-3.046 -3.216,-3.046z" fill="#3E4347"/>
</svg>
