<?xml version="1.0" ?>
<svg xmlns="http://www.w3.org/2000/svg" width="19" height="20" viewBox="0 0 19 20">
  <path d="M9.32,9.96m-9.12,0a9.12,9.12 0,1 1,18.24 0a9.12,9.12 0,1 1,-18.24 0" fill="#FFD93B"/>
  <path d="M18.44,9.96a9.12,9.12 0,0 1,-9.12 9.12,9.101 9.101,0 0,1 -7.1,-3.394 9.072,9.072 0,0 0,5.726 2.02,9.12 9.12,0 0,0 9.12,-9.12 9.072,9.072 0,0 0,-2.02 -5.725A9.11,9.11 0,0 1,18.44 9.96z" fill="#F4C534"/>
  <path d="M14.158,14.203c-0.41,1.482 -1.716,2.61 -3.283,2.793a13.58,13.58 0,0 1,-3.118 0,3.886 3.886,0 0,1 -3.277,-2.793c-0.052,-0.189 0.102,-0.365 0.29,-0.331 3.033,0.502 6.065,0.502 9.097,0 0.189,-0.034 0.342,0.142 0.291,0.33z" fill="#3E4347"/>
  <path d="M5.101,13.92c0.2,0.355 0.488,0.601 0.835,0.875 0.35,0.272 0.76,0.47 1.21,0.531 1.44,0.201 2.897,0.201 4.346,0 0.445,-0.06 0.855,-0.252 1.2,-0.524 0.35,-0.277 0.641,-0.524 0.843,-0.882 -2.811,0.431 -5.622,0.431 -8.434,0z" fill="#FFF"/>
  <path d="M11.384,8.492a4.87,4.87 0,0 1,-4.867 4.86,4.87 4.87,0 0,1 -4.86,-4.86 4.871,4.871 0,0 1,4.86 -4.867,4.873 4.873,0 0,1 4.867,4.867z" fill="#F4C534"/>
  <path d="M10.263,8.491A3.74,3.74 0,1 1,6.52 4.748a3.744,3.744 0,0 1,3.743 3.743z" fill="#FFF"/>
  <path d="M8.677,8.492a2.15,2.15 0,1 1,-4.3 0c0,-1.184 0.96,-2.15 2.143,-2.15 1.19,0 2.157,0.966 2.157,2.15z" fill="#3E4347"/>
  <path d="M16.983,8.622a3.225,3.225 0,0 1,-3.226 3.22,3.224 3.224,0 0,1 -3.22,-3.22 3.224,3.224 0,0 1,3.22 -3.22,3.226 3.226,0 0,1 3.226,3.22z" fill="#F4C534"/>
  <path d="M13.761,8.623m-2.286,0a2.286,2.286 0,1 1,4.572 0a2.286,2.286 0,1 1,-4.572 0" fill="#FFF"/>
  <path d="M15.25,8.622a1.49,1.49 0,0 1,-1.49 1.483,1.479 1.479,0 0,1 -1.477,-1.483c0,-0.817 0.66,-1.482 1.477,-1.482 0.817,0 1.49,0.665 1.49,1.482z" fill="#3E4347"/>
  <path d="M13.221,8.052m-1,0a1,1 0,1 1,2 0a1,1 0,1 1,-2 0" fill="#FFF"/>
  <path d="M6.323,7.663a0.58,0.58 0,0 1,-1.157 0C5.166,7.347 5.429,7.084 5.745,7.084a0.58,0.58 0,0 1,0.578 0.579z" fill="#FFF"/>
  <path d="M13.762,8.54m-1,0a1,1 0,1 1,2 0a1,1 0,1 1,-2 0" fill="#FFF"/>
  <path d="M6.493,8.36m-1,0a1,1 0,1 1,2 0a1,1 0,1 1,-2 0" fill="#FFF"/>
</svg>
