<?xml version="1.0" ?>
<svg xmlns="http://www.w3.org/2000/svg" width="21" height="20" viewBox="0 0 21 20">
  <path d="M10.52,10.36m-9.6,0a9.6,9.6 0,1 1,19.2 0a9.6,9.6 0,1 1,-19.2 0" fill="#FFD93B"/>
  <path d="M20.12,10.36a9.6,9.6 0,0 1,-9.6 9.6,9.58 9.58,0 0,1 -7.473,-3.573 9.55,9.55 0,0 0,6.027 2.127,9.6 9.6,0 0,0 9.6,-9.6 9.55,9.55 0,0 0,-2.127 -6.027A9.59,9.59 0,0 1,20.12 10.36z" fill="#F4C534"/>
  <path d="M17.094,12.883a6.763,6.763 0,0 1,-6.576 5.196c-3.198,0 -5.868,-2.22 -6.576,-5.202a0.3,0.3 0,0 1,0.378 -0.36c4.164,1.242 8.298,1.266 12.396,0.006a0.298,0.298 0,0 1,0.378 0.36z" fill="#3E4347"/>
  <path d="M10.132,15.562c-2.458,0 -4.209,-0.723 -3.868,0.986 0.002,0.009 0.006,0.017 0.007,0.026a6.718,6.718 0,0 0,4.247 1.504,6.724 6.724,0 0,0 4.247,-1.503l0.007,-0.027c0.341,-1.709 -2.182,-0.986 -4.64,-0.986z" fill="#E24B4B"/>
  <path d="M4.416,12.542c0.363,1.302 2.95,2.307 6.09,2.307 3.13,0 5.707,-0.998 6.085,-2.293 -4.025,1.212 -8.085,1.187 -12.175,-0.014z" fill="#FFF"/>
  <path d="M14.525,8.808m-3.692,0a3.692,3.692 0,1 1,7.384 0a3.692,3.692 0,1 1,-7.384 0" fill="#F4C534"/>
  <path d="M17.685,8.809c-0.097,1.756 -1.59,3.179 -3.335,3.179 -1.745,0 -3.086,-1.423 -2.989,-3.179 0.097,-1.756 1.596,-3.184 3.341,-3.184s3.08,1.428 2.983,3.184z" fill="#FFF"/>
  <path d="M16.02,8.807a1.493,1.493 0,0 1,-1.497 1.497,1.493 1.493,0 0,1 -1.497,-1.498 1.493,1.493 0,0 1,1.497 -1.498,1.493 1.493,0 0,1 1.498,1.499z" fill="#3E4347"/>
  <path d="M15.7801,8.9641a1,1 104.0708,1 0,-1.4142 -1.4142a1,1 104.0708,1 0,1.4142 1.4142z" fill="#FFF"/>
  <path d="M6.516,8.808m-3.692,0a3.692,3.692 0,1 1,7.384 0a3.692,3.692 0,1 1,-7.384 0" fill="#F4C534"/>
  <path d="M3.355,8.809c0.098,1.756 1.59,3.179 3.336,3.179 1.745,0 3.086,-1.423 2.988,-3.179 -0.097,-1.756 -1.596,-3.184 -3.34,-3.184 -1.746,0 -3.08,1.428 -2.984,3.184z" fill="#FFF"/>
  <path d="M5.02,8.807a1.493,1.493 0,0 0,1.497 1.497,1.493 1.493,0 0,0 1.497,-1.498 1.493,1.493 0,0 0,-1.497 -1.498,1.494 1.494,0 0,0 -1.498,1.499z" fill="#3E4347"/>
  <path d="M6.6741,8.9651a1,1 98.4187,1 0,-1.4142 -1.4142a1,1 98.4187,1 0,1.4142 1.4142z" fill="#FFF"/>
  <path d="M6.738,3.495S4.788,3.22 2.74,5.59c0,0 1.324,-4.247 3.998,-2.096zM14.302,3.495s1.95,-0.274 3.998,2.096c0,0 -1.324,-4.247 -3.998,-2.096z" fill="#3E4347"/>
</svg>
