<?xml version="1.0" ?>
<svg xmlns="http://www.w3.org/2000/svg" width="20" height="20" viewBox="0 0 20 20">
  <path d="M19.046,9.125c0.78,6.277 -4.489,11.547 -10.75,10.756 -4.27,-0.539 -7.717,-3.992 -8.257,-8.27C-0.754,5.329 4.526,0.042 10.8,0.842c4.27,0.544 7.714,4.004 8.247,8.284z" fill="#FFD93B"/>
  <path d="M19.058,11.489c-0.5,4.383 -4.04,7.92 -8.416,8.41a9.564,9.564 0,0 1,-8.56 -3.512,9.547 9.547,0 0,0 7.11,2.067c4.391,-0.486 7.942,-4.043 8.427,-8.444A9.591,9.591 0,0 0,15.556 2.887a9.606,9.606 0,0 1,3.502 8.602z" fill="#F4C534"/>
  <path d="M0.109,8.659a4.528,4.54 0,1 0,9.056 0a4.528,4.54 0,1 0,-9.056 0z" fill="#F4C534"/>
  <path d="M8.264,8.66a3.627,3.627 0,0 1,-3.626 3.633A3.627,3.627 0,0 1,1.012 8.66a3.629,3.629 0,0 1,3.626 -3.64A3.629,3.629 0,0 1,8.264 8.66z" fill="#FFF"/>
  <path d="M6.828,8.66a2.19,2.19 0,1 1,-4.38 0c0,-1.215 0.978,-2.2 2.19,-2.2 1.213,0 2.19,0.985 2.19,2.2z" fill="#3E4347"/>
  <path d="M6.1398,8.5664a1,1 0,1 0,-1.4142 -1.4142a1,1 0,1 0,1.4142 1.4142z" fill="#FFF"/>
  <path d="M9.918,8.659a4.528,4.54 0,1 0,9.056 0a4.528,4.54 0,1 0,-9.056 0z" fill="#F4C534"/>
  <path d="M18.071,8.66a3.628,3.628 0,1 1,-7.253 0,3.63 3.63,0 0,1 3.627,-3.64A3.63,3.63 0,0 1,18.07 8.66z" fill="#FFF"/>
  <path d="M16.635,8.66a2.19,2.19 0,1 1,-4.379 0c0,-1.215 0.977,-2.2 2.19,-2.2 1.212,0 2.189,0.985 2.189,2.2z" fill="#3E4347"/>
  <path d="M15.9478,8.5664a1,1 107.9862,1 0,-1.4142 -1.4142a1,1 107.9862,1 0,1.4142 1.4142z" fill="#FFF"/>
  <path d="M13.224,14.773c-0.63,1.06 -1.949,2.232 -3.887,2.31 -1.701,-0.1 -3.037,-0.986 -3.9,-2.315 1.043,0.546 2.153,1.317 3.906,1.403 1.997,-0.051 3.275,-1.149 3.881,-1.398z" fill="#3E4347"/>
</svg>
