<?xml version="1.0" ?>
<svg xmlns="http://www.w3.org/2000/svg" width="20" height="21" viewBox="0 0 20 21">
  <path d="M0.195,10.73a9.565,9.671 0,1 0,19.13 0a9.565,9.671 0,1 0,-19.13 0z" fill="#FFD93B"/>
  <path d="M19.325,10.73c0,5.343 -4.284,9.67 -9.565,9.67 -3.007,0 -5.691,-1.401 -7.446,-3.599a9.451,9.451 0,0 0,6.005 2.143c5.282,0 9.565,-4.328 9.565,-9.671 0,-2.3 -0.792,-4.412 -2.12,-6.072a9.701,9.701 0,0 1,3.56 7.529z" fill="#F4C534"/>
  <path d="M6.911,1.06c0.452,1.167 -1.063,3.827 -1.063,3.827s-2.9,-0.912 -3.351,-2.079A1.235,1.235 0,0 1,3.185 1.217a1.207,1.207 0,0 1,1.386 0.37A1.21,1.21 0,0 1,6.91 1.06zM19.177,4.1c-0.666,1.41 -4.353,2.282 -4.353,2.282s-1.65,-3.447 -0.984,-4.857A1.51,1.51 0,0 1,15.86 0.803c0.61,0.294 0.936,0.948 0.848,1.591a1.5,1.5 0,0 1,1.754 -0.336,1.54 1.54,0 0,1 0.715,2.042z" fill="#E24B4B"/>
  <path d="M10.248,9.347c0,2.199 -1.76,3.978 -3.934,3.978 -2.168,0 -3.934,-1.78 -3.934,-3.978 0,-2.193 1.766,-3.971 3.934,-3.971 2.175,0 3.934,1.778 3.934,3.97z" fill="#F4C534"/>
  <path d="M9.544,9.348C9.32,11.174 7.697,12.65 5.91,12.65c-1.78,0 -3.049,-1.476 -2.825,-3.302 0.222,-1.821 1.851,-3.298 3.631,-3.298 1.786,0 3.05,1.477 2.827,3.298z" fill="#FFF"/>
  <path d="M5.21,7.989a1.348,1.363 0,1 0,2.696 0a1.348,1.363 0,1 0,-2.696 0z" fill="#3E4347"/>
  <path d="M7.029,7.51m0.7071,0.7071a1,1 68.3183,1 1,-1.4142 -1.4142a1,1 68.3183,1 1,1.4142 1.4142" fill="#FFF"/>
  <path d="M17.14,9.892c0,1.783 -1.427,3.226 -3.19,3.226 -1.759,0 -3.19,-1.443 -3.19,-3.226 0,-1.778 1.43,-3.22 3.19,-3.22 1.763,0 3.19,1.442 3.19,3.22z" fill="#F4C534"/>
  <path d="M16.568,9.893c0.148,1.446 -0.903,2.615 -2.35,2.615 -1.444,0 -2.74,-1.17 -2.888,-2.615C11.182,8.45 12.237,7.28 13.68,7.28c1.45,0 2.74,1.17 2.888,2.612z" fill="#FFF"/>
  <path d="M12.136,9.102a1.348,1.363 0,1 0,2.696 0a1.348,1.363 0,1 0,-2.696 0z" fill="#3E4347"/>
  <path d="M13.954,8.622m0.7071,0.7071a1,1 0,1 1,-1.4142 -1.4142a1,1 0,1 1,1.4142 1.4142" fill="#FFF"/>
  <path d="M3.623,14.024c0.475,0.728 0.951,1.226 1.545,1.747 1.232,1.05 2.863,1.662 4.581,1.683 1.806,-0.025 3.38,-0.643 4.603,-1.684 0.587,-0.514 1.079,-1.033 1.545,-1.746 -0.346,0.767 -0.745,1.422 -1.317,1.997 -1.359,1.347 -2.88,1.993 -4.81,2.037 -1.986,-0.046 -3.497,-0.717 -4.83,-2.038 -0.575,-0.578 -0.975,-1.239 -1.317,-1.996z" fill="#3E4347"/>
</svg>
