<?xml version="1.0" ?>
<svg xmlns="http://www.w3.org/2000/svg" width="20" height="18" viewBox="0 0 20 18">
  <path d="M14.25,0C17.1919,0 19.5,2.3081 19.5,5.25C19.5,6.3325 19.2101,7.3808 18.6241,8.4668L18.6241,8.4668L18.5491,8.6039L18.3944,8.8746L18.2322,9.1425L18.061,9.4093L17.8791,9.6767L17.685,9.9464L17.4773,10.2203L17.2543,10.5L17.0146,10.7874L16.7565,11.0842L16.4785,11.3921L16.1791,11.7129L15.6866,12.2221L15.1371,12.7702L14.3072,13.5718L13.3546,14.467L12.5522,15.2084L9.749,17.762L8.15,16.3156L6.4364,14.7433L5.4637,13.8332L4.613,13.0182L4.2298,12.6422L3.7034,12.1127L3.231,11.6198L2.9434,11.3087L2.6762,11.0098L2.4277,10.7212L2.1966,10.4414L1.9814,10.1686L1.7806,9.9013L1.5927,9.6377L1.4164,9.3762C1.3879,9.3327 1.3598,9.2892 1.3321,9.2457L1.3321,9.2457L1.1702,8.9842L1.0162,8.7206L0.8685,8.4533C0.2874,7.3719 0,6.3279 0,5.25C0,2.3081 2.3081,0 5.25,0C6.8894,0 8.499,0.7565 9.5597,2.0021L9.5597,2.0021L9.75,2.2256L9.9403,2.0021L10.1123,1.8095C11.1705,0.679 12.6968,0 14.25,0ZM14.25,1.5L14.0448,1.5054C12.543,1.585 11.1191,2.528 10.5312,3.8401L10.5312,3.8401L10.523,3.86L8.985,3.86L8.8905,3.662C8.2197,2.3845 6.7556,1.5 5.25,1.5C3.1119,1.5 1.5,3.1119 1.5,5.25C1.5,5.2954 1.5005,5.3406 1.5015,5.3856L1.5015,5.3856L1.5137,5.6534C1.523,5.7863 1.5372,5.9178 1.5567,6.0488L1.5567,6.0488L1.603,6.3099C1.7194,6.8746 1.942,7.4355 2.3088,8.0477L2.3088,8.0477L2.4885,8.334C2.5519,8.4308 2.6189,8.5291 2.6895,8.6289L2.6895,8.6289L2.9127,8.9335L2.9127,8.9335L3.0329,9.0898L3.2908,9.4111L3.573,9.7452C3.622,9.802 3.6722,9.8594 3.7234,9.9174L3.7234,9.9174L4.0434,10.2728L4.3898,10.6439L4.7632,11.032L5.1647,11.4382L5.5949,11.8637L6.0547,12.3098L7.0666,13.2685L8.2068,14.3237L9.4822,15.4853L9.75,15.7536L10.0268,15.4768L10.3582,15.1763L11.3004,14.3169L12.4391,13.263L12.96,12.7729L13.6831,12.0802L14.3387,11.435L14.9296,10.8333L15.289,10.4542C15.3466,10.3924 15.4032,10.3313 15.4586,10.2708L15.4586,10.2708L15.7784,9.9157L16.0726,9.5751C16.1196,9.5195 16.1656,9.4644 16.2105,9.4099L16.2105,9.4099L16.4682,9.0888C16.5911,8.9312 16.7053,8.7779 16.8112,8.6282L16.8112,8.6282L17.0121,8.3335C17.6456,7.3659 17.9243,6.5394 17.9863,5.6534L17.9863,5.6534L17.9985,5.3856L18,5.25C18,3.1119 16.3881,1.5 14.25,1.5L14.25,1.5Z" fill="#AAADCB" stroke-width="1" stroke="#00000000"/>
</svg>
