<?xml version="1.0" ?>
<svg xmlns="http://www.w3.org/2000/svg" width="44" height="31" viewBox="0 0 44 31">
  <path d="M42.36,12.996c-2.197,-2.855 -5.805,-3.01 -5.958,-3.015a0.82,0.82 0,0 0,-0.025 0h-3.474l0.78,-8.48a1.345,1.345 0,0 0,-0.368 -1.055A1.496,1.496 0,0 0,32.236 0L10.224,0c-0.82,0 -1.518,0.608 -1.59,1.384l-0.33,3.582L0.704,4.966c-0.388,0 -0.703,0.3 -0.703,0.671 0,0.37 0.315,0.671 0.703,0.671L8.18,6.308l-0.147,1.593 -0.001,0.008 -0.565,6.127h-2.21c-0.387,0 -0.702,0.3 -0.702,0.671 0,0.37 0.315,0.671 0.703,0.671h2.086l-0.932,10.113c-0.036,0.389 0.099,0.774 0.369,1.055 0.272,0.284 0.665,0.447 1.077,0.447l1.894,0.003c0.389,2.27 2.452,4.004 4.94,4.004 2.481,0 4.54,-1.723 4.937,-3.985l10.224,0.02C30.26,29.286 32.314,31 34.787,31c2.467,0 4.516,-1.704 4.93,-3.946l1.793,0.003c0.79,0 1.467,-0.564 1.58,-1.299l0.018,-0.054a0.65,0.65 0,0 0,0.028 -0.123l0.771,-6.1c0.053,-0.313 0.568,-3.734 -1.547,-6.485zM32.779,11.323h2.432l-0.24,3.493h-2.514l0.322,-3.493zM8.415,19.083 L8.756,15.378h4.025c0.388,0 0.702,-0.3 0.702,-0.671 0,-0.37 -0.314,-0.671 -0.702,-0.671h-3.9l0.711,-7.728h6.67c0.388,0 0.703,-0.3 0.703,-0.67 0,-0.372 -0.315,-0.672 -0.703,-0.672L9.716,4.966l0.32,-3.464c0.007,-0.08 0.1,-0.16 0.188,-0.16h22.012c0.024,0 0.037,0.006 0.042,0.01 0.007,0.008 0.006,0.025 0.006,0.032l-1.62,17.582c-0.008,0.08 -0.102,0.159 -0.19,0.159L8.462,19.125c-0.023,0 -0.037,-0.006 -0.042,-0.01 -0.006,-0.008 -0.005,-0.025 -0.005,-0.032zM14.693,29.625c-1.97,0 -3.567,-1.525 -3.567,-3.406 0,-1.882 1.597,-3.407 3.567,-3.407 1.97,0 3.568,1.525 3.568,3.407 0,1.881 -1.598,3.406 -3.568,3.406zM34.787,29.625c-1.889,0 -3.434,-1.402 -3.558,-3.175a0.65,0.65 0,0 0,-0.01 -0.223v-0.008c0,-1.882 1.598,-3.407 3.568,-3.407s3.568,1.525 3.568,3.407l-0.001,0.026a0.642,0.642 0,0 0,-0.01 0.215c-0.13,1.769 -1.672,3.165 -3.557,3.165zM41.747,25.357 L41.73,25.412a0.647,0.647 0,0 0,-0.03 0.144c-0.008,0.08 -0.102,0.16 -0.188,0.16l-1.746,-0.004c-0.265,-2.402 -2.393,-4.274 -4.979,-4.274 -2.579,0 -4.702,1.862 -4.976,4.255l-10.144,-0.02c-0.284,-2.383 -2.402,-4.235 -4.974,-4.235 -2.565,0 -4.678,1.842 -4.971,4.216L7.86,25.65c-0.023,0 -0.037,-0.005 -0.042,-0.01 -0.006,-0.007 -0.005,-0.024 -0.005,-0.031l0.475,-5.152c0.057,0.006 0.115,0.01 0.174,0.01h22.012c0.82,0 1.518,-0.608 1.59,-1.384l0.27,-2.925h3.351c0.017,-0.002 1.71,-0.072 2.93,1.43 1.186,1.46 2.655,2.397 3.77,2.737l-0.637,5.032zM42.557,18.955c-0.727,-0.287 -1.83,-0.958 -2.83,-2.19a5.278,5.278 0,0 0,-3.35 -1.898l0.24,-3.52c0.783,0.088 3.123,0.51 4.61,2.444 1.47,1.912 1.408,4.312 1.33,5.164z" fill="#3954A5"/>
  <path d="M6.821,10.603c0,-0.37 -0.314,-0.671 -0.702,-0.671L2.98,9.932c-0.388,0 -0.703,0.3 -0.703,0.67 0,0.372 0.315,0.672 0.703,0.672h3.138c0.388,0 0.702,-0.3 0.702,-0.671zM14.693,23.982c-1.293,0 -2.342,1.002 -2.342,2.237s1.049,2.236 2.342,2.236c1.294,0 2.343,-1 2.343,-2.236 0,-1.236 -1.05,-2.237 -2.343,-2.237zM14.693,27.224c-0.581,0 -1.053,-0.45 -1.053,-1.005 0,-0.556 0.472,-1.006 1.053,-1.006 0.582,0 1.053,0.45 1.053,1.006 0,0.555 -0.471,1.005 -1.053,1.005zM34.787,23.982c-1.294,0 -2.342,1.002 -2.342,2.237s1.048,2.236 2.342,2.236 2.342,-1 2.342,-2.236c0,-1.236 -1.048,-2.237 -2.342,-2.237zM34.787,27.224c-0.582,0 -1.053,-0.45 -1.053,-1.005 0,-0.556 0.471,-1.006 1.053,-1.006s1.053,0.45 1.053,1.006c0,0.555 -0.471,1.005 -1.053,1.005zM27.18,7.799c-0.373,-2.025 -3.038,-3.038 -3.267,-2.682l1.862,7.25S27.552,9.824 27.18,7.8zM20.532,5.637c-2.723,1.423 -3.811,3.776 -4.27,5.212 -0.458,1.437 0.287,2.476 0.287,2.476l3.983,-7.688zM23.082,11.219l-0.888,-4.214 -2.236,4.214zM18.067,14.994s0.516,0.41 2.035,0.493c1.518,0.082 3.352,-0.958 3.352,-0.958l-0.172,-1.484h-4.126l-1.089,1.95z" fill="#3954A5"/>
</svg>
