<?xml version="1.0" ?>
<svg xmlns="http://www.w3.org/2000/svg" width="44" height="44" viewBox="0 0 44 44">
  <path d="M22,22m-21,0a21,21 0,1 1,42 0a21,21 0,1 1,-42 0" fill="#000000" stroke-width="1" stroke="#00000000"/>
  <path d="M22,22m-21,0a21,21 0,1 1,42 0a21,21 0,1 1,-42 0" fill="#FFFFFF" stroke-width="1" stroke="#00000000"/>
  <path d="M22,18.8889C20.2811,18.8889 18.8889,20.2811 18.8889,22C18.8889,23.7189 20.2811,25.1111 22,25.1111C23.7189,25.1111 25.1111,23.7189 25.1111,22C25.1111,20.2811 23.7189,18.8889 22,18.8889ZM28.9533,21.2222C28.5956,17.9789 26.0211,15.4044 22.7778,15.0467L22.7778,13.4444L21.2222,13.4444L21.2222,15.0467C17.9789,15.4044 15.4044,17.9789 15.0467,21.2222L13.4444,21.2222L13.4444,22.7778L15.0467,22.7778C15.4044,26.0211 17.9789,28.5956 21.2222,28.9533L21.2222,30.5556L22.7778,30.5556L22.7778,28.9533C26.0211,28.5956 28.5956,26.0211 28.9533,22.7778L30.5556,22.7778L30.5556,21.2222L28.9533,21.2222ZM22,27.4444C18.99,27.4444 16.5556,25.01 16.5556,22C16.5556,18.99 18.99,16.5556 22,16.5556C25.01,16.5556 27.4444,18.99 27.4444,22C27.4444,25.01 25.01,27.4444 22,27.4444Z" fill="#223BC1" stroke-width="1" stroke="#00000000"/>
</svg>
