<?xml version="1.0" ?>
<svg xmlns="http://www.w3.org/2000/svg" width="116" height="72" viewBox="0 0 116 72">
  <path d="M46.542,24.524L94.094,24.524A5.724,5.724 0,0 1,99.818 30.248L99.818,44.372A5.724,5.724 0,0 1,94.094 50.096L46.542,50.096A5.724,5.724 0,0 1,40.818 44.372L40.818,30.248A5.724,5.724 0,0 1,46.542 24.524z" fill="#0066C5" stroke-width="1" stroke="#00000000"/>
  <path d="M17.909,36.326a17.182,17.704 0,1 0,34.364 0a17.182,17.704 0,1 0,-34.364 0z" fill="#FFFFFF" stroke-width="1" stroke="#00000000"/>
  <path d="M40.659,42.597C40.895,42.794 41.175,42.886 41.455,42.886C41.83,42.886 42.199,42.716 42.447,42.394C42.886,41.83 42.797,41.004 42.25,40.552L36.364,35.699L36.364,25.838C36.364,25.116 35.791,24.526 35.091,24.526C34.391,24.526 33.818,25.116 33.818,25.838L33.818,36.329C33.818,36.729 33.996,37.103 34.295,37.352L40.659,42.597Z" fill="#0066C5" stroke-width="1" stroke="#00000000"/>
  <path d="M35.091,56C45.616,56 54.182,47.174 54.182,36.329C54.182,25.484 45.616,16.658 35.091,16.658C24.565,16.658 16,25.484 16,36.329C16,47.174 24.565,56 35.091,56ZM35.091,19.28C44.216,19.28 51.636,26.926 51.636,36.329C51.636,45.732 44.216,53.377 35.091,53.377C25.965,53.377 18.545,45.732 18.545,36.329C18.545,26.926 25.965,19.28 35.091,19.28Z" fill="#0066C5" stroke-width="1" stroke="#00000000"/>
</svg>
