<?xml version="1.0" ?>
<svg xmlns="http://www.w3.org/2000/svg" width="16" height="16" viewBox="0 0 16 16">
  <path d="M8,8m-8,0a8,8 0,1 1,16 0a8,8 0,1 1,-16 0" fill="#1C2CC7" stroke-width="1" stroke="#00000000"/>
  <path d="M11.5299,5.4797C11.3879,5.325 11.1576,5.325 11.0156,5.4797L6.659,10.2256L4.9844,8.4013C4.8424,8.2466 4.6122,8.2466 4.4701,8.4013C4.3281,8.556 4.3281,8.8068 4.4701,8.9615L6.4019,11.0658C6.5438,11.2205 6.7742,11.2204 6.9161,11.0658L11.5299,6.0399C11.6719,5.8852 11.6719,5.6344 11.5299,5.4797Z" fill="#FFFFFF" stroke-width="1" stroke="#00000000"/>
</svg>
