<?xml version="1.0" ?>
<svg xmlns="http://www.w3.org/2000/svg" width="27" height="27" viewBox="0 0 27 27">
  <path d="M16.802,15.83c-0.14,0.39 -0.808,0.746 -1.13,0.794a2.3,2.3 0,0 1,-1.052 -0.065,9.742 9.742,0 0,1 -0.953,-0.353c-1.677,-0.724 -2.773,-2.412 -2.857,-2.524 -0.083,-0.111 -0.683,-0.906 -0.683,-1.729 0,-0.822 0.432,-1.227 0.586,-1.394a0.614,0.614 0,0 1,0.446 -0.21c0.11,0 0.222,0.001 0.32,0.006 0.103,0.005 0.24,-0.038 0.376,0.287 0.14,0.335 0.474,1.158 0.516,1.241 0.041,0.084 0.07,0.182 0.013,0.293 -0.055,0.112 -0.083,0.182 -0.167,0.28 -0.083,0.096 -0.175,0.217 -0.25,0.292 -0.084,0.083 -0.171,0.174 -0.074,0.341 0.098,0.167 0.433,0.715 0.93,1.158 0.639,0.57 1.178,0.746 1.345,0.83 0.167,0.084 0.265,0.07 0.362,-0.042 0.098,-0.112 0.419,-0.488 0.53,-0.656 0.111,-0.167 0.223,-0.139 0.376,-0.083 0.153,0.055 0.976,0.46 1.143,0.544 0.167,0.083 0.278,0.125 0.32,0.195 0.042,0.07 0.042,0.404 -0.097,0.795M13.53,7.88a5.57,5.57 0,0 0,-5.564 5.56c0,1.05 0.293,2.073 0.85,2.958l0.133,0.21 -0.562,2.052 2.105,-0.551 0.202,0.12a5.546,5.546 0,0 0,2.831 0.775h0.003a5.57,5.57 0,0 0,5.562 -5.56,5.527 5.527,0 0,0 -1.628,-3.934 5.525,5.525 0,0 0,-3.932 -1.63" fill="#67D449"/>
  <path d="M13.528,20.134h-0.003c-1.12,0 -2.22,-0.281 -3.197,-0.815l-3.548,0.931 0.95,-3.467a6.672,6.672 0,0 1,-0.894 -3.345,6.7 6.7,0 0,1 6.692,-6.688c1.79,0 3.47,0.697 4.733,1.962a6.647,6.647 0,0 1,1.959 4.732,6.7 6.7,0 0,1 -6.692,6.69M13.5,0C6.044,0 0,6.044 0,13.5 0,20.955 6.044,27 13.5,27 20.955,27 27,20.955 27,13.5 27,6.044 20.955,0 13.5,0" fill="#67D449"/>
</svg>
