<svg xmlns="http://www.w3.org/2000/svg" xmlns:xlink="http://www.w3.org/1999/xlink" width="96.063" height="96.155" viewBox="0 0 96.063 96.155">
  <defs>
    <clipPath id="clip-path">
      <rect id="Rectángulo_149976" data-name="Rectángulo 149976" width="96.063" height="96.155" fill="none"/>
    </clipPath>
  </defs>
  <g id="Grupo_195398" data-name="Grupo 195398" transform="translate(0 0)" opacity="0.1">
    <g id="Grupo_195397" data-name="Grupo 195397" transform="translate(0 0)" clip-path="url(#clip-path)">
      <path id="Trazado_46542" data-name="Trazado 46542" d="M56.514,36.335a7.814,7.814,0,0,0-7.786-7.786,9.385,9.385,0,0,0-1.407.1,4.892,4.892,0,0,0-1.354.429L55.984,39.1a4.892,4.892,0,0,0,.429-1.354,9.385,9.385,0,0,0,.1-1.407M75.638,58.75l-3.556-3.561A55.118,55.118,0,0,0,76.549,45.6a26.11,26.11,0,0,0,1.556-8.413q0-13.2-8.374-21.8t-21-8.606A29.826,29.826,0,0,0,38.667,8.447a28.451,28.451,0,0,0-8.524,4.8L26.795,9.906A33.816,33.816,0,0,1,48.728,2.048a33.009,33.009,0,0,1,24.236,9.935q9.959,9.931,9.959,25.2a32.409,32.409,0,0,1-1.8,10.268,53.491,53.491,0,0,1-5.483,11.3M63.583,67.114,21.692,25.224a36.076,36.076,0,0,0-1.706,5.7,30.114,30.114,0,0,0-.631,6.278q0,8.926,7.9,21.152A115.54,115.54,0,0,0,48.728,82.4q4.25-3.693,7.974-7.565t6.881-7.724m29.04,29.04L66.9,70.434q-3.766,4.459-8.239,9.005t-9.935,9.429Q31.743,73.85,23.142,60.855T14.537,37.2a35.887,35.887,0,0,1,.92-8.225,37.252,37.252,0,0,1,2.573-7.415L0,3.532,3.344,0,96.058,92.719l-3.435,3.435" transform="translate(0 0.001)"/>
    </g>
  </g>
</svg>
