<?xml version="1.0" ?>
<svg xmlns="http://www.w3.org/2000/svg" width="16" height="16" viewBox="0 0 16 16">
  <path d="M7.969,11.667L7.969,7L7.26,7c-0.293,0 -0.531,-0.224 -0.531,-0.5s0.238,-0.5 0.531,-0.5L8.5,6c0.293,0 0.531,0.224 0.531,0.5v5.167h1.063c0.293,0 0.531,0.224 0.531,0.5s-0.238,0.5 -0.531,0.5L6.906,12.667c-0.293,0 -0.531,-0.224 -0.531,-0.5s0.238,-0.5 0.531,-0.5h1.063zM8,16c-4.411,0 -8,-3.589 -8,-8s3.589,-8 8,-8 8,3.589 8,8 -3.589,8 -8,8zM8,1C4.14,1 1,4.14 1,8s3.14,7 7,7 7,-3.14 7,-7 -3.14,-7 -7,-7zM8.917,4c0,0.368 -0.318,0.667 -0.709,0.667 -0.391,0 -0.708,-0.299 -0.708,-0.667 0,-0.368 0.317,-0.667 0.708,-0.667 0.391,0 0.709,0.299 0.709,0.667z" fill="#223BC1"/>
</svg>
