<?xml version="1.0" ?>
<svg xmlns="http://www.w3.org/2000/svg" width="26" height="22" viewBox="0 0 26 22">
  <path d="M12.82,0.95c0.361,0 0.707,0.105 1.004,0.304l0.143,0.106 0.132,0.12 1.657,1.657c0.255,0.255 0.426,0.574 0.495,0.924l0.026,0.177 0.008,0.177 -0.02,0.61 -1.252,0.815 0.05,-0.103h-2.93a0.636,0.636 0,0 1,-0.603 -0.436l-0.025,-0.1 -0.007,-0.1 0.05,-2.88h-8.79a0.538,0.538 0,0 0,-0.508 0.364l-0.02,0.082 -0.008,0.09v16.485c0,0.234 0.152,0.437 0.363,0.508l0.082,0.02 0.09,0.008h11.72a0.538,0.538 0,0 0,0.509 -0.363l0.02,-0.082 0.007,-0.09 0.025,-3.128 0.899,-0.511 0.348,0.084v3.554c0,0.89 -0.648,1.638 -1.508,1.783l-0.153,0.02 -0.146,0.005L2.758,21.05c-0.89,0 -1.638,-0.648 -1.783,-1.508l-0.02,-0.154 -0.005,-0.146L0.95,2.758c0,-0.89 0.648,-1.638 1.508,-1.783l0.154,-0.02 0.146,-0.005L12.82,0.95zM12.72,2.122 L12.67,4.516 15.064,4.566 15.107,4.509c0.007,-0.01 0.007,-0.012 0.007,-0.019l-0.002,-0.1a0.589,0.589 0,0 0,-0.094 -0.312l-0.017,-0.025 -0.07,-0.084 -1.661,-1.66 -0.078,-0.068a0.622,0.622 0,0 0,-0.353 -0.118l-0.12,-0.001z" fill="#AAADCB"/>
  <path d="M11.48,6H3.93a0.586,0.586 0,1 0,0 1.172h7.55a0.586,0.586 0,1 0,0 -1.172zM9.137,8.344H3.93a0.586,0.586 0,1 0,0 1.172h5.207a0.586,0.586 0,1 0,0 -1.172zM9.137,10.688H3.93a0.586,0.586 0,1 0,0 1.171h5.207a0.586,0.586 0,1 0,0 -1.171zM9.137,13.031H3.93a0.586,0.586 0,1 0,0 1.172h5.207a0.586,0.586 0,1 0,0 -1.172z" fill="#AAADCB"/>
  <path d="M5.466,18.01L5.466,16h6.932v2.01c0.812,0.02 1.466,0.697 1.466,1.527v0.107L4,19.644v-0.107c0,-0.83 0.654,-1.506 1.466,-1.527zM11.522,16.89h-5.18v1.119h5.18L11.522,16.89zM4.877,20.013h8.11v-0.476a0.634,0.634 0,0 0,-0.627 -0.638L5.505,18.899a0.634,0.634 0,0 0,-0.628 0.638v0.476z" fill="#AAADCB" stroke-width=".3" stroke="#AAACCC"/>
  <path d="m16.079,5.918 l-0.06,0.051 -1.713,1.765a0.391,0.391 0,0 0,-0.054 0.475l0.054,0.07 0.133,0.136 -1.66,1.709 -0.12,-0.122a0.396,0.396 0,0 0,-0.429 -0.085l-0.068,0.037 -0.06,0.051 -1.713,1.764a0.391,0.391 0,0 0,-0.054 0.475l0.054,0.07 3.184,3.281a0.394,0.394 0,0 0,0.498 0.049l0.06,-0.052 1.713,-1.764a0.391,0.391 0,0 0,0.054 -0.475l-0.054,-0.07 -0.108,-0.113 0.389,-0.4 1.881,1.938 -0.591,0.61v0.209l4.987,5.138a1.583,1.583 0,0 0,2.279 0,1.69 1.69,0 0,0 0.104,-2.218l-0.104,-0.118 -4.987,-5.138h-0.215l-0.591,0.608 -1.882,-1.938 0.39,-0.4 0.1,0.104a0.391,0.391 0,0 0,0.492 0.042l0.06,-0.05 1.713,-1.765a0.391,0.391 0,0 0,0.054 -0.475l-0.054,-0.07 -3.19,-3.286a0.391,0.391 0,0 0,-0.492 -0.043zM19.587,14.897 L23.793,19.232a0.385,0.385 0,0 1,0 0.53,0.347 0.347,0 0,1 -0.439,0.053l-0.064,-0.053 -4.213,-4.341 0.51,-0.524zM12.383,11.533 L14.345,13.555 13.851,14.063 11.889,12.041 12.383,11.533zM15.32,9.323 L16.514,10.552 14.854,12.262 13.66,11.033 15.32,9.323zM16.3,7.497 L18.262,9.519 17.769,10.027 15.806,8.005 16.3,7.497z" fill="#AAADCB"/>
</svg>
