<?xml version="1.0" ?>
<svg xmlns="http://www.w3.org/2000/svg" width="18" height="14" viewBox="0 0 18 14">
  <path d="M1.544,8.316h0.96c0.53,0 0.96,-0.43 0.96,-0.96v-0.959a0.96,0.96 0,0 0,-0.96 -0.96h-0.96a0.96,0.96 0,0 0,-0.96 0.96v0.96c0,0.53 0.43,0.96 0.96,0.96zM1.544,13.114h0.96c0.53,0 0.96,-0.43 0.96,-0.96v-0.96a0.96,0.96 0,0 0,-0.96 -0.959h-0.96a0.96,0.96 0,0 0,-0.96 0.96v0.96c0,0.53 0.43,0.959 0.96,0.959zM1.544,3.519h0.96c0.53,0 0.96,-0.43 0.96,-0.96L3.464,1.6a0.96,0.96 0,0 0,-0.96 -0.959h-0.96a0.96,0.96 0,0 0,-0.96 0.96v0.96c0,0.53 0.43,0.959 0.96,0.959zM5.382,8.316h11.515c0.53,0 0.96,-0.43 0.96,-0.96v-0.959a0.96,0.96 0,0 0,-0.96 -0.96L5.382,5.437a0.96,0.96 0,0 0,-0.96 0.96v0.96c0,0.53 0.43,0.96 0.96,0.96zM5.382,13.114h11.515c0.53,0 0.96,-0.43 0.96,-0.96v-0.96a0.96,0.96 0,0 0,-0.96 -0.959L5.382,10.235a0.96,0.96 0,0 0,-0.96 0.96v0.96c0,0.53 0.43,0.959 0.96,0.959zM4.422,1.6v0.96c0,0.53 0.43,0.959 0.96,0.959h11.515c0.53,0 0.96,-0.43 0.96,-0.96L17.857,1.6a0.96,0.96 0,0 0,-0.96 -0.959L5.382,0.641a0.96,0.96 0,0 0,-0.96 0.96z" fill="#949091"/>
</svg>
