<svg id="fmd_good_black_24dp" xmlns="http://www.w3.org/2000/svg" width="16.861" height="16.882" viewBox="0 0 16.861 16.882">
  <g id="Grupo_189040" data-name="Grupo 189040">
    <path id="Trazado_37664" data-name="Trazado 37664" d="M0,0H16.861V16.882H0Z" fill="none"/>
  </g>
  <g id="Grupo_195549" data-name="Grupo 195549" transform="translate(-1451.569 -584.1)">
    <path id="Trazado_46660" data-name="Trazado 46660" d="M4.248,9.179H5.889V6.906H7.53V9.179H9.17V5.266L6.709,3.624,4.248,5.266V9.179m2.461,5.944a22.775,22.775,0,0,0,3.992-4.48,7.224,7.224,0,0,0,1.384-3.756,6.7,6.7,0,0,0-.4-2.241,4.737,4.737,0,0,0-1.147-1.755A5.169,5.169,0,0,0,6.709,1.325,5.169,5.169,0,0,0,2.877,2.891a5.454,5.454,0,0,0-1.544,4,7.224,7.224,0,0,0,1.384,3.756,22.775,22.775,0,0,0,3.992,4.48" transform="translate(1453.191 584)" fill="#454545"/>
    <path id="Trazado_46661" data-name="Trazado 46661" d="M4.248,9.179H5.889V6.906H7.53V9.179H9.17V5.266L6.709,3.624,4.248,5.266V9.179" transform="translate(1453.191 584)" fill="#fff"/>
  </g>
</svg>
