<svg id="Componente_240_48" data-name="Componente 240 – 48" xmlns="http://www.w3.org/2000/svg" width="78" height="78" viewBox="0 0 78 78">
  <rect id="Rectángulo_150094" width="78" height="78" rx="16" fill="#ff001d"/>
  <g id="Grupo_195553" transform="translate(7.82 21.547)">
    <path id="Trazado_81" d="M-1838.368-1311.327c-.04-.193.083-.325.154-.469.921-1.885,1.856-3.763,2.76-5.656a.718.718,0,0,1,.77-.457c4.031.012,8.062.007,12.094.008a4.269,4.269,0,0,0,1.162-.1,3.055,3.055,0,0,0,2.029-1.692c.27-.57.516-1.152.763-1.733.157-.371.146-.39-.286-.391-1.374,0-2.749,0-4.124,0-2.192,0-4.384-.013-6.576,0a2.4,2.4,0,0,1-2.38-2.017,2.551,2.551,0,0,1,.282-1.562q1.647-3.5,3.283-7.01c.945-2.017,1.868-4.046,2.844-6.047a7.413,7.413,0,0,1,6.995-4.49c3.993-.045,7.988.01,11.982-.019a3.7,3.7,0,0,1,3.718,3.478,4.058,4.058,0,0,1-.45,1.986q-1.809,3.8-3.6,7.6-3.169,6.694-6.339,13.389a8.769,8.769,0,0,1-6.5,5.078,8.069,8.069,0,0,1-1.605.156q-8.248,0-16.5,0A.889.889,0,0,1-1838.368-1311.327Zm19.461-17.106c.76,0,1.521.006,2.282,0a2.054,2.054,0,0,0,1.958-1.229q1.278-2.656,2.521-5.329a.882.882,0,0,0-.867-1.354q-2.338-.015-4.675,0a2.015,2.015,0,0,0-1.916,1.2q-1.282,2.655-2.524,5.328a.892.892,0,0,0,.884,1.383C-1820.466-1328.426-1819.686-1328.433-1818.907-1328.433Z" transform="translate(1838.376 1342.962)" fill="#feffe2"/>
    <path id="Trazado_82" d="M-1385.053-1311.264c-.051-.228.089-.375.167-.535.912-1.869,1.838-3.731,2.738-5.606a.717.717,0,0,1,.757-.477c4.051.016,8.1.009,12.151.01a4.212,4.212,0,0,0,1.053-.083,2.94,2.94,0,0,0,1.983-1.5c.375-.722.678-1.481,1.022-2.243a.945.945,0,0,0-.613-.089q-5.1-.006-10.2,0a3.959,3.959,0,0,1-.888-.057,2.4,2.4,0,0,1-1.738-2.973,3.718,3.718,0,0,1,.2-.517q3.056-6.534,6.12-13.064a7.582,7.582,0,0,1,5.822-4.442,5.945,5.945,0,0,1,1.055-.077c4.05,0,8.1.015,12.151-.01a3.69,3.69,0,0,1,3.68,3.956,4.2,4.2,0,0,1-.438,1.486q-4.21,8.884-8.414,17.772c-.524,1.108-1.039,2.22-1.576,3.322a8.768,8.768,0,0,1-6.442,4.99,7.494,7.494,0,0,1-1.494.157h-16.778C-1384.84-1311.247-1384.948-1311.258-1385.053-1311.264Zm22.981-25.056h0c-.779,0-1.559-.012-2.337,0a1.975,1.975,0,0,0-1.845,1.134c-.889,1.815-1.74,3.648-2.605,5.474a.862.862,0,0,0-.015.8.921.921,0,0,0,.914.506c1.558-.006,3.117.005,4.675-.006a2.016,2.016,0,0,0,1.916-1.2q1.281-2.654,2.525-5.327c.363-.778-.026-1.372-.889-1.382C-1360.513-1336.327-1361.293-1336.32-1362.072-1336.32Z" transform="translate(1410.329 1342.932)" fill="#feffe2"/>
  </g>
</svg>
