<?xml version="1.0" ?>
<svg xmlns="http://www.w3.org/2000/svg" width="24" height="24" viewBox="0 0 24 24">
  <path d="M15.833,0.885a2.087,2.087 0,0 0,-2.947 0.008L0.686,13.139a2.081,2.081 0,0 0,0.007 2.943l6.674,6.633c0.814,0.81 2.137,0.807 2.947,-0.008l12.2,-12.246a2.082,2.082 0,0 0,-0.006 -2.943L15.833,0.885zM9.88,8.76l1.74,5.91c-1.331,-0.439 -2.255,-2.085 -2.155,-4.053A5.516,5.516 0,0 1,9.88 8.76zM11.362,8.922l2.365,1.498 -1.49,1.496 -0.875,-2.994zM9.573,21.972a1.041,1.041 0,0 1,-1.471 0.004l-3.38,-3.36c2.413,-2.277 6.096,-2.37 8.398,-0.205l-3.547,3.56zM13.042,14.675l-0.44,-1.51 2.113,-2.121 0.781,0.495c-0.339,1.55 -1.295,2.771 -2.454,3.136zM11.077,7.095c0.496,-0.406 1.072,-0.642 1.675,-0.642 1.54,0.001 2.738,1.532 2.862,3.531l-4.537,-2.889z" fill="#818386"/>
</svg>
