<?xml version="1.0" ?>
<svg xmlns="http://www.w3.org/2000/svg" width="63" height="42" viewBox="0 0 63 42">
  <g>
    <path d="M-16.139,39.693a18.481,18.564 0,1 0,36.962 0a18.481,18.564 0,1 0,-36.962 0z" fill="#CF122D"/>
  </g>
  <path d="M2.949,3.488h56.983v35.709H2.949z" fill="#FFF"/>
  <path d="M43.56,26.198c3.913,-4.663 4.622,-10.657 1.431,-14.051 -1.253,-1.327 -2.938,-2.076 -4.815,-2.277l3.384,16.328zM38.736,23.005l-1.78,-8.497 -4.437,8.497zM39.477,26.545h-8.808l-2.238,4.28c3.167,1.756 7.699,1.183 11.633,-1.476l-0.587,-2.804zM34.218,10.89a16.247,16.247 0,0 0,-4.741 3.16c-4.313,4.094 -5.834,9.743 -3.986,13.634l8.727,-16.793z" fill="#CF122D"/>
  <path d="M59.935,21.344V39.2H2.949V3.491h56.983v17.873h2.591V3.49c0,-1.408 -1.16,-2.552 -2.588,-2.552H2.949C1.52,0.94 0.36,2.083 0.36,3.491V39.2c0,1.407 1.16,2.55 2.589,2.55h56.983c1.429,0 2.59,-1.143 2.59,-2.55V21.343h-2.587z" fill="#464749"/>
</svg>
