<?xml version="1.0" ?>
<svg xmlns="http://www.w3.org/2000/svg" width="63" height="41" viewBox="0 0 63 41">
  <g>
    <path d="M-12.198,29.8a13.932,13.923 0,1 0,27.864 0a13.932,13.923 0,1 0,-27.864 0z" fill="#CF122D"/>
  </g>
  <path d="M2.192,2.646h42.957v26.782H2.192z" fill="#FFF"/>
  <path d="M47.102,11.256h-7.81c-8.088,0 -14.645,6.424 -14.645,14.349 0,0.984 0.114,1.94 0.307,2.868h-2.26c-1.618,0 -2.93,1.286 -2.93,2.87 0,1.586 1.31,2.87 2.93,2.87H27.6c0.037,0.045 0.066,0.093 0.101,0.137 -1.2,0.358 -2.078,1.44 -2.078,2.733 0,1.585 1.31,2.869 2.929,2.869h18.55c8.087,0 14.644,-6.425 14.644,-14.347 0,-7.925 -6.557,-14.349 -14.644,-14.349z" fill="#FFF"/>
  <path d="M20.742,31.342H18.79c0,2.112 1.748,3.825 3.905,3.825h13.669v-1.913H22.695c-1.079,0.002 -1.953,-0.856 -1.953,-1.912z" fill="#464749"/>
  <path d="M32.806,19.678c2.95,-3.496 3.484,-7.992 1.079,-10.538 -0.945,-0.995 -2.215,-1.557 -3.63,-1.708l2.551,12.246zM29.17,17.283l-1.342,-6.372 -3.345,6.372zM29.728,19.939h-6.64l-1.687,3.21c2.387,1.317 5.804,0.887 8.77,-1.107l-0.443,-2.103zM25.764,8.198a12.253,12.253 0,0 0,-3.574 2.37c-3.251,3.07 -4.398,7.307 -3.005,10.225l6.579,-12.595z" fill="#CF122D"/>
  <path d="M45.15,16.038V29.43H2.192V2.648h42.956v9.565h1.954V2.648c0,-1.056 -0.875,-1.913 -1.952,-1.913H2.192C1.115,0.735 0.24,1.592 0.24,2.648V29.43c0,1.056 0.875,1.914 1.952,1.914h42.956c1.077,0 1.952,-0.858 1.952,-1.914V16.038h-1.95z" fill="#464749"/>
  <path d="M47.102,10.3H37.34c-2.158,0 -3.905,1.713 -3.905,3.826 0,2.112 1.747,3.826 3.905,3.826h8.036c0.89,3.833 4.381,6.696 8.562,6.696 0.54,0 0.976,-0.428 0.976,-0.957a0.965,0.965 0,0 0,-0.976 -0.957c-3.775,0 -6.834,-2.997 -6.834,-6.696h-9.762c-1.08,0 -1.952,-0.856 -1.952,-1.912s0.875,-1.913 1.952,-1.913h9.76c7.549,0 13.669,5.996 13.669,13.392 0,7.394 -6.12,13.39 -13.67,13.39h-18.55c-1.078,0 -1.95,-0.856 -1.95,-1.912s0.874,-1.914 1.95,-1.914h10.74v-1.913h-10.74c-2.157,0 -3.904,1.713 -3.904,3.827 0,2.112 1.747,3.825 3.905,3.825h18.55c8.628,0 15.62,-6.852 15.62,-15.303 0,-8.456 -6.992,-15.306 -15.62,-15.306" fill="#464749"/>
</svg>
