<?xml version="1.0" ?>
<svg xmlns="http://www.w3.org/2000/svg" width="17" height="21" viewBox="0 0 17 21">
  <path d="M5.37,7.658v3.803h1.392v-2.42c0,-0.191 0.156,-0.346 0.348,-0.346h2.087c0.192,0 0.348,0.155 0.348,0.346v2.42h1.39V7.658c0,-0.191 0.157,-0.346 0.349,-0.346h0.368L8.153,4.636 4.654,7.312h0.369c0.192,0 0.348,0.155 0.348,0.346z" fill="#2A317D"/>
  <path d="M7.458,9.387h1.39v2.074h-1.39z" fill="#2A317D"/>
  <path d="M8.52,20.538c5.033,-5.96 7.55,-10.108 7.55,-12.445C16.07,4.076 12.524,0.82 8.152,0.82S0.237,4.076 0.237,8.093c0,2.337 2.517,6.486 7.55,12.445a0.48,0.48 0,0 0,0.733 0zM7.94,3.928a0.35,0.35 0,0 1,0.424 0l4.522,3.457a0.345,0.345 0,0 1,-0.212 0.619h-1.043v3.803a0.347,0.347 0,0 1,-0.348 0.346H5.023a0.347,0.347 0,0 1,-0.348 -0.346V8.004H3.631a0.345,0.345 0,1 1,-0.212 -0.62l4.522,-3.457z" fill="#2A317D"/>
</svg>
