<?xml version="1.0" ?>
<svg xmlns="http://www.w3.org/2000/svg" width="68" height="68" viewBox="0 0 68 68">
  <path d="M34,32m-30,0a30,30 0,1 1,60 0a30,30 0,1 1,-60 0" fill="#223BC1"/>
  <path d="M43.722,31.732L35.17,23.251c-0.37,-0.368 -0.97,-0.368 -1.34,0l-8.552,8.481c-0.37,0.368 -0.37,0.962 0,1.33l8.552,8.48c0.37,0.368 0.97,0.368 1.34,0l8.552,-8.48c0.37,-0.359 0.37,-0.953 0,-1.33zM36.396,34.757v-2.356h-3.801v2.828h-1.9v-3.77c0,-0.518 0.427,-0.942 0.95,-0.942h4.75L36.395,28.16l3.327,3.298 -3.326,3.298z" fill="#FFF"/>
</svg>
