<?xml version="1.0" ?>
<svg xmlns="http://www.w3.org/2000/svg" width="33" height="47" viewBox="0 0 33 47">
  <g/>
  <g>
    <path d="M-4.732,29.075h42.187v21.923L-4.732,50.998z" fill="#CD202E"/>
  </g>
  <g/>
  <g>
    <path d="M1.025,30.995h30.579v17.532L1.025,48.527z" fill="#CD202E"/>
  </g>
  <path d="M16.378,0.29C8.466,0.29 2.029,6.68 2.029,14.536c0,9.75 12.84,24.062 13.387,24.667 0.514,0.568 1.41,0.567 1.923,0 0.547,-0.605 13.387,-14.917 13.387,-24.667C30.726,6.681 24.29,0.29 16.378,0.29zM17.082,10.472l1.142,5.43h-3.99l2.848,-5.43zM12.28,10.179c0.94,-0.89 1.983,-1.564 3.044,-2.019L9.72,18.895c-1.186,-2.488 -0.209,-6.098 2.56,-8.716zM11.609,20.903l1.436,-2.738h5.657l0.377,1.794c-2.527,1.7 -5.438,2.065 -7.47,0.944zM21.323,17.945L19.15,7.509c1.205,0.127 2.286,0.606 3.091,1.455 2.05,2.169 1.594,6.001 -0.918,8.98z" fill="#CD202E"/>
</svg>
