<?xml version="1.0" ?>
<svg xmlns="http://www.w3.org/2000/svg" width="23" height="27" viewBox="0 0 23 27">
  <path d="M11.1943,26.9091L3.3113,19.0261C-1.0354,14.6794 -1.0354,7.6067 3.3113,3.26C7.658,-1.0867 14.7306,-1.0867 19.0773,3.26C23.424,7.6067 23.424,14.6794 19.0773,19.0261L11.1943,26.9091ZM11.1943,1.5762C8.7432,1.5762 6.2922,2.5092 4.4263,4.3751C0.6944,8.1069 0.6944,14.1792 4.4263,17.911L11.1943,24.679L17.9622,17.911C21.6941,14.1792 21.6941,8.1069 17.9622,4.3751C16.0963,2.5092 13.6453,1.5762 11.1943,1.5762Z" fill="#CF202E" stroke-width="1" stroke="#00000000"/>
  <path d="M11.1943,17.5631C7.6557,17.5631 4.7768,14.6842 4.7768,11.1456C4.7768,7.607 7.6557,4.7281 11.1943,4.7281C14.7328,4.7281 17.6117,7.607 17.6117,11.1456C17.6117,14.6842 14.7329,17.5631 11.1943,17.5631ZM11.1943,6.305C8.5252,6.305 6.3537,8.4765 6.3537,11.1456C6.3537,13.8147 8.5252,15.9861 11.1943,15.9861C13.8633,15.9861 16.0348,13.8146 16.0348,11.1456C16.0348,8.4765 13.8634,6.305 11.1943,6.305Z" fill="#CF202E" stroke-width="1" stroke="#00000000"/>
</svg>
