<?xml version="1.0" ?>
<svg xmlns="http://www.w3.org/2000/svg" width="19" height="12" viewBox="0 0 19 12">
  <path d="M7.112,6.121c0,-1.694 0.803,-3.207 2.06,-4.197A5.63,5.63 0,0 0,5.674 0.72C2.607,0.72 0.12,3.138 0.12,6.121c0,2.983 2.487,5.401 5.555,5.401a5.629,5.629 0,0 0,3.496 -1.204c-1.256,-0.99 -2.059,-2.502 -2.059,-4.197z" fill="#EA001B"/>
  <path d="M12.668,0.72A5.631,5.631 0,0 0,9.17 1.924c1.257,0.99 2.06,2.503 2.06,4.198 0,1.694 -0.803,3.207 -2.06,4.197a5.63,5.63 0,0 0,3.497 1.204c3.068,0 5.555,-2.418 5.555,-5.401 0,-2.984 -2.487,-5.402 -5.555,-5.402z" fill="#F79F1A"/>
  <path d="M11.23,6.121c0,-1.694 -0.802,-3.207 -2.059,-4.197 -1.256,0.99 -2.059,2.503 -2.059,4.197 0,1.695 0.803,3.207 2.06,4.198 1.256,-0.99 2.059,-2.503 2.059,-4.198z" fill="#FF5F01"/>
</svg>
