<svg xmlns="http://www.w3.org/2000/svg" width="11.741" height="12.81" viewBox="0 0 11.741 12.81">
  <path id="_26._Notification" data-name="26. Notification" d="M12.253,7.83a1.967,1.967,0,0,1-.58-1.4V4.8a4.8,4.8,0,0,0-9.606,0V6.431a1.967,1.967,0,0,1-.58,1.4,1.666,1.666,0,0,0,1.178,2.843h1.59a2.668,2.668,0,0,0,5.23,0h1.59A1.666,1.666,0,0,0,12.253,7.83ZM6.87,11.74a1.6,1.6,0,0,1-1.5-1.067H8.373A1.6,1.6,0,0,1,6.87,11.74Zm4.2-2.135H2.665a.6.6,0,0,1-.423-1.021,3.027,3.027,0,0,0,.892-2.154V4.8a3.736,3.736,0,0,1,7.471,0V6.431A3.027,3.027,0,0,0,11.5,8.584a.6.6,0,0,1-.423,1.021Z" transform="translate(-1)"/>
</svg>
