<svg xmlns="http://www.w3.org/2000/svg" xmlns:xlink="http://www.w3.org/1999/xlink" width="13.143" height="11.849" viewBox="0 0 13.143 11.849">
  <defs>
    <clipPath id="clip-path">
      <rect id="Rectángulo_150071" data-name="Rectángulo 150071" width="13.143" height="11.849" fill="none"/>
    </clipPath>
  </defs>
  <g id="Grupo_195514" data-name="Grupo 195514" clip-path="url(#clip-path)">
    <path id="Trazado_46628" data-name="Trazado 46628" d="M4.489,11.144V9.984h8.653v1.16H4.489m0-4.639V5.345h8.653V6.5H4.489m0-5.8h8.653v1.16H4.489Zm-3.2,11.143a1.239,1.239,0,0,1-.908-.378,1.281,1.281,0,0,1,0-1.816,1.239,1.239,0,0,1,.908-.378,1.239,1.239,0,0,1,.908.378,1.281,1.281,0,0,1,0,1.816,1.239,1.239,0,0,1-.908.378m0-4.639a1.239,1.239,0,0,1-.908-.378,1.281,1.281,0,0,1,0-1.816,1.239,1.239,0,0,1,.908-.378,1.239,1.239,0,0,1,.908.378,1.281,1.281,0,0,1,0,1.816,1.239,1.239,0,0,1-.908.378m0-4.639a1.239,1.239,0,0,1-.908-.378A1.235,1.235,0,0,1,0,1.286,1.237,1.237,0,0,1,.377.378,1.239,1.239,0,0,1,1.286,0a1.239,1.239,0,0,1,.908.378,1.237,1.237,0,0,1,.377.908,1.235,1.235,0,0,1-.377.908,1.239,1.239,0,0,1-.908.378" transform="translate(0 0)"/>
  </g>
</svg>
