<svg xmlns="http://www.w3.org/2000/svg" width="22" height="22" viewBox="0 0 22 22">
  <g id="Grupo_198806" data-name="Grupo 198806" transform="translate(-8 -9)">
    <rect id="Rectángulo_150721" data-name="Rectángulo 150721" width="22" height="22" transform="translate(8 9)" fill="none"/>
    <path id="history_edu_FILL0_wght200_GRAD0_opsz24" d="M93.813-743.043a.976.976,0,0,1-.716-.3.976.976,0,0,1-.3-.716v-2.027h2.807v-3.295a4.266,4.266,0,0,1-1.978-.061,3.565,3.565,0,0,1-1.672-.929V-751.8H90.519l-2.827-2.827a5.8,5.8,0,0,1,1.983-1.189,6.773,6.773,0,0,1,2.283-.394,6.541,6.541,0,0,1,1.895.277,6.034,6.034,0,0,1,1.755.867v-1.862h10.137v11.853a1.96,1.96,0,0,1-.585,1.443,1.96,1.96,0,0,1-1.443.585Zm2.807-3.041H102.7v1.014a.981.981,0,0,0,.291.722.981.981,0,0,0,.722.291.981.981,0,0,0,.722-.291.981.981,0,0,0,.291-.722v-10.839H96.62v1.622l5.575,5.575v.717h-.717l-3.084-3.084-.573.573a4.462,4.462,0,0,1-.582.5,3.855,3.855,0,0,1-.619.353Zm-5.669-6.726h2.02v1.985a3.569,3.569,0,0,0,.965.435,3.47,3.47,0,0,0,.868.115,3.242,3.242,0,0,0,1.258-.236,3.3,3.3,0,0,0,1.061-.731l.554-.554-1.77-1.77a5.435,5.435,0,0,0-1.823-1.219,5.64,5.64,0,0,0-2.127-.406,5.394,5.394,0,0,0-1.441.193,5.668,5.668,0,0,0-1.253.5Zm10.737,7.739H93.813v1.014H102a1.19,1.19,0,0,1-.241-.468A2.167,2.167,0,0,1,101.689-745.07Zm-7.876,1.014v0Z" transform="translate(-78.692 769.923)"/>
  </g>
</svg>
