<svg xmlns="http://www.w3.org/2000/svg" xmlns:xlink="http://www.w3.org/1999/xlink" width="12.707" height="16.001" viewBox="0 0 12.707 16.001">
  <defs>
    <clipPath id="clip-path">
      <rect id="Rectángulo_150042" data-name="Rectángulo 150042" width="12.707" height="16.001"/>
    </clipPath>
  </defs>
  <g id="Grupo_195961" data-name="Grupo 195961" transform="translate(0 0)">
    <g id="Grupo_195489" data-name="Grupo 195489" transform="translate(0 0)" clip-path="url(#clip-path)">
      <path id="Trazado_46617" data-name="Trazado 46617" d="M4.023,8.693H5.576V6.54H7.13V8.693H8.684V4.986L6.353,3.432,4.023,4.986V8.693m2.331,5.629a21.568,21.568,0,0,0,3.78-4.242,6.841,6.841,0,0,0,1.311-3.557A5.165,5.165,0,0,0,9.982,2.737,4.9,4.9,0,0,0,6.353,1.255,4.9,4.9,0,0,0,2.725,2.737,5.165,5.165,0,0,0,1.263,6.522a6.841,6.841,0,0,0,1.311,3.557,21.568,21.568,0,0,0,3.78,4.242m0,1.68a26.961,26.961,0,0,1-4.766-5.124A8.009,8.009,0,0,1,0,6.522,6.3,6.3,0,0,1,6.353,0a6.3,6.3,0,0,1,6.353,6.522,8.009,8.009,0,0,1-1.588,4.355A26.961,26.961,0,0,1,6.353,16" transform="translate(0 0)"/>
    </g>
  </g>
</svg>
