<svg xmlns="http://www.w3.org/2000/svg" width="22" height="22" viewBox="0 0 22 22">
  <g id="Grupo_198806" data-name="Grupo 198806" transform="translate(-8 -9)">
    <path id="payments_FILL0_wght200_GRAD0_opsz24_1_" data-name="payments_FILL0_wght200_GRAD0_opsz24 (1)" d="M118.01-743.9a1.846,1.846,0,0,1-1.359-.551,1.846,1.846,0,0,1-.551-1.359,1.846,1.846,0,0,1,.551-1.359,1.846,1.846,0,0,1,1.359-.551,1.846,1.846,0,0,1,1.359.551,1.846,1.846,0,0,1,.551,1.359,1.846,1.846,0,0,1-.551,1.359A1.846,1.846,0,0,1,118.01-743.9Zm-5.912,3.048a1.485,1.485,0,0,1-1.089-.453,1.485,1.485,0,0,1-.453-1.089v-6.83a1.485,1.485,0,0,1,.453-1.089,1.486,1.486,0,0,1,1.089-.453h11.823a1.486,1.486,0,0,1,1.089.453,1.485,1.485,0,0,1,.453,1.089v6.83a1.485,1.485,0,0,1-.453,1.089,1.485,1.485,0,0,1-1.089.453Zm.955-.955h9.914a1.483,1.483,0,0,1,.453-1.091,1.489,1.489,0,0,1,1.089-.451v-4.92a1.482,1.482,0,0,1-1.091-.453,1.489,1.489,0,0,1-.451-1.089h-9.914a1.483,1.483,0,0,1-.453,1.092,1.489,1.489,0,0,1-1.089.451v4.92a1.483,1.483,0,0,1,1.091.453A1.489,1.489,0,0,1,113.053-741.811Zm9.584,3.819h-13.4a1.485,1.485,0,0,1-1.089-.453,1.485,1.485,0,0,1-.453-1.089v-8.409h.955v8.409a.561.561,0,0,0,.184.4.561.561,0,0,0,.4.184h13.4ZM112.1-741.811h-.587v-8h.587a.564.564,0,0,0-.413.174.565.565,0,0,0-.174.413v6.83a.565.565,0,0,0,.174.413A.565.565,0,0,0,112.1-741.811Z" transform="translate(-97.692 764.771)"/>
    <rect id="Rectángulo_150721" data-name="Rectángulo 150721" width="22" height="22" transform="translate(8 9)" fill="none"/>
  </g>
</svg>
