<?xml version="1.0" ?>
<svg xmlns="http://www.w3.org/2000/svg" width="10" height="16" viewBox="0 0 10 16">
  <path d="M5,0c1.38,0 2.5,1.12 2.5,2.5v5.833c0,1.381 -1.12,2.5 -2.5,2.5s-2.5,-1.119 -2.5,-2.5L2.5,2.5C2.5,1.12 3.62,0 5,0zM9.375,5.417c-0.345,0 -0.625,0.28 -0.625,0.625v2.291c0,2.071 -1.679,3.75 -3.75,3.75 -2.071,0 -3.75,-1.679 -3.75,-3.75L1.25,6.042c0,-0.346 -0.28,-0.625 -0.625,-0.625S0,5.697 0,6.042v2.291c0.001,2.52 1.876,4.644 4.375,4.959v1.291L2.708,14.583c-0.345,0 -0.625,0.28 -0.625,0.625 0,0.346 0.28,0.625 0.625,0.625h4.584c0.345,0 0.625,-0.28 0.625,-0.625s-0.28,-0.625 -0.625,-0.625L5.625,14.583v-1.291c2.5,-0.315 4.374,-2.44 4.375,-4.959L10,6.042c0,-0.346 -0.28,-0.625 -0.625,-0.625z" fill="#B2B2B2"/>
</svg>
