<?xml version="1.0" ?>
<svg xmlns="http://www.w3.org/2000/svg" width="20" height="21" viewBox="0 0 20 21">
  <path d="M9.985,0.84C4.691,0.84 0.4,5.129 0.4,10.423c0,5.295 4.29,9.611 9.585,9.611a9.585,9.585 0,0 0,9.586 -9.585c0,-5.295 -4.293,-9.609 -9.586,-9.609zM9.985,19.105c-4.767,0 -8.656,-3.89 -8.656,-8.656 0,-4.767 3.89,-8.656 8.656,-8.656 4.768,0 8.657,3.889 8.657,8.656 0,4.767 -3.89,8.656 -8.657,8.656zM14.251,10.549c0,0.25 -0.2,0.45 -0.45,0.45L6.272,10.999c-0.25,0 -0.45,-0.2 -0.45,-0.45 0,-0.251 0.2,-0.451 0.45,-0.451L13.8,10.098c0.249,0 0.45,0.2 0.45,0.45z" fill="@color/denimBlue"/>
</svg>
