<?xml version="1.0" ?>
<svg xmlns="http://www.w3.org/2000/svg" width="20" height="20" viewBox="0 0 20 20">
  <path d="M9.665,0C4.371,0 0.08,4.289 0.08,9.583c0,5.295 4.29,9.611 9.585,9.611a9.585,9.585 0,0 0,9.586 -9.585C19.251,4.314 14.958,0 9.665,0zM9.665,18.265c-4.767,0 -8.656,-3.89 -8.656,-8.656C1.01,4.842 4.9,0.953 9.665,0.953c4.768,0 8.657,3.889 8.657,8.656 0,4.767 -3.89,8.656 -8.657,8.656zM13.931,9.709c0,0.25 -0.2,0.45 -0.45,0.45L5.952,10.159c-0.25,0 -0.45,-0.2 -0.45,-0.45 0,-0.251 0.2,-0.451 0.45,-0.451h7.527c0.249,0 0.45,0.2 0.45,0.45z" fill="#818386"/>
</svg>
