<?xml version="1.0" ?>
<svg xmlns="http://www.w3.org/2000/svg" width="272" height="35" viewBox="0 0 272 35">
  <path d="M241.574,10.311C236.95,16.69 235.844,23.164 238.202,28.171L251.353,2.431C247.556,4.139 244.049,6.894 241.574,10.311" fill="#CD202E" stroke-width="1" stroke="#00000000"/>
  <path d="M267.177,2.901C265.515,1.575 263.38,0.787 260.953,0.58L266.646,25.028C273.032,15.992 273.244,7.743 267.177,2.901" fill="#CD202E" stroke-width="1" stroke="#00000000"/>
  <path d="M248.606,34.865C252.091,34.865 256.463,33.657 260.4,31.075L259.648,26.279L245.494,26.279L242.271,33.074C242.272,33.075 242.273,33.076 242.275,33.078C243.837,34.247 246.026,34.865 248.606,34.865" fill="#CD202E" stroke-width="1" stroke="#00000000"/>
  <path d="M258.861,20.85l-3.099,-14.693l-7.224,14.693z" fill="#CD202E" stroke-width="1" stroke="#00000000"/>
  <path d="M6.058,25L2.964,14.919L2.885,14.919C2.996,16.97 3.052,18.338 3.052,19.023L3.052,25L0.617,25L0.617,12.15L4.326,12.15L7.367,21.977L7.42,21.977L10.646,12.15L14.354,12.15L14.354,25L11.814,25L11.814,18.918C11.814,18.631 11.819,18.3 11.828,17.925C11.836,17.55 11.876,16.554 11.946,14.937L11.867,14.937L8.554,25L6.058,25ZM29.252,18.558C29.252,20.685 28.725,22.319 27.67,23.462C26.615,24.604 25.104,25.176 23.135,25.176C21.166,25.176 19.654,24.604 18.6,23.462C17.545,22.319 17.018,20.679 17.018,18.54C17.018,16.401 17.546,14.768 18.604,13.64C19.662,12.512 21.178,11.948 23.152,11.948C25.127,11.948 26.637,12.517 27.683,13.653C28.729,14.79 29.252,16.425 29.252,18.558ZM19.874,18.558C19.874,19.993 20.146,21.074 20.691,21.801C21.236,22.527 22.051,22.891 23.135,22.891C25.309,22.891 26.396,21.446 26.396,18.558C26.396,15.663 25.314,14.216 23.152,14.216C22.068,14.216 21.251,14.581 20.7,15.31C20.149,16.04 19.874,17.122 19.874,18.558ZM43.314,25L39.852,25L34.262,15.279L34.183,15.279C34.294,16.996 34.35,18.221 34.35,18.953L34.35,25L31.915,25L31.915,12.15L35.352,12.15L40.933,21.774L40.994,21.774C40.906,20.104 40.862,18.924 40.862,18.232L40.862,12.15L43.314,12.15L43.314,25ZM53.949,25L46.549,25L46.549,12.15L53.949,12.15L53.949,14.383L49.273,14.383L49.273,17.204L53.624,17.204L53.624,19.437L49.273,19.437L49.273,22.75L53.949,22.75L53.949,25ZM67.291,18.452C67.291,20.567 66.689,22.187 65.485,23.313C64.281,24.438 62.542,25 60.269,25L56.63,25L56.63,12.15L60.664,12.15C62.762,12.15 64.391,12.704 65.551,13.812C66.711,14.919 67.291,16.466 67.291,18.452ZM64.461,18.522C64.461,15.763 63.242,14.383 60.805,14.383L59.354,14.383L59.354,22.75L60.523,22.75C63.148,22.75 64.461,21.341 64.461,18.522ZM77.354,25L69.954,25L69.954,12.15L77.354,12.15L77.354,14.383L72.679,14.383L72.679,17.204L77.029,17.204L77.029,19.437L72.679,19.437L72.679,22.75L77.354,22.75L77.354,25ZM82.76,17.854L83.639,17.854C84.5,17.854 85.136,17.711 85.546,17.424C85.956,17.137 86.161,16.686 86.161,16.07C86.161,15.461 85.952,15.027 85.533,14.77C85.114,14.512 84.465,14.383 83.586,14.383L82.76,14.383L82.76,17.854ZM82.76,20.069L82.76,25L80.035,25L80.035,12.15L83.779,12.15C85.525,12.15 86.817,12.468 87.655,13.104C88.493,13.74 88.912,14.705 88.912,16C88.912,16.756 88.704,17.428 88.288,18.017C87.872,18.606 87.283,19.067 86.521,19.401C88.455,22.29 89.715,24.156 90.301,25L87.277,25L84.21,20.069L82.76,20.069ZM103.581,18.558C103.581,20.685 103.054,22.319 101.999,23.462C100.944,24.604 99.433,25.176 97.464,25.176C95.495,25.176 93.983,24.604 92.929,23.462C91.874,22.319 91.347,20.679 91.347,18.54C91.347,16.401 91.875,14.768 92.933,13.64C93.991,12.512 95.507,11.948 97.481,11.948C99.456,11.948 100.966,12.517 102.012,13.653C103.058,14.79 103.581,16.425 103.581,18.558ZM94.203,18.558C94.203,19.993 94.476,21.074 95.021,21.801C95.565,22.527 96.38,22.891 97.464,22.891C99.638,22.891 100.725,21.446 100.725,18.558C100.725,15.663 99.644,14.216 97.481,14.216C96.397,14.216 95.58,14.581 95.029,15.31C94.479,16.04 94.203,17.122 94.203,18.558ZM121.581,18.452C121.581,20.567 120.979,22.187 119.775,23.313C118.571,24.438 116.832,25 114.559,25L110.92,25L110.92,12.15L114.954,12.15C117.052,12.15 118.681,12.704 119.841,13.812C121.001,14.919 121.581,16.466 121.581,18.452ZM118.751,18.522C118.751,15.763 117.532,14.383 115.095,14.383L113.645,14.383L113.645,22.75L114.813,22.75C117.438,22.75 118.751,21.341 118.751,18.522ZM131.645,25L124.244,25L124.244,12.15L131.645,12.15L131.645,14.383L126.969,14.383L126.969,17.204L131.319,17.204L131.319,19.437L126.969,19.437L126.969,22.75L131.645,22.75L131.645,25ZM134.325,25L134.325,12.15L137.05,12.15L137.05,22.75L142.262,22.75L142.262,25L134.325,25ZM157.036,25L156.104,21.941L151.42,21.941L150.488,25L147.553,25L152.088,12.098L155.419,12.098L159.972,25L157.036,25ZM155.454,19.656C154.593,16.885 154.108,15.317 154,14.954C153.891,14.591 153.813,14.304 153.767,14.093C153.573,14.843 153.02,16.697 152.105,19.656L155.454,19.656ZM172.118,25L169.402,25L169.402,19.454L164.313,19.454L164.313,25L161.589,25L161.589,12.15L164.313,12.15L164.313,17.187L169.402,17.187L169.402,12.15L172.118,12.15L172.118,25ZM187.024,18.558C187.024,20.685 186.497,22.319 185.442,23.462C184.388,24.604 182.876,25.176 180.907,25.176C178.938,25.176 177.427,24.604 176.372,23.462C175.317,22.319 174.79,20.679 174.79,18.54C174.79,16.401 175.319,14.768 176.376,13.64C177.434,12.512 178.95,11.948 180.925,11.948C182.899,11.948 184.41,12.517 185.456,13.653C186.501,14.79 187.024,16.425 187.024,18.558ZM177.646,18.558C177.646,19.993 177.919,21.074 178.464,21.801C179.009,22.527 179.823,22.891 180.907,22.891C183.081,22.891 184.168,21.446 184.168,18.558C184.168,15.663 183.087,14.216 180.925,14.216C179.841,14.216 179.023,14.581 178.473,15.31C177.922,16.04 177.646,17.122 177.646,18.558ZM192.412,17.854L193.291,17.854C194.152,17.854 194.788,17.711 195.198,17.424C195.608,17.137 195.813,16.686 195.813,16.07C195.813,15.461 195.604,15.027 195.185,14.77C194.766,14.512 194.117,14.383 193.238,14.383L192.412,14.383L192.412,17.854ZM192.412,20.069L192.412,25L189.688,25L189.688,12.15L193.432,12.15C195.178,12.15 196.47,12.468 197.308,13.104C198.146,13.74 198.564,14.705 198.564,16C198.564,16.756 198.356,17.428 197.94,18.017C197.524,18.606 196.936,19.067 196.174,19.401C198.107,22.29 199.367,24.156 199.953,25L196.93,25L193.862,20.069L192.412,20.069ZM204.295,17.854L205.174,17.854C206.035,17.854 206.671,17.711 207.081,17.424C207.491,17.137 207.696,16.686 207.696,16.07C207.696,15.461 207.487,15.027 207.068,14.77C206.649,14.512 206,14.383 205.121,14.383L204.295,14.383L204.295,17.854ZM204.295,20.069L204.295,25L201.57,25L201.57,12.15L205.314,12.15C207.061,12.15 208.353,12.468 209.19,13.104C210.028,13.74 210.447,14.705 210.447,16C210.447,16.756 210.239,17.428 209.823,18.017C209.407,18.606 208.818,19.067 208.057,19.401C209.99,22.29 211.25,24.156 211.836,25L208.813,25L205.745,20.069L204.295,20.069ZM225.116,18.558C225.116,20.685 224.589,22.319 223.534,23.462C222.479,24.604 220.968,25.176 218.999,25.176C217.03,25.176 215.519,24.604 214.464,23.462C213.409,22.319 212.882,20.679 212.882,18.54C212.882,16.401 213.411,14.768 214.468,13.64C215.526,12.512 217.042,11.948 219.017,11.948C220.991,11.948 222.501,12.517 223.547,13.653C224.593,14.79 225.116,16.425 225.116,18.558ZM215.738,18.558C215.738,19.993 216.011,21.074 216.556,21.801C217.101,22.527 217.915,22.891 218.999,22.891C221.173,22.891 222.26,21.446 222.26,18.558C222.26,15.663 221.179,14.216 219.017,14.216C217.933,14.216 217.115,14.581 216.564,15.31C216.014,16.04 215.738,17.122 215.738,18.558Z" fill="#2A317D" stroke-width="1" stroke="#00000000"/>
</svg>
