<svg id="_5bd9a9ffb4f4dbee4230077c9870a1f2" data-name="5bd9a9ffb4f4dbee4230077c9870a1f2" xmlns="http://www.w3.org/2000/svg" width="37.492" height="35.744" viewBox="0 0 37.492 35.744">
  <path id="Trazado_47345" data-name="Trazado 47345" d="M11.486,32.7a2.574,2.574,0,0,1,3.153-1.82l28.182,7.551a2.574,2.574,0,0,1,1.82,3.153L41.087,54.851a2.574,2.574,0,0,1-3.153,1.82L9.753,49.12a2.574,2.574,0,0,1-1.82-3.153L11.486,32.7Z" transform="translate(-7.238 -21.015)" fill="rgba(2,16,36,0.1)"/>
  <path id="Trazado_47346" data-name="Trazado 47346" d="M12.043,31.62a1.716,1.716,0,0,1,2.1-1.213l28.181,7.551a1.716,1.716,0,0,1,1.213,2.1L39.986,53.321a1.716,1.716,0,0,1-2.1,1.214L9.7,46.984a1.716,1.716,0,0,1-1.213-2.1L12.043,31.62Z" transform="translate(-7.572 -20.759)" fill="#ff001d"/>
  <path id="Trazado_47347" data-name="Trazado 47347" d="M13.225,28.435l28.182,7.551a2.574,2.574,0,0,1,1.82,3.153L39.673,52.4a2.574,2.574,0,0,1-3.153,1.82L8.339,46.67a2.574,2.574,0,0,1-1.82-3.153l3.553-13.262a2.574,2.574,0,0,1,3.153-1.82ZM13,29.264a1.716,1.716,0,0,0-2.1,1.213L7.347,43.74a1.716,1.716,0,0,0,1.213,2.1l28.182,7.551a1.716,1.716,0,0,0,2.1-1.214L42.4,38.917a1.716,1.716,0,0,0-1.213-2.1Z" transform="translate(-6.43 -19.617)" fill-rule="evenodd"/>
  <path id="Trazado_47348" data-name="Trazado 47348" d="M15.2,31.62a1.716,1.716,0,0,1,2.1-1.213l9.117,2.443a.429.429,0,0,1-.222.829l-9.117-2.443a.858.858,0,0,0-1.051.607L14.812,36.4a.429.429,0,0,1-.829-.222L15.2,31.62Z" transform="translate(-10.734 -20.759)" fill="#fa7171" fill-rule="evenodd"/>
  <path id="Trazado_47349" data-name="Trazado 47349" d="M18.381,33.266l-3.315-.888a.858.858,0,0,0-1.051.607l-.838,3.125a.769.769,0,0,0,.78,1c1.681-.142,3.973-.833,4.952-2.818A.742.742,0,0,0,18.381,33.266ZM35.933,53.96l3.316.888a.858.858,0,0,0,1.051-.607l.837-3.125a.769.769,0,0,0-.78-1c-1.68.142-3.973.833-4.952,2.818a.743.743,0,0,0,.528,1.025ZM11.349,42.931l-.888,3.315a.858.858,0,0,0,.607,1.051l3.125.837a.769.769,0,0,0,1-.78c-.143-1.681-.833-3.973-2.819-4.952a.743.743,0,0,0-1.025.529ZM42.965,44.3l.888-3.315a.858.858,0,0,0-.607-1.051l-3.125-.837a.769.769,0,0,0-1,.78c.142,1.681.833,3.973,2.818,4.952A.743.743,0,0,0,42.965,44.3Zm-8.63,5.684a.429.429,0,1,1-.306-.514A.429.429,0,0,1,34.335,49.979Zm1.769.03a.429.429,0,1,1-.3-.526.429.429,0,0,1,.3.526Zm-.444,1.657a.429.429,0,1,1-.3-.526A.429.429,0,0,1,35.66,51.666Zm-2.183-.141a.429.429,0,1,1-.306-.514A.429.429,0,0,1,33.477,51.526ZM31.4,50.97a.429.429,0,1,1-.3-.526.429.429,0,0,1,.3.526Zm-2.4.688a.429.429,0,1,1-.3-.525.429.429,0,0,1,.3.525Zm12.633-2.389a.429.429,0,1,1-.3-.525A.429.429,0,0,1,41.633,49.269Zm-3.841-.585a.429.429,0,1,1-.3-.526A.429.429,0,0,1,37.792,48.684ZM34.8,53.213a.429.429,0,1,1-.3-.526.429.429,0,0,1,.3.526Zm-2.486-.666a.429.429,0,1,1-.3-.526A.429.429,0,0,1,32.315,52.546Z" transform="translate(-8.715 -21.901)" fill="#ffa9b3"/>
  <path id="Trazado_47350" data-name="Trazado 47350" d="M71.459,73.579a.429.429,0,1,1-.3-.526.429.429,0,0,1,.3.526Zm1.436,1.273a.429.429,0,1,1-.3-.525A.429.429,0,0,1,72.895,74.852Zm.141-2.183a.429.429,0,1,1-.3-.526.429.429,0,0,1,.3.526ZM70.489,75.54a.429.429,0,1,1-.3-.525.429.429,0,0,1,.3.525Zm1.85,1.384a.429.429,0,1,1-.3-.526A.429.429,0,0,1,72.339,76.924Z" transform="translate(-42.523 -44.614)" fill="#b53838"/>
  <path id="Trazado_47351" data-name="Trazado 47351" d="M47.064,51.7a6.436,6.436,0,1,1-4.551-7.882A6.436,6.436,0,0,1,47.064,51.7ZM39.4,55.425a5.578,5.578,0,1,0-3.944-6.831A5.577,5.577,0,0,0,39.4,55.425Z" transform="translate(-22.405 -28.325)" fill="#218523" fill-rule="evenodd"/>
  <path id="Trazado_47352" data-name="Trazado 47352" d="M43.447,46.62a4.72,4.72,0,0,0-5.78,3.337.429.429,0,1,1-.829-.222,5.578,5.578,0,0,1,6.831-3.944.429.429,0,0,1-.222.829Z" transform="translate(-23.783 -29.467)" fill="#71fa8b" fill-rule="evenodd"/>
  <path id="Trazado_47353" data-name="Trazado 47353" d="M47.064,51.7a6.436,6.436,0,1,1-4.551-7.882A6.436,6.436,0,0,1,47.064,51.7ZM39.4,55.425a5.578,5.578,0,1,0-3.944-6.831A5.577,5.577,0,0,0,39.4,55.425Z" transform="translate(-22.405 -28.325)" fill="#218523" fill-rule="evenodd"/>
  <path id="Trazado_47354" data-name="Trazado 47354" d="M46.9,63.311a4.147,4.147,0,0,0-5.8-1.554,4.147,4.147,0,0,0,5.8,1.554Z" transform="translate(-26.225 -38.336)" fill="#38b550"/>
  <path id="Trazado_47355" data-name="Trazado 47355" d="M39.168,60.95a.858.858,0,0,1,.273-1.019,5,5,0,0,1,7.11,1.905.858.858,0,0,1-.273,1.019,5,5,0,0,1-7.11-1.905Zm.79-.335a4.148,4.148,0,0,1,5.8,1.555,4.148,4.148,0,0,1-5.8-1.555Z" transform="translate(-25.083 -37.195)" fill="#218523" fill-rule="evenodd"/>
  <path id="Trazado_47356" data-name="Trazado 47356" d="M49.564,53.865a1.716,1.716,0,1,1-1.214-2.1,1.716,1.716,0,0,1,1.214,2.1Z" transform="translate(-29.131 -32.953)" fill="#38b550"/>
  <path id="Trazado_47357" data-name="Trazado 47357" d="M49.251,52.945a2.574,2.574,0,1,1-1.82-3.153,2.574,2.574,0,0,1,1.82,3.153Zm-2.93.992a1.716,1.716,0,1,0-1.214-2.1,1.716,1.716,0,0,0,1.214,2.1Z" transform="translate(-27.989 -31.811)" fill="#218523" fill-rule="evenodd"/>
  <path id="Trazado_47358" data-name="Trazado 47358" d="M43.447,46.62a4.72,4.72,0,0,0-5.78,3.337.429.429,0,1,1-.829-.222,5.578,5.578,0,0,1,6.831-3.944.429.429,0,0,1-.222.829Z" transform="translate(-23.783 -29.467)" fill="#71fa8b" fill-rule="evenodd"/>
  <path id="Trazado_47359" data-name="Trazado 47359" d="M12,40.728a2.574,2.574,0,0,1,2.574-2.574H43.75a2.574,2.574,0,0,1,2.574,2.574v13.73a2.574,2.574,0,0,1-2.574,2.574H14.574A2.574,2.574,0,0,1,12,54.458Z" transform="translate(-9.61 -25.216)" fill="rgba(2,16,36,0.1)"/>
  <path id="Trazado_47360" data-name="Trazado 47360" d="M12,39.87a1.716,1.716,0,0,1,1.716-1.716H42.892a1.716,1.716,0,0,1,1.716,1.716V53.6a1.716,1.716,0,0,1-1.716,1.716H13.716A1.716,1.716,0,0,1,12,53.6Z" transform="translate(-9.61 -25.216)" fill="#ff001d"/>
  <path id="Trazado_47361" data-name="Trazado 47361" d="M12.574,36.154H41.75a2.574,2.574,0,0,1,2.574,2.574v13.73a2.574,2.574,0,0,1-2.574,2.574H12.574A2.574,2.574,0,0,1,10,52.458V38.728a2.574,2.574,0,0,1,2.574-2.574Zm0,.858a1.716,1.716,0,0,0-1.716,1.716v13.73a1.716,1.716,0,0,0,1.716,1.716H41.75a1.716,1.716,0,0,0,1.716-1.716V38.728a1.716,1.716,0,0,0-1.716-1.716Z" transform="translate(-8.468 -24.074)" fill-rule="evenodd"/>
  <path id="Trazado_47362" data-name="Trazado 47362" d="M12,39.87a1.716,1.716,0,0,1,1.716-1.716h9.439a.429.429,0,0,1,0,.858H13.716a.858.858,0,0,0-.858.858v4.72a.429.429,0,1,1-.858,0Z" transform="translate(-9.61 -25.216)" fill="#fa7171" fill-rule="evenodd"/>
  <path id="Trazado_47363" data-name="Trazado 47363" d="M18.291,40.154H14.858a.858.858,0,0,0-.858.858v3.235a.769.769,0,0,0,1.013.764c1.586-.573,3.623-1.833,4.054-4A.742.742,0,0,0,18.291,40.154ZM40.6,55.6h3.432a.858.858,0,0,0,.858-.858V51.507a.769.769,0,0,0-1.013-.764c-1.586.572-3.623,1.833-4.054,4A.743.743,0,0,0,40.6,55.6ZM14,51.309v3.432a.858.858,0,0,0,.858.858h3.235a.769.769,0,0,0,.764-1.013c-.573-1.586-1.833-3.623-4-4.054a.743.743,0,0,0-.853.776Zm30.892-6.865V41.012a.858.858,0,0,0-.858-.858H40.8a.769.769,0,0,0-.764,1.013c.572,1.586,1.833,3.622,4,4.053A.742.742,0,0,0,44.892,44.445Zm-6.865,7.723a.429.429,0,1,1-.429-.429A.429.429,0,0,1,38.027,52.168Zm1.716-.429a.429.429,0,1,1-.429-.429A.429.429,0,0,1,39.743,51.739Zm0,1.716a.429.429,0,1,1-.429-.429A.429.429,0,0,1,39.743,53.455Zm-2.145.429a.429.429,0,1,1-.429-.429A.429.429,0,0,1,37.6,53.884Zm-2.145,0a.429.429,0,1,1-.429-.429A.429.429,0,0,1,35.453,53.884Zm-2.145,1.287a.429.429,0,1,1-.429-.429A.429.429,0,0,1,33.308,55.171Zm11.585-5.578a.429.429,0,1,1-.429-.429A.429.429,0,0,1,44.892,49.593Zm-3.862.429a.429.429,0,1,1-.429-.429A.429.429,0,0,1,41.031,50.022Zm-1.716,5.149a.429.429,0,1,1-.429-.429A.429.429,0,0,1,39.314,55.171Zm-2.574,0a.429.429,0,1,1-.429-.429A.429.429,0,0,1,36.74,55.171Z" transform="translate(-10.752 -26.358)" fill="#ffb0b9"/>
  <path id="Trazado_47364" data-name="Trazado 47364" d="M76.287,65.87a.429.429,0,1,1-.429-.429A.429.429,0,0,1,76.287,65.87ZM78,66.728a.429.429,0,1,1-.429-.429A.429.429,0,0,1,78,66.728Zm-.429-2.145a.429.429,0,1,1-.429-.429A.429.429,0,0,1,77.574,64.583Zm-1.716,3.432a.429.429,0,1,1-.429-.429A.429.429,0,0,1,75.858,68.016ZM78,68.874a.429.429,0,1,1-.429-.429A.429.429,0,0,1,78,68.874Z" transform="translate(-45.58 -40.061)" fill="#b53838"/>
  <path id="Trazado_47365" data-name="Trazado 47365" d="M47.872,49.59a6.436,6.436,0,1,1-6.436-6.436A6.436,6.436,0,0,1,47.872,49.59Zm-6.436,5.578a5.578,5.578,0,1,0-5.578-5.578A5.578,5.578,0,0,0,41.436,55.168Z" transform="translate(-22.742 -28.071)" fill="#218523" fill-rule="evenodd"/>
  <path id="Trazado_47366" data-name="Trazado 47366" d="M42.578,46.012a4.719,4.719,0,0,0-4.72,4.72.429.429,0,0,1-.858,0,5.578,5.578,0,0,1,5.578-5.578.429.429,0,0,1,0,.858Z" transform="translate(-23.884 -29.213)" fill="#71fa8b" fill-rule="evenodd"/>
  <path id="Trazado_47367" data-name="Trazado 47367" d="M47.872,49.59a6.436,6.436,0,1,1-6.436-6.436A6.436,6.436,0,0,1,47.872,49.59Zm-6.436,5.578a5.578,5.578,0,1,0-5.578-5.578A5.578,5.578,0,0,0,41.436,55.168Z" transform="translate(-22.742 -28.071)" fill-rule="evenodd"/>
  <path id="Trazado_47368" data-name="Trazado 47368" d="M49.007,62.441a4.148,4.148,0,0,0-6.007,0,4.148,4.148,0,0,0,6.007,0Z" transform="translate(-27.31 -38.348)" fill="red"/>
  <path id="Trazado_47369" data-name="Trazado 47369" d="M41.181,61.827a.858.858,0,0,1,0-1.055,5,5,0,0,1,7.361,0,.858.858,0,0,1,0,1.055,5,5,0,0,1-7.361,0Zm.677-.528a4.148,4.148,0,0,1,6.007,0,4.148,4.148,0,0,1-6.007,0Z" transform="translate(-26.167 -37.206)" fill-rule="evenodd"/>
  <path id="Trazado_47370" data-name="Trazado 47370" d="M49.432,52.87a1.716,1.716,0,1,1-1.716-1.716A1.716,1.716,0,0,1,49.432,52.87Z" transform="translate(-29.022 -32.639)" fill="red"/>
  <path id="Trazado_47371" data-name="Trazado 47371" d="M49.149,51.728a2.574,2.574,0,1,1-2.574-2.574,2.574,2.574,0,0,1,2.574,2.574Zm-2.574,1.716a1.716,1.716,0,1,0-1.716-1.716A1.716,1.716,0,0,0,46.574,53.445Z" transform="translate(-27.88 -31.497)" fill-rule="evenodd"/>
  <path id="Trazado_47372" data-name="Trazado 47372" d="M42.578,46.012a4.719,4.719,0,0,0-4.72,4.72.429.429,0,0,1-.858,0,5.578,5.578,0,0,1,5.578-5.578.429.429,0,0,1,0,.858Z" transform="translate(-23.884 -29.213)" fill="#fa7171" fill-rule="evenodd"/>
  <path id="Trazado_47373" data-name="Trazado 47373" d="M74.73,21.865A6.865,6.865,0,1,1,67.865,15,6.865,6.865,0,0,1,74.73,21.865Z" transform="translate(-37.586 -11.997)" fill="rgba(2,16,36,0.1)"/>
  <path id="Trazado_47374" data-name="Trazado 47374" d="M74.014,22.007A6.007,6.007,0,1,1,68.007,16,6.007,6.007,0,0,1,74.014,22.007Z" transform="translate(-38.157 -12.568)" fill="#ffcf23"/>
  <path id="Trazado_47375" data-name="Trazado 47375" d="M73.73,20.865A6.865,6.865,0,1,1,66.865,14,6.865,6.865,0,0,1,73.73,20.865Zm-6.865,6.007a6.007,6.007,0,1,0-6.007-6.007A6.007,6.007,0,0,0,66.865,26.872Z" transform="translate(-37.016 -11.426)" fill-rule="evenodd"/>
  <path id="Trazado_47376" data-name="Trazado 47376" d="M68.578,17.858a4.72,4.72,0,1,0,4.72,4.72A4.72,4.72,0,0,0,68.578,17.858ZM63,22.578a5.578,5.578,0,1,1,5.578,5.578A5.578,5.578,0,0,1,63,22.578Z" transform="translate(-38.728 -13.138)" fill="#f9b300" fill-rule="evenodd"/>
  <path id="Trazado_47377" data-name="Trazado 47377" d="M69.72,19.858a3.862,3.862,0,0,0-3.862,3.861.429.429,0,1,1-.858,0A4.72,4.72,0,0,1,69.72,19a.429.429,0,0,1,0,.858Z" transform="translate(-39.87 -14.28)" fill="#ffe792" fill-rule="evenodd"/>
  <path id="Trazado_47378" data-name="Trazado 47378" d="M69.659,20.552a.429.429,0,0,1-.157.586,3.879,3.879,0,0,0-.773.588.429.429,0,1,1-.6-.613,4.736,4.736,0,0,1,.944-.718.429.429,0,0,1,.586.157Z" transform="translate(-41.583 -15.044)" fill="#fff8df" fill-rule="evenodd"/>
  <path id="Trazado_47379" data-name="Trazado 47379" d="M80.291,27.429A.429.429,0,1,1,79.862,27,.429.429,0,0,1,80.291,27.429Zm.858,1.716a.429.429,0,1,1-.429-.429A.429.429,0,0,1,81.149,29.145Zm-.858,1.716a.429.429,0,1,1-.429-.429A.429.429,0,0,1,80.291,30.862Zm-2.145,1.287a.429.429,0,1,1-.429-.429A.429.429,0,0,1,78.145,32.149Zm-1.287.858a.429.429,0,1,1-.429-.429A.429.429,0,0,1,76.858,33.007Zm3-3.432a.429.429,0,1,1-.429-.429A.429.429,0,0,1,79.862,29.574ZM79,28.287a.429.429,0,1,1-.429-.429A.429.429,0,0,1,79,28.287Zm0,2.574a.429.429,0,1,1-.429-.429A.429.429,0,0,1,79,30.862Z" transform="translate(-46.151 -18.848)" fill="#f9b300"/>
  <path id="Trazado_47380" data-name="Trazado 47380" d="M69.385,24.523v4.894H68.5V25.558l-1.177.389V25.23l1.964-.707Zm4.874,2.035v.821a3.554,3.554,0,0,1-.114.962,1.754,1.754,0,0,1-.329.654,1.315,1.315,0,0,1-.513.372,1.8,1.8,0,0,1-.664.117,1.917,1.917,0,0,1-.543-.074,1.386,1.386,0,0,1-.453-.235,1.474,1.474,0,0,1-.342-.409,2.144,2.144,0,0,1-.218-.593,3.83,3.83,0,0,1-.074-.795v-.821a3.482,3.482,0,0,1,.114-.959,1.746,1.746,0,0,1,.332-.647,1.258,1.258,0,0,1,.513-.366,1.8,1.8,0,0,1,.664-.117,1.894,1.894,0,0,1,.543.074,1.3,1.3,0,0,1,.449.231,1.318,1.318,0,0,1,.342.4,2.008,2.008,0,0,1,.215.59,3.616,3.616,0,0,1,.077.791Zm-.885.941V26.433a3.111,3.111,0,0,0-.033-.489,1.523,1.523,0,0,0-.091-.359.714.714,0,0,0-.151-.238.554.554,0,0,0-.208-.137.736.736,0,0,0-.258-.044.67.67,0,0,0-.311.07.569.569,0,0,0-.232.215,1.179,1.179,0,0,0-.144.392,3.144,3.144,0,0,0-.047.59V27.5a3.594,3.594,0,0,0,.03.493,1.7,1.7,0,0,0,.094.362.88.88,0,0,0,.15.248.6.6,0,0,0,.208.141.743.743,0,0,0,.258.043.657.657,0,0,0,.311-.07.593.593,0,0,0,.232-.221,1.216,1.216,0,0,0,.141-.4,3.05,3.05,0,0,0,.05-.6Z" transform="translate(-41.195 -17.403)" fill="#b96f00"/>
  <path id="Trazado_47381" data-name="Trazado 47381" d="M68.73,15.865A6.865,6.865,0,1,1,61.865,9,6.865,6.865,0,0,1,68.73,15.865Z" transform="translate(-34.161 -8.571)" fill="rgba(2,16,36,0.1)"/>
  <path id="Trazado_47382" data-name="Trazado 47382" d="M68.014,16.007A6.007,6.007,0,1,1,62.007,10,6.007,6.007,0,0,1,68.014,16.007Z" transform="translate(-34.732 -9.142)" fill="#ffcf23"/>
  <path id="Trazado_47383" data-name="Trazado 47383" d="M67.73,14.865A6.865,6.865,0,1,1,60.865,8,6.865,6.865,0,0,1,67.73,14.865Zm-6.865,6.007a6.007,6.007,0,1,0-6.007-6.007A6.007,6.007,0,0,0,60.865,20.872Z" transform="translate(-33.59 -8)" fill-rule="evenodd"/>
  <path id="Trazado_47384" data-name="Trazado 47384" d="M62.578,11.858a4.72,4.72,0,1,0,4.72,4.72A4.72,4.72,0,0,0,62.578,11.858ZM57,16.578a5.578,5.578,0,1,1,5.578,5.578A5.578,5.578,0,0,1,57,16.578Z" transform="translate(-35.303 -9.713)" fill="#f9b300" fill-rule="evenodd"/>
  <path id="Trazado_47385" data-name="Trazado 47385" d="M63.72,13.858a3.862,3.862,0,0,0-3.862,3.861.429.429,0,1,1-.858,0A4.72,4.72,0,0,1,63.72,13a.429.429,0,0,1,0,.858Z" transform="translate(-36.445 -10.855)" fill="#ffe792" fill-rule="evenodd"/>
  <path id="Trazado_47386" data-name="Trazado 47386" d="M63.659,14.552a.429.429,0,0,1-.157.586,3.879,3.879,0,0,0-.773.588.429.429,0,1,1-.6-.613,4.735,4.735,0,0,1,.944-.718A.429.429,0,0,1,63.659,14.552Z" transform="translate(-38.157 -11.618)" fill="#fff8df" fill-rule="evenodd"/>
  <path id="Trazado_47387" data-name="Trazado 47387" d="M74.291,21.429A.429.429,0,1,1,73.862,21,.429.429,0,0,1,74.291,21.429Zm.858,1.716a.429.429,0,1,1-.429-.429A.429.429,0,0,1,75.149,23.145Zm-.858,1.716a.429.429,0,1,1-.429-.429A.429.429,0,0,1,74.291,24.861Zm-2.145,1.287a.429.429,0,1,1-.429-.429A.429.429,0,0,1,72.145,26.149Zm-1.287.858a.429.429,0,1,1-.429-.429A.429.429,0,0,1,70.858,27.007Zm3-3.432a.429.429,0,1,1-.429-.429A.429.429,0,0,1,73.862,23.574ZM73,22.287a.429.429,0,1,1-.429-.429A.429.429,0,0,1,73,22.287Zm0,2.574a.429.429,0,1,1-.429-.429A.429.429,0,0,1,73,24.861Z" transform="translate(-42.725 -15.422)" fill="#f9b300"/>
  <path id="Trazado_47388" data-name="Trazado 47388" d="M63.385,18.523v4.894H62.5V19.558l-1.177.389V19.23l1.964-.707h.1Zm4.874,2.035v.821a3.554,3.554,0,0,1-.114.962,1.754,1.754,0,0,1-.329.654,1.315,1.315,0,0,1-.513.372,1.8,1.8,0,0,1-.664.117,1.917,1.917,0,0,1-.543-.074,1.386,1.386,0,0,1-.453-.235,1.474,1.474,0,0,1-.342-.409,2.144,2.144,0,0,1-.218-.593,3.829,3.829,0,0,1-.074-.795v-.821a3.482,3.482,0,0,1,.114-.959,1.746,1.746,0,0,1,.332-.647,1.258,1.258,0,0,1,.513-.366,1.8,1.8,0,0,1,.664-.117,1.894,1.894,0,0,1,.543.074,1.3,1.3,0,0,1,.449.231,1.318,1.318,0,0,1,.342.4,2.008,2.008,0,0,1,.215.59,3.616,3.616,0,0,1,.077.791Zm-.885.941V20.433a3.111,3.111,0,0,0-.033-.489,1.523,1.523,0,0,0-.091-.359.714.714,0,0,0-.151-.238.554.554,0,0,0-.208-.137.736.736,0,0,0-.258-.044.67.67,0,0,0-.311.07.569.569,0,0,0-.232.215,1.179,1.179,0,0,0-.144.392,3.144,3.144,0,0,0-.047.59V21.5a3.594,3.594,0,0,0,.03.493,1.7,1.7,0,0,0,.094.362.875.875,0,0,0,.15.248.6.6,0,0,0,.208.141.743.743,0,0,0,.258.043.657.657,0,0,0,.311-.07.593.593,0,0,0,.232-.221,1.216,1.216,0,0,0,.141-.4,3.051,3.051,0,0,0,.05-.6Z" transform="translate(-37.769 -13.977)"/>
</svg>
