<?xml version="1.0" ?>
<svg xmlns="http://www.w3.org/2000/svg" width="18" height="23" viewBox="0 0 18 23">
  <path d="M16.354,3.852C14.662,1.404 11.982,0 9,0 6.02,0 3.338,1.404 1.647,3.852 -0.036,6.287 -0.425,9.37 0.605,12.094c0.276,0.744 0.714,1.467 1.299,2.144l6.507,7.643c0.147,0.173 0.362,0.273 0.59,0.273 0.226,0 0.442,-0.1 0.589,-0.273l6.505,-7.64c0.588,-0.682 1.025,-1.404 1.298,-2.142 1.032,-2.729 0.644,-5.812 -1.04,-8.247zM15.943,11.557c-0.211,0.57 -0.555,1.132 -1.022,1.674l-0.004,0.004L9,20.185 3.08,13.23c-0.467,-0.54 -0.811,-1.103 -1.024,-1.678 -0.852,-2.253 -0.528,-4.802 0.865,-6.82C4.32,2.71 6.535,1.55 9.001,1.55c2.465,0 4.68,1.16 6.078,3.184 1.394,2.017 1.717,4.566 0.864,6.824z" fill="#AAADCB"/>
  <path d="M9,4.596c-2.391,0 -4.338,1.946 -4.338,4.338 0,2.392 1.946,4.338 4.338,4.338 2.392,0 4.338,-1.946 4.338,-4.338 0,-2.392 -1.946,-4.338 -4.338,-4.338zM9,11.722c-1.537,0 -2.788,-1.25 -2.788,-2.788 0,-1.538 1.25,-2.789 2.788,-2.789 1.538,0 2.789,1.251 2.789,2.789 0,1.537 -1.251,2.788 -2.789,2.788z" fill="#AAADCB"/>
</svg>
