<?xml version="1.0" ?>
<svg xmlns="http://www.w3.org/2000/svg" width="70" height="70" viewBox="0 0 70 70">
  <path d="M35,35m-27,0a27,27 0,1 1,54 0a27,27 0,1 1,-54 0" fill="#000"/>
  <path d="M35,35m-27,0a27,27 0,1 1,54 0a27,27 0,1 1,-54 0" fill="#FFF"/>
  <path d="M35,31c-2.21,0 -4,1.79 -4,4s1.79,4 4,4 4,-1.79 4,-4 -1.79,-4 -4,-4zM43.94,34c-0.46,-4.17 -3.77,-7.48 -7.94,-7.94L36,24h-2v2.06C29.83,26.52 26.52,29.83 26.06,34L24,34v2h2.06c0.46,4.17 3.77,7.48 7.94,7.94L34,46h2v-2.06c4.17,-0.46 7.48,-3.77 7.94,-7.94L46,36v-2h-2.06zM35,42c-3.87,0 -7,-3.13 -7,-7s3.13,-7 7,-7 7,3.13 7,7 -3.13,7 -7,7z" fill="#223BC1"/>
</svg>
