<?xml version="1.0" ?>
<svg xmlns="http://www.w3.org/2000/svg" width="20" height="23" viewBox="0 0 20 23">
  <path d="M19.987,17.799L18.861,6.606c-0.07,-0.914 -0.844,-1.63 -1.76,-1.63h-2.226v-0.1C14.875,2.186 12.688,0 10,0S5.125,2.187 5.125,4.875v0.1L2.9,4.975c-0.917,0 -1.69,0.717 -1.76,1.63L0.013,17.8c-0.087,1.137 0.307,2.268 1.082,3.105 0.774,0.836 1.873,1.316 3.013,1.316h11.784c1.14,0 2.239,-0.48 3.013,-1.316 0.775,-0.837 1.17,-1.968 1.082,-3.107zM6.602,4.875c0,-1.873 1.524,-3.398 3.398,-3.398s3.398,1.525 3.398,3.398v0.1L6.602,4.975v-0.1zM17.822,19.902c-0.504,0.543 -1.189,0.842 -1.93,0.842L4.108,20.744c-0.741,0 -1.426,-0.299 -1.93,-0.842 -0.503,-0.544 -0.749,-1.25 -0.692,-1.986L2.612,6.719c0.012,-0.15 0.138,-0.266 0.288,-0.266h2.225v1.82c0,0.407 0.33,0.738 0.738,0.738s0.74,-0.331 0.74,-0.739v-1.82h6.795v1.82c0,0.408 0.33,0.739 0.739,0.739 0.408,0 0.738,-0.331 0.738,-0.739v-1.82L17.1,6.452c0.15,0 0.276,0.118 0.288,0.269l1.126,11.193c0.057,0.738 -0.19,1.444 -0.693,1.988z" fill="#AAADCB"/>
  <path d="M13.328,11.526c-0.288,-0.288 -0.756,-0.288 -1.045,0l-3.298,3.299 -1.268,-1.269c-0.289,-0.288 -0.756,-0.288 -1.045,0 -0.288,0.289 -0.288,0.757 0,1.045l1.79,1.79c0.145,0.145 0.334,0.217 0.523,0.217s0.378,-0.072 0.522,-0.216l3.82,-3.821c0.29,-0.288 0.29,-0.756 0,-1.045z" fill="#AAADCB"/>
</svg>
