<?xml version="1.0" ?>
<svg xmlns="http://www.w3.org/2000/svg" width="20" height="19" viewBox="0 0 20 19">
  <path d="M17.193,1.038h-2.346v-0.346c0,-0.382 -0.299,-0.692 -0.667,-0.692 -0.368,0 -0.667,0.31 -0.667,0.692v0.346h-7.026v-0.346c0,-0.382 -0.299,-0.692 -0.667,-0.692 -0.368,0 -0.667,0.31 -0.667,0.692v0.346h-2.346c-1.549,0.004 -2.803,1.306 -2.807,2.913v12.136c0.004,1.607 1.258,2.91 2.807,2.913h14.386c1.549,-0.004 2.803,-1.306 2.807,-2.913L20,3.951c-0.004,-1.607 -1.258,-2.91 -2.807,-2.913zM2.807,2.422h2.346v0.346c0,0.382 0.299,0.692 0.667,0.692 0.368,0 0.667,-0.31 0.667,-0.692v-0.346h7.026v0.346c0,0.382 0.299,0.692 0.667,0.692 0.368,0 0.667,-0.31 0.667,-0.692v-0.346h2.346c0.814,0 1.474,0.684 1.474,1.529v1.64L1.333,5.591v-1.64c0,-0.845 0.66,-1.53 1.474,-1.53zM17.193,17.644L2.807,17.644c-0.396,0 -0.775,-0.165 -1.052,-0.458 -0.277,-0.293 -0.429,-0.689 -0.422,-1.099v-9.112h17.334v9.112c0.007,0.41 -0.145,0.806 -0.422,1.1 -0.277,0.292 -0.656,0.457 -1.052,0.457z" fill="#AAADCB"/>
</svg>
