<?xml version="1.0" ?>
<svg xmlns="http://www.w3.org/2000/svg" width="24" height="20" viewBox="0 0 24 20">
  <path d="M1.3491,8.0851L1.3116,8.0933L17.3713,8.0933L12.3227,3.0336C12.0755,2.7865 11.9399,2.4519 11.9399,2.1007C11.9399,1.7495 12.0755,1.4172 12.3227,1.1696L13.1083,0.3836C13.3553,0.1366 13.6845,0 14.0355,0C14.3867,0 14.7161,0.1356 14.9631,0.3826L23.6174,9.0361C23.8654,9.2841 24.001,9.6144 24,9.9659C24.001,10.3192 23.8654,10.6498 23.6174,10.8974L14.9631,19.5516C14.7161,19.7984 14.3869,19.9342 14.0355,19.9342C13.6845,19.9342 13.3553,19.7982 13.1083,19.5516L12.3227,18.7657C12.0755,18.519 11.9399,18.1897 11.9399,17.8384C11.9399,17.4874 12.0755,17.1754 12.3227,16.9286L17.4283,11.8406L1.3311,11.8406C0.6078,11.8406 -0,11.2172 -0,10.4942L-0,9.3826C-0,8.6597 0.6258,8.0851 1.3491,8.0851Z" fill="#CD202E" stroke-width="1" stroke="#00000000"/>
</svg>
