<?xml version="1.0" ?>
<svg xmlns="http://www.w3.org/2000/svg" width="15" height="12" viewBox="0 0 15 12">
  <path d="M14.17,5.44L8.97,0.24C8.82,0.092 8.623,0.01 8.412,0.01c-0.21,0 -0.409,0.082 -0.557,0.23l-0.472,0.472c-0.149,0.149 -0.23,0.347 -0.23,0.558 0,0.21 0.081,0.415 0.23,0.563l3.034,3.04H0.778c-0.435,0 -0.778,0.341 -0.778,0.776v0.668c0,0.434 0.343,0.809 0.778,0.809h9.673l-3.068,3.057c-0.148,0.149 -0.23,0.341 -0.23,0.552 0,0.211 0.082,0.407 0.23,0.555l0.472,0.47c0.148,0.15 0.346,0.23 0.557,0.23 0.211,0 0.41,-0.082 0.558,-0.23l5.2,-5.2c0.149,-0.15 0.23,-0.349 0.23,-0.56 0,-0.212 -0.081,-0.41 -0.23,-0.56z" fill="#949091"/>
</svg>
