<?xml version="1.0" ?>
<svg xmlns="http://www.w3.org/2000/svg" width="59" height="28" viewBox="0 0 59 28">
  <path d="M-287,-120H73v640h-360z" fill="#F6F8FB"/>
  <path d="M-287,-13.493H72.82V98.771H-287z" fill="#FFF"/>
  <path d="M14.289,0.9L44.994,0.9A13.433,13.433 0,0 1,58.427 14.333L58.427,14.334A13.433,13.433 0,0 1,44.994 27.767L14.289,27.767A13.433,13.433 0,0 1,0.856 14.334L0.856,14.333A13.433,13.433 0,0 1,14.289 0.9z" fill="#E5E5EE"/>
  <path d="M14.289,14.333m-9.595,0a9.595,9.595 0,1 1,19.19 0a9.595,9.595 0,1 1,-19.19 0" fill="#000"/>
  <path d="M14.289,14.333m-9.595,0a9.595,9.595 0,1 1,19.19 0a9.595,9.595 0,1 1,-19.19 0" fill="#FFF"/>
</svg>
