<?xml version="1.0" ?>
<svg xmlns="http://www.w3.org/2000/svg" width="253" height="222" viewBox="0 0 253 222">
  <path d="M161.263,149.767l-0.736,2.907 -72.649,-18.39 0.735,-2.907c5.813,1.471 10.322,-4.128 11.051,-7.004l4.192,-16.565a27.728,27.728 0,0 1,26.802 -20.364,7.493 7.493,0 0,1 9.179,-5.299 7.494,7.494 0,0 1,5.298 9.18,28.296 28.296,0 0,1 13.802,30.983l-4.06,16.041c-0.862,3.4 3.48,10.682 6.386,11.418" fill="#DAE2EC"/>
  <path d="M161.268,149.784s-4.296,-1.67 -6.555,-4.052c-3.145,-3.317 -2.938,-6.936 -0.812,-13.922 2.502,-8.318 2.433,-17.08 1.47,-21.097 -3.355,-13.995 -10.23,-19.371 -10.23,-19.371a28.296,28.296 0,0 1,13.801 30.983l-4.06,16.04c-0.711,2.37 3.48,10.683 6.386,11.42l-0.736,2.906 0.736,-2.907z" fill="#C5D0D9"/>
  <path d="M228.65,121.62h0.959c0,1.616 -0.039,3.228 -0.115,4.834l-0.958,-0.046c0.075,-1.59 0.113,-3.187 0.113,-4.788zM228.193,131.192l0.955,0.091a100.214,100.214 0,0 1,-0.577 4.8l-0.95,-0.137c0.229,-1.577 0.42,-3.162 0.572,-4.754zM226.82,140.671l0.942,0.183a99.456,99.456 0,0 1,-1.039 4.72l-0.932,-0.228c0.38,-1.548 0.724,-3.107 1.029,-4.675zM224.528,149.993l0.92,0.275a99.28,99.28 0,0 1,-1.495 4.6l-0.905,-0.32a98.323,98.323 0,0 0,1.48 -4.555zM221.344,159.033l0.889,0.363a99.494,99.494 0,0 1,-1.935 4.431l-0.87,-0.405a98.535,98.535 0,0 0,1.916 -4.388zM217.304,167.708l0.849,0.447a99.895,99.895 0,0 1,-2.356 4.224l-0.826,-0.487a98.934,98.934 0,0 0,2.333 -4.184zM212.424,175.981l0.801,0.527a100.313,100.313 0,0 1,-2.755 3.979l-0.775,-0.565a99.352,99.352 0,0 0,2.729 -3.941zM206.767,183.743l0.747,0.602a100.606,100.606 0,0 1,-3.123 3.691l-0.717,-0.637a99.647,99.647 0,0 0,3.093 -3.656zM200.414,190.898l0.686,0.67a100.693,100.693 0,0 1,-3.463 3.377l-0.653,-0.703a99.734,99.734 0,0 0,3.43 -3.344zM193.421,197.398l0.619,0.732c-1.232,1.04 -2.49,2.05 -3.77,3.03l-0.583,-0.763a99.588,99.588 0,0 0,3.734 -3zM185.795,203.227l0.545,0.79c-1.326,0.916 -2.674,1.8 -4.043,2.65l-0.507,-0.814a99.251,99.251 0,0 0,4.005 -2.626zM177.646,208.291l0.467,0.839a99.781,99.781 0,0 1,-4.282 2.247l-0.426,-0.86a98.822,98.822 0,0 0,4.241 -2.226zM169.04,212.545l0.383,0.88a99.413,99.413 0,0 1,-4.482 1.82l-0.339,-0.897a98.453,98.453 0,0 0,4.438 -1.803zM160.05,215.944l0.296,0.913c-1.534,0.495 -3.08,0.954 -4.638,1.375l-0.25,-0.926a98.323,98.323 0,0 0,4.593 -1.362zM150.773,218.449l0.205,0.937a99.594,99.594 0,0 1,-4.75 0.917l-0.158,-0.947a98.634,98.634 0,0 0,4.703 -0.907zM141.295,220.039l0.113,0.953c-1.598,0.189 -3.204,0.34 -4.816,0.451l-0.066,-0.957a99.581,99.581 0,0 0,4.77 -0.447zM131.795,220.703l0.021,0.96a101.997,101.997 0,0 1,-4.843 -0.007l0.024,-0.96a101.151,101.151 0,0 0,4.798 0.007zM122.215,220.462l-0.07,0.957c-1.61,-0.118 -3.214,-0.274 -4.81,-0.468l0.115,-0.952c1.581,0.192 3.17,0.346 4.764,0.463zM112.688,219.302l-0.162,0.945a99.573,99.573 0,0 1,-4.749 -0.932l0.208,-0.937c1.558,0.345 3.126,0.654 4.703,0.924zM103.333,217.227l-0.253,0.925a99.28,99.28 0,0 1,-4.634 -1.39l0.298,-0.911a98.32,98.32 0,0 0,4.59 1.376zM94.2,214.242l-0.342,0.897a99.418,99.418 0,0 1,-4.478 -1.836l0.385,-0.879a98.46,98.46 0,0 0,4.435 1.818zM85.456,210.408l-0.427,0.86a99.79,99.79 0,0 1,-4.278 -2.26l0.468,-0.837a98.83,98.83 0,0 0,4.237 2.237zM77.081,205.722l-0.509,0.813a100.218,100.218 0,0 1,-4.037 -2.66l0.547,-0.79a99.26,99.26 0,0 0,3.999 2.637zM69.186,200.238l-0.585,0.76a100.553,100.553 0,0 1,-3.761 -3.038l0.62,-0.732a99.594,99.594 0,0 0,3.726 3.01zM61.875,194.034l-0.656,0.701c-1.177,-1.1 -2.328,-2.23 -3.451,-3.385l0.688,-0.669a99.732,99.732 0,0 0,3.419 3.353zM55.233,187.203l-0.719,0.635a100.6,100.6 0,0 1,-3.113 -3.7l0.75,-0.6a99.642,99.642 0,0 0,3.082 3.665zM49.236,179.714l-0.777,0.564a100.301,100.301 0,0 1,-2.742 -3.983l0.803,-0.525a99.342,99.342 0,0 0,2.716 3.944zM43.988,171.683l-0.828,0.485a99.883,99.883 0,0 1,-2.346 -4.231l0.85,-0.445a98.924,98.924 0,0 0,2.324 4.19zM39.538,163.172l-0.872,0.403a99.484,99.484 0,0 1,-1.923 -4.439l0.89,-0.36c0.6,1.481 1.234,2.947 1.904,4.396zM35.938,154.272l-0.907,0.317a99.282,99.282 0,0 1,-1.481 -4.606l0.92,-0.271a98.322,98.322 0,0 0,1.467 4.56zM33.219,145.054l-0.932,0.226a99.472,99.472 0,0 1,-1.025 -4.728l0.942,-0.18c0.3,1.57 0.64,3.131 1.015,4.682zM31.412,135.611l-0.95,0.134a100.254,100.254 0,0 1,-0.56 -4.805l0.955,-0.088c0.147,1.594 0.332,3.18 0.555,4.759zM30.532,126.081l-0.96,0.043c-0.066,-1.497 -0.099,-2.999 -0.099,-4.504v-0.299l0.96,0.003v0.296c0,1.491 0.032,2.978 0.098,4.461zM30.561,116.534l-0.959,-0.048c0.082,-1.615 0.202,-3.223 0.36,-4.825l0.955,0.095a99.863,99.863 0,0 0,-0.356 4.778zM31.504,106.993l-0.949,-0.14c0.236,-1.598 0.51,-3.187 0.823,-4.766l0.942,0.186a98.77,98.77 0,0 0,-0.816 4.72zM33.366,97.589l-0.931,-0.231c0.39,-1.566 0.817,-3.121 1.282,-4.664l0.919,0.277a98.346,98.346 0,0 0,-1.27 4.618zM36.139,88.394l-0.904,-0.321a99.36,99.36 0,0 1,1.731 -4.516l0.888,0.365a98.4,98.4 0,0 0,-1.715 4.472zM39.776,79.556l-0.87,-0.407a99.694,99.694 0,0 1,2.16 -4.325l0.848,0.449a98.735,98.735 0,0 0,-2.138 4.283zM44.268,71.082l-0.825,-0.49c0.824,-1.387 1.68,-2.753 2.57,-4.098l0.8,0.529a99.164,99.164 0,0 0,-2.545 4.059zM49.565,63.074l-0.774,-0.568a100.49,100.49 0,0 1,2.953 -3.83l0.746,0.604a99.53,99.53 0,0 0,-2.925 3.794zM55.622,55.599l-0.715,-0.64a100.68,100.68 0,0 1,3.307 -3.526l0.684,0.673a99.72,99.72 0,0 0,-3.276 3.493zM62.29,48.819l-0.652,-0.704a100.642,100.642 0,0 1,3.631 -3.197l0.617,0.735a99.682,99.682 0,0 0,-3.596 3.167zM69.637,42.657l-0.58,-0.764c1.284,-0.976 2.591,-1.92 3.921,-2.833l0.543,0.79a99.426,99.426 0,0 0,-3.884 2.807zM77.548,37.227l-0.504,-0.816a99.984,99.984 0,0 1,4.177 -2.441l0.464,0.84a99.024,99.024 0,0 0,-4.137 2.417zM85.953,32.586l-0.423,-0.862a99.565,99.565 0,0 1,4.393 -2.024l0.38,0.881a98.605,98.605 0,0 0,-4.35 2.005zM94.776,28.78l-0.337,-0.899a99.299,99.299 0,0 1,4.57 -1.586l0.292,0.914a98.34,98.34 0,0 0,-4.525 1.57zM103.924,25.853l-0.247,-0.927a99.38,99.38 0,0 1,4.703 -1.133l0.202,0.938a98.42,98.42 0,0 0,-4.658 1.122zM113.319,23.832l-0.156,-0.947c1.589,-0.261 3.186,-0.485 4.79,-0.67l0.11,0.953c-1.589,0.183 -3.17,0.405 -4.744,0.664zM122.855,22.732l-0.064,-0.957c1.605,-0.106 3.216,-0.175 4.832,-0.206l0.018,0.96c-1.6,0.03 -3.196,0.098 -4.786,0.204zM132.382,22.551l0.027,-0.96c1.617,0.046 3.229,0.13 4.835,0.253l-0.073,0.956c-1.59,-0.12 -3.187,-0.204 -4.789,-0.25zM141.936,23.279l0.119,-0.953c1.603,0.2 3.198,0.439 4.785,0.715l-0.165,0.946a98.957,98.957 0,0 0,-4.739 -0.708zM151.375,24.924l0.21,-0.936c1.576,0.354 3.142,0.746 4.696,1.176l-0.256,0.925a98.394,98.394 0,0 0,-4.65 -1.165zM160.629,27.484l0.3,-0.91a99.314,99.314 0,0 1,4.556 1.627l-0.345,0.896a98.354,98.354 0,0 0,-4.51 -1.612zM169.558,30.922l0.387,-0.878a99.6,99.6 0,0 1,4.373 2.06l-0.43,0.859a98.641,98.641 0,0 0,-4.33 -2.041zM178.128,35.218l0.471,-0.836c1.404,0.792 2.79,1.617 4.154,2.475l-0.511,0.812a99.063,99.063 0,0 0,-4.114 -2.45zM186.254,40.332l0.55,-0.787c1.322,0.924 2.621,1.88 3.897,2.867l-0.587,0.759a99.457,99.457 0,0 0,-3.86 -2.84zM193.86,46.215l0.623,-0.73a100.657,100.657 0,0 1,3.6 3.227l-0.657,0.7a99.697,99.697 0,0 0,-3.566 -3.197zM200.796,52.735l0.69,-0.667c1.12,1.159 2.214,2.345 3.277,3.556l-0.72,0.633a99.714,99.714 0,0 0,-3.247 -3.522zM207.121,59.939l0.75,-0.597a100.464,100.464 0,0 1,2.921 3.855l-0.778,0.56a99.504,99.504 0,0 0,-2.893 -3.818zM212.73,67.727l0.804,-0.522a100.087,100.087 0,0 1,2.536 4.12l-0.83,0.483a99.126,99.126 0,0 0,-2.51 -4.08zM217.56,76.022l0.851,-0.442a99.658,99.658 0,0 1,2.124 4.345l-0.872,0.4a98.7,98.7 0,0 0,-2.103 -4.303zM221.564,84.748l0.89,-0.357a99.34,99.34 0,0 1,1.69 4.531l-0.906,0.314a98.38,98.38 0,0 0,-1.674 -4.488zM224.701,93.832l0.92,-0.269a99.32,99.32 0,0 1,1.241 4.676l-0.933,0.223a98.36,98.36 0,0 0,-1.228 -4.63zM226.936,103.176l0.943,-0.177a99.8,99.8 0,0 1,0.78 4.774l-0.951,0.131a98.84,98.84 0,0 0,-0.772 -4.728zM228.254,112.703l0.955,-0.085c0.143,1.603 0.248,3.212 0.314,4.827l-0.958,0.04c-0.066,-1.6 -0.17,-3.194 -0.311,-4.782zM203.016,121.62h0.96c0,1.63 -0.053,3.255 -0.158,4.872l-0.957,-0.062c0.103,-1.596 0.155,-3.2 0.155,-4.81zM202.395,131.219l0.951,0.124a74.234,74.234 0,0 1,-0.788 4.807l-0.941,-0.187c0.31,-1.57 0.57,-3.151 0.778,-4.744zM200.527,140.652l0.927,0.248a73.851,73.851 0,0 1,-1.413 4.662l-0.909,-0.309c0.515,-1.516 0.98,-3.05 1.395,-4.601zM197.424,149.784l0.887,0.368a74.049,74.049 0,0 1,-2.017 4.436l-0.86,-0.425a73.089,73.089 0,0 0,1.99 -4.379zM193.172,158.381l0.83,0.481a74.467,74.467 0,0 1,-2.577 4.135l-0.798,-0.535a73.507,73.507 0,0 0,2.545 -4.08zM187.804,166.391l0.76,0.586a74.81,74.81 0,0 1,-3.095 3.762l-0.72,-0.634a73.851,73.851 0,0 0,3.055 -3.714zM181.43,173.641l0.677,0.679a74.888,74.888 0,0 1,-3.56 3.327l-0.632,-0.722a73.927,73.927 0,0 0,3.515 -3.285zM174.225,179.951l0.584,0.76a74.66,74.66 0,0 1,-3.96 2.838l-0.533,-0.798a73.701,73.701 0,0 0,3.909 -2.8zM166.236,185.29l0.48,0.83a74.247,74.247 0,0 1,-4.296 2.298l-0.425,-0.861a73.287,73.287 0,0 0,4.241 -2.267zM157.595,189.55l0.367,0.886c-1.5,0.62 -3.022,1.191 -4.561,1.712l-0.308,-0.91a72.938,72.938 0,0 0,4.502 -1.689zM148.463,192.635l0.247,0.928c-1.568,0.416 -3.151,0.782 -4.748,1.095l-0.185,-0.941c1.576,-0.31 3.139,-0.67 4.686,-1.082zM138.996,194.492l0.122,0.952c-1.607,0.206 -3.224,0.36 -4.85,0.463l-0.06,-0.958c1.605,-0.1 3.202,-0.253 4.788,-0.457zM129.359,195.095l-0.003,0.96a75.515,75.515 0,0 1,-4.87 -0.17l0.065,-0.957c1.595,0.107 3.198,0.163 4.808,0.167zM119.762,194.45l-0.126,0.951a74.22,74.22 0,0 1,-4.808 -0.8l0.188,-0.941a73.26,73.26 0,0 0,4.746 0.79zM110.33,192.558l-0.25,0.927a73.85,73.85 0,0 1,-4.66 -1.426l0.31,-0.907a72.89,72.89 0,0 0,4.6 1.406zM101.208,189.434l-0.37,0.885a74.052,74.052 0,0 1,-4.43 -2.027l0.427,-0.86a73.093,73.093 0,0 0,4.373 2.002zM92.623,185.161l-0.483,0.83a74.472,74.472 0,0 1,-4.13 -2.59l0.537,-0.796c1.33,0.896 2.69,1.749 4.076,2.556zM84.627,179.774l-0.587,0.759a74.812,74.812 0,0 1,-3.754 -3.104l0.635,-0.72a73.853,73.853 0,0 0,3.706 3.065zM77.394,173.382l-0.681,0.676a74.883,74.883 0,0 1,-3.318 -3.567l0.724,-0.63a73.924,73.924 0,0 0,3.275 3.52zM71.114,166.178l-0.763,0.582a74.653,74.653 0,0 1,-2.83 -3.966l0.8,-0.532a73.693,73.693 0,0 0,2.793 3.916zM65.781,158.159l-0.832,0.478a74.238,74.238 0,0 1,-2.286 -4.302l0.861,-0.422a73.279,73.279 0,0 0,2.257 4.246zM61.543,149.506l-0.888,0.364a73.895,73.895 0,0 1,-1.7 -4.565l0.909,-0.306a72.935,72.935 0,0 0,1.679 4.507zM58.48,140.371l-0.928,0.244a73.961,73.961 0,0 1,-1.084 -4.75l0.942,-0.183c0.306,1.577 0.663,3.14 1.07,4.689zM56.646,130.896l-0.952,0.12a74.801,74.801 0,0 1,-0.45 -4.852l0.957,-0.057c0.097,1.605 0.245,3.202 0.445,4.789zM56.067,121.26l-0.96,-0.005c0.008,-1.63 0.069,-3.252 0.18,-4.867l0.958,0.066a74.523,74.523 0,0 0,-0.178 4.806zM56.735,111.662l-0.95,-0.129c0.218,-1.612 0.489,-3.214 0.811,-4.802l0.94,0.19a73.248,73.248 0,0 0,-0.8 4.741zM58.649,102.238l-0.925,-0.252c0.428,-1.57 0.907,-3.123 1.437,-4.658l0.907,0.313a72.892,72.892 0,0 0,-1.419 4.597zM61.798,93.12l-0.885,-0.372a74.063,74.063 0,0 1,2.038 -4.426l0.858,0.43a73.103,73.103 0,0 0,-2.011 4.368zM66.094,84.54l-0.828,-0.484a74.482,74.482 0,0 1,2.598 -4.12l0.795,0.537a73.523,73.523 0,0 0,-2.565 4.068zM71.497,76.564l-0.758,-0.588a74.817,74.817 0,0 1,3.115 -3.749l0.718,0.637a73.858,73.858 0,0 0,-3.075 3.7zM77.906,69.347l-0.674,-0.683a74.881,74.881 0,0 1,3.576 -3.31l0.629,0.725a73.922,73.922 0,0 0,-3.531 3.268zM85.125,63.084l-0.58,-0.764a74.645,74.645 0,0 1,3.972 -2.82l0.53,0.8a73.685,73.685 0,0 0,-3.922 2.784zM93.158,57.77l-0.476,-0.833a74.228,74.228 0,0 1,4.307 -2.276l0.42,0.863a73.268,73.268 0,0 0,-4.251 2.246zM101.822,53.552l-0.362,-0.888a73.888,73.888 0,0 1,4.57 -1.69l0.304,0.91a72.929,72.929 0,0 0,-4.512 1.668zM110.968,50.512l-0.242,-0.929a73.966,73.966 0,0 1,4.753 -1.072l0.18,0.943a73.006,73.006 0,0 0,-4.691 1.058zM120.444,48.702l-0.117,-0.952a74.825,74.825 0,0 1,4.852 -0.44l0.055,0.959a73.865,73.865 0,0 0,-4.79 0.433zM130.079,48.146l0.007,-0.96c1.628,0.013 3.25,0.077 4.864,0.193l-0.069,0.957a74.485,74.485 0,0 0,-4.802 -0.19zM139.677,48.838l0.131,-0.95a74.19,74.19 0,0 1,4.804 0.824l-0.193,0.94a73.23,73.23 0,0 0,-4.742 -0.814zM149.1,50.776l0.254,-0.925a73.85,73.85 0,0 1,4.65 1.448l-0.315,0.906a72.89,72.89 0,0 0,-4.59 -1.429zM158.208,53.947l0.374,-0.883a74.07,74.07 0,0 1,4.42 2.048l-0.432,0.857a73.11,73.11 0,0 0,-4.362 -2.022zM166.775,58.264l0.487,-0.827a74.49,74.49 0,0 1,4.115 2.61l-0.54,0.793a73.532,73.532 0,0 0,-4.062 -2.576zM174.743,63.69l0.59,-0.756c1.28,1 2.527,2.042 3.74,3.123l-0.64,0.716a73.864,73.864 0,0 0,-3.69 -3.083zM181.943,70.117l0.685,-0.672a74.883,74.883 0,0 1,3.3 3.583l-0.727,0.627a73.923,73.923 0,0 0,-3.257 -3.538zM188.185,77.347l0.765,-0.579a74.64,74.64 0,0 1,2.81 3.981l-0.8,0.528a73.682,73.682 0,0 0,-2.775 -3.93zM193.479,85.394l0.835,-0.474a74.223,74.223 0,0 1,2.265 4.313l-0.864,0.418a73.263,73.263 0,0 0,-2.236 -4.257zM197.674,94.064l0.89,-0.36c0.609,1.505 1.168,3.03 1.678,4.574l-0.911,0.3a72.927,72.927 0,0 0,-1.657 -4.514zM200.693,103.219l0.929,-0.24c0.405,1.571 0.759,3.157 1.06,4.756l-0.942,0.178a73.014,73.014 0,0 0,-1.047 -4.694zM202.48,112.703l0.953,-0.115c0.194,1.608 0.337,3.227 0.427,4.853l-0.958,0.053a73.889,73.889 0,0 0,-0.422 -4.79zM11.154,134.55a0.48,0.48 0,0 1,-0.03 0.959l-1.849,-0.057a0.48,0.48 0,1 1,0.03 -0.959l1.849,0.057zM9.485,131.173a0.48,0.48 0,0 1,0.655 0.7l-1.326,1.24a0.48,0.48 0,1 1,-0.655 -0.702l1.326,-1.238zM5.877,129.915a0.48,0.48 0,1 1,0.959 0.015l-0.028,1.808a0.48,0.48 0,1 1,-0.96 -0.015l0.029,-1.808zM2.451,131.499a0.48,0.48 0,1 1,0.686 -0.67l1.288,1.318a0.48,0.48 0,1 1,-0.686 0.67l-1.288,-1.318zM1.198,135a0.48,0.48 0,0 1,0.03 -0.96l1.848,0.058a0.48,0.48 0,0 1,-0.03 0.959l-1.848,-0.057zM2.866,138.377a0.48,0.48 0,1 1,-0.655 -0.701l1.327,-1.24a0.48,0.48 0,0 1,0.655 0.702l-1.327,1.239zM6.476,139.635a0.48,0.48 0,1 1,-0.96 -0.015l0.028,-1.807a0.48,0.48 0,1 1,0.96 0.014l-0.029,1.808zM9.9,138.05a0.48,0.48 0,1 1,-0.687 0.67l-1.287,-1.318a0.48,0.48 0,0 1,0.686 -0.67l1.288,1.318zM251.916,108.93a0.48,0.48 0,1 1,0.704 0.65l-0.812,0.88a0.48,0.48 0,0 1,-0.705 -0.65l0.813,-0.88zM248.127,110.373a0.48,0.48 0,0 1,0.65 -0.706l0.614,0.565a0.48,0.48 0,0 1,-0.65 0.706l-0.614,-0.565zM248.187,114.245a0.48,0.48 0,1 1,-0.706 -0.65l0.813,-0.88a0.48,0.48 0,0 1,0.705 0.65l-0.813,0.88zM251.974,112.803a0.48,0.48 0,1 1,-0.65 0.705l-0.613,-0.566a0.48,0.48 0,1 1,0.65 -0.705l0.613,0.566zM177.844,5.363a0.48,0.48 0,1 1,-0.026 0.96l-1.966,-0.054a0.48,0.48 0,1 1,0.026 -0.959l1.966,0.053zM172.264,1.087a0.48,0.48 0,1 1,0.96 0.017l-0.03,1.68a0.48,0.48 0,1 1,-0.96 -0.016l0.03,-1.68zM167.26,5.849a0.48,0.48 0,0 1,0.025 -0.959l1.966,0.052a0.48,0.48 0,0 1,-0.025 0.96l-1.966,-0.053zM172.84,10.125a0.48,0.48 0,0 1,-0.96 -0.017l0.03,-1.68a0.48,0.48 0,1 1,0.96 0.017l-0.03,1.68zM32.24,187.249c-1.414,0.423 -3.77,2.501 -4.576,4.966 -0.135,-2.29 -1.589,-5.167 -3.189,-5.582 1.952,-0.69 4.066,-3.226 4.628,-5.363 -0.101,2.24 1.932,5.492 3.137,5.979zM65.366,14.842c-1.091,0.193 -3.025,1.536 -3.838,3.301 0.097,-1.716 -0.737,-3.985 -1.892,-4.433 1.513,-0.345 3.307,-2.051 3.91,-3.594 -0.269,1.66 0.964,4.258 1.82,4.726zM209.966,27.307a2.638,2.638 0,1 1,0.114 -5.275,2.638 2.638,0 0,1 -0.114,5.275zM209.972,200.167a2.297,2.297 0,1 1,0.1 -4.592,2.297 2.297,0 0,1 -0.1,4.592zM19.273,62.317a1.422,1.422 0,1 1,0.062 -2.843,1.422 1.422,0 0,1 -0.062,2.843z" fill="#D1D9E0"/>
  <path d="M111.151,143.282l24.643,6.238a13.489,13.489 0,0 1,-9.95 5.93c-7.418,0.697 -13.995,-4.751 -14.693,-12.168zM169.726,98.718c1.691,2.035 2.962,4.432 3.825,6.972 0.88,2.542 1.31,5.242 1.354,7.944 0,1.352 -0.097,2.702 -0.271,4.04 -0.23,1.333 -0.496,2.655 -0.915,3.936 -0.809,2.563 -2.031,4.993 -3.697,7.062a0.206,0.206 0,0 1,-0.355 -0.198c0.868,-2.469 1.586,-4.904 2.069,-7.375 0.09,-0.623 0.212,-1.237 0.316,-1.854 0.07,-0.623 0.165,-1.241 0.218,-1.863 0.04,-0.623 0.121,-1.241 0.147,-1.864 0.01,-0.624 0.04,-1.247 0.037,-1.87 0.014,-2.493 -0.264,-4.983 -0.749,-7.455 -0.498,-2.473 -1.247,-4.91 -2.147,-7.378a0.098,0.098 0,0 1,0.168 -0.097zM179.253,99.582c1.634,1.882 2.864,4.113 3.72,6.482a24.377,24.377 0,0 1,1.444 7.427,24.556 24.556,0 0,1 -0.89,7.508c-0.677,2.426 -1.732,4.744 -3.219,6.742 -0.01,0.012 -0.028,0.015 -0.04,0.007a0.03,0.03 0,0 1,-0.01 -0.031c0.616,-2.405 1.132,-4.744 1.445,-7.096a41.204,41.204 0,0 0,-0.549 -14.03c-0.496,-2.318 -1.197,-4.605 -1.996,-6.953a0.057,0.057 0,0 1,0.035 -0.072,0.055 0.055,0 0,1 0.06,0.016zM92.168,111.59c-0.519,-2.58 -0.524,-5.276 -0.114,-7.91 0.398,-2.642 1.252,-5.218 2.438,-7.623 1.214,-2.391 2.767,-4.616 4.642,-6.52 1.861,-1.91 4.02,-3.53 6.402,-4.66a0.085,0.085 0,0 1,0.093 0.14c-1.938,1.76 -3.721,3.593 -5.298,5.578 -1.565,1.99 -2.95,4.103 -4.068,6.353 -1.15,2.236 -2.027,4.605 -2.694,7.049 -0.656,2.45 -1.06,4.978 -1.319,7.589a0.043,0.043 0,0 1,-0.046 0.037,0.043 0.043,0 0,1 -0.036,-0.033zM84.034,106.489c-0.49,-2.423 -0.499,-4.947 -0.143,-7.42a25.193,25.193 0,0 1,2.185 -7.161,26.028 26.028,0 0,1 4.12,-6.242c1.657,-1.86 3.573,-3.485 5.707,-4.713 -1.743,1.735 -3.343,3.545 -4.74,5.49a36.74,36.74 0,0 0,-3.581 6.164,38.128 38.128,0 0,0 -2.306,6.73c-0.571,2.318 -0.914,4.696 -1.16,7.148a0.042,0.042 0,0 1,-0.046 0.037,0.04 0.04,0 0,1 -0.036,-0.033z" fill="none"/>
</svg>
