<?xml version="1.0" ?>
<svg xmlns="http://www.w3.org/2000/svg" width="24" height="26" viewBox="0 0 24 26">
  <path d="M14.29,4.171c3.156,0.993 5.354,3.934 5.354,7.294v2.33c0,2.959 1.128,5.764 3.176,7.9 0.23,0.24 0.295,0.595 0.165,0.9 -0.13,0.307 -0.431,0.505 -0.764,0.505h-6.563c-0.384,1.692 -1.897,2.92 -3.658,2.92 -1.76,0 -3.274,-1.228 -3.658,-2.92L1.78,23.1c-0.333,0 -0.633,-0.199 -0.764,-0.504 -0.13,-0.306 -0.066,-0.66 0.165,-0.9 2.048,-2.137 3.176,-4.942 3.176,-7.902v-2.33c0,-3.359 2.198,-6.3 5.354,-7.293v-0.98C9.71,1.926 10.737,0.9 12,0.9c1.263,0 2.29,1.027 2.29,2.29v0.981zM12.63,3.191c0,-0.348 -0.283,-0.63 -0.63,-0.63 -0.347,0 -0.63,0.282 -0.63,0.63v0.655c0.21,-0.017 0.42,-0.026 0.63,-0.026 0.21,0 0.42,0.01 0.63,0.026L12.63,3.19zM12,24.36c0.842,0 1.59,-0.506 1.918,-1.261h-3.836c0.327,0.755 1.076,1.26 1.918,1.26zM3.55,21.44h16.9c-1.605,-2.222 -2.466,-4.88 -2.466,-7.646v-2.33c0,-3.299 -2.684,-5.983 -5.984,-5.983s-5.984,2.684 -5.984,5.984v2.33c0,2.765 -0.86,5.423 -2.466,7.645z" fill="#AAADCB"/>
</svg>
