<?xml version="1.0" ?>
<svg xmlns="http://www.w3.org/2000/svg" width="17" height="12" viewBox="0 0 17 12">
  <path d="M1.125,0.375L15.875,0.375A0.75,0.75 0,0 1,16.625 1.125L16.625,10.875A0.75,0.75 0,0 1,15.875 11.625L1.125,11.625A0.75,0.75 0,0 1,0.375 10.875L0.375,1.125A0.75,0.75 0,0 1,1.125 0.375z" fill="#00000000" stroke-width="0.75" stroke="#CF202E"/>
  <path d="M10.9219,7.75C12.1485,6.251 12.3707,4.3233 11.37,3.2321C10.9774,2.8052 10.4495,2.5643 9.8611,2.5L10.9219,7.75Z" fill="#CF202E" stroke-width="1" stroke="#00000000"/>
  <path d="M9.4722,6.5833l-0.5564,-2.7222l-1.388,2.7222z" fill="#CF202E" stroke-width="1" stroke="#00000000"/>
  <path d="M9.6743,7.75L6.877,7.75L6.1667,9.1671C7.172,9.7478 8.6118,9.5588 9.8611,8.6786L9.6743,7.75Z" fill="#CF202E" stroke-width="1" stroke="#00000000"/>
  <path d="M7.9167,2.8889C7.4096,3.1116 6.9104,3.4409 6.461,3.8765C5.1371,5.1567 4.6699,6.9226 5.237,8.1389L7.9167,2.8889Z" fill="#CF202E" stroke-width="1" stroke="#00000000"/>
</svg>
