<?xml version="1.0" ?>
<svg xmlns="http://www.w3.org/2000/svg" width="24" height="26" viewBox="0 0 24 26">
  <path d="M12.195,0.12c0.664,0 1.327,0.173 1.921,0.52l7.634,4.452a3.888,3.888 0,0 1,1.92 3.36v8.905a3.887,3.887 0,0 1,-1.92 3.36l-7.634,4.452a3.81,3.81 0,0 1,-3.841 0L2.64,20.717a3.888,3.888 0,0 1,-1.921 -3.36V8.452c0,-1.386 0.732,-2.667 1.92,-3.36L10.276,0.64a3.805,3.805 0,0 1,1.92 -0.52" fill="#2A317D"/>
  <path d="M9.538,16.913a0.587,0.587 0,0 1,-0.81 0.074,0.554 0.554,0 0,1 -0.078,-0.792l6.197,-7.288a0.587,0.587 0,0 1,0.811 -0.074,0.555 0.555,0 0,1 0.077,0.792l-6.197,7.288zM9.082,8.658c-1.306,0 -2.362,1.031 -2.362,2.306 0,1.27 1.056,2.306 2.362,2.306s2.362,-1.031 2.362,-2.306c0,-1.275 -1.056,-2.306 -2.362,-2.306zM9.087,11.92a0.968,0.968 0,0 1,-0.979 -0.956c0,-0.528 0.439,-0.956 0.98,-0.956 0.54,0 0.979,0.428 0.979,0.956a0.968,0.968 0,0 1,-0.98 0.956zM15.308,12.54c-1.305,0 -2.361,1.03 -2.361,2.305 0,1.276 1.056,2.307 2.361,2.307 1.306,0 2.362,-1.031 2.362,-2.307 0,-1.274 -1.056,-2.305 -2.362,-2.305zM15.308,15.802a0.968,0.968 0,0 1,-0.979 -0.957c0,-0.527 0.438,-0.955 0.98,-0.955 0.54,0 0.978,0.428 0.978,0.955a0.968,0.968 0,0 1,-0.979 0.957z" fill="#FFF"/>
</svg>
