<?xml version="1.0" ?>
<svg xmlns="http://www.w3.org/2000/svg" width="11" height="11" viewBox="0 0 11 11">
  <path d="M9.8158,0C10.4687,0 11,0.5312 11,1.1841L11,1.1841L11,5.3589C11,5.4443 10.9659,5.5263 10.9055,5.5867L10.9055,5.5867L5.8385,10.6541C5.6155,10.8771 5.3181,11 5.0012,11L5.0012,11L4.8666,10.9925C4.6007,10.9629 4.355,10.8453 4.1639,10.6542L4.1639,10.6542L0.3462,6.8363C-0.1154,6.3747 -0.1154,5.6235 0.3462,5.1617L0.3462,5.1617L5.4134,0.0944C5.4738,0.034 5.5558,0 5.6412,0L5.6412,0ZM8.1594,1.8279C7.889,1.8279 7.6347,1.9334 7.4434,2.1246C7.2522,2.3158 7.1468,2.5701 7.1468,2.8406C7.1468,3.1111 7.2522,3.3654 7.4434,3.5567C7.6347,3.748 7.889,3.8533 8.1594,3.8533C8.4298,3.8533 8.6841,3.748 8.8754,3.5567C9.0667,3.3654 9.172,3.1111 9.172,2.8406C9.172,2.5701 9.0667,2.3158 8.8755,2.1246C8.6842,1.9334 8.4299,1.8279 8.1594,1.8279Z" fill="#20BE79" stroke-width="1" stroke="#00000000"/>
</svg>
