<?xml version="1.0" ?>
<svg xmlns="http://www.w3.org/2000/svg" width="14" height="14" viewBox="0 0 14 14">
  <path d="M13.804,3.622L10.378,0.196c-0.225,-0.224 -0.587,-0.224 -0.811,0L6.143,3.622c-0.224,0.225 -0.224,0.587 0,0.811 0.225,0.225 0.587,0.225 0.811,0l2.44,-2.438v10.039c0,0.321 0.258,0.58 0.58,0.58 0.321,0 0.58,-0.259 0.58,-0.58V1.994l2.439,2.44c0.224,0.224 0.586,0.224 0.81,0 0.225,-0.223 0.225,-0.587 0,-0.812zM7.857,9.567c-0.225,-0.225 -0.587,-0.225 -0.811,0l-2.44,2.438V1.966c0,-0.321 -0.258,-0.58 -0.58,-0.58 -0.321,0 -0.58,0.259 -0.58,0.58v10.04l-2.439,-2.44c-0.224,-0.224 -0.586,-0.224 -0.81,0 -0.225,0.225 -0.225,0.587 0,0.812l3.425,3.426c0.225,0.224 0.587,0.224 0.811,0l3.426,-3.426c0.222,-0.225 0.222,-0.59 -0.002,-0.811z" fill="#949091"/>
</svg>
