<svg xmlns="http://www.w3.org/2000/svg" width="14" height="19.419" viewBox="0 0 14 19.419">
  <path id="Trazado_51260" data-name="Trazado 51260" d="M233.59-804.581a1.536,1.536,0,0,1-1.138-.456,1.557,1.557,0,0,1-.452-1.142V-817.66a1.55,1.55,0,0,1,.456-1.142,1.55,1.55,0,0,1,1.142-.456h1.9v-1.016a3.864,3.864,0,0,1,.97-2.6A3.181,3.181,0,0,1,239-824a3.382,3.382,0,0,1,2.488,1.012A3.382,3.382,0,0,1,242.5-820.5v1.242h1.9a1.55,1.55,0,0,1,1.142.456A1.55,1.55,0,0,1,246-817.66v11.481a1.549,1.549,0,0,1-.456,1.142,1.551,1.551,0,0,1-1.143.456Zm.008-.9h10.8a.664.664,0,0,0,.478-.217.664.664,0,0,0,.217-.478V-817.66a.664.664,0,0,0-.217-.478.664.664,0,0,0-.478-.217h-1.9v2.258a.44.44,0,0,1-.128.322.428.428,0,0,1-.318.129.448.448,0,0,1-.324-.129.43.43,0,0,1-.134-.322v-2.258H236.4v2.258a.44.44,0,0,1-.128.322.429.429,0,0,1-.318.129.448.448,0,0,1-.324-.129.43.43,0,0,1-.133-.322v-2.258h-1.9a.664.664,0,0,0-.478.217.664.664,0,0,0-.217.478v11.481a.664.664,0,0,0,.217.478A.664.664,0,0,0,233.6-805.484Zm2.805-13.774H241.6V-820.5a2.508,2.508,0,0,0-.751-1.848,2.519,2.519,0,0,0-1.852-.749,2.5,2.5,0,0,0-1.846.749,2.519,2.519,0,0,0-.745,1.848Zm-3.5,13.774v0Z" transform="translate(-232 824)"/>
</svg>
