<?xml version="1.0" ?>
<svg xmlns="http://www.w3.org/2000/svg" width="12" height="17" viewBox="0 0 12 17">
  <path d="M9.516,4.132H2.509L1.156,5.255c-0.398,0.33 -0.625,0.8 -0.625,1.294v8.91c0,0.545 0.478,0.986 1.069,0.986h8.825c0.591,0 1.07,-0.441 1.07,-0.985V6.549c0,-0.494 -0.228,-0.964 -0.626,-1.294L9.516,4.132z" fill="#FFF"/>
  <path d="M3.017,2.342c-0.143,0 -0.26,-0.107 -0.26,-0.238v-0.546c0,-0.132 0.117,-0.239 0.26,-0.239 0.143,0 0.26,0.107 0.26,0.24v0.545c0,0.131 -0.117,0.238 -0.26,0.238zM4.515,2.342c-0.143,0 -0.26,-0.107 -0.26,-0.238v-0.546c0,-0.132 0.117,-0.239 0.26,-0.239 0.143,0 0.26,0.107 0.26,0.24v0.545c0,0.131 -0.117,0.238 -0.26,0.238zM6.013,2.342c-0.144,0 -0.26,-0.107 -0.26,-0.238v-0.546c0,-0.132 0.116,-0.239 0.26,-0.239 0.143,0 0.259,0.107 0.259,0.24v0.545c0,0.131 -0.116,0.238 -0.26,0.238zM7.51,2.342c-0.143,0 -0.259,-0.107 -0.259,-0.238v-0.546c0,-0.132 0.116,-0.239 0.26,-0.239 0.143,0 0.259,0.107 0.259,0.24v0.545c0,0.131 -0.116,0.238 -0.26,0.238zM9.008,2.342c-0.143,0 -0.26,-0.107 -0.26,-0.238v-0.546c0,-0.132 0.117,-0.239 0.26,-0.239 0.144,0 0.26,0.107 0.26,0.24v0.545c0,0.131 -0.116,0.238 -0.26,0.238z" fill="#FFF"/>
  <path d="M8.592,9.866L6.947,9.866L6.947,8.351c0,-0.188 -0.165,-0.34 -0.37,-0.34h-1.13c-0.203,0 -0.369,0.152 -0.369,0.34v1.515L3.433,9.866c-0.204,0 -0.37,0.153 -0.37,0.34v1.042c0,0.188 0.166,0.34 0.37,0.34h1.645v1.516c0,0.188 0.166,0.34 0.37,0.34h1.13c0.204,0 0.37,-0.152 0.37,-0.34L6.948,11.59h1.644c0.204,0 0.37,-0.153 0.37,-0.34v-1.042c0,-0.188 -0.166,-0.34 -0.37,-0.34zM8.442,11.111L6.689,11.111c-0.143,0 -0.26,0.107 -0.26,0.239v1.617h-0.831L5.598,11.35c0,-0.132 -0.116,-0.24 -0.26,-0.24L3.583,11.11v-0.766h1.754c0.144,0 0.26,-0.107 0.26,-0.239L5.597,8.49h0.832v1.616c0,0.132 0.116,0.24 0.259,0.24h1.755v0.766z" fill="#434C54"/>
  <path d="M11.043,5.077L9.775,4.026L9.775,3.29L10,3.29c0.423,0 0.768,-0.317 0.768,-0.707L10.768,1.079c0,-0.39 -0.345,-0.707 -0.768,-0.707L2.026,0.372c-0.423,0 -0.767,0.317 -0.767,0.707v1.504c0,0.39 0.344,0.707 0.767,0.707h0.224v0.736L0.983,5.077A1.917,1.917 0,0 0,0.27 6.549v8.91c0,0.676 0.596,1.225 1.329,1.225h8.825c0.733,0 1.329,-0.55 1.329,-1.224L11.753,6.549c0,-0.56 -0.26,-1.097 -0.711,-1.472zM1.777,2.583L1.777,1.079c0,-0.126 0.112,-0.23 0.25,-0.23h7.972c0.137,0 0.25,0.104 0.25,0.23v1.504c0,0.126 -0.113,0.23 -0.25,0.23L2.026,2.813c-0.137,-0.001 -0.249,-0.104 -0.249,-0.23zM9.257,3.29v0.603L2.769,3.893L2.769,3.29h6.488zM11.235,15.46c0,0.411 -0.363,0.746 -0.81,0.746L1.6,16.206c-0.447,0 -0.81,-0.335 -0.81,-0.746L0.79,6.549c0,-0.426 0.197,-0.832 0.54,-1.117l1.279,-1.06h6.807l1.28,1.06c0.343,0.285 0.54,0.692 0.54,1.117v8.91z" fill="#434C54"/>
</svg>
