<svg xmlns="http://www.w3.org/2000/svg" width="16" height="11.535" viewBox="0 0 16 11.535">
  <path id="Trazado_51261" data-name="Trazado 51261" d="M152-726.683v8.9a1.284,1.284,0,0,1-.376.933,1.263,1.263,0,0,1-.941.384H137.317a1.27,1.27,0,0,1-.933-.384,1.27,1.27,0,0,1-.384-.933v-8.9a1.27,1.27,0,0,1,.384-.933,1.27,1.27,0,0,1,.933-.384h13.367a1.263,1.263,0,0,1,.941.384A1.284,1.284,0,0,1,152-726.683Zm-15.256,1.853h14.512v-1.853a.547.547,0,0,0-.179-.394.547.547,0,0,0-.394-.179H137.317a.547.547,0,0,0-.394.179.547.547,0,0,0-.179.394Zm0,1.846v5.2a.547.547,0,0,0,.179.394.547.547,0,0,0,.394.179h13.367a.547.547,0,0,0,.394-.179.547.547,0,0,0,.179-.394v-5.2Zm0,5.775v0Z" transform="translate(-136 728)"/>
</svg>
