<?xml version="1.0" ?>
<svg xmlns="http://www.w3.org/2000/svg" width="17" height="17" viewBox="0 0 17 17">
  <path d="M4.008,3.724l6.442,-1.759 -0.34,-0.69a0.908,0.908 0,0 0,-1.217 -0.41L3.126,3.725h0.882zM12.45,2.016c-0.08,0 -0.16,0.011 -0.24,0.033l-1.513,0.414 -4.622,1.261h7.533l-0.283,-1.038a0.906,0.906 0,0 0,-0.875 -0.67zM14.554,4.36H1.14a0.906,0.906 0,0 0,-0.91 0.907V15.377c0,0.501 0.406,0.908 0.907,0.908h13.414c0.5,0 0.907,-0.407 0.907,-0.908v-2.532h-5.384a1.544,1.544 0,0 1,-1.543 -1.542V9.285c0,-0.418 0.167,-0.797 0.437,-1.075a1.527,1.527 0,0 1,1.104 -0.466h5.386V5.267a0.905,0.905 0,0 0,-0.905 -0.908z" fill="#2A317D"/>
  <path d="M16.096,8.611a0.907,0.907 0,0 0,-0.611 -0.237h-5.41c-0.501,0 -0.908,0.406 -0.908,0.907v2.02c0,0.5 0.407,0.907 0.908,0.907h5.41a0.925,0.925 0,0 0,0.294 -0.049,0.904 0.904,0 0,0 0.613,-0.858v-2.02a0.904,0.904 0,0 0,-0.296 -0.67zM11.969,10.471c0,0.251 -0.203,0.454 -0.453,0.454h-0.302a0.454,0.454 0,0 1,-0.453 -0.453v-0.302a0.458,0.458 0,0 1,0.454 -0.454h0.301c0.25,0 0.453,0.204 0.453,0.454v0.302z" fill="#2A317D"/>
</svg>
