<?xml version="1.0" ?>
<svg xmlns="http://www.w3.org/2000/svg" width="24" height="24" viewBox="0 0 24 24">
  <path d="M11.949,0.888C5.586,0.888 0.435,6.038 0.435,12.402c0,6.363 5.15,11.514 11.514,11.514 6.363,0 11.514,-5.151 11.514,-11.514 0,-6.363 -5.15,-11.514 -11.514,-11.514zM11.949,22.704A10.294,10.294 0,0 1,1.647 12.402,10.294 10.294,0 0,1 11.949,2.1a10.294,10.294 0,0 1,10.302 10.302A10.294,10.294 0,0 1,11.95 22.704zM18.888,8.493a0.586,0.586 0,0 0,-0.849 0l-7.726,7.757 -3.242,-3.242c-0.243,-0.243 -0.637,-0.243 -0.849,0 -0.242,0.242 -0.242,0.636 0,0.848l3.667,3.667a0.598,0.598 0,0 0,0.424 0.181c0.151,0 0.303,-0.06 0.424,-0.181l8.15,-8.182a0.586,0.586 0,0 0,0 -0.848z" fill="#818386"/>
</svg>
