<?xml version="1.0" ?>
<svg xmlns="http://www.w3.org/2000/svg" width="96" height="96" viewBox="0 0 96 96">
  <path d="M48,48m-48,0a48,48 0,1 1,96 0a48,48 0,1 1,-96 0" fill="#FFF"/>
  <path d="M47.988,50.071c-11.935,0 -21.692,-9.75 -21.692,-21.675 0,-11.927 9.756,-21.676 21.692,-21.676 11.935,0 21.691,9.75 21.691,21.676 0,11.926 -9.756,21.675 -21.691,21.675zM85.214,67.392c0.284,0.568 0.19,1.231 -0.284,1.799 -0.757,1.325 -1.61,2.556 -2.557,3.786 -1.326,1.798 -2.842,3.408 -4.358,4.922a41.64,41.64 0,0 1,-4.357 3.786c-7.483,5.585 -16.482,8.519 -25.765,8.519 -9.283,0 -18.282,-2.934 -25.765,-8.519 -1.515,-1.23 -3.031,-2.46 -4.357,-3.786a35.98,35.98 0,0 1,-4.357 -4.922c-0.853,-1.136 -1.8,-2.46 -2.558,-3.786 -0.284,-0.568 -0.379,-1.23 -0.095,-1.799a23.293,23.293 0,0 1,2.179 -3.975A26.77,26.77 0,0 1,31.6 51.68c0.948,-0.19 1.99,0.095 2.748,0.663 3.978,2.934 8.714,4.448 13.64,4.448s9.662,-1.514 13.64,-4.448c0.758,-0.568 1.8,-0.758 2.747,-0.663 7.578,1.041 14.303,5.3 18.66,11.737 0.853,1.23 1.61,2.556 2.18,3.975z" fill="#D9D9D9"/>
</svg>
