<svg xmlns="http://www.w3.org/2000/svg" width="16" height="15.972" viewBox="0 0 16 15.972">
  <path id="Trazado_51264" data-name="Trazado 51264" d="M137.767-807.418v-.744h12.465v.744Zm0-15.227v-.744h12.465v.744ZM144-813.358a2.242,2.242,0,0,0,1.646-.68,2.242,2.242,0,0,0,.68-1.646,2.242,2.242,0,0,0-.68-1.646,2.242,2.242,0,0,0-1.646-.68,2.242,2.242,0,0,0-1.646.68,2.242,2.242,0,0,0-.68,1.646,2.242,2.242,0,0,0,.68,1.646A2.242,2.242,0,0,0,144-813.358Zm-6.683,3.721a1.276,1.276,0,0,1-.941-.376,1.278,1.278,0,0,1-.376-.942v-8.907a1.265,1.265,0,0,1,.376-.938,1.283,1.283,0,0,1,.941-.372h13.367a1.276,1.276,0,0,1,.941.376,1.278,1.278,0,0,1,.376.942v8.907a1.265,1.265,0,0,1-.376.938,1.283,1.283,0,0,1-.941.372Zm1.923-.744a7.519,7.519,0,0,1,2.334-1.414,7.013,7.013,0,0,1,2.426-.446,7.013,7.013,0,0,1,2.426.446,7.519,7.519,0,0,1,2.334,1.414h1.923a.547.547,0,0,0,.394-.179.547.547,0,0,0,.179-.394v-8.9a.547.547,0,0,0-.179-.394.547.547,0,0,0-.394-.179H137.317a.547.547,0,0,0-.394.179.547.547,0,0,0-.179.394v8.9a.547.547,0,0,0,.179.394.547.547,0,0,0,.394.179Zm1.249,0h7.023a6.045,6.045,0,0,0-1.676-.837A6.077,6.077,0,0,0,144-811.5a6.059,6.059,0,0,0-1.835.279A6.052,6.052,0,0,0,140.488-810.381ZM144-814.1a1.524,1.524,0,0,1-1.117-.464,1.524,1.524,0,0,1-.464-1.117,1.524,1.524,0,0,1,.464-1.117,1.524,1.524,0,0,1,1.117-.464,1.524,1.524,0,0,1,1.117.464,1.524,1.524,0,0,1,.464,1.117,1.524,1.524,0,0,1-.464,1.117A1.524,1.524,0,0,1,144-814.1ZM144-815.4Z" transform="translate(-136 823.39)"/>
</svg>
