<svg xmlns="http://www.w3.org/2000/svg" width="16" height="16" viewBox="0 0 16 16">
  <path id="Trazado_51259" data-name="Trazado 51259" d="M121.436-824a1.391,1.391,0,0,1-1.025-.411,1.391,1.391,0,0,1-.411-1.025v-8.683a1.391,1.391,0,0,1,.411-1.025,1.391,1.391,0,0,1,1.025-.411h4.786v-3.556a.858.858,0,0,1,.257-.631.858.858,0,0,1,.632-.257h1.778a.858.858,0,0,1,.632.257.858.858,0,0,1,.257.631v3.556h4.786a1.391,1.391,0,0,1,1.025.411A1.391,1.391,0,0,1,136-834.12v8.683a1.391,1.391,0,0,1-.411,1.025,1.391,1.391,0,0,1-1.025.411Zm0-.889h13.128a.533.533,0,0,0,.393-.154.533.533,0,0,0,.154-.393v-8.683a.533.533,0,0,0-.154-.393.533.533,0,0,0-.393-.154h-4.786v.684a.854.854,0,0,1-.266.623.853.853,0,0,1-.623.266h-1.778a.853.853,0,0,1-.623-.266.854.854,0,0,1-.266-.623v-.684h-4.786a.533.533,0,0,0-.393.154.533.533,0,0,0-.154.393v8.683a.533.533,0,0,0,.154.393A.533.533,0,0,0,121.436-824.889Zm1.5-2.291h4.786v-.126a1,1,0,0,0-.168-.563,1.146,1.146,0,0,0-.461-.4,4.579,4.579,0,0,0-.866-.274,4.391,4.391,0,0,0-.9-.091,4.391,4.391,0,0,0-.9.091,4.579,4.579,0,0,0-.866.274,1.146,1.146,0,0,0-.461.4,1,1,0,0,0-.168.563Zm6.838-1.368h3.556v-.786h-3.556Zm-4.444-.786a1.02,1.02,0,0,0,.748-.312,1.02,1.02,0,0,0,.312-.748,1.02,1.02,0,0,0-.312-.748,1.02,1.02,0,0,0-.748-.312,1.02,1.02,0,0,0-.748.312,1.02,1.02,0,0,0-.312.748,1.02,1.02,0,0,0,.312.748A1.02,1.02,0,0,0,125.333-829.333Zm4.444-1.333h3.556v-.786h-3.556Zm-2.667-3.316h1.778v-5.128h-1.778ZM128-829.778Z" transform="translate(-120 840)"/>
</svg>
