<?xml version="1.0" ?>
<svg xmlns="http://www.w3.org/2000/svg" width="39" height="40" viewBox="0 0 39 40">
  <path d="M2.12,0.64L36.68,0.64A1.92,1.92 0,0 1,38.6 2.56L38.6,37.12A1.92,1.92 0,0 1,36.68 39.04L2.12,39.04A1.92,1.92 0,0 1,0.2 37.12L0.2,2.56A1.92,1.92 0,0 1,2.12 0.64z" fill="#F9F9FD"/>
  <path d="M12.304,13.704L12.304,11.2h1.67v2.504h2.504v1.67L13.974,15.374v2.504h-1.67L12.304,15.374L9.8,15.374v-1.67h2.504zM14.809,18.713L14.809,16.209h2.504L17.313,13.704h5.844l1.527,1.67h2.646c0.919,0 1.67,0.751 1.67,1.67L29,27.06c0,0.918 -0.751,1.67 -1.67,1.67L13.974,28.73c-0.918,0 -1.67,-0.752 -1.67,-1.67v-8.348L14.81,18.712zM20.652,26.226a4.175,4.175 0,0 0,4.174 -4.174,4.175 4.175,0 0,0 -4.174,-4.174 4.175,4.175 0,0 0,-4.174 4.174,4.175 4.175,0 0,0 4.174,4.174zM17.981,22.052a2.668,2.668 0,0 0,2.671 2.671,2.668 2.668,0 0,0 2.671,-2.67 2.668,2.668 0,0 0,-2.67 -2.672,2.668 2.668,0 0,0 -2.672,2.671z" fill="#D9D9D9"/>
</svg>
