<?xml version="1.0" ?>
<svg xmlns="http://www.w3.org/2000/svg" width="64" height="64" viewBox="0 0 64 64">
  <g>
    <path d="M41.842,38.618c4.73,-5.834 5.588,-13.336 1.728,-17.583 -1.514,-1.662 -3.55,-2.599 -5.82,-2.85l4.092,20.433zM36.25,34.078L34.104,23.483 28.75,34.078zM37.03,38.618L26.24,38.618L23.5,44.133c3.878,2.26 9.431,1.525 14.25,-1.9l-0.72,-3.615zM30.25,19.7c-1.956,0.866 -3.881,2.148 -5.615,3.843C19.53,28.525 17.727,35.398 19.915,40.132L30.25,19.699z" fill="#F6737E"/>
  </g>
  <path d="M12,0L52,0A12,12 0,0 1,64 12L64,52A12,12 0,0 1,52 64L12,64A12,12 0,0 1,0 52L0,12A12,12 0,0 1,12 0z" fill="#FFF"/>
</svg>
