<?xml version="1.0" ?>
<svg xmlns="http://www.w3.org/2000/svg" width="14" height="17" viewBox="0 0 14 17">
  <path d="M7.046,1.085c3.367,0.033 6.362,3.095 6.11,6.846 -0.205,3.068 -2.174,5.925 -4.84,7.5 -0.563,0.332 -1.148,0.643 -1.814,0.393 -0.734,-0.276 -1.387,-0.75 -2.001,-1.262C2.129,12.584 0.402,9.534 0.92,6.343c0.467,-2.868 3.027,-5.209 6.006,-5.257h0.12zM6.96,1.549c-3.099,0.03 -5.886,2.808 -5.662,6.312 0.198,3.086 2.316,5.982 4.96,7.354 0.343,0.179 0.705,0.332 1.134,0.163 0.686,-0.27 1.3,-0.716 1.877,-1.198 2.127,-1.781 3.65,-4.473 3.423,-7.29 -0.23,-2.834 -2.669,-5.293 -5.621,-5.34l-0.11,-0.001zM7.009,4.098c1.37,0.013 2.663,1.083 2.917,2.469 0.246,1.34 -0.528,2.804 -1.774,3.338 -1.387,0.593 -3.176,-0.073 -3.847,-1.459 -0.692,-1.43 -0.037,-3.376 1.423,-4.066 0.399,-0.189 0.838,-0.284 1.28,-0.282zM6.996,4.561c-1.168,0.011 -2.258,0.923 -2.472,2.088 -0.21,1.145 0.462,2.394 1.532,2.836 1.182,0.489 2.69,-0.094 3.243,-1.273 0.716,-1.524 -0.431,-3.657 -2.303,-3.651z" fill="#002753" stroke-width=".5" stroke="#999"/>
</svg>
