<?xml version="1.0" ?>
<svg xmlns="http://www.w3.org/2000/svg" width="332" height="158" viewBox="0 0 332 158">
  <path d="M10,0L321.2,0A10,10 0,0 1,331.2 10L331.2,147.44A10,10 0,0 1,321.2 157.44L10,157.44A10,10 0,0 1,0 147.44L0,10A10,10 0,0 1,10 0z" fill="#FFF"/>
  <path d="M199.958,104.962L199.958,48.99c0,-4.398 -3.598,-7.996 -7.996,-7.996L135.99,40.994c-4.398,0 -7.996,3.598 -7.996,7.996v55.972c0,4.398 3.598,7.996 7.996,7.996h55.972c4.398,0 7.996,-3.598 7.996,-7.996zM149.983,82.973l9.995,12.034 13.993,-18.031 17.991,23.988L135.99,100.964l13.993,-17.991z" fill="#D9D9D9"/>
</svg>
