<?xml version="1.0" ?>
<svg xmlns="http://www.w3.org/2000/svg" width="14" height="13" viewBox="0 0 14 13">
  <path d="M0.84,10.795v-8.95C0.84,0.87 1.63,0.08 2.605,0.08h8.95c0.974,0 1.765,0.79 1.765,1.765v8.95c0,0.974 -0.79,1.765 -1.765,1.765h-8.95c-0.974,0 -1.765,-0.79 -1.765,-1.765zM7.557,10.6v-0.894L7.16,9.706l0.818,-1.128 0.863,1.128h-0.38v0.894h2.58v-0.93h-0.621L8.99,7.82l1.295,-1.793h0.594v-0.93L8.776,5.097v0.879h0.33L8.362,7 6.853,5.072l0.178,-0.024c0.636,-0.288 0.954,-0.744 0.954,-1.37 0,-0.398 -0.138,-0.754 -0.414,-1.07 -0.275,-0.315 -0.726,-0.472 -1.351,-0.472L3.07,2.136v0.93h0.586v3.643L3.07,6.709v0.93h2.538v-0.93h-0.52L5.088,5.23h0.298l0.616,0.797h-0.006l1.342,1.749L5.996,9.67h-0.642v0.93h2.203zM5.089,4.351L5.089,3.065h0.62c0.243,0 0.434,0.053 0.573,0.159 0.138,0.105 0.207,0.265 0.207,0.479 0,0.432 -0.303,0.648 -0.91,0.648h-0.49z" fill="#464749"/>
</svg>
