<?xml version="1.0" ?>
<svg xmlns="http://www.w3.org/2000/svg" width="126" height="125" viewBox="0 0 126 125">
  <path d="M63.119,62.335m-62.275,0a62.275,62.275 0,1 1,124.55 0a62.275,62.275 0,1 1,-124.55 0" fill="#F7F7F7"/>
  <path d="M89.825,84.055v-50.55a0.869,0.869 0,0 0,-0.866 -0.87L47.317,32.635a0.869,0.869 0,0 0,-0.867 0.87v51.159c0,0.481 0.388,0.871 0.867,0.871h28.632c0.018,0.164 0.045,0.326 0.075,0.487 0.48,3.4 3.386,6.014 6.9,6.014 3.849,0 6.97,-3.138 6.97,-7.01 0,-0.329 -0.025,-0.653 -0.069,-0.971z" fill="#EEE"/>
  <path d="M89.825,84.055v-50.55a0.869,0.869 0,0 0,-0.866 -0.87h-3.96c0.478,0 0.866,0.39 0.866,0.87v50.55a7.005,7.005 0,0 1,-4.923 7.693,6.921 6.921,0 0,0 1.981,0.288c3.85,0 6.97,-3.138 6.97,-7.01 0,-0.329 -0.024,-0.653 -0.068,-0.971z" fill="#E0E0E0"/>
  <path d="M71.789,52.51l2.418,-2.678a0.874,0.874 0,0 0,-0.06 -1.23,0.863 0.863,0 0,0 -1.224,0.06l-2.303,2.552 -3.2,-3.544a3.775,3.775 0,0 0,1.922 -3.29c0,-2.079 -1.682,-3.77 -3.749,-3.77h-2.883a0.869,0.869 0,0 0,-0.866 0.87v10.156c0,0.481 0.388,0.871 0.866,0.871 0.479,0 0.866,-0.39 0.866,-0.87L63.576,48.15h1.938l3.936,4.36 -2.399,2.658a0.875,0.875 0,0 0,0.06 1.23,0.86 0.86,0 0,0 1.223,-0.06l2.286,-2.531 2.285,2.532a0.862,0.862 0,0 0,1.224 0.06,0.874 0.874,0 0,0 0.059,-1.23l-2.399,-2.659zM63.577,42.352h2.016c1.112,0 2.017,0.91 2.017,2.027a2.024,2.024 0,0 1,-2.017 2.028h-2.016v-4.055z" fill="#212121"/>
  <path d="M83.028,73.049L52.435,73.049a0.869,0.869 0,0 1,-0.866 -0.871c0,-0.481 0.388,-0.871 0.866,-0.871h30.593c0.478,0 0.866,0.39 0.866,0.871 0,0.48 -0.388,0.871 -0.866,0.871zM83.028,68.064L52.435,68.064a0.869,0.869 0,0 1,-0.866 -0.871c0,-0.481 0.388,-0.871 0.866,-0.871h30.593c0.478,0 0.866,0.39 0.866,0.87 0,0.482 -0.388,0.872 -0.866,0.872zM83.028,63.079L52.435,63.079a0.869,0.869 0,0 1,-0.866 -0.871c0,-0.481 0.388,-0.871 0.866,-0.871h30.593c0.478,0 0.866,0.39 0.866,0.87a0.868,0.868 0,0 1,-0.866 0.872zM70.74,78.034L52.435,78.034a0.869,0.869 0,0 1,-0.866 -0.87c0,-0.482 0.388,-0.872 0.866,-0.872h18.305c0.479,0 0.866,0.39 0.866,0.871s-0.387,0.871 -0.866,0.871z" fill="#616161"/>
  <path d="M75.953,85.027c0,-0.422 0.038,-0.833 0.11,-1.234L37.159,83.793a0.869,0.869 0,0 0,-0.866 0.87c0,4.03 3.26,7.309 7.268,7.309h38.429c-3.408,-0.46 -6.037,-3.392 -6.037,-6.945z" fill="#E0E0E0"/>
  <path d="M43.561,91.972h38.429a6.981,6.981 0,0 1,-5.396 -4.007L37.08,87.965c1.201,2.375 3.654,4.007 6.48,4.007z" fill="#BDBDBD"/>
</svg>
