<svg xmlns="http://www.w3.org/2000/svg" width="14" height="19.289" viewBox="0 0 14 19.289">
  <path id="Trazado_51262" data-name="Trazado 51262" d="M239-801.631a9.253,9.253,0,0,1-5.159-4.136A12.372,12.372,0,0,1,232-812.285v-5.682l7-2.953,7,2.953v5.682a14.707,14.707,0,0,1-.393,3.259,10.063,10.063,0,0,1-1.494,3.37L240.8-808.97a2.436,2.436,0,0,1-.84.47,3.232,3.232,0,0,1-.964.138,2.832,2.832,0,0,1-2.082-.854,2.832,2.832,0,0,1-.854-2.082,2.832,2.832,0,0,1,.854-2.082,2.833,2.833,0,0,1,2.082-.854,2.833,2.833,0,0,1,2.082.854,2.832,2.832,0,0,1,.854,2.082,2.756,2.756,0,0,1-.141.885,3.417,3.417,0,0,1-.38.784l2.377,2.377a15.9,15.9,0,0,0,.936-2.4,9.147,9.147,0,0,0,.369-2.636v-5.109l-6.1-2.519-6.1,2.519v5.109a11.4,11.4,0,0,0,1.595,5.744,8.977,8.977,0,0,0,4.5,3.966,5.627,5.627,0,0,0,1.454-.706,9.891,9.891,0,0,0,1.256-1.016l.571.73a18.024,18.024,0,0,1-1.554,1.146A6.975,6.975,0,0,1,239-801.631Zm.006-7.634a1.943,1.943,0,0,0,1.434-.6,1.973,1.973,0,0,0,.593-1.44,1.943,1.943,0,0,0-.6-1.434,1.973,1.973,0,0,0-1.439-.593,1.943,1.943,0,0,0-1.434.6,1.973,1.973,0,0,0-.593,1.44,1.943,1.943,0,0,0,.6,1.434A1.973,1.973,0,0,0,239.006-809.265ZM238.826-811.341Z" transform="translate(-232 820.92)"/>
</svg>
