<?xml version="1.0" ?>
<svg xmlns="http://www.w3.org/2000/svg" width="86" height="86" viewBox="0 0 86 86">
  <path d="M0,0h86v86H0z" fill="#FFF"/>
  <path d="M21.624,30.184c4.124,-5.695 9.97,-10.285 16.298,-13.133l-21.92,42.9c-3.929,-8.345 -2.086,-19.134 5.622,-29.767zM64.295,17.835c10.112,8.07 9.759,21.819 -0.886,36.878l-9.487,-40.746c4.045,0.345 7.602,1.658 10.373,3.868zM33.344,71.108c-4.3,0 -7.95,-1.03 -10.553,-2.979l-0.007,-0.006 5.373,-11.325h23.59l1.252,7.994c-6.56,4.303 -13.847,6.316 -19.655,6.316zM50.434,47.75L33.23,47.75l12.04,-24.487 5.165,24.487z" fill="#F6737E"/>
</svg>
