<?xml version="1.0" ?>
<svg xmlns="http://www.w3.org/2000/svg" width="84" height="84" viewBox="0 0 84 84">
  <path d="M7.636,0L76.364,0A7.636,7.636 0,0 1,84 7.636L84,76.364A7.636,7.636 0,0 1,76.364 84L7.636,84A7.636,7.636 0,0 1,0 76.364L0,7.636A7.636,7.636 0,0 1,7.636 0z" fill="#FFF"/>
  <path d="M53.226,49.564c5.431,-6.668 6.416,-15.242 1.984,-20.095 -1.739,-1.9 -4.076,-2.97 -6.682,-3.257l4.698,23.352zM46.806,44.375L44.341,32.266 38.194,44.375zM47.7,49.564L35.313,49.564l-3.146,6.303c4.452,2.583 10.828,1.742 16.36,-2.173l-0.827,-4.13zM39.917,27.942c-2.246,0.99 -4.457,2.456 -6.447,4.393 -5.863,5.694 -7.932,13.549 -5.42,18.958l11.867,-23.35z" fill="#F6737E"/>
</svg>
