<?xml version="1.0" ?>
<svg xmlns="http://www.w3.org/2000/svg" width="83" height="83" viewBox="0 0 83 83">
  <path d="M0,0h83v83H0z" fill="#FFF"/>
  <path d="M21.116,30.039c3.85,-5.316 9.305,-9.6 15.211,-12.258L15.87,57.821c-3.667,-7.789 -1.948,-17.859 5.247,-27.782zM60.942,18.513c9.438,7.531 9.108,20.364 -0.826,34.419l-8.855,-38.03c3.774,0.322 7.095,1.548 9.681,3.611zM32.054,68.234c-4.013,0 -7.42,-0.962 -9.849,-2.78l-0.006,-0.005 5.014,-10.57L49.23,54.879l1.17,7.46c-6.124,4.016 -12.925,5.895 -18.346,5.895zM48.006,46.434L31.948,46.434l11.237,-22.855 4.82,22.855z" fill="#F6737E"/>
</svg>
