<?xml version="1.0" ?>
<svg xmlns="http://www.w3.org/2000/svg" width="22" height="21" viewBox="0 0 22 21">
  <path d="M5.8308,20.7936C5.5114,20.9861 5.129,21.0469 4.7652,20.963C3.9954,20.7853 3.5163,20.021 3.695,19.2559L5.0692,13.3729L0.4915,9.4124C0.2112,9.1698 0.0368,8.8284 0.0053,8.4604C-0.0619,7.6777 0.522,6.9892 1.3094,6.9225L7.3295,6.4124L9.6816,0.8699C9.8266,0.5282 10.1002,0.2563 10.4439,0.1122C11.172,-0.1931 12.0113,0.1461 12.3184,0.8699L14.6705,6.4124L20.6906,6.9225C21.0609,6.9539 21.4044,7.1272 21.6484,7.4058C22.1672,7.9983 22.1046,8.8966 21.5085,9.4124L16.9309,13.3729L18.3051,19.2559C18.3895,19.6175 18.3284,19.9976 18.1347,20.3151C17.7249,20.9867 16.845,21.2009 16.1693,20.7936L11,17.6777L5.8308,20.7936ZM11,15.607L16.3818,18.851L14.9535,12.7363L19.715,8.6168L13.4474,8.0857L11,2.3188L8.5527,8.0857L2.2851,8.6168L7.0466,12.7363L5.6183,18.851L11,15.607Z" fill="#AAADCB" stroke-width="1" stroke="#00000000"/>
</svg>
