<?xml version="1.0" ?>
<svg xmlns="http://www.w3.org/2000/svg" width="26" height="27" viewBox="0 0 26 27">
  <path d="M16.175,8.83m-5.9058,5.9058a8.352,8.352 90,1 1,11.8115 -11.8115a8.352,8.352 90,1 1,-11.8115 11.8115" fill="#FFD400"/>
  <path d="M16.179,0.479l-0.093,0.001v16.7h0.092c4.608,0 8.356,-3.745 8.356,-8.35 0,-4.605 -3.748,-8.351 -8.356,-8.351z" fill="#FBBE00"/>
  <path d="M18.479,9.585c-0.412,-0.903 -1.396,-1.254 -2.046,-1.486 -0.411,-0.147 -1.032,-0.369 -1.18,-0.691 -0.124,-0.272 -0.027,-0.623 0.222,-0.798 0.31,-0.219 0.875,-0.239 1.289,-0.047 0.194,0.09 0.318,0.222 0.39,0.413 0.145,0.39 0.581,0.59 0.973,0.444 0.391,-0.146 0.59,-0.582 0.444,-0.973 -0.21,-0.563 -0.614,-0.997 -1.168,-1.255 -0.151,-0.07 -0.308,-0.127 -0.468,-0.17v-0.419c0,-0.417 -0.339,-0.756 -0.757,-0.756s-0.757,0.339 -0.757,0.756v0.401c-0.298,0.076 -0.577,0.2 -0.82,0.37 -0.837,0.592 -1.148,1.736 -0.724,2.663 0.413,0.903 1.396,1.254 2.046,1.486 0.412,0.147 1.033,0.369 1.18,0.691 0.125,0.272 0.027,0.622 -0.221,0.798 -0.31,0.218 -0.876,0.239 -1.29,0.047 -0.196,-0.092 -0.317,-0.22 -0.389,-0.413 -0.146,-0.391 -0.582,-0.59 -0.973,-0.444 -0.392,0.146 -0.59,0.582 -0.445,0.973 0.21,0.563 0.615,0.997 1.169,1.255 0.15,0.07 0.308,0.127 0.467,0.17v0.456c0,0.418 0.34,0.757 0.757,0.757 0.418,0 0.757,-0.34 0.757,-0.757v-0.438c0.298,-0.076 0.578,-0.2 0.82,-0.37 0.837,-0.592 1.149,-1.736 0.725,-2.663z" fill="#FA8E00"/>
  <path d="M16.764,6.563c0.194,0.09 0.318,0.222 0.39,0.413 0.145,0.39 0.581,0.59 0.973,0.444 0.391,-0.146 0.59,-0.582 0.444,-0.973 -0.21,-0.563 -0.614,-0.997 -1.168,-1.255 -0.151,-0.07 -0.308,-0.127 -0.468,-0.17v-0.419c0,-0.417 -0.339,-0.756 -0.757,-0.756 -0.031,0 -0.062,0.003 -0.092,0.006v2.58c0.23,-0.008 0.473,0.035 0.678,0.13zM18.479,9.585c-0.412,-0.903 -1.396,-1.254 -2.046,-1.486 -0.106,-0.038 -0.225,-0.08 -0.347,-0.129v1.612c0.396,0.145 0.888,0.35 1.017,0.632 0.125,0.272 0.027,0.622 -0.221,0.798 -0.197,0.139 -0.497,0.197 -0.796,0.172v2.622c0.03,0.004 0.06,0.007 0.092,0.007 0.418,0 0.757,-0.339 0.757,-0.757v-0.438c0.298,-0.076 0.578,-0.2 0.82,-0.37 0.837,-0.592 1.149,-1.736 0.725,-2.663z" fill="#FF6319"/>
  <path d="M25.246,21.877l-8.947,4.534c-1.203,0.764 -2.732,0.75 -3.915,-0.01 -0.555,-0.358 -0.73,-0.393 -3.65,-1.836 -1.297,-0.634 -2.48,-0.836 -4.406,-1.074v-5.6h6.39c0.396,0 0.777,0.157 1.057,0.437L14.65,21.2c0.263,0.263 0.393,0.613 0.383,0.96l0.062,-0.042 9.378,-2.36c1.243,-0.157 1.8,1.468 0.774,2.119z" fill="#F2BB88"/>
  <path d="M14.685,22.996c-0.493,0.51 -1.304,0.517 -1.807,0.016l-2.39,-2.39c-0.128,-0.127 -0.3,-0.198 -0.481,-0.198h-5.68L4.327,17.89h6.39c0.398,0 0.778,0.158 1.058,0.438L14.65,21.2c0.488,0.487 0.523,1.292 0.036,1.796z" fill="#F2D1A5"/>
  <path d="M4.648,17.735v6.924c0,0.099 -0.01,0.196 -0.027,0.29 -0.137,0.732 -0.784,1.291 -1.555,1.291L1.582,26.24C0.712,26.24 0,25.53 0,24.66v-6.925c0,-0.775 0.565,-1.424 1.304,-1.556 0.09,-0.017 0.183,-0.025 0.278,-0.025h1.484c0.87,0 1.582,0.711 1.582,1.58z" fill="#D1CED3"/>
  <path d="M4.62,24.949c-0.136,0.732 -0.783,1.292 -1.554,1.292L1.582,26.241C0.712,26.24 0,25.529 0,24.66v-6.925c0,-0.775 0.565,-1.424 1.304,-1.556 -0.039,0.205 -0.027,-0.263 -0.027,7.213 0,0.87 0.712,1.582 1.582,1.582 1.63,0 1.58,0.008 1.761,-0.025z" fill="#C2BDC5"/>
</svg>
