<?xml version="1.0" ?>
<svg xmlns="http://www.w3.org/2000/svg" width="18" height="18" viewBox="0 0 18 18">
  <path d="M9.01,16.267c-3.795,0 -6.882,-3.077 -6.882,-6.858 0,-3.782 3.087,-6.86 6.883,-6.86 3.795,0 6.883,3.078 6.883,6.86 0,3.781 -3.088,6.858 -6.883,6.858z" fill="#CF202E"/>
  <path d="M16.665,6.27c0.401,0.967 0.623,2.028 0.623,3.139 0,2.23 -0.893,4.256 -2.341,5.742l1.35,1.632c0.263,0.316 0.218,0.785 -0.1,1.047 -0.136,0.111 -0.303,0.17 -0.475,0.17 -0.222,0 -0.433,-0.097 -0.576,-0.27l-1.331,-1.609c-1.356,0.966 -3.015,1.535 -4.804,1.535 -1.79,0 -3.449,-0.569 -4.804,-1.534l-1.33,1.608c-0.145,0.173 -0.356,0.27 -0.577,0.27 -0.172,0 -0.34,-0.059 -0.475,-0.17 -0.318,-0.262 -0.363,-0.73 -0.1,-1.047l1.35,-1.632C1.627,13.665 0.734,11.639 0.734,9.409c0,-1.108 0.22,-2.165 0.619,-3.13C0.506,5.613 0,4.602 0,3.516 0,1.577 1.584,0 3.53,0c1.185,0 2.275,0.598 2.924,1.564 0.805,-0.262 1.665,-0.403 2.557,-0.403 0.883,0 1.733,0.138 2.532,0.395C12.185,0.593 13.27,0 14.47,0 16.417,0 18,1.578 18,3.517c0,1.081 -0.5,2.09 -1.335,2.752zM15.948,4.914c0.357,-0.37 0.559,-0.86 0.559,-1.397 0,-1.119 -0.914,-2.03 -2.037,-2.03 -0.593,0 -1.138,0.252 -1.513,0.673 1.211,0.657 2.24,1.608 2.991,2.754zM2.068,4.922c0.747,-1.143 1.77,-2.092 2.975,-2.75 -0.38,-0.428 -0.927,-0.684 -1.513,-0.684 -1.123,0 -2.037,0.91 -2.037,2.03 0,0.529 0.211,1.029 0.575,1.404zM9.011,16.168c3.74,0 6.784,-3.032 6.784,-6.76 0,-3.727 -3.044,-6.76 -6.784,-6.76 -3.74,0 -6.784,3.033 -6.784,6.76 0,3.728 3.043,6.76 6.784,6.76zM12.161,8.901c0.412,0 0.747,0.333 0.747,0.744s-0.334,0.744 -0.747,0.744L8.924,10.389c-0.412,0 -0.746,-0.333 -0.746,-0.744v-4.45c0,-0.411 0.334,-0.744 0.746,-0.744 0.413,0 0.747,0.333 0.747,0.743v3.707h2.49z" fill="#CF202E"/>
</svg>
