<?xml version="1.0" ?>
<svg xmlns="http://www.w3.org/2000/svg" width="20" height="20" viewBox="0 0 20 20">
  <path d="M9.82,1.089c1.508,0 3.02,0.43 4.37,1.246a9.475,9.475 0,0 1,2.28 1.93l-2.256,-0.074a0.481,0.481 0,0 0,-0.496 0.466,0.481 0.481,0 0,0 0.464,0.499l3.12,0.104c0.18,0.074 0.386,0.032 0.523,-0.106a0.485,0.485 0,0 0,0.104 -0.526l-0.103,-3.138a0.482,0.482 0,0 0,-0.49 -0.472,0.482 0.482,0 0,0 -0.47,0.504l0.06,1.81a10.483,10.483 0,0 0,-2.242 -1.825C13.184,0.602 11.502,0.123 9.82,0.123c-2.688,0 -5.167,1.115 -6.978,3.14C1.238,5.056 0.28,7.47 0.28,9.72c0,0.267 0.215,0.483 0.48,0.483s0.48,-0.216 0.48,-0.483c0,-2.018 0.866,-4.19 2.316,-5.811 1.627,-1.818 3.851,-2.82 6.264,-2.82zM19,9.238a0.481,0.481 0,0 0,-0.48 0.482c0,2.018 -0.866,4.191 -2.316,5.812 -1.627,1.818 -3.851,2.82 -6.264,2.82 -1.508,0 -3.02,-0.43 -4.37,-1.246a9.482,9.482 0,0 1,-2.28 -1.93l2.256,0.074c0.265,0.009 0.487,-0.2 0.496,-0.467a0.482,0.482 0,0 0,-0.464 -0.498l-3.12,-0.104a0.478,0.478 0,0 0,-0.523 0.106,0.485 0.485,0 0,0 -0.104,0.525l0.103,3.14a0.482,0.482 0,0 0,0.49 0.471,0.482 0.482,0 0,0 0.47,-0.493v-0.01l-0.06,-1.812c0.66,0.71 1.415,1.325 2.242,1.827 1.5,0.905 3.182,1.383 4.864,1.383 2.688,0 5.167,-1.115 6.978,-3.14 1.604,-1.793 2.562,-4.207 2.562,-6.458a0.481,0.481 0,0 0,-0.48 -0.482z" fill="#2A317D"/>
</svg>
