<?xml version="1.0" ?>
<svg xmlns="http://www.w3.org/2000/svg" width="15" height="12" viewBox="0 0 15 12">
  <path d="M14.17,5.44 L8.97,0.24a0.782,0.782 0,0 0,-0.558 -0.23,0.783 0.783,0 0,0 -0.557,0.23l-0.472,0.472a0.798,0.798 0,0 0,0 1.121l3.034,3.04H0.778A0.77,0.77 0,0 0,0 5.65v0.668c0,0.434 0.343,0.809 0.778,0.809h9.673l-3.068,3.057a0.777,0.777 0,0 0,0 1.107l0.472,0.47c0.148,0.15 0.346,0.23 0.557,0.23a0.783,0.783 0,0 0,0.558 -0.23l5.2,-5.2A0.783,0.783 0,0 0,14.4 6a0.783,0.783 0,0 0,-0.23 -0.56z" fill="#223BC1"/>
</svg>
