<svg xmlns="http://www.w3.org/2000/svg" xmlns:xlink="http://www.w3.org/1999/xlink" width="19.982" height="19.982" viewBox="0 0 19.982 19.982">
  <defs>
    <clipPath id="clip-path">
      <rect id="Rectángulo_149961" data-name="Rectángulo 149961" width="19.982" height="19.982" fill="none"/>
    </clipPath>
  </defs>
  <g id="Grupo_195377" data-name="Grupo 195377" clip-path="url(#clip-path)">
    <path id="Trazado_46521" data-name="Trazado 46521" d="M11,15.5l3.5-3.5a2.077,2.077,0,0,0,.438-.65A2.05,2.05,0,0,0,13.055,8.5a1.818,1.818,0,0,0-.938.275A6.13,6.13,0,0,0,11,9.7a7.615,7.615,0,0,0-1.175-.95,1.705,1.705,0,0,0-.875-.25,2.051,2.051,0,0,0-1.888,2.851A2.076,2.076,0,0,0,7.5,12Zm1.25,3.9a2.054,2.054,0,0,1-2.851,0L.6,10.6a2.076,2.076,0,0,1-.438-.65A1.991,1.991,0,0,1,0,9.152V2A1.926,1.926,0,0,1,.588.587,1.926,1.926,0,0,1,2,0H9.153a1.993,1.993,0,0,1,.8.163A2.077,2.077,0,0,1,10.6.6l8.8,8.828a2.023,2.023,0,0,1,0,2.826Zm-1.426-1.4,7.153-7.153L9.153,2H2V9.152ZM4.5,6A1.494,1.494,0,0,0,6,4.5,1.494,1.494,0,0,0,4.5,3,1.494,1.494,0,0,0,3,4.5,1.494,1.494,0,0,0,4.5,6" transform="translate(0 0.001)"/>
  </g>
</svg>
