<svg xmlns="http://www.w3.org/2000/svg" width="36" height="36" viewBox="0 0 36 36">
  <g id="Grupo_245936" data-name="Grupo 245936" transform="translate(-16447 14836)">
    <rect id="Rectángulo_168386" data-name="Rectángulo 168386" width="36" height="36" transform="translate(16447 -14836)" fill="#fff" opacity="0"/>
    <g id="Grupo_245910" data-name="Grupo 245910" transform="translate(-31.344 -37.156)">
      <g id="_7a1f2392922bd67cb501ad11f0271ab3" data-name="7a1f2392922bd67cb501ad11f0271ab3" transform="translate(16478.344 -14791.844)">
        <path id="Trazado_80818" data-name="Trazado 80818" d="M117.377,121.475a3.562,3.562,0,1,0,3.562,3.562A3.566,3.566,0,0,0,117.377,121.475Zm0,5.342a1.781,1.781,0,1,1,1.781-1.781A1.783,1.783,0,0,1,117.377,126.817Zm-12.169-5.342a3.562,3.562,0,1,0,3.562,3.562A3.566,3.566,0,0,0,105.209,121.475Zm0,5.342a1.781,1.781,0,1,1,1.781-1.781A1.783,1.783,0,0,1,105.209,126.817Zm14.567-15.537a.891.891,0,0,0-.8-.49H114.29v1.781h4.14l2.424,4.822,1.591-.8Z" transform="translate(-92.182 -109.009)"/>
        <path id="Trazado_80819" data-name="Trazado 80819" d="M11.786,93.687h6.737v1.781H11.786Zm-5.431,0H3.268a.89.89,0,0,0,0,1.781H6.355a.89.89,0,1,0,0-1.781Zm21.568-5.443-1.751-2.256a.889.889,0,0,0-.7-.344H19V79.411a.89.89,0,0,0-.89-.89H3.268a.89.89,0,1,0,0,1.781H17.218v6.233a.89.89,0,0,0,.89.89h6.925l1.3,1.67v4.592H23.866a.89.89,0,0,0,0,1.781H27.22a.89.89,0,0,0,.89-.89V88.79A.892.892,0,0,0,27.923,88.244ZM2.44,89.176h-4.1a.89.89,0,0,0-.89.89.89.89,0,0,0,.89.89h4.1a.89.89,0,0,0,0-1.781Zm2.048-3.5h-7.6a.89.89,0,0,0-.89.89.89.89,0,0,0,.89.89h7.6a.89.89,0,0,0,0-1.781Z" transform="translate(4 -78.521)"/>
        <path id="Trazado_80820" data-name="Trazado 80820" d="M34.841,144.672h-7.6a.89.89,0,1,0,0,1.781h7.6a.89.89,0,1,0,0-1.781Z" transform="translate(-23.935 -141.021)"/>
      </g>
      <g id="Grupo_245909" data-name="Grupo 245909" transform="translate(16502.949 -14780.66)">
        <g id="Grupo_195945" data-name="Grupo 195945" transform="translate(0 0.32)">
          <ellipse id="Elipse_2195" data-name="Elipse 2195" cx="5.364" cy="5.006" rx="5.364" ry="5.006" transform="translate(0 0)" fill="#30d386"/>
        </g>
        <g id="Grupo_195946" data-name="Grupo 195946" transform="translate(0.331 0)">
          <path id="Trazado_46878" data-name="Trazado 46878" d="M38.134,33a5.134,5.134,0,1,0,5.134,5.134A5.14,5.14,0,0,0,38.134,33Zm0,9.478a4.344,4.344,0,1,1,4.344-4.344A4.349,4.349,0,0,1,38.134,42.478Z" transform="translate(-33 -33)"/>
          <path id="Trazado_46879" data-name="Trazado 46879" d="M43.364,39.707,40.453,43.7l-2.065-1.452a.4.4,0,0,0-.454.646l2.382,1.676a.4.4,0,0,0,.546-.09l3.14-4.3A.4.4,0,0,0,43.364,39.707Z" transform="translate(-35.884 -36.959)"/>
        </g>
      </g>
      <g id="Grupo_245908" data-name="Grupo 245908" transform="translate(16488.295 -14785.904)">
        <path id="Trazado_45663" data-name="Trazado 45663" d="M-1838.375-1337.609c-.007-.033.014-.055.026-.08.156-.319.314-.637.467-.957a.121.121,0,0,1,.13-.078c.682,0,1.364,0,2.047,0a.732.732,0,0,0,.2-.017.519.519,0,0,0,.343-.286c.046-.1.087-.2.129-.294.027-.063.025-.066-.048-.066h-.7c-.371,0-.742,0-1.113,0a.407.407,0,0,1-.4-.341.432.432,0,0,1,.048-.264q.279-.593.555-1.186c.16-.342.317-.685.482-1.024a1.254,1.254,0,0,1,1.183-.759c.676-.008,1.352,0,2.028,0a.627.627,0,0,1,.629.589.686.686,0,0,1-.076.336q-.306.643-.609,1.286-.536,1.133-1.073,2.266a1.486,1.486,0,0,1-1.1.859,1.343,1.343,0,0,1-.271.027h-2.792A.15.15,0,0,1-1838.375-1337.609Zm3.293-2.895c.129,0,.257,0,.386,0a.347.347,0,0,0,.331-.208q.217-.449.427-.9a.149.149,0,0,0-.147-.229q-.395,0-.791,0a.341.341,0,0,0-.324.2q-.217.449-.427.9a.151.151,0,0,0,.149.234C-1835.345-1340.5-1835.214-1340.5-1835.082-1340.5Z" transform="translate(1838.376 1342.964)" fill="#ff001d"/>
        <path id="Trazado_45664" data-name="Trazado 45664" d="M-1385.062-1337.571c-.009-.039.015-.063.028-.091.154-.317.311-.632.463-.949a.121.121,0,0,1,.128-.081c.686,0,1.372,0,2.057,0a.728.728,0,0,0,.178-.014.5.5,0,0,0,.335-.254c.064-.122.115-.251.173-.38a.161.161,0,0,0-.1-.015h-1.726a.684.684,0,0,1-.15-.01.406.406,0,0,1-.294-.5.6.6,0,0,1,.034-.087q.517-1.106,1.036-2.211a1.283,1.283,0,0,1,.985-.751,1,1,0,0,1,.179-.013c.685,0,1.371,0,2.056,0a.624.624,0,0,1,.623.67.721.721,0,0,1-.074.251q-.713,1.5-1.424,3.007c-.089.188-.176.376-.267.562a1.482,1.482,0,0,1-1.09.844,1.266,1.266,0,0,1-.253.027h-2.839Zm3.889-4.241h0c-.132,0-.264,0-.4,0a.334.334,0,0,0-.312.192c-.151.307-.294.617-.441.926a.146.146,0,0,0,0,.136.157.157,0,0,0,.155.086c.264,0,.528,0,.792,0a.341.341,0,0,0,.324-.2q.217-.449.427-.9c.062-.132,0-.233-.151-.234C-1380.91-1341.812-1381.042-1341.811-1381.173-1341.811Z" transform="translate(1389.339 1342.93)" fill="#ff001d"/>
      </g>
    </g>
  </g>
</svg>
