<svg xmlns="http://www.w3.org/2000/svg" width="28" height="28" viewBox="0 0 28 28">
  <g id="Grupo_245868" transform="translate(-28 -564)">
    <path id="local_shipping_FILL0_wght400_GRAD0_opsz24" d="M44.773-784.727a2.762,2.762,0,0,1-2.028-.835,2.762,2.762,0,0,1-.835-2.028H40v-10.5a1.838,1.838,0,0,1,.561-1.348A1.838,1.838,0,0,1,41.909-800H55.273v3.818h2.864L61-792.364v4.773H59.091a2.762,2.762,0,0,1-.835,2.028,2.762,2.762,0,0,1-2.028.835,2.762,2.762,0,0,1-2.028-.835,2.762,2.762,0,0,1-.835-2.028H47.636a2.762,2.762,0,0,1-.835,2.028A2.762,2.762,0,0,1,44.773-784.727Zm0-1.909a.924.924,0,0,0,.68-.274.924.924,0,0,0,.274-.68.923.923,0,0,0-.274-.68.924.924,0,0,0-.68-.274.924.924,0,0,0-.68.274.923.923,0,0,0-.274.68.924.924,0,0,0,.274.68A.924.924,0,0,0,44.773-786.636ZM41.909-789.5h.764a3.3,3.3,0,0,1,.931-.692,2.578,2.578,0,0,1,1.169-.263,2.578,2.578,0,0,1,1.169.263,3.3,3.3,0,0,1,.931.692h6.491v-8.591H41.909Zm14.318,2.864a.924.924,0,0,0,.68-.274.924.924,0,0,0,.274-.68.923.923,0,0,0-.274-.68.924.924,0,0,0-.68-.274.924.924,0,0,0-.68.274.923.923,0,0,0-.274.68.924.924,0,0,0,.274.68A.924.924,0,0,0,56.227-786.636Zm-.955-4.773H59.33l-2.148-2.864H55.273ZM47.636-793.8Z" transform="translate(-8 1370.636)" fill="#ff1335"/>
    <rect id="Rectángulo_150831" width="28" height="28" transform="translate(28 564)" fill="none"/>
  </g>
</svg>
