<svg xmlns="http://www.w3.org/2000/svg" width="19" height="19" viewBox="0 0 19 19">
  <g id="drive_file_rename_outline_black_24dp" transform="translate(0.334)">
    <g id="Grupo_191952" data-name="Grupo 191952">
      <rect id="Rectángulo_147959" data-name="Rectángulo 147959" width="19" height="19" transform="translate(-0.334)" fill="none"/>
    </g>
    <g id="Grupo_191954" data-name="Grupo 191954" transform="translate(2.333 3.111)">
      <g id="Grupo_191953" data-name="Grupo 191953">
        <path id="Trazado_40422" data-name="Trazado 40422" d="M14.111,16,11,19.111h7.778V16Z" transform="translate(-4.778 -6.667)"/>
        <path id="Trazado_40423" data-name="Trazado 40423" d="M10.047,7.19,3,14.237v2.917H5.917l7.047-7.047ZM5.271,15.6H4.556v-.716l5.491-5.491.716.716Z" transform="translate(-3 -4.709)"/>
        <path id="Trazado_40424" data-name="Trazado 40424" d="M17.47,7.142a.775.775,0,0,0,0-1.1l-1.82-1.82A.764.764,0,0,0,15.1,4a.779.779,0,0,0-.544.226L13.13,5.649l2.917,2.917Z" transform="translate(-5.251 -4)"/>
      </g>
    </g>
  </g>
</svg>
