<svg id="Grupo_196379" data-name="Grupo 196379" xmlns="http://www.w3.org/2000/svg" xmlns:xlink="http://www.w3.org/1999/xlink" width="23.597" height="9.208" viewBox="0 0 23.597 9.208">
  <defs>
    <clipPath id="clip-path">
      <rect id="Rectángulo_2507" data-name="Rectángulo 2507" width="23.597" height="9.208"/>
    </clipPath>
  </defs>
  <g id="Grupo_190000" data-name="Grupo 190000" clip-path="url(#clip-path)">
    <path id="Trazado_2344" data-name="Trazado 2344" d="M422.932,2.3l-.75,1.585a.615.615,0,0,1-.556.352h-1.4a.256.256,0,0,1-.232-.366l.75-1.585a.615.615,0,0,1,.556-.352h1.4a.256.256,0,0,1,.232.366M424.538.008h-3.5a2.23,2.23,0,0,0-2.016,1.277L417.2,5.164a.7.7,0,0,0,.629.992h3.249l-.273.62a.91.91,0,0,1-.822.518h-3.779l-.943,1.922h4.968a2.58,2.58,0,0,0,2.332-1.476L425.5,1.532a1.068,1.068,0,0,0-.965-1.524" transform="translate(-407.919 -0.008)"/>
    <path id="Trazado_2345" data-name="Trazado 2345" d="M7.667,2.288l-.75,1.585a.615.615,0,0,1-.556.352h-1.4a.256.256,0,0,1-.232-.366l.75-1.585a.615.615,0,0,1,.556-.352h1.4a.256.256,0,0,1,.232.366M9.274,0h-3.5A2.23,2.23,0,0,0,3.756,1.277L1.939,5.156a.7.7,0,0,0,.628.992H5.816l-.273.62a.91.91,0,0,1-.822.518H.943L0,9.208H4.967A2.58,2.58,0,0,0,7.3,7.732l2.939-6.208A1.068,1.068,0,0,0,9.274,0"/>
    <path id="Trazado_2346" data-name="Trazado 2346" d="M894.679,186.644l1.03-2.162h-1.682a.354.354,0,0,0-.319.2l-.934,1.96H890.4a.354.354,0,0,0-.32.2l-.669,1.419H892l-1.03,2.162h1.682a.354.354,0,0,0,.319-.2l.934-1.96h2.377a.354.354,0,0,0,.32-.2l.669-1.419Z" transform="translate(-873.676 -181.219)"/>
  </g>
</svg>
