<svg xmlns="http://www.w3.org/2000/svg" width="12.6" height="14" viewBox="0 0 12.6 14">
  <path id="Trazado_80795" d="M125.6-867.8V-872.6l-4.2-2.432v4.795Zm1.4,0,4.2-2.432v-4.795L127-872.6Zm-1.4,1.61-4.9-2.817a1.391,1.391,0,0,1-.516-.508,1.364,1.364,0,0,1-.184-.7v-5.565a1.364,1.364,0,0,1,.184-.7,1.391,1.391,0,0,1,.516-.508l4.9-2.818a1.377,1.377,0,0,1,.7-.193,1.377,1.377,0,0,1,.7.193l4.9,2.818a1.391,1.391,0,0,1,.516.508,1.364,1.364,0,0,1,.184.7v5.565a1.364,1.364,0,0,1-.184.7,1.391,1.391,0,0,1-.516.508l-4.9,2.817a1.376,1.376,0,0,1-.7.193A1.376,1.376,0,0,1,125.6-866.193Zm3.5-9.24,1.347-.77-4.147-2.4-1.365.787Zm-2.8,1.628,1.365-.787-4.147-2.4-1.365.788Z" transform="translate(-120 880)" fill="#ff181d"/>
</svg>
