<svg xmlns="http://www.w3.org/2000/svg" width="36" height="36" viewBox="0 0 36 36">
  <g id="Grupo_245938" data-name="Grupo 245938" transform="translate(-16247 14836)">
    <rect id="Rectángulo_168384" data-name="Rectángulo 168384" width="36" height="36" transform="translate(16247 -14836)" fill="#fff" opacity="0"/>
    <g id="bfe52f1f41e384c3efc073ae4ee7af14" transform="translate(16253.5 -14825.297)">
      <path id="Trazado_51267" data-name="Trazado 51267" d="M214.15-819.552a2.07,2.07,0,0,1-1.529-.626,2.094,2.094,0,0,1-.621-1.533V-836.2a2.085,2.085,0,0,1,.626-1.533,2.085,2.085,0,0,1,1.533-.626h2.34v-.873a4.913,4.913,0,0,1,1.257-3.327A4.1,4.1,0,0,1,221-844a4.344,4.344,0,0,1,3.193,1.307A4.344,4.344,0,0,1,225.5-839.5v1.142h2.34a2.085,2.085,0,0,1,1.533.626A2.085,2.085,0,0,1,230-836.2v14.487a2.085,2.085,0,0,1-.627,1.533,2.088,2.088,0,0,1-1.534.626Zm.009-1.746H227.84a.394.394,0,0,0,.284-.129.394.394,0,0,0,.129-.284V-836.2a.394.394,0,0,0-.129-.284.394.394,0,0,0-.284-.129H225.5v2.351a.848.848,0,0,1-.249.622.834.834,0,0,1-.617.251.857.857,0,0,1-.624-.251.836.836,0,0,1-.256-.622v-2.351h-5.507v2.351a.848.848,0,0,1-.249.622.834.834,0,0,1-.617.251.857.857,0,0,1-.624-.251.836.836,0,0,1-.256-.622v-2.351h-2.34a.394.394,0,0,0-.284.129.394.394,0,0,0-.129.284v14.487a.394.394,0,0,0,.129.284A.394.394,0,0,0,214.16-821.3Zm4.087-17.06h5.507V-839.5a2.654,2.654,0,0,0-.8-1.953,2.668,2.668,0,0,0-1.958-.8,2.644,2.644,0,0,0-1.951.8,2.666,2.666,0,0,0-.8,1.953Zm-4.5,17.06v0Z" transform="translate(-210.5 836.296)"/>
      <g id="Grupo_195945" data-name="Grupo 195945" transform="translate(11.37 11.55)">
        <ellipse id="Elipse_2195" data-name="Elipse 2195" cx="5.565" cy="5.194" rx="5.565" ry="5.194" transform="translate(0 0)" fill="#30d386"/>
      </g>
      <g id="Grupo_195946" data-name="Grupo 195946" transform="translate(11.714 11.218)">
        <path id="Trazado_46878" data-name="Trazado 46878" d="M38.327,33a5.327,5.327,0,1,0,5.327,5.327A5.333,5.333,0,0,0,38.327,33Zm0,9.834a4.507,4.507,0,1,1,4.507-4.507A4.512,4.512,0,0,1,38.327,42.834Z" transform="translate(-33 -33)"/>
        <path id="Trazado_46879" data-name="Trazado 46879" d="M43.575,39.713l-3.02,4.139-2.142-1.507a.41.41,0,0,0-.471.67l2.472,1.738a.41.41,0,0,0,.567-.094L44.236,40.2A.41.41,0,0,0,43.575,39.713Z" transform="translate(-35.813 -36.862)"/>
      </g>
      <g id="Grupo_199295" data-name="Grupo 199295" transform="translate(5.167 4.521)">
        <path id="Trazado_45663" data-name="Trazado 45663" d="M-1838.375-1337.409c-.007-.034.014-.057.027-.083.162-.331.325-.661.485-.992a.125.125,0,0,1,.135-.081c.708,0,1.416,0,2.123,0a.757.757,0,0,0,.2-.018.538.538,0,0,0,.356-.3c.047-.1.09-.2.134-.3.028-.065.026-.069-.05-.069h-.724c-.385,0-.77,0-1.155,0a.423.423,0,0,1-.418-.354.448.448,0,0,1,.05-.274q.289-.615.576-1.231c.166-.355.328-.711.5-1.062a1.3,1.3,0,0,1,1.228-.788c.7-.008,1.4,0,2.1,0a.65.65,0,0,1,.653.611.712.712,0,0,1-.079.349q-.318.667-.632,1.334-.557,1.176-1.113,2.352a1.542,1.542,0,0,1-1.142.891,1.39,1.39,0,0,1-.281.028h-2.9A.155.155,0,0,1-1838.375-1337.409Zm3.417-3c.134,0,.267,0,.4,0a.36.36,0,0,0,.344-.216q.225-.466.443-.936a.155.155,0,0,0-.152-.237q-.41,0-.821,0a.353.353,0,0,0-.336.211q-.225.465-.443.935a.157.157,0,0,0,.155.243C-1835.231-1340.411-1835.095-1340.412-1834.958-1340.412Z" transform="translate(1838.376 1342.964)" fill="#ff001d"/>
        <path id="Trazado_45664" data-name="Trazado 45664" d="M-1385.062-1337.37c-.009-.041.015-.066.029-.094.16-.328.323-.655.481-.984a.126.126,0,0,1,.133-.084c.712,0,1.423,0,2.134,0a.758.758,0,0,0,.185-.014.514.514,0,0,0,.348-.264c.066-.127.12-.26.18-.394a.167.167,0,0,0-.108-.016h-1.791a.705.705,0,0,1-.156-.01.421.421,0,0,1-.305-.522.629.629,0,0,1,.036-.091q.536-1.148,1.074-2.294a1.331,1.331,0,0,1,1.022-.78,1.03,1.03,0,0,1,.185-.014c.711,0,1.422,0,2.133,0a.648.648,0,0,1,.646.7.748.748,0,0,1-.076.261q-.74,1.56-1.478,3.12c-.092.195-.182.39-.277.583a1.538,1.538,0,0,1-1.131.876,1.315,1.315,0,0,1-.263.028h-2.946Zm4.035-4.4h0c-.137,0-.274,0-.41,0a.347.347,0,0,0-.324.2c-.156.319-.305.641-.458.961a.152.152,0,0,0,0,.141.163.163,0,0,0,.161.089c.274,0,.547,0,.821,0a.354.354,0,0,0,.336-.211q.225-.466.444-.935c.064-.137,0-.241-.157-.243C-1380.754-1341.77-1380.891-1341.769-1381.027-1341.769Z" transform="translate(1389.499 1342.93)" fill="#ff001d"/>
      </g>
    </g>
  </g>
</svg>
