<svg xmlns="http://www.w3.org/2000/svg" width="16.167" height="15.017" viewBox="0 0 16.167 15.017">
  <g id="shop" transform="translate(-2.013 -4)">
    <path id="Trazado_50815" data-name="Trazado 50815" d="M18.178,8.1h0a.855.855,0,0,0,0-.121.479.479,0,0,0-.121-.289l-2-3A1.473,1.473,0,0,0,14.822,4H5.361a1.473,1.473,0,0,0-1.224.67l-2,3a.479.479,0,0,0-.121.289.855.855,0,0,0,0,.121v.035a.335.335,0,0,0,0,.1,4.407,4.407,0,0,0,1.7,2.888v6.174a1.733,1.733,0,0,0,1.733,1.733h9.265a1.733,1.733,0,0,0,1.733-1.733v-6.2a4.407,4.407,0,0,0,1.7-2.888.335.335,0,0,0,0-.1ZM16.214,9.834l-.029.035a1.525,1.525,0,0,1-.889.578.618.618,0,0,1-.144,0h-.046c-.7,0-1.392-.722-1.733-1.8h3.466A3.777,3.777,0,0,1,16.3,9.712a.9.9,0,0,1-.092.092ZM5.1,5.311a.335.335,0,0,1,.266-.156h9.461a.335.335,0,0,1,.266.156L16.52,7.466H3.663Zm6.729,3.31c-.364,1.08-1.045,1.8-1.733,1.8S8.706,9.7,8.359,8.621Zm-8.479,0H6.811c-.358,1.08-1.045,1.8-1.733,1.8h-.04a.618.618,0,0,1-.144,0A1.525,1.525,0,0,1,4,9.845V9.811A.9.9,0,0,1,3.912,9.7a3.777,3.777,0,0,1-.566-1.074Zm4.436,9.241V13.5a.254.254,0,0,1,.254-.254h4.112a.254.254,0,0,1,.254.254v4.367Zm7.509-.578a.578.578,0,0,1-.578.578H13.557V13.5a1.415,1.415,0,0,0-1.409-1.409H8.036A1.415,1.415,0,0,0,6.626,13.5v4.367H5.471a.578.578,0,0,1-.578-.578V11.509h.191A2.94,2.94,0,0,0,7.591,9.776a2.934,2.934,0,0,0,2.5,1.733,2.934,2.934,0,0,0,2.5-1.733A2.94,2.94,0,0,0,15.1,11.509h.191Z" transform="translate(0 0)" fill="#ff1335"/>
  </g>
</svg>
