<svg xmlns="http://www.w3.org/2000/svg" width="118" height="141.391" viewBox="0 0 118 141.391">
  <g id="Grupo_195989" data-name="Grupo 195989" transform="translate(-121 -383)">
    <circle id="Elipse_2203" data-name="Elipse 2203" cx="59" cy="59" r="59" transform="translate(121 395)" fill="#ffbe55" opacity="0.4"/>
    <g id="a47dc9177d7340b6854906a283b2bd44" transform="translate(-413.643 382.99)">
      <g id="Background" transform="translate(545.642 0.01)">
        <ellipse id="Elipse_2202" data-name="Elipse 2202" cx="44.146" cy="4.373" rx="44.146" ry="4.373" transform="translate(3.097 132.646)" fill="#b7b7b7" opacity="0.08"/>
        <path id="Trazado_46975" data-name="Trazado 46975" d="M562.054,133.768c-.223-.209-32.638-45.494-5.747-59.7C592.9,54.72,544.17-10.635,611.724,1.5c65.04,11.678-13.406,63.273,13.236,82.125,17.478,12.359,27.624,42.051-8.929,51.582-23.186,6.022-48.335,3.836-53.978-1.44Z" transform="translate(-545.642 -0.01)" fill="#ff6f00" opacity="0.08"/>
      </g>
      <g id="Character" transform="translate(603.545 79.795)">
        <path id="Trazado_46976" data-name="Trazado 46976" d="M1047.134,611.066l.93-1.3c.249-.484,1.388-.406,1.754-.013.249.275.039,1.008-.079,1.257-.288.615-1.741,3-1.741,3a1.142,1.142,0,0,1-1.322-.432C1046.244,613.082,1046.938,611.341,1047.134,611.066Z" transform="translate(-1038.863 -609.434)" fill="#fcd2b1"/>
        <path id="Trazado_46977" data-name="Trazado 46977" d="M1034.644,654.251a39.034,39.034,0,0,0-1.519-6.258c-1.074-3.142-.026-8.811-.026-8.811s-1.505-.877-1.741-.406-1.964,8.143-1.964,8.143-.065,4.648.956,6.1C1030.965,653.884,1033.545,655.141,1034.644,654.251Z" transform="translate(-1023.964 -634.814)" fill="#2a94f4"/>
        <path id="Trazado_46978" data-name="Trazado 46978" d="M1016.74,1022.506a11.06,11.06,0,0,0-.183,1.859c.118.576,0,.746,0,.746l-2.357-.183s1.047-.471.969-2.71S1016.74,1022.506,1016.74,1022.506Z" transform="translate(-1010.76 -967.368)" fill="#fcd2b1"/>
        <path id="Trazado_46979" data-name="Trazado 46979" d="M993.746,1046.072a3.987,3.987,0,0,1-2.042.092,10.261,10.261,0,0,1-3.116.838c-1.087.131-.89.943.956.838a24.51,24.51,0,0,1,3.561,0c.406.039,1.073.092,1.1-.183S994.087,1045.98,993.746,1046.072Z" transform="translate(-987.923 -988.904)" fill="#0b4870"/>
        <path id="Trazado_46980" data-name="Trazado 46980" d="M1015.854,799.471s-1.519,13.642-1.61,15.422a21.606,21.606,0,0,0,0,3.482c.092,1.087.89,10.2.89,10.2l1.545.092s1.152-9.937,1.61-11.639,2.213-10.316,2.213-10.316l-2.029-8.811-2.618,1.571Z" transform="translate(-1010.738 -773.226)" fill="#0e538c"/>
        <path id="Trazado_46981" data-name="Trazado 46981" d="M1067.9,1023.128a9.051,9.051,0,0,0,0,1.584c.157.563.066.746.066.746l-2.37.013s.995-.55.746-2.789,1.558.445,1.558.445Z" transform="translate(-1055.431 -967.806)" fill="#fcd2b1"/>
        <path id="Trazado_46982" data-name="Trazado 46982" d="M1044.046,1046.072a3.987,3.987,0,0,1-2.042.092,10.263,10.263,0,0,1-3.116.838c-1.087.131-.89.943.956.838a24.511,24.511,0,0,1,3.561,0c.406.039,1.073.092,1.1-.183S1044.386,1045.98,1044.046,1046.072Z" transform="translate(-1031.638 -988.904)" fill="#0b4870"/>
        <path id="Trazado_46983" data-name="Trazado 46983" d="M1050.3,799.471s1.283,13.694,1.191,15.475,1.558,13.642,1.558,13.642l1.558.026s.406-10.421.406-12.175c0-1.676.55-15.265.55-15.265l-2.291-3.273Z" transform="translate(-1042.134 -773.226)" fill="#0e538c"/>
        <path id="Trazado_46984" data-name="Trazado 46984" d="M1024.38,737.4s6.965.484,7.41,2.055-.144,13.262-.144,13.262-6.847,1.911-10.146-1.27C1021.736,750.322,1022.744,739.167,1024.38,737.4Z" transform="translate(-1017.104 -720.647)" fill="#2a94f4"/>
        <path id="Trazado_46985" data-name="Trazado 46985" d="M1058.255,726.635l-.655,2.461a1.306,1.306,0,0,0,1.453,1.008c1.231-.1,1.361-.825,1.361-.825l-.484-2.789A2.945,2.945,0,0,0,1058.255,726.635Z" transform="translate(-1048.478 -711.112)" fill="#fcd2b1"/>
        <path id="Trazado_46986" data-name="Trazado 46986" d="M1048.119,693.594s-1.545,2.33-1.257,3.142,1.362,1.479,3.744,1.506c.8-.2,1.453-2.7,1.375-3.208C1051.51,691.748,1048.931,692.952,1048.119,693.594Z" transform="translate(-1039.115 -681.92)" fill="#ffe3ca"/>
        <path id="Trazado_46987" data-name="Trazado 46987" d="M1053.1,682.469c.838.786,1.283.641,2.383.6.668-.026.943.511.772.851s-.9,1.047-.367,1.1.511-.812.89-.445-.445,1.375-.039,1.584,1.807-.223,1.466-1.165,2.618-3.509-2.226-4.949a5.794,5.794,0,0,0-2.095-.262c-.943-.065-.9,2.579-.786,2.684Z" transform="translate(-1044.512 -670.572)" fill="#0b4870"/>
      </g>
      <g id="Object" transform="translate(552.366 5.206)">
        <path id="Trazado_46988" data-name="Trazado 46988" d="M654.519,129.379c0-8.562.969-15.3,2.906-20.266a31.727,31.727,0,0,1,9.413-12.882,62.969,62.969,0,0,0,9.884-9.976,16.345,16.345,0,0,0,3.391-9.976Q680.114,63,668.685,63a10.608,10.608,0,0,0-8.523,3.862q-3.26,3.869-3.43,10.46H627q.177-17.576,11.076-27.388C645.342,43.4,653.721,39.7,666.852,39.7c13.066,0,25.005,3.456,32.193,9.492s10.775,14.624,10.775,25.752a29.923,29.923,0,0,1-2.906,13.275,44.8,44.8,0,0,1-9.321,12.215l-10.107,9.413a23.761,23.761,0,0,0-5.983,8.484,33.719,33.719,0,0,0-1.846,11.036H654.519Zm-3.6,26.734c0-4.333,4.045-11.39,7.187-14.178a37.868,37.868,0,0,1,8.811-1.113,18.461,18.461,0,0,1,12.175,4.608,14.491,14.491,0,0,1,0,21.366,18.562,18.562,0,0,1-23.461,0A13.646,13.646,0,0,1,650.919,156.113Z" transform="translate(-623.072 -39.7)" fill="#ff001d" opacity="0.2"/>
        <path id="Trazado_46989" data-name="Trazado 46989" d="M624.506,132.421c0-8.562.969-15.3,2.906-20.266a31.728,31.728,0,0,1,9.413-12.882A62.97,62.97,0,0,0,646.71,89.3,16.345,16.345,0,0,0,650.1,79.32q0-13.275-11.429-13.275a10.608,10.608,0,0,0-8.523,3.862q-3.26,3.869-3.43,10.46H597q.157-17.556,11.063-27.375,10.9-9.8,30.6-9.793,19.6,0,30.373,9.06t10.775,25.752A29.924,29.924,0,0,1,676.9,91.286a44.8,44.8,0,0,1-9.321,12.215l-10.107,9.413a23.76,23.76,0,0,0-5.983,8.484,33.717,33.717,0,0,0-1.846,11.036H624.506Zm-3.613,26.734a13.677,13.677,0,0,1,4.7-10.683,18.562,18.562,0,0,1,23.461,0,14.491,14.491,0,0,1,0,21.366,18.562,18.562,0,0,1-23.461,0A13.677,13.677,0,0,1,620.893,159.155Z" transform="translate(-597 -42.742)" fill="#ff001d"/>
        <path id="Trazado_46990" data-name="Trazado 46990" d="M1093.531,877.786s-1.152.393-1.44,2.605c-.026.2.34.17.38-.026l.6-1.231c.144.354-.092.393-.17.746l-.275.9a.466.466,0,0,0,.563.589,2.022,2.022,0,0,0,.825-.367c.314-.34,1.087-2.343.838-2.841S1094.068,877.328,1093.531,877.786Z" transform="translate(-1027.273 -767.88)" fill="#fcd2b1"/>
        <path id="Trazado_46991" data-name="Trazado 46991" d="M1079.878,747.112a1.65,1.65,0,0,1,2.631.183c1.047,1.584,3,4.831,2.985,6.9.092,2.4-1.859,10.12-1.859,10.12a2.33,2.33,0,0,1-1.322-.393c.026-.628.3-8,.3-8a36.484,36.484,0,0,1-3.273-5.8A3.219,3.219,0,0,1,1079.878,747.112Z" transform="translate(-1016.055 -654.002)" fill="#2a94f4"/>
        <path id="Trazado_46992" data-name="Trazado 46992" d="M672.887,649.355s-.065-2.226.72-3.155a4.089,4.089,0,0,1,4.739-.511,4.486,4.486,0,0,1,1.506,4.818c1.938.759,4.058,1.715,3.247,6.873-1.65,10.395-14.715,5.931-11.73-3.26C672.036,652.1,672.887,649.355,672.887,649.355Z" transform="translate(-661.249 -565.895)" fill="#0b4870"/>
        <path id="Trazado_46993" data-name="Trazado 46993" d="M740.2,1003.673a10.3,10.3,0,0,1,.17,1.728c-.1.537,0,.694,0,.694l2.186-.17s-.969-.432-.9-2.527S740.2,1003.673,740.2,1003.673Z" transform="translate(-721.452 -876.486)" fill="#b97a59"/>
        <path id="Trazado_46994" data-name="Trazado 46994" d="M716.966,825.464a3.69,3.69,0,0,0,1.9.078,9.543,9.543,0,0,0,2.893.772c1.008.118.825.877-.89.772a22.908,22.908,0,0,0-3.3,0c-.38.039-.995.079-1.021-.17S716.651,825.385,716.966,825.464Zm.668-28.711s1.414,12.673,1.492,14.323a21.71,21.71,0,0,1,0,3.234c-.078,1.008-.838,9.465-.838,9.465l-1.44.078s-1.074-9.23-1.492-10.8-2.055-9.57-2.055-9.57l1.885-8.182Z" transform="translate(-698.074 -696.378)" fill="#0b4870"/>
        <path id="Trazado_46995" data-name="Trazado 46995" d="M693.662,1004.293a7.773,7.773,0,0,1,0,1.466c-.144.524-.052.681-.052.681l2.2.013s-.93-.511-.694-2.592S693.662,1004.293,693.662,1004.293Z" transform="translate(-680.936 -876.922)" fill="#b97a59"/>
        <path id="Trazado_46996" data-name="Trazado 46996" d="M688.43,825.377a3.689,3.689,0,0,0,1.9.079,9.543,9.543,0,0,0,2.893.772c1.008.118.825.877-.89.772a22.909,22.909,0,0,0-3.3,0c-.38.039-.995.079-1.021-.17S688.128,825.3,688.43,825.377Zm3.941-28.71s-1.191,12.712-1.113,14.362-1.44,12.673-1.44,12.673l-1.44.026s-.367-9.675-.367-11.311c0-1.545-.511-14.178-.511-14.178l2.134-3.037Z" transform="translate(-675.652 -696.291)" fill="#0b4870"/>
        <path id="Trazado_46997" data-name="Trazado 46997" d="M736.5,655.265a9.733,9.733,0,0,1-1.152-1.126,2.182,2.182,0,0,0-1.78-.943.448.448,0,0,0-.471.445.224.224,0,0,0,.092.17l1.283.615c.065.026.065.039.118.092l.052.1c.092.118.079.17-.079.2l-.17-.013a3.726,3.726,0,0,1-.733-.249.158.158,0,0,0-.223.157.242.242,0,0,0,.144.223l.995.628.812.288c1.807,1.44,3.338,2.5,3.522,2.946a41.466,41.466,0,0,1-5.564,2.985l1.519,1.715a64.684,64.684,0,0,0,5.708-3.338C742.867,657.975,738.363,656.1,736.5,655.265Z" transform="translate(-715.282 -572.877)" fill="#b97a59"/>
        <path id="Trazado_46998" data-name="Trazado 46998" d="M691.79,707.906c-.2.458,1.3,6.821,1.545,8.287a.548.548,0,0,1-.092-.013,16.357,16.357,0,0,0-7.842.72l-.288-8.981-.013-.327s0-.34.026-.864a10.055,10.055,0,0,1,.982-4.032,1.923,1.923,0,0,1,1.466-1.087,9.5,9.5,0,0,1,4.346.9,3.623,3.623,0,0,0,2,.157s.995,2.474.5,2.919l-2.095.877c.026-.026-.34.969-.537,1.44Z" transform="translate(-673.566 -614.928)" fill="#ffbe55"/>
        <path id="Trazado_46999" data-name="Trazado 46999" d="M689.876,658.1s1.27,2.946.314,4.281a2.693,2.693,0,0,1-1.977,1.034v1.453a.67.67,0,0,1-.393.144,5.047,5.047,0,0,1-1.61-.681v-5.708ZM683.5,669.49s1.008,5.119,1.453,6.415c.236,1.034,6.834,1.335,7.253,1.414a1.983,1.983,0,0,0,1.506.681c.2,0,.1.039,1.152.1a.594.594,0,0,0,.563-.877c-.55-.537-.511-.34-1.257-.5-.8-.157-.995-.249-.864-.393.8-.89.079-1.074-.72-.157-.052.052-.144.013-.223.013-1.532-.367-5.145-1.388-5.643-1.4a36.838,36.838,0,0,1-.733-6.035Z" transform="translate(-672.176 -577.14)" fill="#b97a59"/>
        <path id="Trazado_47000" data-name="Trazado 47000" d="M680.018,715.188s-.432-4.216.812-5.224,2.658.615,2.592,2.749-.026,2.893-.026,2.893A4.1,4.1,0,0,1,680.018,715.188Z" transform="translate(-669.086 -621.948)" fill="#ffbe55"/>
        <path id="Trazado_47001" data-name="Trazado 47001" d="M703.37,655.6s-.655,3.8-2.239,3.116c-1.44-.615-.72-.026-2.042,1.244-.393.38-.079-4.019-.079-4.019Z" transform="translate(-685.552 -574.967)" fill="#0b4870"/>
      </g>
    </g>
  </g>
</svg>
