<svg xmlns="http://www.w3.org/2000/svg" width="30" height="30" viewBox="0 0 30 30">
  <path id="Trazado_51271" d="M101.625-839.625H111v-.9a2.345,2.345,0,0,0-.371-1.276,2.481,2.481,0,0,0-1.035-.911,10.068,10.068,0,0,0-1.582-.488,7.91,7.91,0,0,0-1.7-.176,7.91,7.91,0,0,0-1.7.176,9,9,0,0,0-1.582.507,2.281,2.281,0,0,0-1.035.885,2.369,2.369,0,0,0-.371,1.284Zm14.531-1.875h2.813a1.356,1.356,0,0,0,1-.41,1.356,1.356,0,0,0,.41-1,1.356,1.356,0,0,0-.41-1,1.356,1.356,0,0,0-1-.41h-2.812a1.356,1.356,0,0,0-1,.41,1.356,1.356,0,0,0-.41,1,1.356,1.356,0,0,0,.41,1A1.356,1.356,0,0,0,116.156-841.5Zm-9.844-2.812a2.26,2.26,0,0,0,1.66-.684,2.26,2.26,0,0,0,.684-1.66,2.26,2.26,0,0,0-.684-1.66,2.26,2.26,0,0,0-1.66-.684,2.26,2.26,0,0,0-1.66.684,2.26,2.26,0,0,0-.684,1.66,2.26,2.26,0,0,0,.684,1.66A2.26,2.26,0,0,0,106.313-844.312Zm9.844-1.875h2.813a1.356,1.356,0,0,0,1-.41,1.356,1.356,0,0,0,.41-1,1.356,1.356,0,0,0-.41-1,1.356,1.356,0,0,0-1-.41h-2.812a1.356,1.356,0,0,0-1,.41,1.356,1.356,0,0,0-.41,1,1.356,1.356,0,0,0,.41,1A1.356,1.356,0,0,0,116.156-846.187ZM98.813-834a2.708,2.708,0,0,1-1.986-.826A2.708,2.708,0,0,1,96-836.812v-16.875a2.708,2.708,0,0,1,.826-1.986,2.708,2.708,0,0,1,1.986-.826h8.438v-4.687a2.708,2.708,0,0,1,.826-1.986,2.708,2.708,0,0,1,1.986-.826h1.875a2.708,2.708,0,0,1,1.986.826,2.708,2.708,0,0,1,.826,1.986v4.688h8.438a2.708,2.708,0,0,1,1.986.826,2.708,2.708,0,0,1,.826,1.986v16.875a2.708,2.708,0,0,1-.826,1.986,2.708,2.708,0,0,1-1.986.826Zm0-2.812h24.375v-16.875H114.75a2.7,2.7,0,0,1-.826,1.992,2.718,2.718,0,0,1-1.986.82h-1.875a2.708,2.708,0,0,1-1.986-.826,2.708,2.708,0,0,1-.826-1.986H98.813Zm11.25-16.875h1.875v-7.5h-1.875ZM111-845.25Z" transform="translate(-96 864)" fill="#454545"/>
</svg>
