<svg id="Componente_245_1" data-name="Componente 245 – 1" xmlns="http://www.w3.org/2000/svg" xmlns:xlink="http://www.w3.org/1999/xlink" width="18" height="18" viewBox="0 0 18 18">
  <defs>
    <clipPath id="clip-path">
      <rect id="Rectángulo_150042" width="11.141" height="14.03"/>
    </clipPath>
  </defs>
  <rect id="Rectángulo_150076" width="18" height="18" fill="none"/>
  <g id="Grupo_195544" transform="translate(3.347 1.9)">
    <g id="Grupo_195489" clip-path="url(#clip-path)">
      <path id="Trazado_46617" d="M3.527,7.621H4.889V5.734H6.252V7.621H7.614V4.372L5.571,3.009,3.527,4.372V7.621m2.044,4.935a18.91,18.91,0,0,0,3.314-3.72,6,6,0,0,0,1.149-3.119A4.529,4.529,0,0,0,8.752,2.4,4.292,4.292,0,0,0,5.571,1.1,4.292,4.292,0,0,0,2.389,2.4,4.529,4.529,0,0,0,1.107,5.718,6,6,0,0,0,2.256,8.837a18.91,18.91,0,0,0,3.314,3.72m0,1.473A23.639,23.639,0,0,1,1.392,9.537,7.022,7.022,0,0,1,0,5.718,5.527,5.527,0,0,1,5.571,0a5.527,5.527,0,0,1,5.571,5.718A7.022,7.022,0,0,1,9.749,9.537,23.639,23.639,0,0,1,5.571,14.03" transform="translate(0 0)"/>
    </g>
  </g>
</svg>
