<svg xmlns="http://www.w3.org/2000/svg" xmlns:xlink="http://www.w3.org/1999/xlink" width="252.137" height="193.062" viewBox="0 0 252.137 193.062">
  <defs>
    <clipPath id="clip-path">
      <rect id="Rectángulo_150339" data-name="Rectángulo 150339" width="252.137" height="193.062" fill="none"/>
    </clipPath>
    <clipPath id="clip-path-3">
      <rect id="Rectángulo_150336" data-name="Rectángulo 150336" width="228.507" height="193.062" fill="none"/>
    </clipPath>
  </defs>
  <g id="Grupo_196223" data-name="Grupo 196223" transform="translate(-59 -315.535)">
    <g id="Grupo_196118" data-name="Grupo 196118" transform="translate(59 315.535)">
      <g id="Enmascarar_grupo_196117" data-name="Enmascarar grupo 196117" clip-path="url(#clip-path)">
        <g id="Grupo_196116" data-name="Grupo 196116" transform="translate(0 0)">
          <g id="Grupo_196115" data-name="Grupo 196115" clip-path="url(#clip-path)">
            <g id="Grupo_196114" data-name="Grupo 196114" transform="translate(16.419)" opacity="0.12">
              <g id="Grupo_196113" data-name="Grupo 196113">
                <g id="Grupo_196112" data-name="Grupo 196112" clip-path="url(#clip-path-3)">
                  <path id="Trazado_47438" data-name="Trazado 47438" d="M49.4,193.063c-13.537-3.8-33.245-19.363-37.835-31.9a40.432,40.432,0,0,1,5.849-37.9c4.258-5.615,10.187-10.632,11.387-17.43,1.619-9.163-5.847-17.208-10.819-25.238C3.458,57.139,11.23,23.8,34.865,8.184,47.777-.351,66.119-3.371,79.3,4.789c10.819,6.7,16,19.218,26.148,26.784,11.09,8.269,26.394,9.393,40.515,8.344S174.231,36,188.288,37.635s28.6,9.145,32.688,21.87c4.638,14.444-5.435,29.484-5.006,44.563.337,11.79,7,22.461,12.8,32.928s11,22.271,8.164,33.762-16.107,22.3-33.966,22.3" transform="translate(-9.219 0)" fill="#23ff00"/>
                </g>
              </g>
            </g>
            <path id="Trazado_47439" data-name="Trazado 47439" d="M69.816,103.17a8.522,8.522,0,1,1-8.522-8.522,8.521,8.521,0,0,1,8.522,8.522" transform="translate(41.212 73.916)" fill="#454545"/>
            <path id="Trazado_47440" data-name="Trazado 47440" d="M62.545,100.954a3.468,3.468,0,1,1-3.468-3.468,3.468,3.468,0,0,1,3.468,3.468" transform="translate(43.429 76.132)" fill="#b7b7b7"/>
            <path id="Trazado_47441" data-name="Trazado 47441" d="M105.178,103.17a8.522,8.522,0,1,1-8.522-8.522,8.521,8.521,0,0,1,8.522,8.522" transform="translate(68.829 73.916)" fill="#454545"/>
            <path id="Trazado_47442" data-name="Trazado 47442" d="M97.907,100.954a3.468,3.468,0,1,1-3.468-3.468,3.468,3.468,0,0,1,3.468,3.468" transform="translate(71.045 76.132)" fill="#b7b7b7"/>
            <path id="Trazado_47443" data-name="Trazado 47443" d="M94.215,97.486a3.462,3.462,0,0,0-2.956,1.662,3.463,3.463,0,0,1,4.762,4.762,3.465,3.465,0,0,0-1.806-6.424" transform="translate(71.269 76.132)"/>
            <path id="Trazado_47444" data-name="Trazado 47444" d="M102.569,97.642h0a8.512,8.512,0,0,0-12.962,0h0l-.057.069c-.059.069-.114.141-.169.212s-.11.139-.162.21-.1.137-.144.207c-.034.048-.071.1-.1.144h.005c-.037.057-.077.11-.11.166.066-.055.135-.11.2-.166H99.672a8.517,8.517,0,0,1,1.92,11.188,8.514,8.514,0,0,0,.978-12.03m-12.226,0a8.517,8.517,0,0,1,8.052,0Z" transform="translate(69.398 73.916)" fill="#b7b7b7"/>
            <path id="Trazado_47445" data-name="Trazado 47445" d="M58.853,97.486A3.462,3.462,0,0,0,55.9,99.148a3.463,3.463,0,0,1,4.762,4.762,3.465,3.465,0,0,0-1.806-6.424" transform="translate(43.653 76.132)"/>
            <path id="Trazado_47446" data-name="Trazado 47446" d="M67.207,97.642h0a8.512,8.512,0,0,0-12.962,0h0l-.057.069c-.059.069-.114.141-.169.212s-.109.139-.162.21-.1.137-.144.207l-.1.144h.005c-.036.057-.075.11-.11.166.066-.055.135-.11.2-.166H64.31a8.517,8.517,0,0,1,1.92,11.188,8.514,8.514,0,0,0,.978-12.03m-12.226,0a8.517,8.517,0,0,1,8.052,0Z" transform="translate(41.782 73.916)" fill="#b7b7b7"/>
            <path id="Trazado_47447" data-name="Trazado 47447" d="M43.98,45.167l9.555,74.845h93.082l9.555-74.845Zm8,27.229H74.057l1.963,23.047H54.926Zm26.581,0h21.1V95.443H80.525Zm21.1-4.492H78.181L76.628,49.659H99.663Zm4.49-18.246h23.035L125.635,67.9H104.153Zm-4.49,50.275V115.52H82.235L80.908,99.933Zm4.49,0h18.755l-1.327,15.587H104.153Zm0-4.49V72.4h21.1l-1.961,23.047ZM129.76,72.4h18.408l-2.942,23.047H127.8Zm.383-4.492L131.7,49.659H151.07L148.741,67.9ZM72.123,49.659,73.676,67.9H51.41L49.081,49.659ZM55.5,99.933H76.4l1.327,15.587H57.49Zm70.59,15.587,1.327-15.587h17.236l-1.989,15.587Z" transform="translate(34.346 35.273)"/>
            <path id="Trazado_47448" data-name="Trazado 47448" d="M155.574,51.746H47.863a3.64,3.64,0,0,1-3.64-3.64v-.114a3.64,3.64,0,0,1,3.64-3.64h107.71a3.64,3.64,0,0,1,3.64,3.64v.114a3.64,3.64,0,0,1-3.64,3.64" transform="translate(34.536 34.636)" fill="#454545"/>
            <path id="Trazado_47449" data-name="Trazado 47449" d="M155.427,44.351H47.717a3.64,3.64,0,0,0-3.307,2.125,3.67,3.67,0,0,1,1.061-.157h107.71a3.64,3.64,0,0,1,3.64,3.638v.116a3.613,3.613,0,0,1-.333,1.514,3.64,3.64,0,0,0,2.579-3.482v-.114a3.64,3.64,0,0,0-3.64-3.64" transform="translate(34.682 34.636)"/>
            <path id="Trazado_47450" data-name="Trazado 47450" d="M156.7,144.077h-93a2.994,2.994,0,0,1,0-5.988h93a4.769,4.769,0,1,0,0-9.537H67.038a3,3,0,0,1-2.971-2.616L53.246,41.176H32.217a2.994,2.994,0,1,1,0-5.988H55.882A3,3,0,0,1,58.853,37.8l10.821,84.761H156.7a10.757,10.757,0,0,1,0,21.514" transform="translate(22.822 27.48)" fill="#ff001d"/>
            <path id="Trazado_47451" data-name="Trazado 47451" d="M30.9,37.249H54.565a2.993,2.993,0,0,1,2.969,2.614l10.821,84.761h87.028a10.757,10.757,0,0,1,9.7,15.412,10.748,10.748,0,0,0-8.394-17.473H69.659L58.838,37.8a3,3,0,0,0-2.971-2.614H32.2a2.992,2.992,0,0,0-2.96,2.561,2.982,2.982,0,0,1,1.656-.5" transform="translate(22.837 27.48)" fill="#960a0f"/>
            <path id="Trazado_47452" data-name="Trazado 47452" d="M58.735,42.188H32.74a3.7,3.7,0,0,1,0-7.395H58.735a3.7,3.7,0,1,1,0,7.395" transform="translate(22.681 27.172)" fill="#454545"/>
            <path id="Trazado_47453" data-name="Trazado 47453" d="M58.64,34.793H32.645a3.7,3.7,0,0,0-3.48,2.458,3.686,3.686,0,0,1,1.8-.467H56.955a3.689,3.689,0,0,1,3.48,4.937,3.7,3.7,0,0,0-1.8-6.928" transform="translate(22.776 27.172)"/>
            <path id="Trazado_47454" data-name="Trazado 47454" d="M48.8,38.945H42.762l.408,3.181h6.036Z" transform="translate(33.395 30.414)" fill="#7b0207"/>
            <path id="Trazado_47455" data-name="Trazado 47455" d="M59.851,48.5l.335,3.934h4.508L64.359,48.5Z" transform="translate(46.741 37.879)" fill="#454545"/>
            <path id="Trazado_47456" data-name="Trazado 47456" d="M108.755,48.5h-4.527l-.5,3.934h4.527Z" transform="translate(81.005 37.879)" fill="#454545"/>
            <rect id="Rectángulo_150337" data-name="Rectángulo 150337" width="4.492" height="3.934" transform="translate(134.01 86.382)" fill="#454545"/>
            <path id="Trazado_47457" data-name="Trazado 47457" d="M95.286,48.5H90.778l-.335,3.934h4.508Z" transform="translate(70.632 37.879)" fill="#454545"/>
            <path id="Trazado_47458" data-name="Trazado 47458" d="M185.962,104.221H32.4c-.778,0-1.409.869-1.409,1.943v3.564c0,1.074.63,1.943,1.409,1.943H185.962c.778,0,1.409-.869,1.409-1.943v-3.564c0-1.074-.63-1.943-1.409-1.943" transform="translate(24.201 81.392)" fill="#00b70c"/>
            <path id="Trazado_47459" data-name="Trazado 47459" d="M118.834,88.9c-3.334,0-3.339,5.181,0,5.181s3.339-5.181,0-5.181" transform="translate(90.85 69.431)" fill="#00b70c"/>
            <path id="Trazado_47460" data-name="Trazado 47460" d="M141.267,59.17c-3.336,0-3.339,5.181,0,5.181s3.339-5.181,0-5.181" transform="translate(108.368 46.209)" fill="#00b70c"/>
            <path id="Trazado_47461" data-name="Trazado 47461" d="M107.642,35.548a3.239,3.239,0,0,1,0-6.476,3.018,3.018,0,0,1,2.369,1.035,3.364,3.364,0,0,1,.782,2.2,3.1,3.1,0,0,1-3.151,3.24m0-5.181a1.945,1.945,0,0,0,0,3.886,1.736,1.736,0,0,0,1.386-.584,2.118,2.118,0,0,0,.47-1.361,1.805,1.805,0,0,0-1.856-1.941" transform="translate(81.603 22.704)" fill="#00b70c"/>
            <path id="Trazado_47462" data-name="Trazado 47462" d="M85.447,4.395c-3.334,0-3.339,5.181,0,5.181s3.339-5.181,0-5.181" transform="translate(64.776 3.432)" fill="#00b70c"/>
            <path id="Trazado_47463" data-name="Trazado 47463" d="M46.322,20.567c-3.334,0-3.339,5.181,0,5.181s3.339-5.181,0-5.181" transform="translate(34.221 16.062)" fill="#00b70c"/>
            <path id="Trazado_47464" data-name="Trazado 47464" d="M2.5,32.565c-3.334,0-3.339,5.181,0,5.181s3.339-5.181,0-5.181" transform="translate(0 25.432)" fill="#00b70c"/>
            <path id="Trazado_47465" data-name="Trazado 47465" d="M35.812,81.213a3.1,3.1,0,0,1-3.151-3.236,3.377,3.377,0,0,1,.782-2.2,3.021,3.021,0,0,1,2.369-1.035,3.1,3.1,0,0,1,3.151,3.236,3.377,3.377,0,0,1-.782,2.2,3.02,3.02,0,0,1-2.369,1.035m0-5.181a1.945,1.945,0,1,0,1.854,1.941,1.806,1.806,0,0,0-1.854-1.941" transform="translate(25.507 58.366)" fill="#00b70c"/>
            <path id="Trazado_47466" data-name="Trazado 47466" d="M6.154,102.99c-3.334,0-3.339,5.181,0,5.181s3.339-5.181,0-5.181" transform="translate(2.852 80.43)" fill="#00b70c"/>
          </g>
        </g>
      </g>
    </g>
  </g>
</svg>
