<svg xmlns="http://www.w3.org/2000/svg" width="40.821" height="40.821" viewBox="0 0 40.821 40.821">
  <g id="Grupo_195117" data-name="Grupo 195117" transform="translate(-15905.155 22002.264)">
    <g id="Grupo_185571" data-name="Grupo 185571" transform="translate(15905.155 -22002.264)">
      <ellipse id="Elipse_1674" data-name="Elipse 1674" cx="20.411" cy="20.411" rx="20.411" ry="20.411" transform="translate(0 0)" fill="rgba(61,195,44,0.14)"/>
      <ellipse id="Elipse_1477" data-name="Elipse 1477" cx="17.183" cy="17.183" rx="17.183" ry="17.183" transform="translate(3.228 3.228)" fill="#3dc32c"/>
      <g id="Grupo_185435" data-name="Grupo 185435" transform="translate(11.181 13.018)">
        <path id="Trazado_39041" data-name="Trazado 39041" d="M2346.843,601.616h0a1.288,1.288,0,0,1-.982-.465l-5.849-7.157a1.269,1.269,0,1,1,1.962-1.61l4.881,5.962,9.107-11.057a1.269,1.269,0,0,1,1.962,1.61l-10.088,12.252A1.331,1.331,0,0,1,2346.843,601.616Z" transform="translate(-2339.727 -586.827)" fill="#fff"/>
      </g>
    </g>
  </g>
</svg>
