<svg xmlns="http://www.w3.org/2000/svg" width="28" height="28" viewBox="0 0 28 28">
  <g id="Grupo_199217" transform="translate(-28 -564)">
    <rect id="Rectángulo_150831" width="28" height="28" transform="translate(28 564)" fill="none"/>
    <path id="Trazado_80786" d="M127.778-832.5l1.472-.722a1.771,1.771,0,0,1,.75-.167,1.771,1.771,0,0,1,.75.167l1.472.722v-5.278h-4.444Zm-2.222,8.056a1.075,1.075,0,0,1-.792-.319,1.075,1.075,0,0,1-.319-.792,1.075,1.075,0,0,1,.319-.792,1.075,1.075,0,0,1,.792-.319h3.333a1.075,1.075,0,0,1,.792.319,1.075,1.075,0,0,1,.319.792,1.075,1.075,0,0,1-.319.792,1.075,1.075,0,0,1-.792.319ZM122.222-820a2.14,2.14,0,0,1-1.569-.653,2.14,2.14,0,0,1-.653-1.569v-15.556a2.14,2.14,0,0,1,.653-1.569,2.14,2.14,0,0,1,1.569-.653h15.556a2.14,2.14,0,0,1,1.569.653,2.14,2.14,0,0,1,.653,1.569v15.556a2.14,2.14,0,0,1-.653,1.569,2.14,2.14,0,0,1-1.569.653Zm0-17.778v0Zm0,15.556h15.556v-15.556h-3.333v7.083a1.048,1.048,0,0,1-.528.958,1.058,1.058,0,0,1-1.083.042L130-831.111l-2.833,1.417a1.058,1.058,0,0,1-1.083-.042,1.048,1.048,0,0,1-.528-.958v-7.083h-3.333Z" transform="translate(-88 1408)" fill="#ff1835"/>
  </g>
</svg>
