<svg xmlns="http://www.w3.org/2000/svg" xmlns:xlink="http://www.w3.org/1999/xlink" width="18.041" height="17" viewBox="0 0 18.041 17">
  <defs>
    <clipPath id="clip-path">
      <rect id="Rect치ngulo_2507" data-name="Rect치ngulo 2507" width="13.863" height="5.41" fill="#fff"/>
    </clipPath>
  </defs>
  <g id="fmd_good_black_24dp" transform="translate(0.91)">
    <g id="Grupo_189040" data-name="Grupo 189040">
      <path id="Trazado_37664" data-name="Trazado 37664" d="M0,0H14.625V17H0Z" fill="none"/>
    </g>
    <g id="Grupo_195585" data-name="Grupo 195585" transform="translate(-0.889 1.795)">
      <g id="Trazado_50992" data-name="Trazado 50992" transform="translate(0 3.738) rotate(-13)" fill="#ff001d">
        <path d="M 1.66730797290802 8.548903465270996 C 1.307227969169617 8.548903465270996 0.9656479954719543 8.401702880859375 0.7055079936981201 8.134433746337891 C 0.3938979804515839 7.81428337097168 0.2228479832410812 7.346973419189453 0.2362279891967773 6.852323532104492 L 0.3558879792690277 2.426043272018433 C 0.3822879791259766 1.449563384056091 1.098387956619263 0.6340233087539673 1.952198028564453 0.6080633401870728 L 14.73904800415039 0.2192733287811279 C 14.75292778015137 0.2188533246517181 14.7667875289917 0.2186433225870132 14.78056812286377 0.2186433225870132 C 15.14064788818359 0.2186433225870132 15.48222827911377 0.3658433258533478 15.7423677444458 0.6331133246421814 C 16.05397796630859 0.9532633423805237 16.22502708435059 1.420573353767395 16.2116584777832 1.915223360061646 L 16.09198760986328 6.341503143310547 C 16.06559753417969 7.317983150482178 15.34949779510498 8.133522987365723 14.49567794799805 8.159482955932617 L 1.708827972412109 8.548273086547852 C 1.694947957992554 8.548693656921387 1.681087970733643 8.548903465270996 1.66730797290802 8.548903465270996 Z" stroke="none"/>
        <path d="M 14.78056812286377 0.4686431884765625 C 14.76931762695312 0.4686431884765625 14.75799751281738 0.4688129425048828 14.74664783477783 0.4691629409790039 L 1.95978832244873 0.8579535484313965 C 1.236078262329102 0.8799533843994141 0.6286783218383789 1.586423397064209 0.6057977676391602 2.432793140411377 L 0.4861383438110352 6.859073162078857 C 0.4745683670043945 7.286683082580566 0.6198282241821289 7.687973499298096 0.8846578598022461 7.960063457489014 C 1.035107612609863 8.114643096923828 1.293027877807617 8.298903465270996 1.66730785369873 8.298903465270996 C 1.678558349609375 8.298903465270996 1.689878463745117 8.298733711242676 1.701228141784668 8.298383712768555 L 14.48808765411377 7.90959358215332 C 15.2117977142334 7.887593269348145 15.81919765472412 7.18112325668335 15.84207820892334 6.334753036499023 L 15.96174812316895 1.908473491668701 C 15.97330760955811 1.480863094329834 15.82804775238037 1.079563140869141 15.56321811676025 0.8074831962585449 C 15.41276836395264 0.6529035568237305 15.15484809875488 0.4686431884765625 14.78056812286377 0.4686431884765625 M 14.78057098388672 -0.03135490417480469 C 15.74255752563477 -0.03135490417480469 16.49102783203125 0.8321013450622559 16.46156883239746 1.921983242034912 L 16.34189796447754 6.348263263702393 C 16.31193733215332 7.456613540649414 15.4887580871582 8.379403114318848 14.50327777862549 8.409363746643066 L 1.716427803039551 8.798152923583984 C 0.7309999465942383 8.828123092651367 -0.04365158081054688 7.953913688659668 -0.01368141174316406 6.845563411712646 L 0.1059780120849609 2.419283390045166 C 0.1359481811523438 1.310933113098145 0.9591178894042969 0.3881435394287109 1.944598197937012 0.3581829071044922 L 14.73144817352295 -0.03060626983642578 C 14.74786853790283 -0.03110599517822266 14.7642707824707 -0.03135490417480469 14.78057098388672 -0.03135490417480469 Z" stroke="none" fill="#fff"/>
      </g>
      <g id="Trazado_50993" data-name="Trazado 50993" transform="translate(0.107 4.057) rotate(-8)" fill="#ff001d">
        <path d="M 1.696246266365051 8.462239265441895 C 1.338716268539429 8.462239265441895 0.9965262413024902 8.314409255981445 0.7327262163162231 8.045989036560059 C 0.4109462201595306 7.718559265136719 0.2314362376928329 7.240499496459961 0.240226224064827 6.734379291534424 L 0.3175362348556519 2.285839557647705 C 0.3345562219619751 1.306499481201172 1.035486221313477 0.4961594641208649 1.880016207695007 0.4794594645500183 L 14.58141613006592 0.2282594740390778 C 14.59022617340088 0.2280894815921783 14.59911632537842 0.2279994785785675 14.60788631439209 0.2279994785785675 C 14.96541595458984 0.2279994785785675 15.30760669708252 0.3758294880390167 15.57140636444092 0.6442494988441467 C 15.89318656921387 0.9716794490814209 16.07269668579102 1.449739456176758 16.06390571594238 1.955849528312683 L 15.98659610748291 6.404399394989014 C 15.96957588195801 7.383739471435547 15.26864624023438 8.194079399108887 14.42411613464355 8.210779190063477 L 1.722716212272644 8.461979866027832 C 1.713906288146973 8.462149620056152 1.705016255378723 8.462239265441895 1.696246266365051 8.462239265441895 Z" stroke="none"/>
        <path d="M 14.60788631439209 0.4779996871948242 L 14.58636665344238 0.4782094955444336 L 1.884965896606445 0.7294096946716309 C 1.173226356506348 0.7434892654418945 0.5822162628173828 1.443649291992188 0.5674962997436523 2.290189266204834 L 0.4901866912841797 6.738729476928711 C 0.4825563430786133 7.178229331970215 0.6359462738037109 7.590839385986328 0.911036491394043 7.8707594871521 C 1.064136505126953 8.02653980255127 1.324636459350586 8.212239265441895 1.696246147155762 8.212239265441895 L 1.717765808105469 8.212029457092285 L 14.41916656494141 7.960829734802246 C 15.1309061050415 7.946749687194824 15.72191619873047 7.246589660644531 15.7366361618042 6.400049209594727 L 15.81394577026367 1.951499462127686 C 15.82157611846924 1.511999607086182 15.66818618774414 1.099399566650391 15.39309597015381 0.8194894790649414 C 15.2399959564209 0.6636991500854492 14.9794864654541 0.4779996871948242 14.60788631439209 0.4779996871948242 M 14.60788536071777 -0.02200126647949219 C 15.5720043182373 -0.02200126647949219 16.3330192565918 0.8581676483154297 16.31386566162109 1.960189342498779 L 16.23655700683594 6.408739566802979 C 16.21719551086426 7.522659301757812 15.40794658660889 8.44136905670166 14.42905616760254 8.460729598999023 L 1.727656364440918 8.711929321289062 C 0.7487735748291016 8.731288909912109 -0.02909469604492188 7.843969821929932 -0.009733200073242187 6.730039596557617 L 0.06757545471191406 2.28149938583374 C 0.08693695068359375 1.167569637298584 0.8961763381958008 0.2488698959350586 1.875076293945312 0.2295093536376953 L 14.57647609710693 -0.02169036865234375 C 14.58693218231201 -0.02189731597900391 14.59747695922852 -0.02200126647949219 14.60788536071777 -0.02200126647949219 Z" stroke="none" fill="#fff"/>
      </g>
      <g id="Rect치ngulo_150102" data-name="Rect치ngulo 150102" transform="translate(0.431 3.869)" fill="#ff001d" stroke="#fff" stroke-width="0.4">
        <rect width="15.725" height="8.708" rx="2" stroke="none"/>
        <rect x="0.2" y="0.2" width="15.325" height="8.308" rx="1.8" fill="none"/>
      </g>
      <g id="Grupo_195560" data-name="Grupo 195560" transform="translate(1.809 5.605)">
        <g id="Grupo_190000" data-name="Grupo 190000" transform="translate(0 0)" clip-path="url(#clip-path)">
          <path id="Trazado_2344" data-name="Trazado 2344" d="M419.769,1.352l-.441.931A.361.361,0,0,1,419,2.49h-.822a.151.151,0,0,1-.136-.215l.441-.931a.361.361,0,0,1,.326-.207h.822a.151.151,0,0,1,.136.215m.944-1.344h-2.057a1.31,1.31,0,0,0-1.185.75L416.4,3.037a.408.408,0,0,0,.369.583h1.909l-.16.364a.535.535,0,0,1-.483.3h-2.22l-.554,1.129h2.919a1.516,1.516,0,0,0,1.37-.867L421.28.9a.627.627,0,0,0-.567-.9" transform="translate(-410.949 -0.008)" fill="#fff"/>
          <path id="Trazado_2345" data-name="Trazado 2345" d="M4.5,1.344l-.441.931a.361.361,0,0,1-.326.207H2.915a.151.151,0,0,1-.136-.215l.441-.931a.361.361,0,0,1,.326-.207h.822a.151.151,0,0,1,.136.215M5.449,0H3.391A1.31,1.31,0,0,0,2.207.75L1.139,3.029a.408.408,0,0,0,.369.583H3.417l-.16.364a.535.535,0,0,1-.483.3H.554L0,5.41H2.918a1.516,1.516,0,0,0,1.37-.867L6.015.9A.627.627,0,0,0,5.449,0" fill="#fff"/>
          <path id="Trazado_2346" data-name="Trazado 2346" d="M892.5,185.752l.605-1.27h-.988a.208.208,0,0,0-.188.118l-.549,1.152h-1.4a.208.208,0,0,0-.188.119l-.393.834h1.524l-.605,1.27h.988a.208.208,0,0,0,.188-.118l.549-1.152h1.4a.208.208,0,0,0,.188-.119l.393-.834Z" transform="translate(-880.165 -182.565)" fill="#fff"/>
        </g>
      </g>
    </g>
  </g>
</svg>
