<svg xmlns="http://www.w3.org/2000/svg" width="292.59" height="152.647" viewBox="0 0 292.59 152.647">
  <g id="Grupo_195552" data-name="Grupo 195552" transform="translate(24582.955 -1338)" opacity="0.39" style="mix-blend-mode: multiply;isolation: isolate">
    <path id="Trazado_45663" data-name="Trazado 45663" d="M-1838.338-1190.593c-.193-.931.4-1.567.741-2.261,4.435-9.08,8.939-18.124,13.292-27.242.838-1.75,1.886-2.207,3.713-2.2,19.414.059,38.831.035,58.245.039a20.512,20.512,0,0,0,5.6-.49,14.724,14.724,0,0,0,9.778-8.148c1.3-2.746,2.483-5.549,3.673-8.345.76-1.79.7-1.879-1.375-1.887-6.62-.022-13.244-.007-19.862-.01-10.561,0-21.116-.062-31.673.021a11.585,11.585,0,0,1-11.466-9.712,12.273,12.273,0,0,1,1.359-7.521q7.932-16.871,15.813-33.766c4.552-9.717,8.993-19.486,13.7-29.13,6.818-13.983,18.085-21.447,33.688-21.625,19.237-.215,38.476.049,57.713-.091a17.828,17.828,0,0,1,17.908,16.753,19.555,19.555,0,0,1-2.164,9.563q-8.72,18.28-17.35,36.6-15.264,32.247-30.533,64.488-9.519,20.043-31.3,24.461a38.941,38.941,0,0,1-7.732.747q-39.728-.013-79.451-.011A4.28,4.28,0,0,1-1838.338-1190.593Zm93.732-82.389c3.666,0,7.327.03,10.992-.009a9.885,9.885,0,0,0,9.429-5.922q6.157-12.791,12.141-25.665c1.672-3.586-.209-6.493-4.174-6.521q-11.259-.073-22.515,0a9.708,9.708,0,0,0-9.232,5.782q-6.177,12.787-12.156,25.661c-1.751,3.756.115,6.613,4.259,6.661C-1752.108-1272.946-1748.356-1272.98-1744.605-1272.981Z" transform="translate(-22744.58 2680.962)" fill="#fa0000"/>
    <path id="Trazado_45664" data-name="Trazado 45664" d="M-1385.011-1190.411c-.246-1.1.429-1.8.806-2.575,4.391-9,8.853-17.972,13.188-27a3.458,3.458,0,0,1,3.648-2.3c19.509.076,39.018.043,58.526.05a20.4,20.4,0,0,0,5.071-.4,14.172,14.172,0,0,0,9.551-7.234c1.8-3.476,3.268-7.131,4.921-10.8-1.032-.692-2.032-.423-2.951-.427q-24.565-.026-49.13-.013a18.959,18.959,0,0,1-4.279-.274,11.546,11.546,0,0,1-8.37-14.318,17.9,17.9,0,0,1,.979-2.492q14.719-31.469,29.478-62.923c5.63-11.937,15.032-19.055,28.039-21.393a28.679,28.679,0,0,1,5.079-.37c19.51-.014,39.017.073,58.527-.045a17.771,17.771,0,0,1,17.726,19.056,20.247,20.247,0,0,1-2.108,7.156q-20.278,42.791-40.526,85.6c-2.526,5.334-5,10.693-7.59,16q-9.582,19.651-31.031,24.03a35.986,35.986,0,0,1-7.2.758q-40.4,0-80.808,0C-1383.983-1190.332-1384.5-1190.384-1385.011-1190.411Zm110.687-120.681h0c-3.752,0-7.507-.057-11.257.019a9.52,9.52,0,0,0-8.889,5.461c-4.277,8.742-8.375,17.571-12.547,26.363a4.159,4.159,0,0,0-.076,3.864,4.433,4.433,0,0,0,4.4,2.438c7.509-.03,15.012.024,22.518-.03a9.714,9.714,0,0,0,9.229-5.8q6.171-12.782,12.161-25.655c1.75-3.751-.125-6.608-4.283-6.654C-1266.815-1311.128-1270.571-1311.092-1274.324-1311.092Z" transform="translate(-23076.215 2680.937)" fill="#fa0000"/>
  </g>
</svg>
