<svg xmlns="http://www.w3.org/2000/svg" width="20.026" height="15.017" viewBox="0 0 20.026 15.017">
  <g id="delivery" transform="translate(-1.997 -5)">
    <path id="Trazado_50820" data-name="Trazado 50820" d="M21.729,10.871,18.94,8.118A.937.937,0,0,0,18.3,7.86H14.156V5.987A.93.93,0,0,0,13.305,5H2.865A.93.93,0,0,0,2,5.987V16.17a.93.93,0,0,0,.865.987h.565a1.959,1.959,0,0,0,0,.358,2.5,2.5,0,0,0,5.006,0,1.96,1.96,0,0,0,0-.358h7.151a1.96,1.96,0,0,0,0,.358,2.5,2.5,0,0,0,5.006,0,1.96,1.96,0,0,0,0-.358h.529a.965.965,0,0,0,.9-.994V11.586a1,1,0,0,0-.293-.715Zm-15.8,7.716A1.073,1.073,0,0,1,4.86,17.514a1.066,1.066,0,0,1,.558-.93h0a1.173,1.173,0,0,1,.236-.1h0a1.13,1.13,0,0,1,.279-.043,1.073,1.073,0,1,1,0,2.145Zm1.745-2.86a2.489,2.489,0,0,0-3.49,0H3.429V6.43h9.3v9.3Zm11.485,1.788a1.073,1.073,0,1,1-1.073-1.073.908.908,0,0,1,.279.043,1.044,1.044,0,0,1,.715.672A.994.994,0,0,1,19.162,17.514Zm1.43-1.788h-.758a2.489,2.489,0,0,0-3.483,0h-2.2V9.291h3.983l2.453,2.524Z" transform="translate(0 0)" fill="#b7b7b7"/>
  </g>
</svg>
