<svg xmlns="http://www.w3.org/2000/svg" width="36" height="36" viewBox="0 0 36 36">
  <g id="Grupo_245935" data-name="Grupo 245935" transform="translate(-16542 14836)">
    <rect id="Rectángulo_168387" data-name="Rectángulo 168387" width="36" height="36" transform="translate(16542 -14836)" fill="#fff" opacity="0"/>
    <g id="Grupo_245911" data-name="Grupo 245911" transform="translate(100.932 -54.729)">
      <path id="_31_Cart_Shopping_Shopping_Cart_Trolley" data-name="31 Cart, Shopping, Shopping Cart, Trolley" d="M10.982,20.611a.573.573,0,0,1-.573-.475l-.3-1.816H24.912a.573.573,0,0,0,.573-.481L27.2,7.528a.573.573,0,0,0-.573-.664H8.129l-.4-2.389A.573.573,0,0,0,7.155,4H2V5.146H6.674L9.292,20.331a1.718,1.718,0,0,0,1.69,1.426H27.2V20.611ZM8.329,8.01H25.955l-1.529,9.165H9.91Zm5.155,14.32a2.327,2.327,0,1,1-.029,0Zm0,3.437a1.182,1.182,0,1,0-.029,0Zm9.165-3.437a2.327,2.327,0,1,1-.029,0Zm0,3.437a1.182,1.182,0,1,0-.029,0Z" transform="translate(16443.068 -14778.271)" stroke="#000" stroke-width="0.4"/>
      <g id="Grupo_245907" data-name="Grupo 245907" transform="translate(34.502 -8)">
        <g id="Grupo_195945" data-name="Grupo 195945" transform="translate(16428.371 -14754.747)">
          <ellipse id="Elipse_2195" data-name="Elipse 2195" cx="5.565" cy="5.194" rx="5.565" ry="5.194" transform="translate(0 0)" fill="#30d386"/>
        </g>
        <g id="Grupo_195946" data-name="Grupo 195946" transform="translate(16428.715 -14755.079)">
          <path id="Trazado_46878" data-name="Trazado 46878" d="M38.327,33a5.327,5.327,0,1,0,5.327,5.327A5.333,5.333,0,0,0,38.327,33Zm0,9.834a4.507,4.507,0,1,1,4.507-4.507A4.512,4.512,0,0,1,38.327,42.834Z" transform="translate(-33 -33)"/>
          <path id="Trazado_46879" data-name="Trazado 46879" d="M43.575,39.713l-3.02,4.139-2.142-1.507a.41.41,0,0,0-.471.67l2.472,1.738a.41.41,0,0,0,.567-.094L44.236,40.2A.41.41,0,0,0,43.575,39.713Z" transform="translate(-35.813 -36.862)"/>
        </g>
      </g>
      <g id="Grupo_199296" data-name="Grupo 199296" transform="translate(16454.668 -14768.521)">
        <path id="Trazado_45663" data-name="Trazado 45663" d="M-1838.375-1337.409c-.007-.034.014-.057.027-.083.162-.331.325-.661.485-.992a.125.125,0,0,1,.135-.081c.708,0,1.416,0,2.123,0a.757.757,0,0,0,.2-.018.538.538,0,0,0,.356-.3c.047-.1.09-.2.134-.3.028-.065.026-.069-.05-.069h-.724c-.385,0-.77,0-1.155,0a.423.423,0,0,1-.418-.354.448.448,0,0,1,.05-.274q.289-.615.576-1.231c.166-.355.328-.711.5-1.062a1.3,1.3,0,0,1,1.228-.788c.7-.008,1.4,0,2.1,0a.65.65,0,0,1,.653.611.712.712,0,0,1-.079.349q-.318.667-.632,1.334-.557,1.176-1.113,2.352a1.542,1.542,0,0,1-1.142.891,1.39,1.39,0,0,1-.281.028h-2.9A.155.155,0,0,1-1838.375-1337.409Zm3.417-3c.134,0,.267,0,.4,0a.36.36,0,0,0,.344-.216q.225-.466.443-.936a.155.155,0,0,0-.152-.237q-.41,0-.821,0a.353.353,0,0,0-.336.211q-.225.465-.443.935a.157.157,0,0,0,.155.243C-1835.231-1340.411-1835.095-1340.412-1834.958-1340.412Z" transform="translate(1838.376 1342.964)" fill="#ff001d"/>
        <path id="Trazado_45664" data-name="Trazado 45664" d="M-1385.062-1337.37c-.009-.041.015-.066.029-.094.16-.328.323-.655.481-.984a.126.126,0,0,1,.133-.084c.712,0,1.423,0,2.134,0a.758.758,0,0,0,.185-.014.514.514,0,0,0,.348-.264c.066-.127.12-.26.18-.394a.167.167,0,0,0-.108-.016h-1.791a.705.705,0,0,1-.156-.01.421.421,0,0,1-.305-.522.629.629,0,0,1,.036-.091q.536-1.148,1.074-2.294a1.331,1.331,0,0,1,1.022-.78,1.03,1.03,0,0,1,.185-.014c.711,0,1.422,0,2.133,0a.648.648,0,0,1,.646.7.748.748,0,0,1-.076.261q-.74,1.56-1.478,3.12c-.092.195-.182.39-.277.583a1.538,1.538,0,0,1-1.131.876,1.315,1.315,0,0,1-.263.028h-2.946Zm4.035-4.4h0c-.137,0-.274,0-.41,0a.347.347,0,0,0-.324.2c-.156.319-.305.641-.458.961a.152.152,0,0,0,0,.141.163.163,0,0,0,.161.089c.274,0,.547,0,.821,0a.354.354,0,0,0,.336-.211q.225-.466.444-.935c.064-.137,0-.241-.157-.243C-1380.754-1341.77-1380.891-1341.769-1381.027-1341.769Z" transform="translate(1389.499 1342.93)" fill="#ff001d"/>
      </g>
    </g>
  </g>
</svg>
