<svg xmlns="http://www.w3.org/2000/svg" width="36" height="36" viewBox="0 0 36 36">
  <g id="Grupo_245941" data-name="Grupo 245941" transform="translate(-16491 14642)">
    <rect id="Rectángulo_168390" data-name="Rectángulo 168390" width="36" height="36" transform="translate(16491 -14642)" fill="#fff" opacity="0"/>
    <g id="Grupo_245932" data-name="Grupo 245932" transform="translate(-40.999 11.803)">
      <path id="d9f6f3f06d0e26faa99b647919454da1" d="M19.295,19.778h9.02a2.262,2.262,0,0,0,2.255-2.255V11.51A4.523,4.523,0,0,0,26.06,7H21.55a4.523,4.523,0,0,0-4.51,4.51v6.013A2.262,2.262,0,0,0,19.295,19.778Zm9.772-3.6a1.9,1.9,0,0,1-1.6,2.1,31.732,31.732,0,0,1-7.494,0c-1.231-.216-1.428-1.687-1.428-2.1a33.712,33.712,0,0,1,0-5.228A2.99,2.99,0,0,1,20.877,8.6a11.732,11.732,0,0,1,6.145,0,2.812,2.812,0,0,1,2.045,2.352A31.42,31.42,0,0,1,29.066,16.175Zm10.448,6.309a.742.742,0,0,0-.677-.451h-9.02a.735.735,0,0,0-.564.263l-3.533,4.247H21.888L18.355,22.3a.735.735,0,0,0-.564-.263H8.771a.688.688,0,0,0-.677.451.756.756,0,0,0,.113.789l3.57,4.285V38.57a.754.754,0,0,0,.752.752H35.08a.754.754,0,0,0,.752-.752V27.558l3.57-4.285A.756.756,0,0,0,39.514,22.484ZM17.453,23.537l2.518,3.007h-7.1L10.35,23.537Zm-4.172,4.51H25.308v9.772H13.281Zm21.047,9.772H26.811V28.047h7.517Zm.413-11.275H27.676l2.518-3.007h7.066Z" transform="translate(16525.969 -14658.803)"/>
      <g id="Grupo_245931" data-name="Grupo 245931" transform="translate(16544.773 -14648.435)">
        <path id="Trazado_45663" data-name="Trazado 45663" d="M-1838.375-1337.756c-.006-.032.014-.053.026-.077.152-.31.3-.62.454-.931a.118.118,0,0,1,.127-.076c.663,0,1.327,0,1.99,0a.712.712,0,0,0,.192-.016.5.5,0,0,0,.334-.278c.044-.094.085-.19.125-.286.027-.061.025-.064-.046-.064h-.679c-.361,0-.722,0-1.082,0a.4.4,0,0,1-.392-.332.419.419,0,0,1,.047-.257q.271-.577.54-1.154c.156-.332.308-.666.469-1a1.22,1.22,0,0,1,1.151-.739c.657-.008,1.315,0,1.973,0a.609.609,0,0,1,.612.573.67.67,0,0,1-.074.327q-.3.625-.593,1.251-.522,1.1-1.044,2.2a1.446,1.446,0,0,1-1.07.835,1.306,1.306,0,0,1-.264.026h-2.716A.147.147,0,0,1-1838.375-1337.756Zm3.2-2.816c.125,0,.25,0,.375,0a.338.338,0,0,0,.323-.2q.211-.437.415-.877a.145.145,0,0,0-.143-.223q-.383,0-.77,0a.331.331,0,0,0-.315.2q-.211.437-.416.877a.147.147,0,0,0,.146.228C-1835.428-1340.57-1835.3-1340.571-1835.172-1340.571Z" transform="translate(1838.376 1342.963)" fill="#ff001d"/>
        <path id="Trazado_45664" data-name="Trazado 45664" d="M-1385.062-1337.717c-.009-.038.014-.062.027-.088.15-.308.3-.614.451-.923a.117.117,0,0,1,.124-.078c.667,0,1.334,0,2,0a.7.7,0,0,0,.173-.013.481.481,0,0,0,.326-.247c.063-.119.112-.244.169-.369a.156.156,0,0,0-.1-.015h-1.68a.662.662,0,0,1-.146-.01.4.4,0,0,1-.286-.49.573.573,0,0,1,.033-.085q.5-1.076,1.007-2.151a1.248,1.248,0,0,1,.958-.731.954.954,0,0,1,.174-.013c.667,0,1.333,0,2,0a.607.607,0,0,1,.606.652.7.7,0,0,1-.072.245q-.695,1.463-1.386,2.925c-.086.182-.171.365-.259.547a1.441,1.441,0,0,1-1.061.821,1.231,1.231,0,0,1-.246.026h-2.762Zm3.782-4.125h0c-.128,0-.256,0-.385,0a.325.325,0,0,0-.3.187c-.146.3-.286.6-.428.9a.142.142,0,0,0,0,.132.153.153,0,0,0,.151.083c.256,0,.513,0,.77,0a.332.332,0,0,0,.315-.2q.211-.437.416-.877c.06-.128,0-.226-.147-.228S-1381.151-1341.842-1381.28-1341.842Z" transform="translate(1389.222 1342.93)" fill="#ff001d"/>
      </g>
      <g id="Grupo_245933" data-name="Grupo 245933" transform="translate(16547.508 -14629.133)">
        <g id="Grupo_195945" data-name="Grupo 195945" transform="translate(0 0.299)">
          <ellipse id="Elipse_2195" data-name="Elipse 2195" cx="5.011" cy="4.677" rx="5.011" ry="4.677" transform="translate(0 0)" fill="#30d386"/>
        </g>
        <g id="Grupo_195946" data-name="Grupo 195946" transform="translate(0.31 0)">
          <path id="Trazado_46878" data-name="Trazado 46878" d="M37.8,33a4.8,4.8,0,1,0,4.8,4.8A4.8,4.8,0,0,0,37.8,33Zm0,8.855A4.059,4.059,0,1,1,41.855,37.8,4.063,4.063,0,0,1,37.8,41.855Z" transform="translate(-33 -33)"/>
          <path id="Trazado_46879" data-name="Trazado 46879" d="M43,39.7l-2.72,3.727-1.929-1.357a.369.369,0,0,0-.424.6l2.226,1.565a.369.369,0,0,0,.51-.084l2.933-4.02A.369.369,0,0,0,43,39.7Z" transform="translate(-36.007 -37.129)"/>
        </g>
      </g>
    </g>
  </g>
</svg>
