<svg xmlns="http://www.w3.org/2000/svg" xmlns:xlink="http://www.w3.org/1999/xlink" width="28.648" height="27.173" viewBox="0 0 28.648 27.173">
  <defs>
    <clipPath id="clip-path">
      <rect id="Rectángulo_150340" data-name="Rectángulo 150340" width="24.043" height="22.44" fill="none"/>
    </clipPath>
    <clipPath id="clip-path-2">
      <rect id="Rectángulo_150341" data-name="Rectángulo 150341" width="3.595" height="9.405" fill="#fff"/>
    </clipPath>
    <clipPath id="clip-path-3">
      <rect id="Rectángulo_150342" data-name="Rectángulo 150342" width="3.531" height="3.531" fill="#fff"/>
    </clipPath>
  </defs>
  <g id="Grupo_196225" data-name="Grupo 196225" transform="matrix(0.995, 0.105, -0.105, 0.995, 2.568, 0)">
    <path id="Trazado_47467" data-name="Trazado 47467" d="M8.124,1.875.288,19.823a3.387,3.387,0,0,0,3.446,4.726c5.444-.552,13.6-1.393,19.255-1.977a3.6,3.6,0,0,0,2.481-5.78L13.461,1.217a3.124,3.124,0,0,0-5.338.658" transform="translate(0 0)" fill="#ff001d"/>
    <g id="Grupo_196120" data-name="Grupo 196120" transform="translate(1.009 1.3)">
      <g id="Grupo_196119" data-name="Grupo 196119" transform="translate(0 0)" clip-path="url(#clip-path)">
        <path id="Trazado_47468" data-name="Trazado 47468" d="M7.517,1.781a.564.564,0,0,1,.065-.175c.026-.056.055-.128.1-.209l.175-.269c.071-.1.168-.2.266-.31A3.219,3.219,0,0,1,8.506.5,2.762,2.762,0,0,1,9.648.042a2.95,2.95,0,0,1,1.541.148,2.982,2.982,0,0,1,.772.456L12.142.8c.056.057.108.118.163.178.114.12.208.246.308.373L15.32,4.806l7.016,9.02,1,1.293a3.424,3.424,0,0,1,.676,1.627,3.457,3.457,0,0,1-3.1,3.911l-1.79.185-3.656.376-7.209.736L4.83,22.3l-.836.084-.415.041-.442.014a3.191,3.191,0,0,1-1.647-.518A3.29,3.29,0,0,1,0,19.08c.013-.135.013-.272.039-.4s.054-.264.088-.392l.136-.375c.047-.119.1-.229.149-.343L1,16.231l2.154-4.865c1.321-2.973,2.4-5.376,3.149-7.032l.877-1.9a4.4,4.4,0,0,1,.334-.651,4.44,4.44,0,0,1-.25.688L6.468,4.4c-.7,1.678-1.733,4.1-3.016,7.09l-2.1,4.888L.77,17.721c-.048.113-.1.228-.145.341l-.118.331c-.029.114-.048.23-.074.345s-.02.235-.031.353A2.884,2.884,0,0,0,1.718,21.57a2.769,2.769,0,0,0,1.433.443L3.537,22l.414-.043.835-.088,3.427-.358,7.208-.745,3.656-.374,1.79-.182A3.017,3.017,0,0,0,23.58,16.8a3,3,0,0,0-.585-1.426L22,14.082,15.065,5l-2.654-3.5c-.1-.128-.192-.259-.291-.367-.049-.056-.1-.114-.146-.167L11.811.828a2.783,2.783,0,0,0-.7-.436A2.792,2.792,0,0,0,9.676.217a2.665,2.665,0,0,0-1.095.4A3.292,3.292,0,0,0,8.2.9c-.1.105-.2.194-.272.285l-.189.249c-.05.075-.084.142-.117.194-.063.1-.1.157-.106.154" transform="translate(0 0)" fill="#fff"/>
      </g>
    </g>
    <g id="Grupo_196123" data-name="Grupo 196123" transform="matrix(0.999, -0.035, 0.035, 0.999, 10.103, 5.999)" style="mix-blend-mode: normal;isolation: isolate">
      <g id="Grupo_196122" data-name="Grupo 196122" transform="translate(0 0)" clip-path="url(#clip-path-2)">
        <path id="Trazado_47469" data-name="Trazado 47469" d="M.012,1.268l1.17,7.153a1.174,1.174,0,0,0,2.332-.176L3.6.931A.921.921,0,0,0,2.57.006L.817.2A.921.921,0,0,0,.012,1.268" transform="translate(0 0)" fill="#fff"/>
      </g>
    </g>
    <g id="Grupo_196126" data-name="Grupo 196126" transform="matrix(0.999, -0.035, 0.035, 0.999, 11.539, 16.788)" style="mix-blend-mode: normal;isolation: isolate">
      <g id="Grupo_196125" data-name="Grupo 196125" clip-path="url(#clip-path-3)">
        <path id="Trazado_47470" data-name="Trazado 47470" d="M3.488,2.154A1.765,1.765,0,1,1,2.154.044a1.765,1.765,0,0,1,1.334,2.11" transform="translate(0 0)" fill="#fff"/>
      </g>
    </g>
  </g>
</svg>
