<svg xmlns="http://www.w3.org/2000/svg" width="37.997" height="38.032" viewBox="0 0 37.997 38.032">
  <path id="shopping_cart_FILL0_wght400_GRAD0_opsz24" d="M51.41-841.968a3.662,3.662,0,0,1-2.686-1.117,3.663,3.663,0,0,1-1.117-2.686,3.662,3.662,0,0,1,1.117-2.686,3.662,3.662,0,0,1,2.686-1.117,3.662,3.662,0,0,1,2.686,1.117,3.662,3.662,0,0,1,1.117,2.686,3.663,3.663,0,0,1-1.117,2.686A3.662,3.662,0,0,1,51.41-841.968Zm19.016,0a3.662,3.662,0,0,1-2.686-1.117,3.663,3.663,0,0,1-1.117-2.686,3.662,3.662,0,0,1,1.117-2.686,3.663,3.663,0,0,1,2.686-1.117,3.662,3.662,0,0,1,2.686,1.117,3.662,3.662,0,0,1,1.117,2.686,3.663,3.663,0,0,1-1.117,2.686A3.662,3.662,0,0,1,70.426-841.968ZM49.793-872.394l4.564,9.508H67.668l5.229-9.508Zm-1.807-3.8H76.036a1.82,1.82,0,0,1,1.664.975,1.918,1.918,0,0,1,.048,1.973L71-861.079a3.812,3.812,0,0,1-1.4,1.474,3.7,3.7,0,0,1-1.925.523H53.5l-2.092,3.8H72.327a1.84,1.84,0,0,1,1.355.547,1.84,1.84,0,0,1,.547,1.355,1.841,1.841,0,0,1-.547,1.355,1.84,1.84,0,0,1-1.355.547H51.41a3.521,3.521,0,0,1-3.233-1.878,3.594,3.594,0,0,1-.1-3.732l2.567-4.659L43.8-876.2H41.9a1.839,1.839,0,0,1-1.355-.547A1.839,1.839,0,0,1,40-878.1a1.84,1.84,0,0,1,.547-1.355A1.839,1.839,0,0,1,41.9-880h3.09a1.912,1.912,0,0,1,1,.285,1.773,1.773,0,0,1,.713.808Zm6.37,13.311h0Z" transform="translate(-40 880)" fill="#b7b7b7"/>
</svg>
