<svg xmlns="http://www.w3.org/2000/svg" width="14.342" height="12.459" viewBox="0 0 14.342 12.459">
  <g id="Ionic-Ionicons-Paw-outline" transform="translate(-31.399 -63.4)">
    <path id="Trazado_50962"  d="M386.163,168.061a.887.887,0,0,0-.327-.062h-.012a2.045,2.045,0,0,0-1.6,1.4c-.417,1-.225,2.028.432,2.291a.886.886,0,0,0,.327.062,2.037,2.037,0,0,0,1.618-1.4C387.013,169.35,386.818,168.325,386.163,168.061Z" transform="translate(-341.679 -100.951)" fill="none" stroke="#000" stroke-miterlimit="10" stroke-width="1.2"/>
    <path id="Trazado_50963"  d="M103.565,241.861c-.815-1.353-1.167-1.861-2.1-1.861s-1.287.512-2.1,1.861c-.7,1.154-2.108,1.25-2.46,2.23a1.493,1.493,0,0,0-.106.564,1.4,1.4,0,0,0,1.36,1.443c.932,0,2.2-.744,3.31-.744s2.372.744,3.3.744a1.4,1.4,0,0,0,1.358-1.443,1.5,1.5,0,0,0-.108-.564C105.671,243.108,104.263,243.015,103.565,241.861Z" transform="translate(-62.896 -170.84)" fill="none" stroke="#000" stroke-miterlimit="10" stroke-width="1.2"/>
    <path id="Trazado_50964"  d="M145.395,67.87a.779.779,0,0,0,.117-.009c.681-.1,1.105-1.042.951-2.107-.145-1-.754-1.755-1.392-1.755a.777.777,0,0,0-.117.009c-.681.1-1.105,1.042-.951,2.107C144.148,67.117,144.758,67.87,145.395,67.87Z" transform="translate(-108.687 0)" fill="none" stroke="#000" stroke-miterlimit="10" stroke-width="1.2"/>
    <path id="Trazado_50965"  d="M284.462,66.115c.154-1.065-.271-2.008-.951-2.107a.777.777,0,0,0-.117-.009c-.637,0-1.245.751-1.391,1.755-.154,1.065.271,2.008.951,2.107a.779.779,0,0,0,.117.009C283.709,67.87,284.318,67.116,284.462,66.115Z" transform="translate(-242.641 0)" fill="none" stroke="#000" stroke-miterlimit="10" stroke-width="1.2"/>
    <path id="Trazado_50966"  d="M34.165,171.691c.656-.264.848-1.29.432-2.291a2.036,2.036,0,0,0-1.616-1.4.886.886,0,0,0-.327.062c-.656.264-.848,1.29-.432,2.291a2.036,2.036,0,0,0,1.616,1.4A.886.886,0,0,0,34.165,171.691Z" transform="translate(0 -100.951)" fill="none" stroke="#000" stroke-miterlimit="10" stroke-width="1.2"/>
  </g>
</svg>
