<svg id="Grupo_196319" data-name="Grupo 196319" xmlns="http://www.w3.org/2000/svg" xmlns:xlink="http://www.w3.org/1999/xlink" width="53.1" height="20.722" viewBox="0 0 53.1 20.722">
  <defs>
    <clipPath id="clip-path">
      <rect id="Rectángulo_2507" width="53.1" height="20.722" fill="#ff001d"/>
    </clipPath>
  </defs>
  <g id="Grupo_190000" clip-path="url(#clip-path)">
    <path id="Trazado_2344" d="M432.518,5.156,430.83,8.723a1.383,1.383,0,0,1-1.25.791h-3.149a.577.577,0,0,1-.522-.824L427.6,5.124a1.384,1.384,0,0,1,1.25-.791H432a.577.577,0,0,1,.521.824M436.134.008h-7.88a5.018,5.018,0,0,0-4.537,2.874l-4.089,8.728a1.564,1.564,0,0,0,1.414,2.233h7.311l-.614,1.4A2.048,2.048,0,0,1,425.89,16.4h-8.5l-2.123,4.324h11.179a5.806,5.806,0,0,0,5.248-3.322l6.614-13.97a2.4,2.4,0,0,0-2.171-3.43" transform="translate(-398.735 -0.008)" fill="#ff001d"/>
    <path id="Trazado_2345" d="M17.254,5.149,15.565,8.715a1.383,1.383,0,0,1-1.25.791H11.166a.577.577,0,0,1-.522-.824l1.689-3.566a1.383,1.383,0,0,1,1.25-.791h3.149a.577.577,0,0,1,.522.824M20.869,0h-7.88A5.018,5.018,0,0,0,8.453,2.874L4.364,11.6a1.564,1.564,0,0,0,1.414,2.233h7.31l-.614,1.4A2.048,2.048,0,0,1,10.626,16.4h-8.5L0,20.722H11.178A5.806,5.806,0,0,0,16.426,17.4L23.04,3.43A2.4,2.4,0,0,0,20.869,0" fill="#ff001d"/>
    <path id="Trazado_2346" d="M901.269,189.347l2.318-4.865H899.8a.8.8,0,0,0-.718.454l-2.1,4.411h-5.349a.8.8,0,0,0-.72.457L889.408,193h5.836l-2.318,4.865h3.784a.8.8,0,0,0,.719-.454l2.1-4.411h5.349a.8.8,0,0,0,.72-.457l1.505-3.193Z" transform="translate(-854.006 -177.139)" fill="#ff001d"/>
  </g>
</svg>
