<svg xmlns="http://www.w3.org/2000/svg" width="36" height="36" viewBox="0 0 36 36">
  <g id="Grupo_245942" data-name="Grupo 245942" transform="translate(-16640 14642)">
    <rect id="Rectángulo_168389" data-name="Rectángulo 168389" width="36" height="36" transform="translate(16640 -14642)" fill="#fff" opacity="0"/>
    <g id="Grupo_245929" data-name="Grupo 245929" transform="translate(239 -1.648)">
      <g id="f0c5dc14922378aefdadaf8d4095ca47" transform="translate(16405 -14634.803)">
        <path id="Trazado_80825" data-name="Trazado 80825" d="M9,9.9A.9.9,0,0,1,9.9,9h3.6a.9.9,0,0,1,.9.9v3.6a.9.9,0,0,1-.9.9H9.9a.9.9,0,0,1-.9-.9Zm1.8,2.7h1.8V10.8H10.8Z" transform="translate(5.049 5.4)"/>
        <path id="Trazado_80826" data-name="Trazado 80826" d="M4.359-.352,1.838,6.387A1.233,1.233,0,0,0,1.5,7.4V9.1a4.48,4.48,0,0,0,.9,2.7V25.3a.9.9,0,0,0,.9.9H23.1a.9.9,0,0,0,.9-.9V11.8a4.479,4.479,0,0,0,.9-2.7V7.388a1.216,1.216,0,0,0-.338-1L21.383-.352a.9.9,0,0,0-.562-.2H4.922A.9.9,0,0,0,4.359-.352ZM8.7,7.99V9.1a2.7,2.7,0,0,1-5.4,0V7.99Zm7.2,0V9.1a2.7,2.7,0,1,1-5.4,0V7.99Zm7.2,0V9.1a2.7,2.7,0,0,1-5.4,0V7.99ZM19.963.738l2.5,5.649H3.767L6,.738ZM22.2,13.225V24.4h-9V16.3a.9.9,0,0,0-.9-.9H6.9a.9.9,0,0,0-.9.9v8.1H4.2V13.225A4.5,4.5,0,0,0,9.6,11.8a4.5,4.5,0,0,0,7.2,0,4.5,4.5,0,0,0,5.4,1.425ZM11.4,24.4H7.8V17.2h3.6Z" transform="translate(-1.5 -2)"/>
        <g id="Grupo_245928" data-name="Grupo 245928" transform="translate(7.063 -1.122)">
          <path id="Trazado_45663" data-name="Trazado 45663" d="M-1838.375-1338.134c-.006-.03.012-.05.024-.072.141-.288.283-.574.421-.863a.109.109,0,0,1,.118-.07c.615,0,1.23,0,1.846,0a.662.662,0,0,0,.177-.015.468.468,0,0,0,.31-.258c.041-.088.079-.176.116-.265.025-.057.022-.06-.043-.06h-.63c-.334,0-.669,0-1,0a.367.367,0,0,1-.364-.308.389.389,0,0,1,.043-.239q.251-.535.5-1.07c.144-.308.285-.618.434-.924a1.131,1.131,0,0,1,1.068-.685c.61-.007,1.219,0,1.83,0a.565.565,0,0,1,.567.531.623.623,0,0,1-.069.3q-.276.58-.55,1.16l-.968,2.045a1.341,1.341,0,0,1-.992.775,1.224,1.224,0,0,1-.245.024h-2.519A.136.136,0,0,1-1838.375-1338.134Zm2.971-2.611h.348a.313.313,0,0,0,.3-.188c.131-.27.258-.541.385-.813a.134.134,0,0,0-.133-.206q-.356,0-.714,0a.307.307,0,0,0-.292.183c-.131.27-.258.541-.385.813a.136.136,0,0,0,.135.212C-1835.642-1340.744-1835.523-1340.745-1835.4-1340.745Z" transform="translate(1838.377 1342.964)" fill="#ff001d"/>
          <path id="Trazado_45664" data-name="Trazado 45664" d="M-1385.062-1338.1c-.008-.035.013-.057.025-.082.139-.286.28-.57.418-.856a.109.109,0,0,1,.115-.073c.619,0,1.237,0,1.856,0a.656.656,0,0,0,.161-.013.447.447,0,0,0,.3-.229c.058-.11.1-.226.156-.343a.145.145,0,0,0-.094-.014h-1.557a.619.619,0,0,1-.135-.009.366.366,0,0,1-.266-.454.593.593,0,0,1,.031-.079q.466-1,.934-1.995a1.157,1.157,0,0,1,.889-.678.884.884,0,0,1,.161-.012c.618,0,1.237,0,1.855,0a.563.563,0,0,1,.562.6.653.653,0,0,1-.067.227q-.644,1.357-1.285,2.713c-.08.169-.159.339-.241.507a1.337,1.337,0,0,1-.983.761,1.146,1.146,0,0,1-.229.024h-2.561Zm3.508-3.825h0c-.119,0-.238,0-.357,0a.3.3,0,0,0-.282.173c-.136.277-.266.557-.4.836a.131.131,0,0,0,0,.122.142.142,0,0,0,.14.077c.238,0,.476,0,.714,0a.307.307,0,0,0,.292-.184q.2-.405.386-.813c.055-.119,0-.21-.136-.211Z" transform="translate(1388.92 1342.93)" fill="#ff001d"/>
        </g>
      </g>
      <g id="Grupo_245927" data-name="Grupo 245927" transform="translate(16421.357 -14619.194)">
        <g id="Grupo_195945" data-name="Grupo 195945" transform="translate(0 0.365)">
          <ellipse id="Elipse_2195" data-name="Elipse 2195" cx="6.12" cy="5.712" rx="6.12" ry="5.712" transform="translate(0 0)" fill="#30d386"/>
        </g>
        <g id="Grupo_195946" data-name="Grupo 195946" transform="translate(0.378)">
          <path id="Trazado_46878" data-name="Trazado 46878" d="M38.858,33a5.858,5.858,0,1,0,5.858,5.858A5.865,5.865,0,0,0,38.858,33Zm0,10.815a4.957,4.957,0,1,1,4.957-4.957A4.963,4.963,0,0,1,38.858,43.815Z" transform="translate(-33 -33)"/>
          <path id="Trazado_46879" data-name="Trazado 46879" d="M44.154,39.73l-3.322,4.553-2.356-1.657a.451.451,0,0,0-.518.737l2.718,1.912a.451.451,0,0,0,.623-.1l3.583-4.91A.451.451,0,0,0,44.154,39.73Z" transform="translate(-35.618 -36.595)"/>
        </g>
      </g>
    </g>
  </g>
</svg>
