<svg xmlns="http://www.w3.org/2000/svg" width="118" height="136.264" viewBox="0 0 118 136.264">
  <g id="Grupo_196489" data-name="Grupo 196489" transform="translate(-121 -376.736)">
    <circle id="Elipse_2203" data-name="Elipse 2203" cx="59" cy="59" r="59" transform="translate(121 395)" fill="#ffbe55" opacity="0.4"/>
    <g id="_7f3c24977d99a809e9d25a6229ddf339" data-name="7f3c24977d99a809e9d25a6229ddf339" transform="translate(14.09 284.866)">
      <circle id="Elipse_2275" data-name="Elipse 2275" cx="18.474" cy="18.474" r="18.474" transform="translate(146.584 171.432)" fill="#d3dcfb"/>
      <path id="Trazado_50754" data-name="Trazado 50754" d="M206.91,196.59H126.08l7.261-8.874a13.877,13.877,0,0,0,3.133-8.775V150.4A30.022,30.022,0,0,1,166.5,120.38h0A30.022,30.022,0,0,1,196.517,150.4v28.54a13.845,13.845,0,0,0,3.133,8.775Z" transform="translate(-1.437 -12.922)" fill="#ffb332"/>
      <rect id="Rect치ngulo_150565" data-name="Rect치ngulo 150565" width="80.83" height="9.24" transform="translate(124.643 183.668)" fill="#ffb332"/>
      <circle id="Elipse_2276" data-name="Elipse 2276" cx="23.094" cy="23.094" r="23.094" transform="translate(155.888 104.519) rotate(-9.213)" fill="#ff001d"/>
      <path id="Trazado_50755" data-name="Trazado 50755" d="M230.925,138.854H224l-1.591-12.745a5.1,5.1,0,0,1,5.057-5.73h0a5.094,5.094,0,0,1,5.057,5.73Z" transform="translate(-45.079 -12.922)" fill="#d3dcfb"/>
      <rect id="Rect치ngulo_150566" data-name="Rect치ngulo 150566" width="6.927" height="6.927" transform="translate(178.913 132.859)" fill="#d3dcfb"/>
      <g id="Grupo_196488" data-name="Grupo 196488" transform="translate(122.91 91.87)">
        <path id="Trazado_50756" data-name="Trazado 50756" d="M199.552,173.7a12.164,12.164,0,0,1-2.739-7.676V143.81a24.822,24.822,0,0,0-21.224-44.067,10.972,10.972,0,0,0-21.5,3.095v4.839a31.812,31.812,0,0,0-20.787,29.8v28.54a12.164,12.164,0,0,1-2.739,7.676l-7.261,8.874a1.744,1.744,0,0,0-.394,1.1v9.24a1.734,1.734,0,0,0,1.733,1.733h20.776a20.206,20.206,0,0,0,39.289,0h20.776a1.734,1.734,0,0,0,1.733-1.733v-9.24a1.724,1.724,0,0,0-.394-1.1Zm4.188-50.076a21.361,21.361,0,1,1-21.361-21.361A21.388,21.388,0,0,1,203.74,123.619Zm-46.189-20.782a7.507,7.507,0,0,1,14.767-1.908,24.862,24.862,0,0,0-7.13,4.8h-.131a31.776,31.776,0,0,0-7.507.9Zm-24.308,73.055a15.621,15.621,0,0,0,3.526-9.874v-28.54a28.334,28.334,0,0,1,25.314-28.135,24.817,24.817,0,0,0,31.268,36.544v20.131a15.632,15.632,0,0,0,3.526,9.874l4.948,6.047H128.3Zm31.815,30.754a16.668,16.668,0,0,1-16.063-12.012h32.121A16.657,16.657,0,0,1,165.058,206.647Zm-38.682-15.473V185.4h77.369v5.774Z" transform="translate(-122.91 -91.87)" fill="#2d2d59"/>
        <path id="Trazado_50757" data-name="Trazado 50757" d="M192.512,137.631a1.734,1.734,0,0,0,1.717,1.52h6.927a1.726,1.726,0,0,0,1.717-1.52l1.591-12.745a6.827,6.827,0,1,0-13.548,0Zm2.663-15.817a3.362,3.362,0,0,1,5.856,2.646l-1.4,11.225h-3.871l-1.405-11.23A3.314,3.314,0,0,1,195.174,121.814Zm5.987,20.8h-6.927a1.734,1.734,0,0,0-1.733,1.733v6.927a1.734,1.734,0,0,0,1.733,1.733h6.927a1.734,1.734,0,0,0,1.733-1.733v-6.927A1.737,1.737,0,0,0,201.161,142.612Zm-1.733,6.933h-3.466v-3.466h3.466Zm-40.995,38.1H161.9a1.733,1.733,0,0,0,0-3.466h-3.466a1.733,1.733,0,0,0,0,3.466Zm11.547,0h3.466a1.733,1.733,0,1,0,0-3.466H169.98a1.733,1.733,0,0,0,0,3.466Z" transform="translate(-138.226 -103.356)" fill="#2d2d59"/>
      </g>
    </g>
  </g>
</svg>
