<svg xmlns="http://www.w3.org/2000/svg" width="786.384" height="702.386" viewBox="0 0 786.384 702.386">
  <path id="Trazado_45663" d="M-1838.2-641.853c-.888-4.283,1.85-7.212,3.41-10.4,20.4-41.78,41.137-83.392,61.164-125.353,3.856-8.051,8.679-10.15,17.087-10.131,89.333.27,178.671.162,268,.182,8.654,0,17.338.1,25.751-2.257,20.586-5.755,35.824-18.147,44.993-37.5,5.976-12.633,11.431-25.531,16.906-38.4,3.488-8.232,3.213-8.645-6.329-8.679-30.461-.1-60.942-.03-91.4-.044-48.589,0-97.164-.285-145.738.1-24,.187-47.785-16.577-52.754-44.694-2.188-12.3,1.05-23.559,6.255-34.607q36.493-77.63,72.756-155.368c20.949-44.713,41.382-89.662,63.022-134.037,31.374-64.347,83.216-98.689,155.015-99.508,88.519-.986,177.038.226,265.557-.417,43.281-.309,80.12,33.655,82.406,77.088.814,15.65-3.3,30.01-9.959,44q-40.121,84.12-79.835,168.423-70.234,148.372-140.493,296.735-43.8,92.223-144.02,112.549a179.179,179.179,0,0,1-35.583,3.439q-182.8-.059-365.581-.049C-1831.1-640.774-1834.832-639.891-1838.2-641.853Zm431.3-379.1c16.872,0,33.719.142,50.581-.039,19.967-.191,34.769-9.312,43.389-27.248q28.325-58.857,55.865-118.1c7.693-16.5-.961-29.878-19.207-30q-51.807-.338-103.595.015c-19.418.137-34.058,9.145-42.486,26.61q-28.428,58.835-55.938,118.073c-8.051,17.284.535,30.432,19.6,30.653C-1441.425-1020.792-1424.161-1020.95-1406.906-1020.954Z" transform="translate(1838.376 1342.962)" fill="#e20021" style="mix-blend-mode: multiply;isolation: isolate"/>
</svg>
