<svg xmlns="http://www.w3.org/2000/svg" width="16" height="16" viewBox="0 0 16 16">
  <g id="Grupo_199354" data-name="Grupo 199354" transform="translate(-146 -1285)">
    <rect id="Rect치ngulo_150882" data-name="Rect치ngulo 150882" width="16" height="16" transform="translate(146 1285)" fill="currentColor" opacity="0"/>
    <g id="Grupo_199349" data-name="Grupo 199349" transform="translate(146.153 1285.152)">
      <path id="Uni칩n_28" data-name="Uni칩n 28" d="M9.923,15.877a1.754,1.754,0,0,1-.368-.178c-.5-.347-1-.715-1.477-1.071l-.057-.042A.1.1,0,0,0,8,14.572a.111.111,0,0,0-.018.012c-.47.348-.951.7-1.417,1.033l-.062.045a1.2,1.2,0,0,1-.694.249,1.033,1.033,0,0,1-.952-.8l-.07-.21c-.168-.507-.343-1.031-.509-1.549a.132.132,0,0,0-.022-.047.145.145,0,0,0-.047,0c-.476,0-.958-.014-1.427-.023l-.41-.008a1.038,1.038,0,0,1-.825-.408,1.1,1.1,0,0,1-.153-.968c.193-.674.371-1.282.544-1.857A.143.143,0,0,0,1.947,10s-.007-.008-.028-.024C1.5,9.646,1.069,9.31.657,8.984L.452,8.823a1.059,1.059,0,0,1,0-1.734l.3-.24c.364-.288.74-.585,1.116-.87.069-.052.077-.067.046-.169C1.751,5.26,1.59,4.7,1.435,4.154L1.4,4.029a1.111,1.111,0,0,1,.148-.981,1.042,1.042,0,0,1,.846-.407L3.1,2.629c.37-.007.752-.015,1.129-.018a.155.155,0,0,0,.029,0,.163.163,0,0,0,.016-.039c.205-.634.416-1.267.595-1.8A1.022,1.022,0,0,1,5.819,0a1.123,1.123,0,0,1,.65.225C7,.612,7.493.968,7.96,1.315A.212.212,0,0,0,8,1.341s.012-.005.035-.023C8.424,1.031,8.819.743,9.2.466L9.528.23A1.114,1.114,0,0,1,10.181,0a1.018,1.018,0,0,1,.95.76c.2.608.4,1.2.594,1.805a.164.164,0,0,0,.017.04s.013,0,.041,0c.51,0,1.029.014,1.53.024l.307.006a1.035,1.035,0,0,1,.835.408,1.112,1.112,0,0,1,.148.976c-.186.653-.364,1.261-.544,1.857a.2.2,0,0,0-.007.033.255.255,0,0,0,.023.021c.406.314.816.637,1.212.95l.242.19a1.065,1.065,0,0,1,0,1.765l-.272.216c-.374.3-.76.6-1.148.9-.054.04-.061.046-.035.131.18.59.355,1.194.519,1.763a1.143,1.143,0,0,1-.136,1.019,1.069,1.069,0,0,1-.87.409l-.521.01c-.421.008-.857.017-1.285.02a.182.182,0,0,0-.038,0,.252.252,0,0,0-.017.044c-.2.613-.4,1.219-.594,1.805a1.011,1.011,0,0,1-.877.751v0l-.177.028C10.028,15.917,9.977,15.9,9.923,15.877ZM5.832,1.152l-.37,1.117L5.154,3.2a.557.557,0,0,1-.619.471l-2.083.038c-.03,0-.051,0-.067,0,0,.018.01.044.021.081q.209.716.419,1.43L3,5.828a.6.6,0,0,1-.244.789L2.2,7.055l-1.092.857-.053.045c.013.012.031.027.058.048L2.731,9.275l.045.036a.581.581,0,0,1,.236.75l-.22.75q-.2.667-.391,1.335a.5.5,0,0,0-.015.061l.056,0,2.113.038a.545.545,0,0,1,.592.444l.29.878.4,1.2c.009.026.016.046.023.06L5.9,14.8l.951-.693.779-.567A.638.638,0,0,1,8,13.388a.64.64,0,0,1,.369.15l.706.513L10.1,14.8a.262.262,0,0,0,.039.025.2.2,0,0,0,.015-.031c.181-.536.362-1.083.537-1.611l.158-.478a.549.549,0,0,1,.6-.455l2.1-.037.068,0c0-.018-.01-.044-.021-.081q-.174-.593-.347-1.184l-.256-.87a.586.586,0,0,1,.237-.762l1.145-.9.5-.4c.031-.024.052-.042.066-.055-.014-.013-.036-.031-.069-.058L13.237,6.611a.59.59,0,0,1-.245-.774l.169-.576L13.6,3.768c.007-.026.013-.046.015-.06a.45.45,0,0,0-.056,0h-.012l-2.1-.039a.543.543,0,0,1-.591-.444l-.276-.835-.41-1.24c-.009-.027-.017-.047-.023-.061a.571.571,0,0,0-.048.032l-.6.434q-.567.413-1.135.826A.631.631,0,0,1,8,2.526a.648.648,0,0,1-.37-.15L6.963,1.89q-.525-.382-1.051-.764a.6.6,0,0,0-.056-.039C5.85,1.1,5.842,1.123,5.832,1.152Z" transform="translate(-0.153 -0.152)" fill="#454545"/>
      <path id="Trazado_51311" data-name="Trazado 51311" d="M20.25,13.138a.406.406,0,0,1,.339.227.451.451,0,0,1-.024.48,1.063,1.063,0,0,1-.126.146Q17.72,16.827,15,19.659a.759.759,0,0,1-.359.2.363.363,0,0,1-.414-.226.442.442,0,0,1,.041-.491,1.063,1.063,0,0,1,.1-.108q2.735-2.854,5.469-5.708a.524.524,0,0,1,.418-.192" transform="translate(-9.561 -8.705)" fill="#454545"/>
      <path id="Trazado_51311_-_Contorno" data-name="Trazado 51311 - Contorno" d="M14.558,20.023a.526.526,0,0,1-.466-.318.591.591,0,0,1,.053-.647,1.093,1.093,0,0,1,.1-.115L15.722,17.4q2-2.088,4-4.177a.673.673,0,0,1,.516-.239h.024a.554.554,0,0,1,.459.308.6.6,0,0,1-.032.63,1.061,1.061,0,0,1-.129.153l-.694.724c-1.559,1.627-3.171,3.31-4.761,4.96a.908.908,0,0,1-.433.247A.513.513,0,0,1,14.558,20.023Zm5.682-6.736a.378.378,0,0,0-.3.146q-2,2.09-4,4.177l-1.477,1.541a.842.842,0,0,0-.073.083.292.292,0,0,0-.028.335.239.239,0,0,0,.2.154.214.214,0,0,0,.048-.006.614.614,0,0,0,.285-.163c1.59-1.65,3.2-3.332,4.761-4.959l.695-.725a.81.81,0,0,0,.094-.109.3.3,0,0,0,.016-.329.256.256,0,0,0-.213-.145Z" transform="translate(-9.561 -8.705)" fill="#454545"/>
      <path id="Trazado_51312" data-name="Trazado 51312" d="M16.8,14.432a1.482,1.482,0,0,1-1.447,1.51,1.511,1.511,0,0,1-1.444-1.526,1.446,1.446,0,1,1,2.891.016m-1.436.67a.675.675,0,1,0-.65-.672.663.663,0,0,0,.65.672" transform="translate(-9.347 -8.515)" fill="#454545"/>
      <path id="Trazado_51312_-_Contorno" data-name="Trazado 51312 - Contorno" d="M15.364,16.092h-.01a1.562,1.562,0,0,1-1.105-.483,1.692,1.692,0,0,1-.488-1.194,1.635,1.635,0,0,1,1.6-1.641,1.557,1.557,0,0,1,1.109.461,1.676,1.676,0,0,1,.485,1.2A1.629,1.629,0,0,1,15.364,16.092Zm-.005-3.019a1.334,1.334,0,0,0-1.3,1.345,1.391,1.391,0,0,0,.4.981,1.264,1.264,0,0,0,.893.393h.008a1.329,1.329,0,0,0,1.288-1.36,1.378,1.378,0,0,0-.4-.986A1.259,1.259,0,0,0,15.359,13.073Zm0,2.179a.811.811,0,0,1-.795-.822.846.846,0,0,1,.244-.6.771.771,0,0,1,.549-.231h0a.817.817,0,0,1,.794.814.84.84,0,0,1-.236.6.778.778,0,0,1-.553.239Zm0-1.5v.15a.474.474,0,0,0-.336.143.544.544,0,0,0-.156.384.51.51,0,0,0,.495.523.482.482,0,0,0,.345-.149.538.538,0,0,0,.151-.382.522.522,0,0,0-.5-.519Z" transform="translate(-9.346 -8.514)" fill="#454545"/>
      <path id="Trazado_51313" data-name="Trazado 51313" d="M25.1,25.49a1.447,1.447,0,1,1,1.445,1.515A1.479,1.479,0,0,1,25.1,25.49m2.086,0a.649.649,0,0,0-.656-.662.66.66,0,0,0-.635.671.678.678,0,0,0,.653.678.666.666,0,0,0,.638-.687" transform="translate(-16.86 -15.802)" fill="#454545"/>
      <path id="Trazado_51313_-_Contorno" data-name="Trazado 51313 - Contorno" d="M26.544,27.156h0a1.552,1.552,0,0,1-1.1-.466,1.7,1.7,0,0,1-.493-1.2,1.628,1.628,0,0,1,1.592-1.653h.012a1.636,1.636,0,0,1,1.587,1.657,1.675,1.675,0,0,1-.489,1.2A1.558,1.558,0,0,1,26.544,27.156Zm0-3.019a1.328,1.328,0,0,0-1.292,1.354,1.4,1.4,0,0,0,.405.987,1.243,1.243,0,0,0,1.785,0,1.377,1.377,0,0,0,.4-.984,1.335,1.335,0,0,0-1.289-1.358Zm0,2.189a.826.826,0,0,1-.8-.827.812.812,0,0,1,.782-.822h.014a.8.8,0,0,1,.794.811.815.815,0,0,1-.786.838Zm0-1.349h-.009a.511.511,0,0,0-.488.521.529.529,0,0,0,.5.528.515.515,0,0,0,.494-.536A.5.5,0,0,0,26.541,24.977Z" transform="translate(-16.861 -15.804)" fill="#454545"/>
    </g>
  </g>
</svg>
