<svg xmlns="http://www.w3.org/2000/svg" width="64" height="64" viewBox="0 0 64 64">
  <defs>
    <clipPath id="clip-path">
      <rect id="Rectángulo_150071" width="47.792" height="43.089" fill="#b7b7b7"/>
    </clipPath>
  </defs>
  <g id="Grupo_245714" transform="translate(-8 -9)">
    <rect id="Rectángulo_150721" width="64" height="64" transform="translate(8 9)" fill="none"/>
    <g id="Grupo_245715" transform="translate(16.208 17.911)">
      <g id="Grupo_195514" transform="translate(0 0)" clip-path="url(#clip-path)">
        <path id="Trazado_46628" d="M16.325,40.522V36.3H47.792v4.217H16.325m0-16.868V19.437H47.792v4.217H16.325m0-21.085H47.792V6.786H16.325ZM4.675,43.089a4.506,4.506,0,0,1-3.3-1.375,4.659,4.659,0,0,1,0-6.6,4.506,4.506,0,0,1,3.3-1.375,4.506,4.506,0,0,1,3.3,1.375,4.659,4.659,0,0,1,0,6.6,4.506,4.506,0,0,1-3.3,1.375m0-16.868a4.506,4.506,0,0,1-3.3-1.375,4.659,4.659,0,0,1,0-6.6,4.506,4.506,0,0,1,3.3-1.375,4.506,4.506,0,0,1,3.3,1.375,4.659,4.659,0,0,1,0,6.6,4.506,4.506,0,0,1-3.3,1.375m0-16.868a4.506,4.506,0,0,1-3.3-1.375A4.492,4.492,0,0,1,0,4.678a4.5,4.5,0,0,1,1.372-3.3A4.506,4.506,0,0,1,4.675,0a4.506,4.506,0,0,1,3.3,1.375,4.5,4.5,0,0,1,1.372,3.3,4.492,4.492,0,0,1-1.372,3.3,4.506,4.506,0,0,1-3.3,1.375" transform="translate(0 0.001)" fill="#b7b7b7"/>
      </g>
    </g>
  </g>
</svg>
