<svg xmlns="http://www.w3.org/2000/svg" width="39.999" height="20.868" viewBox="0 0 39.999 20.868">
  <g id="Grupo_195281" data-name="Grupo 195281" transform="translate(24582.961 -1338)">
    <path id="Trazado_45663" data-name="Trazado 45663" d="M-1838.371-1322.133c-.026-.127.055-.214.1-.309.606-1.241,1.222-2.478,1.817-3.724a.473.473,0,0,1,.508-.3c2.654.008,5.308,0,7.962.005a2.806,2.806,0,0,0,.765-.067,2.012,2.012,0,0,0,1.337-1.114c.177-.375.34-.759.5-1.141.1-.245.1-.257-.188-.258-.905,0-1.811,0-2.715,0-1.444,0-2.887-.008-4.33,0a1.584,1.584,0,0,1-1.567-1.328,1.677,1.677,0,0,1,.186-1.028q1.084-2.306,2.162-4.616c.622-1.328,1.229-2.664,1.872-3.982a4.882,4.882,0,0,1,4.605-2.956c2.63-.029,5.26.007,7.89-.012a2.437,2.437,0,0,1,2.448,2.29,2.675,2.675,0,0,1-.3,1.307q-1.192,2.5-2.372,5-2.087,4.408-4.174,8.816a5.775,5.775,0,0,1-4.279,3.344,5.327,5.327,0,0,1-1.057.1h-10.861A.585.585,0,0,1-1838.371-1322.133Zm12.814-11.263c.5,0,1,0,1.5,0a1.351,1.351,0,0,0,1.289-.81q.842-1.749,1.66-3.509a.581.581,0,0,0-.571-.891q-1.539-.01-3.078,0a1.327,1.327,0,0,0-1.262.791q-.844,1.748-1.662,3.508a.588.588,0,0,0,.582.911C-1826.583-1333.391-1826.07-1333.4-1825.557-1333.4Z" transform="translate(-22744.584 2680.963)" fill="#ff1335"/>
    <path id="Trazado_45664" data-name="Trazado 45664" d="M-1385.057-1322.08c-.034-.15.059-.247.11-.352.6-1.231,1.21-2.457,1.8-3.691a.473.473,0,0,1,.5-.314c2.667.01,5.334.006,8,.007a2.792,2.792,0,0,0,.693-.055,1.937,1.937,0,0,0,1.306-.989c.247-.475.447-.975.673-1.477a.624.624,0,0,0-.4-.058q-3.358,0-6.716,0a2.592,2.592,0,0,1-.585-.038,1.578,1.578,0,0,1-1.144-1.957,2.452,2.452,0,0,1,.134-.341q2.012-4.3,4.03-8.6a4.992,4.992,0,0,1,3.833-2.925,3.921,3.921,0,0,1,.694-.051c2.667,0,5.334.01,8-.006a2.429,2.429,0,0,1,2.423,2.6,2.769,2.769,0,0,1-.288.978q-2.772,5.85-5.54,11.7c-.345.729-.684,1.462-1.038,2.187a5.774,5.774,0,0,1-4.242,3.285,4.923,4.923,0,0,1-.984.1h-11.047C-1384.917-1322.069-1384.988-1322.076-1385.057-1322.08Zm15.131-16.5h0c-.513,0-1.026-.008-1.539,0a1.3,1.3,0,0,0-1.215.747c-.585,1.2-1.145,2.4-1.715,3.6a.569.569,0,0,0-.01.528.606.606,0,0,0,.6.333c1.026,0,2.052,0,3.078,0a1.327,1.327,0,0,0,1.261-.792q.844-1.748,1.663-3.507c.239-.513-.017-.9-.586-.91C-1368.9-1338.583-1369.413-1338.578-1369.926-1338.578Z" transform="translate(-23181.262 2680.931)" fill="#ff1335"/>
  </g>
</svg>
