<svg xmlns="http://www.w3.org/2000/svg" width="66" height="66" viewBox="0 0 66 66">
  <g id="_3265bd1d0d0807dbc0ef3179a58b1e60" data-name="3265bd1d0d0807dbc0ef3179a58b1e60" transform="translate(0.498 -1027.862)">
    <circle id="Elipse_2211" data-name="Elipse 2211" cx="33" cy="33" r="33" transform="translate(-0.498 1027.862)" fill="#50b748"/>
    <path id="Trazado_50684" data-name="Trazado 50684" d="M29.954,54.857q.935-.181,1.858-.417,1.565-.437,3.08-1.029t2.966-1.322a32.506,32.506,0,0,0,2.82-1.617q1.367-.879,2.641-1.891a32.51,32.51,0,0,0,2.444-2.148q1.165-1.132,2.213-2.376t1.967-2.587q.918-1.34,1.7-2.766t1.414-2.926q.634-1.5,1.116-3.053.412-1.36.7-2.752L35.562,10.659a17.609,17.609,0,1,0-24.9,24.906L29.954,54.854Z" transform="translate(9.388 1037.752)" fill="#10a711"/>
    <path id="Trazado_50685" data-name="Trazado 50685" d="M19.621,2A17.634,17.634,0,1,1,7.165,7.163,17.558,17.558,0,0,1,19.621,2ZM27.64,14.2a1.363,1.363,0,0,0-.7.279l-9.9,7.423L12.45,17.314c-.994-1.035-2.953.921-1.915,1.915l5.418,5.418a1.4,1.4,0,0,0,1.769.127l10.836-8.127a1.43,1.43,0,0,0-.777-2.449,1.354,1.354,0,0,0-.138,0Z" transform="translate(12.883 1041.251)" fill="#fff"/>
  </g>
</svg>
