<svg xmlns="http://www.w3.org/2000/svg" xmlns:xlink="http://www.w3.org/1999/xlink" width="19" height="19" viewBox="0 0 19 19">
  <defs>
    <clipPath id="clip-path">
      <rect id="Rect치ngulo_150075" data-name="Rect치ngulo 150075" width="11.887" height="13.381" transform="translate(0 0)" fill="#484848"/>
    </clipPath>
  </defs>
  <g id="drive_file_rename_outline_black_24dp" transform="translate(0.334)">
    <g id="Grupo_191952" data-name="Grupo 191952">
      <rect id="Rect치ngulo_147959" data-name="Rect치ngulo 147959" width="19" height="19" transform="translate(-0.334)" fill="none"/>
    </g>
    <g id="Grupo_195527" data-name="Grupo 195527" transform="translate(3.473 2.219)">
      <g id="Grupo_195527-2" data-name="Grupo 195527" transform="translate(0 0)" clip-path="url(#clip-path)">
        <path id="Trazado_46639" data-name="Trazado 46639" d="M2.225,13.381a1.38,1.38,0,0,1-1.013-.42,1.38,1.38,0,0,1-.42-1.013V1.89H0V.7H3.566V0H8.321V.7h3.566V1.89h-.792V11.948a1.421,1.421,0,0,1-1.433,1.433H2.225M9.906,1.89H1.981V11.948a.236.236,0,0,0,.244.244H9.662a.262.262,0,0,0,.244-.244V1.89M3.886,10.607H5.075V3.475H3.886Zm2.926,0H8V3.475H6.812ZM1.981,1.89v0Z" transform="translate(0 0)" fill="#484848"/>
      </g>
    </g>
  </g>
</svg>
