<svg xmlns="http://www.w3.org/2000/svg" width="36" height="36" viewBox="0 0 36 36">
  <g id="Grupo_245934" data-name="Grupo 245934" transform="translate(-16649 14836)">
    <rect id="Rectángulo_168388" data-name="Rectángulo 168388" width="36" height="36" transform="translate(16649 -14836)" fill="#fff" opacity="0"/>
    <g id="Grupo_245916" data-name="Grupo 245916" transform="translate(-3.272 -2.147)">
      <g id="Grupo_245914" data-name="Grupo 245914" transform="translate(16656.271 -14829.854)">
        <path id="_0f0749818857047101d8645714945c18" data-name="0f0749818857047101d8645714945c18" d="M204.132,921.358a.571.571,0,0,0-.391.171l-4.565,4.565-.027.025-.013.016,0,.007a.57.57,0,0,0-.123.459v18.158a.571.571,0,0,0,.571.571h13.809a6.279,6.279,0,1,0,10.033-7.292v0q-.213-.211-.445-.4v-15.7a.571.571,0,0,0-.571-.568v0H204.225a.617.617,0,0,0-.091,0Zm.248,1.146h16.647l-3.424,3.424H200.956l3.424-3.424Zm17.454.807v13.574a6.305,6.305,0,0,0-3.424-.66v-9.491Zm-21.684,3.758h17.119v9.37a6.264,6.264,0,0,0-4.327,7.749H200.149V927.069Zm18.831,10.265a5.148,5.148,0,1,1-3.636,1.508,5.123,5.123,0,0,1,3.636-1.508Zm-17.69.007v1.141h6.848V937.34Zm0,2.283v1.141h4.565v-1.141Z" transform="translate(-199 -921.357)" stroke="#000" stroke-width="0.4" fill-rule="evenodd"/>
        <g id="Grupo_245913" data-name="Grupo 245913" transform="translate(12.878 14.07)">
          <g id="Grupo_195945" data-name="Grupo 195945" transform="translate(0 0.434)">
            <ellipse id="Elipse_2195" data-name="Elipse 2195" cx="7.273" cy="6.788" rx="7.273" ry="6.788" transform="translate(0 0)" fill="#30d386"/>
          </g>
          <g id="Grupo_195946" data-name="Grupo 195946" transform="translate(0.449)">
            <path id="Trazado_46878" data-name="Trazado 46878" d="M39.961,33A6.969,6.969,0,0,0,33,39.961c.382,9.235,13.542,9.233,13.923,0A6.969,6.969,0,0,0,39.961,33Zm0,12.852a5.89,5.89,0,1,1,5.89-5.89A5.9,5.9,0,0,1,39.961,45.852Z" transform="translate(-33 -33)"/>
            <path id="Trazado_46879" data-name="Trazado 46879" d="M45.357,39.765l-3.947,5.41-2.8-1.969a.536.536,0,0,0-.616.876l3.23,2.272a.535.535,0,0,0,.74-.122L46.222,40.4A.535.535,0,0,0,45.357,39.765Z" transform="translate(-35.214 -36.039)"/>
          </g>
        </g>
      </g>
      <g id="Grupo_245915" data-name="Grupo 245915" transform="translate(16658.152 -14822.704)">
        <path id="Trazado_45663" data-name="Trazado 45663" d="M-1838.375-1337.76c-.006-.032.014-.054.025-.077.151-.31.305-.619.454-.93a.118.118,0,0,1,.127-.076c.663,0,1.326,0,1.989,0a.7.7,0,0,0,.191-.017.5.5,0,0,0,.334-.278c.045-.095.085-.19.125-.285.027-.061.024-.065-.046-.065h-.678c-.361,0-.721,0-1.082,0a.4.4,0,0,1-.391-.331.421.421,0,0,1,.046-.257q.271-.576.54-1.153c.156-.333.308-.666.468-1a1.219,1.219,0,0,1,1.15-.738c.657-.008,1.314,0,1.971,0a.609.609,0,0,1,.612.572.665.665,0,0,1-.074.327q-.3.625-.592,1.25-.521,1.1-1.043,2.2a1.445,1.445,0,0,1-1.069.834,1.3,1.3,0,0,1-.264.026h-2.713A.148.148,0,0,1-1838.375-1337.76Zm3.2-2.814c.125,0,.25,0,.375,0a.337.337,0,0,0,.322-.2c.14-.291.278-.583.415-.876a.145.145,0,0,0-.143-.222q-.384,0-.769,0a.331.331,0,0,0-.315.2q-.211.436-.415.876a.147.147,0,0,0,.146.228C-1835.43-1340.573-1835.3-1340.574-1835.175-1340.574Z" transform="translate(1838.377 1342.963)" fill="#ff001d"/>
        <path id="Trazado_45664" data-name="Trazado 45664" d="M-1385.062-1337.721c-.009-.038.014-.062.027-.088.15-.308.3-.614.45-.922a.118.118,0,0,1,.124-.079c.667,0,1.333,0,2,0a.7.7,0,0,0,.173-.014.48.48,0,0,0,.326-.247c.062-.119.112-.244.169-.369a.157.157,0,0,0-.1-.015h-1.678a.668.668,0,0,1-.146-.009.394.394,0,0,1-.286-.489.594.594,0,0,1,.034-.085q.5-1.075,1.006-2.149a1.247,1.247,0,0,1,.958-.73.966.966,0,0,1,.174-.013c.666,0,1.332,0,2,0a.607.607,0,0,1,.605.651.7.7,0,0,1-.071.244q-.694,1.462-1.385,2.923c-.086.183-.171.366-.259.547a1.441,1.441,0,0,1-1.06.821,1.222,1.222,0,0,1-.246.026h-2.759Zm3.78-4.122h0c-.128,0-.256,0-.384,0a.326.326,0,0,0-.3.187c-.146.3-.286.6-.428.9a.142.142,0,0,0,0,.132.154.154,0,0,0,.151.083c.256,0,.513,0,.769,0a.331.331,0,0,0,.315-.2q.211-.437.416-.876c.06-.128,0-.226-.147-.227S-1381.155-1341.843-1381.283-1341.843Z" transform="translate(1389.219 1342.93)" fill="#ff001d"/>
      </g>
    </g>
  </g>
</svg>
