<svg xmlns="http://www.w3.org/2000/svg" width="17" height="17" viewBox="0 0 17 17">
  <g id="fmd_good_black_24dp" transform="translate(-0.43)">
    <g id="Grupo_189040" data-name="Grupo 189040" transform="translate(0.43)">
      <path id="Trazado_37664" data-name="Trazado 37664" d="M0,0H17V17H0Z" fill="none"/>
    </g>
    <path id="timer_FILL0_wght400_GRAD0_opsz24" d="M123.609-918.8V-920h3.609v1.2Zm1.2,6.594h1.2v-3.6h-1.2Zm.6,4.8a5.217,5.217,0,0,1-2.1-.427A5.531,5.531,0,0,1,121.594-909a5.511,5.511,0,0,1-1.166-1.716,5.168,5.168,0,0,1-.429-2.091,5.168,5.168,0,0,1,.429-2.091,5.51,5.51,0,0,1,1.166-1.716,5.532,5.532,0,0,1,1.722-1.161,5.216,5.216,0,0,1,2.1-.427,5.383,5.383,0,0,1,1.79.3,5.854,5.854,0,0,1,1.609.869l.842-.839.842.839-.842.839a5.823,5.823,0,0,1,.872,1.6,5.331,5.331,0,0,1,.3,1.783,5.168,5.168,0,0,1-.429,2.091A5.511,5.511,0,0,1,129.234-909a5.531,5.531,0,0,1-1.722,1.161A5.217,5.217,0,0,1,125.414-907.411Zm0-1.2a4.064,4.064,0,0,0,2.978-1.229,4.036,4.036,0,0,0,1.233-2.968,4.036,4.036,0,0,0-1.233-2.967A4.064,4.064,0,0,0,125.414-917a4.064,4.064,0,0,0-2.978,1.229,4.036,4.036,0,0,0-1.233,2.967,4.037,4.037,0,0,0,1.233,2.968A4.064,4.064,0,0,0,125.414-908.61ZM125.414-912.806Z" transform="translate(-116.57 922.148)" fill="#ff1335"/>
  </g>
</svg>
