<svg xmlns="http://www.w3.org/2000/svg" width="28" height="28" viewBox="0 0 28 28">
  <g id="Grupo_245870" transform="translate(-28 -564)">
    <rect id="Rectángulo_150831" width="28" height="28" transform="translate(28 564)" fill="none"/>
    <path id="Trazado_80796" d="M82.155-822.084a1.917,1.917,0,0,1-1.406-.585,1.917,1.917,0,0,1-.585-1.406v-7.913a3.425,3.425,0,0,1-.883-1.344,2.7,2.7,0,0,1-.012-1.792l1.045-3.384a2.2,2.2,0,0,1,.709-1.07A1.8,1.8,0,0,1,82.2-840H96.04a1.781,1.781,0,0,1,1.17.411,2.316,2.316,0,0,1,.722,1.082l1.045,3.384a2.626,2.626,0,0,1-.012,1.767,3.933,3.933,0,0,1-.883,1.369v7.913a1.917,1.917,0,0,1-.585,1.406,1.917,1.917,0,0,1-1.406.585Zm9.157-10.949a1.2,1.2,0,0,0,1.02-.46,1.359,1.359,0,0,0,.274-1.033l-.547-3.484H90.118v3.683a1.311,1.311,0,0,0,.348.908A1.1,1.1,0,0,0,91.312-833.033Zm-4.479,0a1.22,1.22,0,0,0,.933-.386,1.286,1.286,0,0,0,.361-.908v-3.683H86.186l-.547,3.484a1.262,1.262,0,0,0,.261,1.045A1.143,1.143,0,0,0,86.833-833.033Zm-4.429,0a1.1,1.1,0,0,0,.784-.323,1.391,1.391,0,0,0,.411-.821l.547-3.832H82.2l-1,3.334a1.369,1.369,0,0,0,.162,1.07A1.083,1.083,0,0,0,82.4-833.033Zm13.437,0a1.11,1.11,0,0,0,1.045-.572,1.265,1.265,0,0,0,.149-1.07l-1.045-3.334H94.1l.547,3.832a1.391,1.391,0,0,0,.411.821A1.1,1.1,0,0,0,95.841-833.033Zm-13.686,8.958H96.09v-7.017a.6.6,0,0,1-.162.05h-.087a2.917,2.917,0,0,1-1.182-.224,3.359,3.359,0,0,1-1.008-.722,3.282,3.282,0,0,1-1.02.7,3.025,3.025,0,0,1-1.219.249,3.175,3.175,0,0,1-1.257-.249,3.242,3.242,0,0,1-1.033-.7,3.034,3.034,0,0,1-.983.7,2.937,2.937,0,0,1-1.207.249,3.3,3.3,0,0,1-1.306-.249,3.242,3.242,0,0,1-1.033-.7,3.271,3.271,0,0,1-1.033.734,3,3,0,0,1-1.157.212h-.112a.252.252,0,0,1-.137-.05Zm13.935,0h0Z" transform="translate(-47.123 1409.315)" fill="#ff001d"/>
  </g>
</svg>
