<svg xmlns="http://www.w3.org/2000/svg" xmlns:xlink="http://www.w3.org/1999/xlink" width="81.658" height="31.867" viewBox="0 0 81.658 31.867">
  <defs>
    <clipPath id="clip-path">
      <rect id="Rectángulo_2507" data-name="Rectángulo 2507" width="81.658" height="31.867" fill="#fff"/>
    </clipPath>
  </defs>
  <g id="Grupo_194946" data-name="Grupo 194946" transform="translate(0.001)">
    <g id="Grupo_190000" data-name="Grupo 190000" transform="translate(-0.001)" clip-path="url(#clip-path)">
      <path id="Trazado_2344" data-name="Trazado 2344" d="M441.8,7.925l-2.6,5.484a2.128,2.128,0,0,1-1.923,1.217h-4.842a.887.887,0,0,1-.8-1.267l2.6-5.484a2.127,2.127,0,0,1,1.923-1.217H441a.887.887,0,0,1,.8,1.267m5.56-7.917H435.24a7.717,7.717,0,0,0-6.977,4.419l-6.288,13.422a2.406,2.406,0,0,0,2.175,3.434h11.242l-.944,2.146a3.149,3.149,0,0,1-2.843,1.794H418.529l-3.265,6.65h17.191a8.929,8.929,0,0,0,8.071-5.108L450.7,5.283A3.694,3.694,0,0,0,447.358.008" transform="translate(-389.845 -0.008)" fill="#fff"/>
      <path id="Trazado_2345" data-name="Trazado 2345" d="M26.533,7.918l-2.6,5.484a2.127,2.127,0,0,1-1.923,1.217H17.172a.887.887,0,0,1-.8-1.267l2.6-5.485A2.127,2.127,0,0,1,20.889,6.65h4.842a.888.888,0,0,1,.8,1.267M32.093,0H19.975A7.717,7.717,0,0,0,13,4.419L6.711,17.842a2.406,2.406,0,0,0,2.175,3.434H20.128l-.944,2.146a3.149,3.149,0,0,1-2.843,1.794H3.265L0,31.867H17.19a8.929,8.929,0,0,0,8.07-5.108L35.432,5.275A3.694,3.694,0,0,0,32.093,0" fill="#fff"/>
      <path id="Trazado_2346" data-name="Trazado 2346" d="M907.649,191.963l3.564-7.481h-5.819a1.224,1.224,0,0,0-1.105.7l-3.231,6.783H892.83a1.224,1.224,0,0,0-1.107.7l-2.315,4.91h8.975l-3.564,7.481h5.82a1.224,1.224,0,0,0,1.105-.7l3.231-6.783H913.2a1.224,1.224,0,0,0,1.107-.7l2.315-4.91Z" transform="translate(-834.966 -173.189)" fill="#fff"/>
    </g>
  </g>
</svg>
