<svg xmlns="http://www.w3.org/2000/svg" width="12.858" height="12" viewBox="0 0 12.858 12">
  <path id="c5dfab272f88920531c941cd1f61ebd2" d="M1.429,4.144h.061a1.706,1.706,0,0,0,3.307,0h8.633a.429.429,0,1,0,0-.857H4.8a1.706,1.706,0,0,0-3.307,0H1.429a.429.429,0,1,0,0,.857ZM3.143,2.858a.857.857,0,1,1-.857.857.857.857,0,0,1,.857-.857ZM13.429,7.572h-.061a1.706,1.706,0,0,0-3.307,0H1.429a.429.429,0,0,0,0,.857h8.633a1.706,1.706,0,0,0,3.307,0h.061a.429.429,0,0,0,0-.857ZM11.715,8.858A.857.857,0,1,1,12.572,8,.857.857,0,0,1,11.715,8.858Zm1.714,3H9.083a1.706,1.706,0,0,0-3.307,0H1.429a.429.429,0,1,0,0,.857H5.775a1.706,1.706,0,0,0,3.307,0h4.347a.429.429,0,1,0,0-.857Zm-6,1.286a.857.857,0,1,1,.857-.857A.857.857,0,0,1,7.429,13.144Z" transform="translate(-1 -2.001)"/>
</svg>
