<svg xmlns="http://www.w3.org/2000/svg" xmlns:xlink="http://www.w3.org/1999/xlink" width="33.793" height="26.654" viewBox="0 0 33.793 26.654">
  <defs>
    <clipPath id="clip-path">
      <path id="Rectángulo_149956" data-name="Rectángulo 149956" d="M3.723,0H30.069a3.724,3.724,0,0,1,3.724,3.724v19.2a3.725,3.725,0,0,1-3.725,3.725H3.725A3.725,3.725,0,0,1,0,22.928V3.723A3.723,3.723,0,0,1,3.723,0Z" fill="none"/>
    </clipPath>
    <linearGradient id="linear-gradient" x1="-0.719" y1="4.358" x2="-0.681" y2="4.358" gradientUnits="objectBoundingBox">
      <stop offset="0" stop-color="#ffca3f"/>
      <stop offset="0.097" stop-color="#ca7c22"/>
      <stop offset="0.189" stop-color="#fddb7a"/>
      <stop offset="0.42" stop-color="#ffad45"/>
      <stop offset="0.554" stop-color="#a95f0d"/>
      <stop offset="0.656" stop-color="#ffad45"/>
      <stop offset="0.79" stop-color="#ffff9b"/>
      <stop offset="0.865" stop-color="#ffed7d"/>
      <stop offset="1" stop-color="#ffca3f"/>
    </linearGradient>
    <clipPath id="clip-path-2">
      <rect id="Rectángulo_149958" data-name="Rectángulo 149958" width="33.792" height="26.652" fill="none"/>
    </clipPath>
    <clipPath id="clip-path-3">
      <path id="Trazado_46520" data-name="Trazado 46520" d="M52.537,40.466V39.85H46.346V32.067h-.617V39.85H40.712a5.527,5.527,0,0,0-4.764-3.838V32.067H35.33v3.9a5.535,5.535,0,0,0-5.183,3.881H25.592V32.067h-.617V39.85H18.744v.615h6.231v8.719H18.744V49.8h6.231v8.917h.617V49.8h4.423a5.554,5.554,0,0,0,5.315,4.294v4.624h.618V54.052A5.544,5.544,0,0,0,40.842,49.8h4.887v8.917h.617V49.8h6.191v-.617H48.845V40.466ZM29.93,49.185H25.592V40.466H29.97a5.386,5.386,0,0,0,1.2,4.566,5.49,5.49,0,0,0-1.3,3.538,5.319,5.319,0,0,0,.064.615m5.5,4.305a4.9,4.9,0,0,1-3.621-8.249L32,45.032l-.193-.208A4.885,4.885,0,0,1,30.484,41.5a4.945,4.945,0,0,1,9.889,0,4.887,4.887,0,0,1-1.325,3.329l-.194.208.194.209a4.9,4.9,0,0,1-3.621,8.249m12.8-4.305h-7.3a5.318,5.318,0,0,0,.064-.615,5.483,5.483,0,0,0-1.3-3.538,5.386,5.386,0,0,0,1.2-4.566h7.34Z" transform="translate(-18.744 -32.067)" fill="none"/>
    </clipPath>
    <linearGradient id="linear-gradient-2" x1="-0.719" y1="4.358" x2="-0.681" y2="4.358" xlink:href="#linear-gradient"/>
  </defs>
  <g id="Grupo_245766" data-name="Grupo 245766" transform="translate(-77.297 -119.369)">
    <g id="Grupo_195361" data-name="Grupo 195361" transform="translate(77.297 119.369)">
      <g id="Grupo_195360" data-name="Grupo 195360" clip-path="url(#clip-path)">
        <rect id="Rectángulo_149955" data-name="Rectángulo 149955" width="33.793" height="26.653" transform="translate(0)" fill="url(#linear-gradient)"/>
      </g>
    </g>
    <g id="Grupo_195366" data-name="Grupo 195366" transform="translate(77.297 119.371)" style="mix-blend-mode: multiply;isolation: isolate">
      <g id="Grupo_195365" data-name="Grupo 195365">
        <g id="Grupo_195364" data-name="Grupo 195364" clip-path="url(#clip-path-2)">
          <g id="Grupo_195363" data-name="Grupo 195363" transform="translate(0 0)">
            <g id="Grupo_195362" data-name="Grupo 195362" clip-path="url(#clip-path-3)">
              <rect id="Rectángulo_149957" data-name="Rectángulo 149957" width="33.793" height="26.652" transform="translate(0 0)" fill="url(#linear-gradient-2)"/>
            </g>
          </g>
        </g>
      </g>
    </g>
  </g>
</svg>