<svg xmlns="http://www.w3.org/2000/svg" width="12.854" height="12.854" viewBox="0 0 12.854 12.854">
  <path id="child_care_FILL0_wght400_GRAD0_opsz24" d="M128.212-833.752a.862.862,0,0,1-.634-.259.862.862,0,0,1-.259-.634.862.862,0,0,1,.259-.634.862.862,0,0,1,.634-.259.862.862,0,0,1,.634.259.862.862,0,0,1,.259.634.862.862,0,0,1-.259.634A.862.862,0,0,1,128.212-833.752Zm-3.57,0a.862.862,0,0,1-.634-.259.862.862,0,0,1-.259-.634.862.862,0,0,1,.259-.634.862.862,0,0,1,.634-.259.862.862,0,0,1,.634.259.862.862,0,0,1,.259.634.862.862,0,0,1-.259.634A.862.862,0,0,1,124.642-833.752ZM126.427-830a3.366,3.366,0,0,1-1.937-.589,3.5,3.5,0,0,1-1.276-1.553h6.427a3.5,3.5,0,0,1-1.276,1.553A3.366,3.366,0,0,1,126.427-830Zm0,2.856a6.218,6.218,0,0,1-2.508-.509,6.532,6.532,0,0,1-2.035-1.375,6.533,6.533,0,0,1-1.375-2.035,6.218,6.218,0,0,1-.509-2.508,6.218,6.218,0,0,1,.509-2.508,6.532,6.532,0,0,1,1.375-2.035,6.533,6.533,0,0,1,2.035-1.375,6.218,6.218,0,0,1,2.508-.509,6.218,6.218,0,0,1,2.508.509,6.533,6.533,0,0,1,2.035,1.375,6.532,6.532,0,0,1,1.375,2.035,6.218,6.218,0,0,1,.509,2.508,6.218,6.218,0,0,1-.509,2.508,6.534,6.534,0,0,1-1.375,2.035,6.533,6.533,0,0,1-2.035,1.375A6.218,6.218,0,0,1,126.427-827.146Zm0-1.428a4.816,4.816,0,0,0,3.535-1.464,4.816,4.816,0,0,0,1.464-3.535,4.816,4.816,0,0,0-1.464-3.535,4.816,4.816,0,0,0-3.535-1.464h-.214a.674.674,0,0,0-.214.036.537.537,0,0,0-.143.232.971.971,0,0,0-.036.268.862.862,0,0,0,.259.634.862.862,0,0,0,.634.259.786.786,0,0,0,.295-.054.74.74,0,0,1,.277-.054.458.458,0,0,1,.357.161.547.547,0,0,1,.143.375.5.5,0,0,1-.384.527,2.4,2.4,0,0,1-.687.116,1.889,1.889,0,0,1-1.384-.58,1.889,1.889,0,0,1-.58-1.383v-.107a.769.769,0,0,1,.018-.143,5.051,5.051,0,0,0-2.41,1.8,4.8,4.8,0,0,0-.928,2.91,4.816,4.816,0,0,0,1.464,3.535A4.816,4.816,0,0,0,126.427-828.575ZM126.427-833.573Z" transform="translate(-120 840)"/>
</svg>
