<svg xmlns="http://www.w3.org/2000/svg" xmlns:xlink="http://www.w3.org/1999/xlink" width="252.137" height="228.476" viewBox="0 0 252.137 228.476">
  <defs>
    <clipPath id="clip-path">
      <rect id="Rectángulo_150339" data-name="Rectángulo 150339" width="252.137" height="193.062" fill="none"/>
    </clipPath>
    <clipPath id="clip-path-3">
      <rect id="Rectángulo_150336" data-name="Rectángulo 150336" width="228.507" height="193.062" fill="none"/>
    </clipPath>
    <clipPath id="clip-path-4">
      <rect id="Rectángulo_150340" data-name="Rectángulo 150340" width="91.869" height="85.745" fill="none"/>
    </clipPath>
    <clipPath id="clip-path-5">
      <rect id="Rectángulo_150341" data-name="Rectángulo 150341" width="13.738" height="35.938" transform="translate(0)" fill="#fff"/>
    </clipPath>
    <clipPath id="clip-path-6">
      <rect id="Rectángulo_150342" data-name="Rectángulo 150342" width="13.494" height="13.494" fill="#fff"/>
    </clipPath>
    <clipPath id="clip-path-7">
      <rect id="Rectángulo_150340-2" data-name="Rectángulo 150340" width="35.131" height="32.789" fill="none"/>
    </clipPath>
    <clipPath id="clip-path-8">
      <rect id="Rectángulo_150341-2" data-name="Rectángulo 150341" width="5.253" height="13.743" fill="#fff"/>
    </clipPath>
    <clipPath id="clip-path-9">
      <rect id="Rectángulo_150342-2" data-name="Rectángulo 150342" width="5.16" height="5.16" fill="#fff"/>
    </clipPath>
    <clipPath id="clip-path-10">
      <rect id="Rectángulo_150340-3" data-name="Rectángulo 150340" width="24.043" height="22.44" fill="none"/>
    </clipPath>
    <clipPath id="clip-path-11">
      <rect id="Rectángulo_150341-3" data-name="Rectángulo 150341" width="3.595" height="9.405" fill="#fff"/>
    </clipPath>
    <clipPath id="clip-path-12">
      <rect id="Rectángulo_150342-3" data-name="Rectángulo 150342" width="3.531" height="3.531" fill="#fff"/>
    </clipPath>
  </defs>
  <g id="Grupo_196222" data-name="Grupo 196222" transform="translate(-59 -280.121)">
    <g id="Grupo_196118" data-name="Grupo 196118" transform="translate(59 315.535)">
      <g id="Grupo_196117" data-name="Grupo 196117" clip-path="url(#clip-path)">
        <g id="Grupo_196116" data-name="Grupo 196116" transform="translate(0 0)">
          <g id="Grupo_196115" data-name="Grupo 196115" clip-path="url(#clip-path)">
            <g id="Grupo_196114" data-name="Grupo 196114" transform="translate(16.419)" opacity="0.12">
              <g id="Grupo_196113" data-name="Grupo 196113">
                <g id="Grupo_196112" data-name="Grupo 196112" clip-path="url(#clip-path-3)">
                  <path id="Trazado_47438" data-name="Trazado 47438" d="M49.4,193.063c-13.537-3.8-33.245-19.363-37.835-31.9a40.432,40.432,0,0,1,5.849-37.9c4.258-5.615,10.187-10.632,11.387-17.43,1.619-9.163-5.847-17.208-10.819-25.238C3.458,57.139,11.23,23.8,34.865,8.184,47.777-.351,66.119-3.371,79.3,4.789c10.819,6.7,16,19.218,26.148,26.784,11.09,8.269,26.394,9.393,40.515,8.344S174.231,36,188.288,37.635s28.6,9.145,32.688,21.87c4.638,14.444-5.435,29.484-5.006,44.563.337,11.79,7,22.461,12.8,32.928s11,22.271,8.164,33.762-16.107,22.3-33.966,22.3" transform="translate(-9.219 0)" fill="#ff001d"/>
                </g>
              </g>
            </g>
            <path id="Trazado_47439" data-name="Trazado 47439" d="M69.816,103.17a8.522,8.522,0,1,1-8.522-8.522,8.521,8.521,0,0,1,8.522,8.522" transform="translate(41.212 73.916)" fill="#454545"/>
            <path id="Trazado_47440" data-name="Trazado 47440" d="M62.545,100.954a3.468,3.468,0,1,1-3.468-3.468,3.468,3.468,0,0,1,3.468,3.468" transform="translate(43.429 76.132)" fill="#b7b7b7"/>
            <path id="Trazado_47441" data-name="Trazado 47441" d="M105.178,103.17a8.522,8.522,0,1,1-8.522-8.522,8.521,8.521,0,0,1,8.522,8.522" transform="translate(68.829 73.916)" fill="#454545"/>
            <path id="Trazado_47442" data-name="Trazado 47442" d="M97.907,100.954a3.468,3.468,0,1,1-3.468-3.468,3.468,3.468,0,0,1,3.468,3.468" transform="translate(71.045 76.132)" fill="#b7b7b7"/>
            <path id="Trazado_47443" data-name="Trazado 47443" d="M94.215,97.486a3.462,3.462,0,0,0-2.956,1.662,3.463,3.463,0,0,1,4.762,4.762,3.465,3.465,0,0,0-1.806-6.424" transform="translate(71.269 76.132)"/>
            <path id="Trazado_47444" data-name="Trazado 47444" d="M102.569,97.642h0a8.512,8.512,0,0,0-12.962,0h0l-.057.069c-.059.069-.114.141-.169.212s-.11.139-.162.21-.1.137-.144.207c-.034.048-.071.1-.1.144h.005c-.037.057-.077.11-.11.166.066-.055.135-.11.2-.166H99.672a8.517,8.517,0,0,1,1.92,11.188,8.514,8.514,0,0,0,.978-12.03m-12.226,0a8.517,8.517,0,0,1,8.052,0Z" transform="translate(69.398 73.916)" fill="#b7b7b7"/>
            <path id="Trazado_47445" data-name="Trazado 47445" d="M58.853,97.486A3.462,3.462,0,0,0,55.9,99.148a3.463,3.463,0,0,1,4.762,4.762,3.465,3.465,0,0,0-1.806-6.424" transform="translate(43.653 76.132)"/>
            <path id="Trazado_47446" data-name="Trazado 47446" d="M67.207,97.642h0a8.512,8.512,0,0,0-12.962,0h0l-.057.069c-.059.069-.114.141-.169.212s-.109.139-.162.21-.1.137-.144.207l-.1.144h.005c-.036.057-.075.11-.11.166.066-.055.135-.11.2-.166H64.31a8.517,8.517,0,0,1,1.92,11.188,8.514,8.514,0,0,0,.978-12.03m-12.226,0a8.517,8.517,0,0,1,8.052,0Z" transform="translate(41.782 73.916)" fill="#b7b7b7"/>
            <path id="Trazado_47447" data-name="Trazado 47447" d="M43.98,45.167l9.555,74.845h93.082l9.555-74.845Zm8,27.229H74.057l1.963,23.047H54.926Zm26.581,0h21.1V95.443H80.525Zm21.1-4.492H78.181L76.628,49.659H99.663Zm4.49-18.246h23.035L125.635,67.9H104.153Zm-4.49,50.275V115.52H82.235L80.908,99.933Zm4.49,0h18.755l-1.327,15.587H104.153Zm0-4.49V72.4h21.1l-1.961,23.047ZM129.76,72.4h18.408l-2.942,23.047H127.8Zm.383-4.492L131.7,49.659H151.07L148.741,67.9ZM72.123,49.659,73.676,67.9H51.41L49.081,49.659ZM55.5,99.933H76.4l1.327,15.587H57.49Zm70.59,15.587,1.327-15.587h17.236l-1.989,15.587Z" transform="translate(34.346 35.273)"/>
            <path id="Trazado_47448" data-name="Trazado 47448" d="M155.574,51.746H47.863a3.64,3.64,0,0,1-3.64-3.64v-.114a3.64,3.64,0,0,1,3.64-3.64h107.71a3.64,3.64,0,0,1,3.64,3.64v.114a3.64,3.64,0,0,1-3.64,3.64" transform="translate(34.536 34.636)" fill="#454545"/>
            <path id="Trazado_47449" data-name="Trazado 47449" d="M155.427,44.351H47.717a3.64,3.64,0,0,0-3.307,2.125,3.67,3.67,0,0,1,1.061-.157h107.71a3.64,3.64,0,0,1,3.64,3.638v.116a3.613,3.613,0,0,1-.333,1.514,3.64,3.64,0,0,0,2.579-3.482v-.114a3.64,3.64,0,0,0-3.64-3.64" transform="translate(34.682 34.636)"/>
            <path id="Trazado_47450" data-name="Trazado 47450" d="M156.7,144.077h-93a2.994,2.994,0,0,1,0-5.988h93a4.769,4.769,0,1,0,0-9.537H67.038a3,3,0,0,1-2.971-2.616L53.246,41.176H32.217a2.994,2.994,0,1,1,0-5.988H55.882A3,3,0,0,1,58.853,37.8l10.821,84.761H156.7a10.757,10.757,0,0,1,0,21.514" transform="translate(22.822 27.48)" fill="#ff001d"/>
            <path id="Trazado_47451" data-name="Trazado 47451" d="M30.9,37.249H54.565a2.993,2.993,0,0,1,2.969,2.614l10.821,84.761h87.028a10.757,10.757,0,0,1,9.7,15.412,10.748,10.748,0,0,0-8.394-17.473H69.659L58.838,37.8a3,3,0,0,0-2.971-2.614H32.2a2.992,2.992,0,0,0-2.96,2.561,2.982,2.982,0,0,1,1.656-.5" transform="translate(22.837 27.48)" fill="#960a0f"/>
            <path id="Trazado_47452" data-name="Trazado 47452" d="M58.735,42.188H32.74a3.7,3.7,0,0,1,0-7.395H58.735a3.7,3.7,0,1,1,0,7.395" transform="translate(22.681 27.172)" fill="#454545"/>
            <path id="Trazado_47453" data-name="Trazado 47453" d="M58.64,34.793H32.645a3.7,3.7,0,0,0-3.48,2.458,3.686,3.686,0,0,1,1.8-.467H56.955a3.689,3.689,0,0,1,3.48,4.937,3.7,3.7,0,0,0-1.8-6.928" transform="translate(22.776 27.172)"/>
            <path id="Trazado_47454" data-name="Trazado 47454" d="M48.8,38.945H42.762l.408,3.181h6.036Z" transform="translate(33.395 30.414)" fill="#7b0207"/>
            <path id="Trazado_47455" data-name="Trazado 47455" d="M59.851,48.5l.335,3.934h4.508L64.359,48.5Z" transform="translate(46.741 37.879)" fill="#454545"/>
            <path id="Trazado_47456" data-name="Trazado 47456" d="M108.755,48.5h-4.527l-.5,3.934h4.527Z" transform="translate(81.005 37.879)" fill="#454545"/>
            <rect id="Rectángulo_150337" data-name="Rectángulo 150337" width="4.492" height="3.934" transform="translate(134.01 86.382)" fill="#454545"/>
            <path id="Trazado_47457" data-name="Trazado 47457" d="M95.286,48.5H90.778l-.335,3.934h4.508Z" transform="translate(70.632 37.879)" fill="#454545"/>
            <path id="Trazado_47458" data-name="Trazado 47458" d="M185.962,104.221H32.4c-.778,0-1.409.869-1.409,1.943v3.564c0,1.074.63,1.943,1.409,1.943H185.962c.778,0,1.409-.869,1.409-1.943v-3.564c0-1.074-.63-1.943-1.409-1.943" transform="translate(24.201 81.392)" fill="#cd0008"/>
            <path id="Trazado_47459" data-name="Trazado 47459" d="M118.834,88.9c-3.334,0-3.339,5.181,0,5.181s3.339-5.181,0-5.181" transform="translate(90.85 69.431)" fill="#ff001d"/>
            <path id="Trazado_47460" data-name="Trazado 47460" d="M141.267,59.17c-3.336,0-3.339,5.181,0,5.181s3.339-5.181,0-5.181" transform="translate(108.368 46.209)" fill="#ff001d"/>
            <path id="Trazado_47461" data-name="Trazado 47461" d="M107.642,35.548a3.239,3.239,0,0,1,0-6.476,3.018,3.018,0,0,1,2.369,1.035,3.364,3.364,0,0,1,.782,2.2,3.1,3.1,0,0,1-3.151,3.24m0-5.181a1.945,1.945,0,0,0,0,3.886,1.736,1.736,0,0,0,1.386-.584,2.118,2.118,0,0,0,.47-1.361,1.805,1.805,0,0,0-1.856-1.941" transform="translate(81.603 22.704)" fill="#ef1019"/>
            <path id="Trazado_47462" data-name="Trazado 47462" d="M85.447,4.395c-3.334,0-3.339,5.181,0,5.181s3.339-5.181,0-5.181" transform="translate(64.776 3.432)" fill="#ff001d"/>
            <path id="Trazado_47463" data-name="Trazado 47463" d="M46.322,20.567c-3.334,0-3.339,5.181,0,5.181s3.339-5.181,0-5.181" transform="translate(34.221 16.062)" fill="#ff001d"/>
            <path id="Trazado_47464" data-name="Trazado 47464" d="M2.5,32.565c-3.334,0-3.339,5.181,0,5.181s3.339-5.181,0-5.181" transform="translate(0 25.432)" fill="#ff001d"/>
            <path id="Trazado_47465" data-name="Trazado 47465" d="M35.812,81.213a3.1,3.1,0,0,1-3.151-3.236,3.377,3.377,0,0,1,.782-2.2,3.021,3.021,0,0,1,2.369-1.035,3.1,3.1,0,0,1,3.151,3.236,3.377,3.377,0,0,1-.782,2.2,3.02,3.02,0,0,1-2.369,1.035m0-5.181a1.945,1.945,0,1,0,1.854,1.941,1.806,1.806,0,0,0-1.854-1.941" transform="translate(25.507 58.366)" fill="#ef1019"/>
            <path id="Trazado_47466" data-name="Trazado 47466" d="M6.154,102.99c-3.334,0-3.339,5.181,0,5.181s3.339-5.181,0-5.181" transform="translate(2.852 80.43)" fill="#ff001d"/>
          </g>
        </g>
      </g>
    </g>
    <g id="Grupo_196221" data-name="Grupo 196221" transform="translate(122.915 280.821)">
      <g id="Grupo_196218" data-name="Grupo 196218" transform="translate(23.924 30.498)">
        <path id="Trazado_47467" data-name="Trazado 47467" d="M53.324,16.438,23.383,85.019a12.943,12.943,0,0,0,13.166,18.058c20.8-2.11,51.972-5.323,73.576-7.555A13.757,13.757,0,0,0,119.6,73.436L73.72,13.926a11.938,11.938,0,0,0-20.4,2.513" transform="translate(-22.283 -9.275)" fill="#ff001d"/>
        <g id="Grupo_196120" data-name="Grupo 196120" transform="translate(3.857 4.968)">
          <g id="Grupo_196119" data-name="Grupo 196119" transform="translate(0 0)" clip-path="url(#clip-path-4)">
            <path id="Trazado_47468" data-name="Trazado 47468" d="M54.472,20.541a2.155,2.155,0,0,1,.247-.67c.1-.214.209-.491.379-.8q.292-.446.67-1.027c.273-.376.64-.748,1.017-1.186a12.3,12.3,0,0,1,1.465-1.194A10.555,10.555,0,0,1,62.614,13.9a11.271,11.271,0,0,1,5.887.567,11.394,11.394,0,0,1,2.952,1.742l.691.586c.213.216.413.451.622.679.435.46.794.939,1.177,1.424,3.046,3.89,6.513,8.316,10.344,13.206L111.1,66.567l3.819,4.942a13.085,13.085,0,0,1,2.582,6.216,13.21,13.21,0,0,1-11.838,14.943q-3.394.349-6.838.708L84.851,94.815,57.3,97.626,44.2,98.95l-3.193.321-1.584.158-1.689.055a12.194,12.194,0,0,1-6.294-1.98,12.57,12.57,0,0,1-5.685-10.861c.05-.517.05-1.039.148-1.543s.206-1.008.335-1.5l.519-1.432c.181-.455.38-.874.569-1.312q1.142-2.59,2.25-5.1L37.81,57.167c5.046-11.36,9.155-20.541,12.032-26.869,1.448-3.143,2.577-5.589,3.352-7.27a16.8,16.8,0,0,1,1.277-2.487,16.961,16.961,0,0,1-.956,2.628c-.706,1.711-1.732,4.2-3.053,7.4-2.685,6.412-6.623,15.667-11.524,27.09C36.48,63.37,33.789,69.622,30.9,76.335q-1.087,2.517-2.21,5.117c-.183.432-.386.873-.552,1.3l-.45,1.266c-.109.435-.185.88-.283,1.319s-.075.9-.12,1.351a11.021,11.021,0,0,0,5.027,9.468,10.58,10.58,0,0,0,5.474,1.692l1.474-.053,1.582-.165,3.192-.335,13.1-1.366,27.542-2.846,13.971-1.43,6.838-.7A11.527,11.527,0,0,0,115.85,77.943a11.453,11.453,0,0,0-2.237-5.448l-3.785-4.949C99.851,54.492,90.865,42.735,83.314,32.854L73.173,19.49c-.372-.491-.734-.99-1.113-1.4-.188-.214-.367-.434-.559-.638l-.625-.549a10.071,10.071,0,0,0-8.158-2.334,10.185,10.185,0,0,0-4.184,1.53,12.58,12.58,0,0,0-1.452,1.077c-.377.4-.754.742-1.039,1.088l-.721.95c-.189.285-.321.543-.445.74-.239.4-.377.6-.405.589" transform="translate(-25.747 -13.737)" fill="#fff"/>
          </g>
        </g>
        <g id="Grupo_196123" data-name="Grupo 196123" transform="matrix(0.999, -0.035, 0.035, 0.999, 38.606, 22.922)" style="mix-blend-mode: normal;isolation: isolate">
          <g id="Grupo_196122" data-name="Grupo 196122" transform="translate(0)" clip-path="url(#clip-path-5)">
            <path id="Trazado_47469" data-name="Trazado 47469" d="M.047,4.846,4.516,32.177a4.485,4.485,0,0,0,8.91-.674l.312-27.946A3.519,3.519,0,0,0,9.822.023l-6.7.759A3.518,3.518,0,0,0,.047,4.846" transform="translate(0 0)" fill="#fff"/>
          </g>
        </g>
        <g id="Grupo_196126" data-name="Grupo 196126" transform="matrix(0.999, -0.035, 0.035, 0.999, 44.091, 64.148)" style="mix-blend-mode: normal;isolation: isolate">
          <g id="Grupo_196125" data-name="Grupo 196125" clip-path="url(#clip-path-6)">
            <path id="Trazado_47470" data-name="Trazado 47470" d="M13.327,8.23A6.746,6.746,0,1,1,8.23.167a6.745,6.745,0,0,1,5.1,8.063" transform="translate(0 0.001)" fill="#fff"/>
          </g>
        </g>
      </g>
      <g id="Grupo_196219" data-name="Grupo 196219" transform="matrix(0.914, 0.407, -0.407, 0.914, 104.602, 3.142)">
        <path id="Trazado_47467-2" data-name="Trazado 47467" d="M11.87,2.739.421,28.965A4.949,4.949,0,0,0,5.455,35.87c7.955-.807,19.874-2.036,28.136-2.889a5.261,5.261,0,0,0,3.625-8.445L19.67,1.778a4.565,4.565,0,0,0-7.8.961" transform="translate(0 0)" fill="#ff001d"/>
        <g id="Grupo_196120-2" data-name="Grupo 196120" transform="translate(1.475 1.9)">
          <g id="Grupo_196119-2" data-name="Grupo 196119" transform="translate(0 0)" clip-path="url(#clip-path-7)">
            <path id="Trazado_47468-2" data-name="Trazado 47468" d="M10.984,2.6a.824.824,0,0,1,.095-.256c.038-.082.08-.188.145-.306l.256-.393c.1-.144.245-.286.389-.453a4.7,4.7,0,0,1,.56-.456A4.036,4.036,0,0,1,14.1.062a4.31,4.31,0,0,1,2.251.217,4.357,4.357,0,0,1,1.129.666l.264.224c.081.083.158.172.238.26.166.176.3.359.45.545l3.956,5.05L32.638,20.2l1.46,1.89a5,5,0,0,1,.987,2.377,5.052,5.052,0,0,1-4.527,5.714l-2.615.271L22.6,31,12.067,32.079l-5.01.506-1.221.123-.606.06-.646.021a4.663,4.663,0,0,1-2.407-.757A4.807,4.807,0,0,1,0,27.879c.019-.2.019-.4.057-.59s.079-.385.128-.573l.2-.548c.069-.174.145-.334.218-.5l.86-1.95,3.148-7.109c1.93-4.344,3.5-7.855,4.6-10.275L10.5,3.553a6.425,6.425,0,0,1,.488-.951,6.486,6.486,0,0,1-.366,1L9.451,6.437C8.424,8.888,6.918,12.428,5.044,16.8L1.971,23.938l-.845,1.957c-.07.165-.148.334-.211.5l-.172.484c-.042.166-.071.336-.108.5s-.029.344-.046.516a4.214,4.214,0,0,0,1.922,3.621,4.046,4.046,0,0,0,2.093.647l.564-.02.6-.063,1.221-.128L12,31.431l10.532-1.088,5.342-.547,2.615-.267a4.408,4.408,0,0,0,3.965-4.977,4.38,4.38,0,0,0-.855-2.083l-1.448-1.892L22.014,7.31,18.136,2.2c-.142-.188-.281-.378-.426-.536-.072-.082-.14-.166-.214-.244l-.239-.21A4.066,4.066,0,0,0,16.232.573,4.08,4.08,0,0,0,14.138.318a3.9,3.9,0,0,0-1.6.585,4.81,4.81,0,0,0-.555.412c-.144.154-.288.284-.4.416l-.276.363c-.072.109-.123.208-.17.283-.092.153-.144.23-.155.225" transform="translate(0 0)" fill="#fff"/>
          </g>
        </g>
        <g id="Grupo_196123-2" data-name="Grupo 196123" transform="matrix(0.999, -0.035, 0.035, 0.999, 14.763, 8.765)" style="mix-blend-mode: normal;isolation: isolate">
          <g id="Grupo_196122-2" data-name="Grupo 196122" transform="translate(0 0)" clip-path="url(#clip-path-8)">
            <path id="Trazado_47469-2" data-name="Trazado 47469" d="M.018,1.853,1.727,12.3a1.715,1.715,0,0,0,3.407-.258L5.253,1.361A1.346,1.346,0,0,0,3.756.009L1.194.3A1.345,1.345,0,0,0,.018,1.853" transform="translate(0 0)" fill="#fff"/>
          </g>
        </g>
        <g id="Grupo_196126-2" data-name="Grupo 196126" transform="matrix(0.999, -0.035, 0.035, 0.999, 16.861, 24.531)" style="mix-blend-mode: normal;isolation: isolate">
          <g id="Grupo_196125-2" data-name="Grupo 196125" clip-path="url(#clip-path-9)">
            <path id="Trazado_47470-2" data-name="Trazado 47470" d="M5.1,3.147A2.58,2.58,0,1,1,3.147.064,2.579,2.579,0,0,1,5.1,3.147" transform="translate(0 0)" fill="#fff"/>
          </g>
        </g>
      </g>
      <g id="Grupo_196220" data-name="Grupo 196220" transform="translate(0 30.552) rotate(-17)">
        <path id="Trazado_47467-3" data-name="Trazado 47467" d="M8.124,1.875.288,19.823a3.387,3.387,0,0,0,3.446,4.726c5.444-.552,13.6-1.393,19.255-1.977a3.6,3.6,0,0,0,2.481-5.78L13.461,1.217a3.124,3.124,0,0,0-5.338.658" transform="translate(0 0)" fill="#ff001d"/>
        <g id="Grupo_196120-3" data-name="Grupo 196120" transform="translate(1.009 1.3)">
          <g id="Grupo_196119-3" data-name="Grupo 196119" transform="translate(0 0)" clip-path="url(#clip-path-10)">
            <path id="Trazado_47468-3" data-name="Trazado 47468" d="M7.517,1.781a.564.564,0,0,1,.065-.175c.026-.056.055-.128.1-.209l.175-.269c.071-.1.168-.2.266-.31A3.219,3.219,0,0,1,8.506.5,2.762,2.762,0,0,1,9.648.042a2.95,2.95,0,0,1,1.541.148,2.982,2.982,0,0,1,.772.456L12.142.8c.056.057.108.118.163.178.114.12.208.246.308.373L15.32,4.806l7.016,9.02,1,1.293a3.424,3.424,0,0,1,.676,1.627,3.457,3.457,0,0,1-3.1,3.911l-1.79.185-3.656.376-7.209.736L4.83,22.3l-.836.084-.415.041-.442.014a3.191,3.191,0,0,1-1.647-.518A3.29,3.29,0,0,1,0,19.08c.013-.135.013-.272.039-.4s.054-.264.088-.392l.136-.375c.047-.119.1-.229.149-.343L1,16.231l2.154-4.865c1.321-2.973,2.4-5.376,3.149-7.032l.877-1.9a4.4,4.4,0,0,1,.334-.651,4.44,4.44,0,0,1-.25.688L6.468,4.4c-.7,1.678-1.733,4.1-3.016,7.09l-2.1,4.888L.77,17.721c-.048.113-.1.228-.145.341l-.118.331c-.029.114-.048.23-.074.345s-.02.235-.031.353A2.884,2.884,0,0,0,1.718,21.57a2.769,2.769,0,0,0,1.433.443L3.537,22l.414-.043.835-.088,3.427-.358,7.208-.745,3.656-.374,1.79-.182A3.017,3.017,0,0,0,23.58,16.8a3,3,0,0,0-.585-1.426L22,14.082,15.065,5l-2.654-3.5c-.1-.128-.192-.259-.291-.367-.049-.056-.1-.114-.146-.167L11.811.828a2.783,2.783,0,0,0-.7-.436A2.792,2.792,0,0,0,9.676.217a2.665,2.665,0,0,0-1.095.4A3.292,3.292,0,0,0,8.2.9c-.1.105-.2.194-.272.285l-.189.249c-.05.075-.084.142-.117.194-.063.1-.1.157-.106.154" transform="translate(0 0)" fill="#fff"/>
          </g>
        </g>
        <g id="Grupo_196123-3" data-name="Grupo 196123" transform="matrix(0.999, -0.035, 0.035, 0.999, 10.103, 5.999)" style="mix-blend-mode: normal;isolation: isolate">
          <g id="Grupo_196122-3" data-name="Grupo 196122" transform="translate(0 0)" clip-path="url(#clip-path-11)">
            <path id="Trazado_47469-3" data-name="Trazado 47469" d="M.012,1.268l1.17,7.153a1.174,1.174,0,0,0,2.332-.176L3.6.931A.921.921,0,0,0,2.57.006L.817.2A.921.921,0,0,0,.012,1.268" transform="translate(0 0)" fill="#fff"/>
          </g>
        </g>
        <g id="Grupo_196126-3" data-name="Grupo 196126" transform="matrix(0.999, -0.035, 0.035, 0.999, 11.539, 16.788)" style="mix-blend-mode: normal;isolation: isolate">
          <g id="Grupo_196125-3" data-name="Grupo 196125" clip-path="url(#clip-path-12)">
            <path id="Trazado_47470-3" data-name="Trazado 47470" d="M3.488,2.154A1.765,1.765,0,1,1,2.154.044a1.765,1.765,0,0,1,1.334,2.11" transform="translate(0 0)" fill="#fff"/>
          </g>
        </g>
      </g>
      <path id="Trazado_47479" data-name="Trazado 47479" d="M14.144,101.056c-.029.028-.306-.229-.785-.72a9.532,9.532,0,0,1-.828-.936,15.642,15.642,0,0,1-1-1.318,23.408,23.408,0,0,1-2.138-3.75A24.825,24.825,0,0,1,7.172,84.044a23.522,23.522,0,0,1,.4-4.3,15.571,15.571,0,0,1,.372-1.615,9.455,9.455,0,0,1,.37-1.194,3.767,3.767,0,0,1,.418-.98c.106.035-.4,1.464-.754,3.856a26.534,26.534,0,0,0-.274,4.226A26.416,26.416,0,0,0,9.879,94.115a26.419,26.419,0,0,0,1.99,3.738c1.31,2.033,2.358,3.129,2.276,3.2" transform="translate(-0.071 28.783)" fill="#263238" stroke="#000" stroke-width="1"/>
      <path id="Trazado_47480" data-name="Trazado 47480" d="M23.189,102.334a4.178,4.178,0,0,1-.953-.6,9.4,9.4,0,0,1-1.04-.818,15.73,15.73,0,0,1-1.288-1.191,23.265,23.265,0,0,1-2.888-3.544,24.714,24.714,0,0,1-3.9-10.429,23.2,23.2,0,0,1-.145-4.569,15.469,15.469,0,0,1,.192-1.745,9.347,9.347,0,0,1,.248-1.3,4.229,4.229,0,0,1,.323-1.081c.114.023-.272,1.584-.353,4.144a25.672,25.672,0,0,0,.264,4.476,26.046,26.046,0,0,0,3.817,10.212A25.65,25.65,0,0,0,20.2,99.437c1.741,1.879,3.055,2.8,2.985,2.9" transform="translate(0.581 28.907)" fill="#263238" stroke="#000" stroke-width="1"/>
      <path id="Trazado_47481" data-name="Trazado 47481" d="M115.155,92.224c-.1-.051.768-1.6,1.752-4.278a37.7,37.7,0,0,0,1.392-4.794A36.575,36.575,0,0,0,118.88,71a37.052,37.052,0,0,0-.925-4.906c-.723-2.756-1.436-4.383-1.336-4.426a5.087,5.087,0,0,1,.568,1.114,24.929,24.929,0,0,1,1.162,3.2,32.769,32.769,0,0,1,1.062,4.948,34.263,34.263,0,0,1-.591,12.338,32.7,32.7,0,0,1-1.53,4.823,25.046,25.046,0,0,1-1.465,3.076,5.253,5.253,0,0,1-.67,1.054" transform="translate(12.17 27.163)" fill="#263238" stroke="#000" stroke-width="1"/>
      <path id="Trazado_50678" data-name="Trazado 50678" d="M0,17.557c-.056-.029.441-.922,1.007-2.458a21.662,21.662,0,0,0,.8-2.755A23.185,23.185,0,0,0,2.27,8.867a23.03,23.03,0,0,0-.125-3.506,21.289,21.289,0,0,0-.532-2.819C1.2.96.788.025.846,0a2.922,2.922,0,0,1,.326.64A14.323,14.323,0,0,1,1.84,2.48a18.826,18.826,0,0,1,.61,2.843A21.384,21.384,0,0,1,2.6,8.883a21.314,21.314,0,0,1-.492,3.529,18.792,18.792,0,0,1-.879,2.771,14.389,14.389,0,0,1-.842,1.768A3.017,3.017,0,0,1,0,17.557" transform="translate(118.559 3.536) rotate(-45)" fill="none" stroke="#000" stroke-width="1"/>
      <path id="Trazado_47482" data-name="Trazado 47482" d="M123.2,89.566c-.1-.05.6-1.319,1.343-3.507a27.312,27.312,0,0,0,1-3.92,27.048,27.048,0,0,0-.07-9.854,27.128,27.128,0,0,0-1.061-3.906c-.775-2.177-1.486-3.436-1.393-3.487a3.458,3.458,0,0,1,.57.844,17.892,17.892,0,0,1,1.207,2.5,23.8,23.8,0,0,1,1.2,3.946,25.1,25.1,0,0,1,.071,10.057,23.656,23.656,0,0,1-1.143,3.961,17.7,17.7,0,0,1-1.17,2.515,3.456,3.456,0,0,1-.558.853" transform="translate(13.061 27.528)" fill="#263238" stroke="#000" stroke-width="1"/>
      <path id="Trazado_50679" data-name="Trazado 50679" d="M.107,14.178c-.055-.029.344-.758.772-2.015A15.694,15.694,0,0,0,1.455,9.91a17.015,17.015,0,0,0,.24-2.833,17,17,0,0,0-.28-2.829A15.587,15.587,0,0,0,.805,2C.36.753-.049.03,0,0A1.987,1.987,0,0,1,.332.485a10.28,10.28,0,0,1,.693,1.436,13.675,13.675,0,0,1,.69,2.267,15.706,15.706,0,0,1,.313,2.887,15.626,15.626,0,0,1-.272,2.892A13.593,13.593,0,0,1,1.1,12.243a10.171,10.171,0,0,1-.672,1.445,1.986,1.986,0,0,1-.32.49" transform="translate(123.575 1.435) rotate(-45)" fill="none" stroke="#000" stroke-width="1"/>
    </g>
  </g>
</svg>
