<svg xmlns="http://www.w3.org/2000/svg" width="34.667" height="34.667" viewBox="0 0 34.667 34.667">
  <path id="Trazado_46667" data-name="Trazado 46667" d="M10.4,15.6a1.705,1.705,0,1,0-1.234-.5,1.673,1.673,0,0,0,1.234.5m6.933,0a1.705,1.705,0,1,0-1.234-.5,1.673,1.673,0,0,0,1.234.5m6.933,0a1.705,1.705,0,1,0-1.234-.5,1.673,1.673,0,0,0,1.234.5M0,34.667V3.467A3.345,3.345,0,0,1,1.017,1.017,3.345,3.345,0,0,1,3.467,0H31.2a3.345,3.345,0,0,1,2.449,1.017,3.345,3.345,0,0,1,1.017,2.449v20.8A3.474,3.474,0,0,1,31.2,27.733H6.933Zm5.46-10.4H31.2V3.467H3.467v22.75Zm-1.993,0v0Z" fill="#b7b7b7"/>
</svg>
