<svg id="Grupo_195261" data-name="Grupo 195261" xmlns="http://www.w3.org/2000/svg" width="12.412" height="13.988" viewBox="0 0 12.412 13.988">
  <path id="Trazado_175" data-name="Trazado 175" d="M15.122,1133.115h-5.07a1.857,1.857,0,0,1-1.846-1.719l-.518-7.291a.739.739,0,0,1,.737-.791h8.324a.739.739,0,0,1,.737.791l-.518,7.291a1.857,1.857,0,0,1-1.846,1.72m-5.9-8.324.461,6.5a.375.375,0,0,0,.372.347h5.07a.374.374,0,0,0,.372-.347l.462-6.5Z" transform="translate(-6.258 -1119.127)" fill="#fff"/>
  <path id="Trazado_176" data-name="Trazado 176" d="M11.082,1106.4H1.33a1.331,1.331,0,0,1-1.33-1.33V1103.3a1.331,1.331,0,0,1,1.33-1.33H2.964a1.332,1.332,0,0,1,1.322-1.182H8.423a1.332,1.332,0,0,1,1.322,1.182h1.338a1.331,1.331,0,0,1,1.33,1.33v1.773a1.331,1.331,0,0,1-1.33,1.33m-9.6-1.478h9.457v-1.478H9.6a1.332,1.332,0,0,1-1.322-1.182H4.425a1.332,1.332,0,0,1-1.322,1.182H1.478Zm9.6-1.478h0Zm-1.33-1.33h0Z" transform="translate(0 -1100.786)" fill="#fff"/>
  <path id="Trazado_177" data-name="Trazado 177" d="M23.429,1140a.743.743,0,0,1-.743-.739v-3.547a.743.743,0,0,1,1.487,0v3.547a.743.743,0,0,1-.743.739" transform="translate(-18.47 -1128.621)" fill="#fff"/>
  <path id="Trazado_178" data-name="Trazado 178" d="M39.429,1140a.743.743,0,0,1-.743-.739v-3.547a.743.743,0,0,1,1.487,0v3.547a.743.743,0,0,1-.743.739" transform="translate(-31.496 -1128.621)" fill="#fff"/>
</svg>
