<svg id="_9c55d4f68799b67ccd4282c359cada7d" data-name="9c55d4f68799b67ccd4282c359cada7d" xmlns="http://www.w3.org/2000/svg" width="46" height="46" viewBox="0 0 46 46">
  <path id="Trazado_47398" data-name="Trazado 47398" d="M0,23A23,23,0,1,0,23,0,23,23,0,0,0,0,23" fill="#4c5665" fill-rule="evenodd"/>
  <path id="Trazado_47399" data-name="Trazado 47399" d="M36.814,46.827c-.068,0-.131-.015-.2-.02H16.724c-.066.005-.129.02-.2.02a2.558,2.558,0,0,1-2.558-2.558c0-.067.015-.131.02-.2v-.12c.068.039.138.075.209.107a2.558,2.558,0,0,0,2.649,1.479H36.493A2.558,2.558,0,0,0,39.372,43v1.265a2.559,2.559,0,0,1-2.558,2.558" transform="translate(-1.965 -11.717)" fill="#414a55" fill-rule="evenodd"/>
  <path id="Trazado_47400" data-name="Trazado 47400" d="M16.9,37.961a1.906,1.906,0,0,1-1.9-1.9V25.9A1.906,1.906,0,0,1,16.9,24H37.21a1.906,1.906,0,0,1,1.9,1.9V36.057a1.906,1.906,0,0,1-1.9,1.9H16.9" transform="translate(-2.374 -5.692)" fill="#73bba3" fill-rule="evenodd"/>
  <path id="Trazado_47401" data-name="Trazado 47401" d="M36.845,23H16.538A2.538,2.538,0,0,0,14,25.538V35.692a2.538,2.538,0,0,0,2.538,2.538H36.845a2.538,2.538,0,0,0,2.538-2.538V25.538A2.538,2.538,0,0,0,36.845,23m0,1.269a1.27,1.27,0,0,1,1.269,1.269V35.692a1.27,1.27,0,0,1-1.269,1.269H16.538a1.27,1.27,0,0,1-1.269-1.269V25.538a1.27,1.27,0,0,1,1.269-1.269H36.845" transform="translate(-1.974 -5.307)" fill="#dedeca" fill-rule="evenodd"/>
  <path id="Trazado_47402" data-name="Trazado 47402" d="M35.615,32.807A3.807,3.807,0,1,1,31.807,29a3.807,3.807,0,0,1,3.807,3.807" transform="translate(-7.331 -7.593)" fill="#4c5665" fill-rule="evenodd"/>
  <path id="Trazado_47403" data-name="Trazado 47403" d="M34.255,25.558A2.558,2.558,0,1,0,36.813,23a2.558,2.558,0,0,0-2.558,2.558m-20.286,0A2.558,2.558,0,1,0,16.527,23a2.558,2.558,0,0,0-2.558,2.558M34.255,35.692a2.558,2.558,0,1,0,2.558-2.559,2.558,2.558,0,0,0-2.558,2.559m-20.286,0a2.558,2.558,0,1,0,2.558-2.558,2.558,2.558,0,0,0-2.558,2.558" transform="translate(-1.965 -5.305)" fill="#dedeca" fill-rule="evenodd"/>
  <path id="Trazado_47404" data-name="Trazado 47404" d="M38.4,35.788H20.712a2.81,2.81,0,0,0-1.784-1.694A3.345,3.345,0,0,0,16,32.6V28.511a3.853,3.853,0,0,0,3.883-.418A2.179,2.179,0,0,0,20.374,25H38.289v.02a2.6,2.6,0,0,0,1.884,2.329,3.148,3.148,0,0,0,2.155,1.424v3.918a3.954,3.954,0,0,0-.823-.1c-1.776,0-3.216,1.145-3.217,2.558a2.046,2.046,0,0,0,.112.635m-12.128-2.46a5.331,5.331,0,0,0,4.955,1.759,4.4,4.4,0,0,0,3.837-3.052,3.564,3.564,0,0,0-2.212-3.941A5.331,5.331,0,0,0,27.9,26.335a4.4,4.4,0,0,0-3.837,3.052,3.564,3.564,0,0,0,2.212,3.941" transform="translate(-5.847 -6.27)" fill="#629986" fill-rule="evenodd"/>
  <path id="Trazado_47405" data-name="Trazado 47405" d="M15,32.319V27.632a2.569,2.569,0,0,0,.635.513V32.23a2.527,2.527,0,0,0-.635.089m18.364-7.684H19.114A2.588,2.588,0,0,0,18.59,24H33.458a2.56,2.56,0,0,0-.095.635" transform="translate(-3.167 -6.23)" fill="#b3b2a4" fill-rule="evenodd"/>
  <path id="Trazado_47406" data-name="Trazado 47406" d="M32.128,36.935a3.806,3.806,0,0,1-3.252-1.825,3.807,3.807,0,0,0,5.234-5.234,3.807,3.807,0,0,1-1.982,7.059" transform="translate(-7.61 -7.874)" fill="#414a55" fill-rule="evenodd"/>
  <path id="Trazado_47407" data-name="Trazado 47407" d="M41.963,28.407a3.128,3.128,0,0,1-2.142-1.424,3.865,3.865,0,0,0,1.324.23,3.908,3.908,0,0,0,.818-.1v1.289m-24.583.074A3.572,3.572,0,0,1,15,27.632v-.509a3.9,3.9,0,0,0,.793.089c1.766,0,3.2-1.146,3.2-2.559A2.068,2.068,0,0,0,18.871,24h.616a2.37,2.37,0,0,1,1.089,1.923c0,1.413-1.431,2.558-3.2,2.558m3.1,6.941h-1.6a2.057,2.057,0,0,0,.111-.635,2.128,2.128,0,0,0-.286-1.06,2.8,2.8,0,0,1,1.773,1.694" transform="translate(-5.481 -5.96)" fill="#b3b2a4" fill-rule="evenodd"/>
  <path id="Trazado_47408" data-name="Trazado 47408" d="M13.534,35.913a2.519,2.519,0,0,1-1.565-2.222c0-.067.018-.131.024-.2v-9.74c-.006-.066-.024-.129-.024-.2A2.873,2.873,0,0,1,15.074,21H39.725a3.173,3.173,0,0,1,2.809,1.494,3.62,3.62,0,0,0-1.268-.225H16.61a3.425,3.425,0,0,0-2.326.868,2.272,2.272,0,0,0-.75,2.011v.629a2.092,2.092,0,0,0-.024.32c0,.068.018.131.024.2v8.348a2.089,2.089,0,0,0,0,.64v.633" transform="translate(-4.374 -4.881)" fill="#414a55" fill-rule="evenodd"/>
  <path id="Trazado_47409" data-name="Trazado 47409" d="M14.2,38.771q-.107-.049-.209-.107v-.633a2.525,2.525,0,0,0,.209.74m-.209-1.38V29.044c-.005-.066-.02-.129-.02-.2a2.531,2.531,0,0,1,.02-.32v8.864" transform="translate(-3.922 -7.213)" fill="#3a4048" fill-rule="evenodd"/>
  <path id="Trazado_47410" data-name="Trazado 47410" d="M35.334,37.692H19.491a2.568,2.568,0,0,0,.257-1.9h14.07a2.524,2.524,0,0,1-.089-.635,2.525,2.525,0,0,1,3.213-2.463V28.773a2.569,2.569,0,0,0,1.9-.274v5.713a2.559,2.559,0,0,0-3.511,3.479M16,34.2V32.6a2.558,2.558,0,0,1,2.329,1.5A2.564,2.564,0,0,0,16,34.2m19.227-6.852a2.559,2.559,0,0,1-1.5-2.329V25h1.617a2.559,2.559,0,0,0-.119,2.349" transform="translate(-2.769 -6.075)" fill="#629986" fill-rule="evenodd"/>
  <path id="Trazado_47411" data-name="Trazado 47411" d="M34.6,36.96h0M14,35.371V25.878a2.55,2.55,0,0,0,.635,1.388v4.686a2.527,2.527,0,0,1,.635-.089v1.605A2.559,2.559,0,0,0,14,35.371m24.114-1.89v0m-3.5-9.212H33a2.56,2.56,0,0,1,.095-.635H18.225A2.551,2.551,0,0,0,16.538,23H36.845a2.518,2.518,0,0,1,1.045.225l0,.009a2.557,2.557,0,0,0-3.279,1.036" transform="translate(-2.215 -5.454)" fill="#b3b2a4" fill-rule="evenodd"/>
  <path id="Trazado_47412" data-name="Trazado 47412" d="M36.814,28.115a2.55,2.55,0,0,1-.615-.074V26.752a2.454,2.454,0,0,1-1.714-.135,2.558,2.558,0,0,1,3.4-3.384,2.529,2.529,0,0,1,.22,1.036v3.5a2.543,2.543,0,0,1-1.289.348m-22.191-.849A2.558,2.558,0,0,1,16.523,23h0a2.551,2.551,0,0,1,1.687.635h-.493a2.526,2.526,0,0,1-3.1,3.123v.509M35.545,36.98c-.067,0-.131-.015-.2-.02h-.756A2.559,2.559,0,0,1,38.1,33.481v.941a2.559,2.559,0,0,1-2.558,2.558m-20.287,0a2.547,2.547,0,0,1-1.06-.229,2.526,2.526,0,0,1-.229-1.06,2.559,2.559,0,0,1,3.618-2.329,2.466,2.466,0,0,1,.14,1.694h1.279a2.568,2.568,0,0,1-.257,1.9H15.455c-.066.005-.129.02-.2.02" transform="translate(-2.207 -5.452)" fill="#b3b2a4" fill-rule="evenodd"/>
  <path id="Trazado_47413" data-name="Trazado 47413" d="M27.826,34.06a3.807,3.807,0,1,1,5.234-5.234,3.807,3.807,0,0,0-5.234,5.234" transform="translate(-6.853 -7.117)" fill="#629986" fill-rule="evenodd"/>
  <path id="Trazado_47414" data-name="Trazado 47414" d="M30.537,35.344a3.79,3.79,0,0,1-1.982-.556,3.807,3.807,0,0,1,5.234-5.234,3.808,3.808,0,0,1-3.252,5.79" transform="translate(-7.437 -7.703)" fill="#414a55" fill-rule="evenodd"/>
  <path id="Trazado_47415" data-name="Trazado 47415" d="M12.9,33.961a1.906,1.906,0,0,1-1.9-1.9V21.9A1.906,1.906,0,0,1,12.9,20H33.21a1.906,1.906,0,0,1,1.9,1.9V32.057a1.906,1.906,0,0,1-1.9,1.9H12.9" transform="translate(-1.741 -4.743)" fill="#73bba3" fill-rule="evenodd"/>
  <path id="Trazado_47416" data-name="Trazado 47416" d="M32.845,19H12.538A2.538,2.538,0,0,0,10,21.538V31.692a2.538,2.538,0,0,0,2.538,2.538H32.845a2.538,2.538,0,0,0,2.538-2.538V21.538A2.538,2.538,0,0,0,32.845,19Zm0,1.269a1.27,1.27,0,0,1,1.269,1.269V31.692a1.27,1.27,0,0,1-1.269,1.269H12.538a1.27,1.27,0,0,1-1.269-1.269V21.538a1.27,1.27,0,0,1,1.269-1.269Z" transform="translate(-1.41 -4.384)" fill="#dedeca" fill-rule="evenodd"/>
  <path id="Trazado_47417" data-name="Trazado 47417" d="M31.615,28.807A3.807,3.807,0,1,1,27.807,25a3.807,3.807,0,0,1,3.807,3.807" transform="translate(-6.284 -6.546)" fill="#4c5665" fill-rule="evenodd"/>
  <path id="Trazado_47418" data-name="Trazado 47418" d="M30.255,21.558A2.559,2.559,0,1,0,32.814,19a2.559,2.559,0,0,0-2.559,2.559m-20.286,0A2.558,2.558,0,1,0,12.527,19a2.558,2.558,0,0,0-2.558,2.559M30.255,31.691a2.558,2.558,0,1,0,2.558-2.559,2.558,2.558,0,0,0-2.558,2.559m-20.286,0a2.558,2.558,0,1,0,2.558-2.558,2.558,2.558,0,0,0-2.558,2.558" transform="translate(-1.402 -4.382)" fill="#dedeca" fill-rule="evenodd"/>
</svg>
