<svg id="fmd_good_black_24dp" xmlns="http://www.w3.org/2000/svg" width="16" height="16" viewBox="0 0 16 16">
  <g id="Grupo_189040">
    <path id="Trazado_37664" d="M0,0H16V16H0Z" fill="none"/>
  </g>
  <path id="Trazado_80775" d="M114.659-800h10.681a.745.745,0,0,1,.544.216.719.719,0,0,1,.219.534.719.719,0,0,1-.219.534.745.745,0,0,1-.544.216H114.659a.745.745,0,0,1-.544-.216.719.719,0,0,1-.219-.534.719.719,0,0,1,.219-.534A.745.745,0,0,1,114.659-800Zm0,12a.744.744,0,0,1-.544-.216.719.719,0,0,1-.219-.534v-3.75h-.134a.737.737,0,0,1-.591-.272.7.7,0,0,1-.153-.628l.763-3.75a.74.74,0,0,1,.267-.431.74.74,0,0,1,.477-.169h10.948a.74.74,0,0,1,.477.169.74.74,0,0,1,.267.431l.763,3.75a.7.7,0,0,1-.153.628.737.737,0,0,1-.591.272H126.1v3.75a.719.719,0,0,1-.219.534.744.744,0,0,1-.544.216.744.744,0,0,1-.544-.216.719.719,0,0,1-.219-.534v-3.75h-3.052v3.75a.719.719,0,0,1-.219.534.745.745,0,0,1-.544.216Zm.763-1.5H120v-3h-4.578Z" transform="translate(-111.598 802.383)" fill="#ff001d"/>
</svg>
