<svg xmlns="http://www.w3.org/2000/svg" xmlns:xlink="http://www.w3.org/1999/xlink" width="34" height="34" viewBox="0 0 34 34">
  <defs>
    <clipPath id="clip-path">
      <rect id="Rectángulo_150109" data-name="Rectángulo 150109" width="34" height="34" fill="#b7b7b7"/>
    </clipPath>
  </defs>
  <g id="Grupo_195573" data-name="Grupo 195573" clip-path="url(#clip-path)">
    <path id="Trazado_46668" data-name="Trazado 46668" d="M17,34a16.42,16.42,0,0,1-7.959-1.97,17.213,17.213,0,0,1-5.95-5.255v4.134H0V21.636H9.273v3.091H5.448a13.991,13.991,0,0,0,4.887,4.482A13.408,13.408,0,0,0,17,30.909a13.475,13.475,0,0,0,5.428-1.1,13.965,13.965,0,0,0,7.381-7.381A13.475,13.475,0,0,0,30.909,17H34a16.5,16.5,0,0,1-1.334,6.607,17.121,17.121,0,0,1-9.059,9.059A16.5,16.5,0,0,1,17,34m-1.391-6.182V25.809a6,6,0,0,1-2.955-1.566,6.836,6.836,0,0,1-1.681-2.994l2.55-1a4.586,4.586,0,0,0,1.45,2.375,3.5,3.5,0,0,0,2.259.793,3.871,3.871,0,0,0,2.184-.6,2.084,2.084,0,0,0,.907-1.873,2.154,2.154,0,0,0-.946-1.816A14.788,14.788,0,0,0,16,17.541a8.5,8.5,0,0,1-3.341-1.932,4.088,4.088,0,0,1-1.063-2.936,4.347,4.347,0,0,1,1.1-2.879,5.15,5.15,0,0,1,3-1.68V6.182h2.7V8.114a4.308,4.308,0,0,1,2.531,1.12,5.178,5.178,0,0,1,1.564,2.357l-2.473,1a3.407,3.407,0,0,0-1-1.488,2.87,2.87,0,0,0-1.932-.6,3.219,3.219,0,0,0-2.068.58,1.931,1.931,0,0,0-.714,1.584,1.8,1.8,0,0,0,.889,1.584,15.413,15.413,0,0,0,3.207,1.352A7.481,7.481,0,0,1,22.1,17.966a5.147,5.147,0,0,1,.927,2.975,4.714,4.714,0,0,1-.386,1.97,4.554,4.554,0,0,1-1.023,1.448,5.1,5.1,0,0,1-1.488.966,8.94,8.94,0,0,1-1.816.561v1.932ZM0,17a16.5,16.5,0,0,1,1.334-6.607,17.121,17.121,0,0,1,9.059-9.059A16.5,16.5,0,0,1,17,0a16.42,16.42,0,0,1,7.959,1.97,17.213,17.213,0,0,1,5.95,5.255V3.091H34v9.273H24.727V9.273h3.825a13.991,13.991,0,0,0-4.887-4.482A13.408,13.408,0,0,0,17,3.091a13.475,13.475,0,0,0-5.428,1.1,13.965,13.965,0,0,0-7.381,7.381A13.475,13.475,0,0,0,3.091,17Z" fill="#b7b7b7"/>
  </g>
</svg>
