<svg xmlns="http://www.w3.org/2000/svg" width="64" height="64" viewBox="0 0 64 64">
  <g id="Grupo_245714" transform="translate(-8 -9)">
    <rect id="Rectángulo_150721" width="64" height="64" transform="translate(8 9)" fill="none"/>
    <path id="history_edu_FILL0_wght200_GRAD0_opsz24" d="M105.5-716.545a2.84,2.84,0,0,1-2.083-.866,2.84,2.84,0,0,1-.866-2.083v-5.9h8.166v-9.584a12.411,12.411,0,0,1-5.753-.178,10.371,10.371,0,0,1-4.863-2.7v-4.151H95.915l-8.223-8.223a16.861,16.861,0,0,1,5.768-3.459,19.7,19.7,0,0,1,6.641-1.146,19.027,19.027,0,0,1,5.512.805,17.556,17.556,0,0,1,5.1,2.524v-5.416h29.49v34.48a5.7,5.7,0,0,1-1.7,4.2,5.7,5.7,0,0,1-4.2,1.7Zm8.166-8.847h17.694v2.949a2.853,2.853,0,0,0,.848,2.1,2.853,2.853,0,0,0,2.1.848,2.853,2.853,0,0,0,2.1-.848,2.853,2.853,0,0,0,.848-2.1v-31.531H113.666v4.718l16.219,16.219v2.087H127.8l-8.972-8.972-1.667,1.667a12.991,12.991,0,0,1-1.693,1.446,11.211,11.211,0,0,1-1.8,1.026ZM97.174-744.957h5.875v5.773a10.386,10.386,0,0,0,2.807,1.264,10.09,10.09,0,0,0,2.524.335,9.429,9.429,0,0,0,3.66-.686,9.6,9.6,0,0,0,3.088-2.126l1.611-1.611-5.149-5.149a15.81,15.81,0,0,0-5.3-3.547,16.409,16.409,0,0,0-6.187-1.182,15.693,15.693,0,0,0-4.191.561,16.491,16.491,0,0,0-3.646,1.458Zm31.236,22.514H105.5v2.949h23.807a3.462,3.462,0,0,1-.7-1.362A6.3,6.3,0,0,1,128.41-722.443ZM105.5-719.494v0Z" transform="translate(-76.783 777.561)" fill="#b7b7b7"/>
  </g>
</svg>
