<svg id="Grupo_195560" data-name="Grupo 195560" xmlns="http://www.w3.org/2000/svg" xmlns:xlink="http://www.w3.org/1999/xlink" width="25.471" height="9.94" viewBox="0 0 25.471 9.94">
  <defs>
    <clipPath id="clip-path">
      <rect id="Rectángulo_2507" data-name="Rectángulo 2507" width="25.471" height="9.94" fill="#fff"/>
    </clipPath>
  </defs>
  <g id="Grupo_190000" data-name="Grupo 190000" clip-path="url(#clip-path)">
    <path id="Trazado_2344" data-name="Trazado 2344" d="M423.541,2.478l-.81,1.711a.664.664,0,0,1-.6.38h-1.51a.277.277,0,0,1-.25-.4l.81-1.711a.664.664,0,0,1,.6-.38h1.51a.277.277,0,0,1,.25.4m1.734-2.47H421.5a2.407,2.407,0,0,0-2.176,1.378l-1.961,4.187a.75.75,0,0,0,.678,1.071h3.507l-.295.67a.982.982,0,0,1-.887.56h-4.079l-1.018,2.074h5.362a2.785,2.785,0,0,0,2.517-1.593l3.173-6.7A1.152,1.152,0,0,0,425.275.008" transform="translate(-407.335 -0.008)" fill="#fff"/>
    <path id="Trazado_2345" data-name="Trazado 2345" d="M8.276,2.47,7.466,4.18a.664.664,0,0,1-.6.38H5.356a.277.277,0,0,1-.25-.4l.81-1.711a.664.664,0,0,1,.6-.38h1.51a.277.277,0,0,1,.25.4M10.011,0H6.231A2.407,2.407,0,0,0,4.055,1.379L2.093,5.565a.75.75,0,0,0,.678,1.071H6.278l-.295.67a.982.982,0,0,1-.887.56H1.018L0,9.94H5.362A2.785,2.785,0,0,0,7.879,8.347l3.173-6.7A1.152,1.152,0,0,0,10.011,0" fill="#fff"/>
    <path id="Trazado_2346" data-name="Trazado 2346" d="M895.1,186.815l1.112-2.333h-1.815a.382.382,0,0,0-.345.218l-1.008,2.116h-2.566a.382.382,0,0,0-.345.219l-.722,1.532h2.8L891.1,190.9h1.815a.382.382,0,0,0,.345-.218l1.008-2.116h2.566a.382.382,0,0,0,.345-.219l.722-1.532Z" transform="translate(-872.426 -180.96)" fill="#fff"/>
  </g>
</svg>
