<?xml version="1.0" ?>
<svg xmlns="http://www.w3.org/2000/svg" width="246" height="247" viewBox="0 0 246 247">
  <path d="M7.695,112.06c0,-0.645 0.523,-1.168 1.168,-1.168 0.645,0 1.169,0.523 1.169,1.168v2.402c0,0.645 -0.524,1.169 -1.169,1.169s-1.168,-0.524 -1.168,-1.169v-2.402zM2.627,114.176c-0.45,-0.463 -0.439,-1.203 0.024,-1.652 0.463,-0.45 1.202,-0.44 1.652,0.023l1.964,2.02c0.45,0.463 0.44,1.203 -0.024,1.653 -0.462,0.45 -1.202,0.44 -1.652,-0.024l-1.964,-2.02zM1.168,119.909c-0.645,0 -1.168,-0.523 -1.168,-1.169 0,-0.645 0.523,-1.168 1.168,-1.168h2.777c0.646,0 1.169,0.523 1.169,1.168 0,0.646 -0.523,1.169 -1.169,1.169L1.168,119.909zM4.078,125.029c-0.45,0.463 -1.19,0.474 -1.652,0.024 -0.463,-0.45 -0.473,-1.19 -0.023,-1.652l1.964,-2.021c0.45,-0.463 1.19,-0.473 1.652,-0.024 0.463,0.45 0.473,1.19 0.023,1.653l-1.964,2.02zM10.032,126.871c0,0.645 -0.524,1.169 -1.169,1.169s-1.168,-0.524 -1.168,-1.169v-2.402c0,-0.645 0.523,-1.168 1.168,-1.168 0.645,0 1.169,0.523 1.169,1.168v2.402zM14.695,123.443c0.456,0.457 0.456,1.196 0,1.653 -0.456,0.456 -1.196,0.456 -1.652,0l-1.602,-1.601c-0.457,-0.456 -0.457,-1.196 0,-1.653 0.455,-0.456 1.195,-0.456 1.652,0l1.602,1.601zM16.073,118.098c0.646,0 1.169,0.523 1.169,1.168 0,0.646 -0.523,1.169 -1.169,1.169L13.67,120.435c-0.645,0 -1.168,-0.523 -1.168,-1.169 0,-0.645 0.523,-1.168 1.168,-1.168h2.403zM13.645,112.835c0.457,-0.456 1.196,-0.456 1.653,0 0.456,0.457 0.456,1.197 0,1.653l-1.603,1.601c-0.457,0.456 -1.196,0.456 -1.653,0 -0.456,-0.457 -0.455,-1.196 0,-1.653l1.603,-1.601zM136.678,1.168c0,-0.645 0.523,-1.168 1.168,-1.168 0.645,0 1.169,0.523 1.169,1.168L139.015,2.77c0,0.645 -0.524,1.168 -1.169,1.168s-1.168,-0.523 -1.168,-1.168L136.678,1.168zM133.039,7.141c-0.645,0 -1.168,-0.523 -1.168,-1.168 0,-0.646 0.523,-1.169 1.168,-1.169h1.603c0.645,0 1.168,0.523 1.168,1.169 0,0.645 -0.523,1.168 -1.168,1.168h-1.603zM139.015,10.777c0,0.645 -0.524,1.168 -1.169,1.168s-1.168,-0.523 -1.168,-1.168L136.678,9.175c0,-0.645 0.523,-1.168 1.168,-1.168 0.645,0 1.169,0.523 1.169,1.168v1.602zM141.852,4.804c0.645,0 1.168,0.523 1.168,1.169 0,0.645 -0.523,1.168 -1.168,1.168h-1.602c-0.646,0 -1.169,-0.523 -1.169,-1.168 0,-0.646 0.523,-1.169 1.169,-1.169h1.602zM43.746,68.427c0,-0.645 0.523,-1.168 1.168,-1.168 0.646,0 1.169,0.523 1.169,1.168v2.402c0,0.646 -0.523,1.169 -1.169,1.169 -0.645,0 -1.168,-0.523 -1.168,-1.169v-2.402zM37.704,76.802c-0.645,0 -1.168,-0.523 -1.168,-1.169 0,-0.645 0.523,-1.168 1.168,-1.168h2.404c0.645,0 1.168,0.523 1.168,1.168 0,0.646 -0.523,1.169 -1.168,1.169h-2.404zM46.083,82.039c0,0.645 -0.523,1.168 -1.169,1.168 -0.645,0 -1.168,-0.523 -1.168,-1.168v-2.402c0,-0.645 0.523,-1.168 1.168,-1.168 0.646,0 1.169,0.523 1.169,1.168v2.402zM51.323,74.465c0.646,0 1.169,0.523 1.169,1.168 0,0.646 -0.523,1.169 -1.169,1.169L48.92,76.802c-0.645,0 -1.168,-0.523 -1.168,-1.169 0,-0.645 0.523,-1.168 1.168,-1.168h2.403zM217.363,162.903c-0.646,0 -1.17,-0.523 -1.17,-1.169 0,-0.645 0.524,-1.168 1.17,-1.168 2.559,0 4.635,2.075 4.635,4.635 0,2.56 -2.076,4.634 -4.636,4.634s-4.636,-2.075 -4.636,-4.634c0,-0.646 0.523,-1.169 1.169,-1.169 0.645,0 1.168,0.523 1.168,1.169 0,1.269 1.03,2.298 2.3,2.298 1.269,0 2.298,-1.03 2.298,-2.298 0,-1.27 -1.03,-2.298 -2.299,-2.298zM239.176,124.421c0.662,2.393 3.44,5.224 5.945,5.438 -2.82,0.998 -5.517,3.963 -5.945,6.293 -0.291,-2.375 -4.021,-5.52 -5.945,-5.866 2.059,-0.641 5.214,-3.158 5.945,-5.865zM38.32,45.97c-1.485,0 -2.688,-1.203 -2.688,-2.688 0,-1.484 1.203,-2.688 2.688,-2.688s2.689,1.204 2.689,2.688c0,1.485 -1.204,2.688 -2.689,2.688zM216.045,54.991c-2.482,0 -4.494,-2.011 -4.494,-4.492s2.012,-4.492 4.494,-4.492c2.481,0 4.494,2.01 4.494,4.492 0,2.481 -2.013,4.492 -4.494,4.492zM90.087,220.76c0,-0.595 -0.483,-1.078 -1.079,-1.078 -0.595,0 -1.078,0.483 -1.078,1.078 0,0.596 0.483,1.078 1.078,1.078 0.596,0 1.079,-0.482 1.079,-1.078zM92.424,220.76c0,1.886 -1.53,3.415 -3.416,3.415s-3.415,-1.529 -3.415,-3.415c0,-1.886 1.53,-3.415 3.415,-3.415 1.887,0 3.416,1.529 3.416,3.415zM88.75,26.015c0,-0.838 -0.68,-1.519 -1.52,-1.519s-1.52,0.68 -1.52,1.52c0,0.839 0.68,1.519 1.52,1.519s1.52,-0.68 1.52,-1.52zM91.087,26.015c0,2.13 -1.727,3.857 -3.857,3.857s-3.857,-1.726 -3.857,-3.857c0,-2.13 1.727,-3.856 3.857,-3.856s3.857,1.727 3.857,3.856zM159.333,241.759c-0.424,-1.114 -1.671,-1.674 -2.786,-1.25 -1.115,0.424 -1.675,1.671 -1.25,2.786 0.423,1.114 1.671,1.674 2.786,1.25 1.115,-0.424 1.675,-1.671 1.25,-2.786zM153.113,244.126c-0.884,-2.321 0.282,-4.92 2.603,-5.8 2.32,-0.884 4.918,0.282 5.801,2.602 0.884,2.32 -0.282,4.918 -2.603,5.8 -2.32,0.883 -4.918,-0.282 -5.802,-2.602zM24.873,157.734c0.33,1.196 1.719,2.612 2.971,2.72 -1.41,0.497 -2.758,1.98 -2.972,3.145 -0.145,-1.187 -2.01,-2.76 -2.972,-2.932 1.03,-0.321 2.607,-1.58 2.972,-2.933z" fill="#D2D8DF"/>
  <path d="M91.778,191.113c-4.624,0 -8.41,-3.795 -8.41,-8.432L83.368,59.046c0,-4.637 3.786,-8.429 8.41,-8.429h75.697c4.626,0 8.411,3.792 8.411,8.43v123.635c0,4.637 -3.785,8.432 -8.411,8.432L91.778,191.114z" fill="#E0E2EE"/>
  <path d="M86.17,195.116c-4.624,0 -8.409,-3.794 -8.409,-8.431L77.761,63.049c0,-4.637 3.785,-8.43 8.41,-8.43h75.696c4.626,0 8.411,3.793 8.411,8.43v123.636c0,4.637 -3.785,8.431 -8.411,8.431L86.17,195.116z" fill="#E8EBF2"/>
  <path d="M80.579,198.276c-4.634,0 -8.426,-3.778 -8.426,-8.396L72.153,66.632c0,-4.618 3.792,-8.394 8.426,-8.394L156.413,58.238c4.635,0 8.428,3.776 8.428,8.394v123.248c0,4.618 -3.793,8.397 -8.428,8.397L80.579,198.277z" fill="#D8DBEA"/>
  <path d="M80.579,198.277c-4.633,0 -8.426,-3.778 -8.426,-8.396L72.153,66.632C72.153,62.015 75.946,58.238 80.579,58.238L156.413,58.238c4.636,0 8.429,3.777 8.429,8.394v123.249c0,4.618 -3.793,8.396 -8.429,8.396L80.579,198.277z" fill="#F3F4F9"/>
  <path d="M83.678,112.42C82.29,112.42 81.153,111.34 81.153,110.019 81.153,108.697 82.29,107.616 83.678,107.616h68.626c1.388,0 2.525,1.08 2.525,2.403 0,1.32 -1.137,2.401 -2.525,2.401L83.678,112.42zM119.098,72.42c-0.698,0 -1.269,-1.08 -1.269,-2.401 0,-1.322 0.571,-2.403 1.268,-2.403h34.464c0.697,0 1.268,1.08 1.268,2.403 0,1.32 -0.57,2.401 -1.268,2.401L119.097,72.42zM119.098,85.42c-0.698,0 -1.269,-1.08 -1.269,-2.401 0,-1.322 0.571,-2.403 1.268,-2.403h34.464c0.697,0 1.268,1.08 1.268,2.403 0,1.32 -0.57,2.401 -1.268,2.401L119.097,85.42zM119.098,98.42c-0.698,0 -1.269,-1.08 -1.269,-2.401 0,-1.322 0.571,-2.403 1.268,-2.403h34.464c0.697,0 1.268,1.08 1.268,2.403 0,1.32 -0.57,2.401 -1.268,2.401L119.097,98.42zM83.678,126.42C82.29,126.42 81.153,125.34 81.153,124.019 81.153,122.697 82.29,121.616 83.678,121.616h68.626c1.388,0 2.525,1.08 2.525,2.403 0,1.32 -1.137,2.401 -2.525,2.401L83.678,126.42zM83.678,141.42C82.29,141.42 81.153,140.34 81.153,139.019 81.153,137.699 82.29,136.616 83.678,136.616h68.626c1.388,0 2.525,1.083 2.525,2.403s-1.137,2.401 -2.525,2.401L83.678,141.42zM83.678,155.42C82.29,155.42 81.153,154.34 81.153,153.019 81.153,151.697 82.29,150.616 83.678,150.616h68.626c1.388,0 2.525,1.08 2.525,2.403 0,1.32 -1.137,2.401 -2.525,2.401L83.678,155.42zM83.689,170.42c-1.394,0 -2.536,-1.08 -2.536,-2.401C81.153,166.697 82.295,165.616 83.689,165.616h45.371c1.395,0 2.536,1.08 2.536,2.403 0,1.32 -1.141,2.401 -2.536,2.401L83.69,170.42zM83.689,185.42c-1.394,0 -2.536,-1.08 -2.536,-2.401C81.153,181.697 82.295,180.616 83.689,180.616h45.371c1.395,0 2.536,1.08 2.536,2.403 0,1.32 -1.141,2.401 -2.536,2.401L83.69,185.42z" fill="#D8DBEA"/>
  <path d="M95.223,94.616v-2.746h-1.244l2.567,-3.464 2.705,3.464h-1.194L98.057,94.616L106.153,94.616v-2.856h-1.951l-4.481,-5.687 4.059,-5.506h1.863v-2.855h-6.594v2.698h1.034l-2.333,3.147 -4.732,-5.92 0.558,-0.076c1.993,-0.883 2.99,-2.284 2.99,-4.206 0,-1.222 -0.432,-2.318 -1.296,-3.286C94.405,69.101 92.993,68.616 91.032,68.616L81.153,68.616v2.856h1.84v11.193L81.153,82.665v2.856h7.96v-2.856L87.485,82.665v-4.545h0.932l1.931,2.447h-0.017l4.207,5.372 -4.207,5.821L88.317,91.76L88.317,94.616h6.907zM87.486,75.422v-3.95L89.433,71.472c0.76,0 1.358,0.162 1.793,0.487 0.433,0.323 0.65,0.813 0.65,1.47 0,1.328 -0.952,1.993 -2.853,1.993L87.485,75.422z" fill="#D8DBEA" stroke-width=".5" stroke="#F1F2F7"/>
</svg>
