<?xml version="1.0" ?>
<svg xmlns="http://www.w3.org/2000/svg" width="30" height="25" viewBox="0 0 30 25">
  <path d="M26.747,15.988L25.195,6.53c0.402,-0.083 0.703,-0.443 0.703,-0.875L25.898,0.893C25.898,0.4 25.505,0 25.02,0h-3.516c-1.472,0 -2.716,1.008 -3.1,2.381h-1.588c-0.485,0 -0.878,0.4 -0.878,0.893s0.393,0.893 0.878,0.893h1.588c0.284,1.016 1.04,1.832 2.01,2.188l1.59,9.689c-1.603,0.793 -2.777,2.346 -3.067,4.194h-1.945v-6.25c0,-0.717 -0.229,-1.381 -0.616,-1.921 0.723,-0.478 1.202,-1.306 1.202,-2.246 0,-1.477 -1.183,-2.678 -2.637,-2.678L9.668,7.143c-0.527,0 -1.025,0.13 -1.465,0.36L8.203,5.06c0,-0.494 -0.393,-0.893 -0.879,-0.893L0.88,4.167c-0.486,0 -0.879,0.4 -0.879,0.893v6.547c0,0.493 0.393,0.893 0.879,0.893h4.41c-1.796,1.474 -2.945,3.728 -2.945,6.25v2.381c0,0.493 0.393,0.893 0.879,0.893L4.79,22.024C5.189,23.728 6.698,25 8.496,25s3.307,-1.272 3.705,-2.976h8.527C21.126,23.728 22.636,25 24.434,25c1.797,0 3.307,-1.272 3.705,-2.976h0.982c0.486,0 0.879,-0.4 0.879,-0.893 0,-2.28 -1.335,-4.249 -3.253,-5.143zM21.504,1.786h2.637v2.976h-2.637c-0.065,0 -0.13,-0.005 -0.192,-0.013l-0.013,-0.002c-0.71,-0.101 -1.26,-0.723 -1.26,-1.473 0,-0.82 0.657,-1.488 1.465,-1.488zM22.228,6.548h1.188l1.468,8.947c-0.149,-0.012 -0.299,-0.019 -0.45,-0.019 -0.249,0 -0.493,0.017 -0.733,0.05l-1.473,-8.978zM24.434,17.262c1.797,0 3.308,1.272 3.706,2.976h-7.413c0.398,-1.704 1.909,-2.976 3.707,-2.976zM9.668,8.929h5.273c0.485,0 0.88,0.4 0.88,0.892 0,0.493 -0.395,0.893 -0.88,0.893L8.203,10.714v-0.297c0,-0.82 0.657,-1.488 1.465,-1.488zM1.758,5.952h4.687v4.762L1.758,10.714L1.758,5.952zM4.102,18.75c0,-3.446 2.76,-6.25 6.152,-6.25h3.516c0.807,0 1.464,0.668 1.464,1.488v6.25L4.102,20.238L4.102,18.75zM8.496,23.214c-0.816,0 -1.523,-0.487 -1.852,-1.19h3.705c-0.33,0.703 -1.036,1.19 -1.853,1.19zM24.434,23.214c-0.817,0 -1.523,-0.487 -1.853,-1.19h3.705c-0.33,0.703 -1.036,1.19 -1.852,1.19z" fill="#FFF"/>
</svg>
