<?xml version="1.0" ?>
<svg xmlns="http://www.w3.org/2000/svg" width="143" height="129" viewBox="0 0 143 129">
  <path d="M19.625,120.497c-4.624,0 -8.41,-3.795 -8.41,-8.432V8.43c0,-4.637 3.786,-8.429 8.41,-8.429h65.697c4.626,0 8.411,3.792 8.411,8.43v103.635c0,4.637 -3.785,8.432 -8.411,8.432H19.625z" fill="#D3D5E2"/>
  <path d="M14.017,124.5c-4.624,0 -8.409,-3.794 -8.409,-8.431V12.433c0,-4.637 3.785,-8.43 8.41,-8.43h65.696c4.626,0 8.411,3.793 8.411,8.43v103.636c0,4.637 -3.785,8.431 -8.411,8.431H14.017z" fill="#E0E3EB"/>
  <path d="M74.259,117.66H8.426c-4.634,0 -8.426,-3.778 -8.426,-8.396V16.016c0,-4.618 3.792,-8.394 8.426,-8.394H74.26c4.635,0 8.428,3.776 8.428,8.394v93.248c0,4.618 -3.793,8.397 -8.428,8.397" fill="#D8DBEA"/>
  <path d="M8.426,127.66c-4.634,0 -8.426,-3.778 -8.426,-8.396V16.016c0,-4.618 3.792,-8.394 8.426,-8.394H74.26c4.635,0 8.428,3.776 8.428,8.394v103.248c0,4.618 -3.793,8.397 -8.428,8.397H8.426z" fill="#EBECF3"/>
  <path d="M64.77,36.031L16.145,36.031c-1.389,0 -2.526,-1.08 -2.526,-2.4 0,-1.323 1.137,-2.404 2.526,-2.404L64.77,31.227c1.389,0 2.525,1.081 2.525,2.403 0,1.32 -1.136,2.401 -2.525,2.401zM64.77,50.444L16.145,50.444c-1.389,0 -2.526,-1.08 -2.526,-2.401 0,-1.322 1.137,-2.403 2.526,-2.403L64.77,45.64c1.389,0 2.525,1.08 2.525,2.403 0,1.32 -1.136,2.401 -2.525,2.401zM64.77,64.857L16.145,64.857c-1.389,0 -2.526,-1.081 -2.526,-2.402 0,-1.32 1.137,-2.403 2.526,-2.403L64.77,60.052c1.389,0 2.525,1.083 2.525,2.403s-1.136,2.402 -2.525,2.402zM64.77,79.269L16.145,79.269c-1.389,0 -2.526,-1.08 -2.526,-2.401 0,-1.322 1.137,-2.403 2.526,-2.403L64.77,74.465c1.389,0 2.525,1.08 2.525,2.403 0,1.32 -1.136,2.401 -2.525,2.401zM41.526,93.682h-25.37c-1.395,0 -2.537,-1.081 -2.537,-2.401 0,-1.323 1.142,-2.403 2.536,-2.403h25.371c1.395,0 2.536,1.08 2.536,2.403 0,1.32 -1.141,2.4 -2.536,2.4zM41.526,107.682h-25.37c-1.395,0 -2.537,-1.081 -2.537,-2.401 0,-1.323 1.142,-2.403 2.536,-2.403h25.371c1.395,0 2.536,1.08 2.536,2.403 0,1.32 -1.141,2.4 -2.536,2.4z" fill="#D2D5E5"/>
  <path d="M92.513,71.436L102.347,81.264l-6.986,6.98 -9.593,-9.59c-0.272,0.218 -0.546,0.43 -0.823,0.635 -13.028,9.695 -31.55,8.63 -43.367,-3.177C28.597,63.134 28.607,42.092 41.589,29.117c12.985,-12.977 34.025,-12.977 47.01,0 11.512,11.506 12.828,29.364 3.914,42.319zM83.407,70.906c10.105,-10.099 10.105,-26.485 -0.011,-36.595 -10.104,-10.099 -26.498,-10.099 -36.602,0C36.677,44.421 36.677,60.807 46.781,70.906c10.117,10.11 26.51,10.112 36.626,0z" fill="#D3D5E2"/>
  <path d="M139.697,125.03l-0.544,0.544c-3.607,3.607 -9.512,3.607 -13.12,0l-33.3,-33.28 13.666,-13.658 33.299,33.28c3.608,3.607 3.608,9.507 0,13.114" fill="none"/>
  <path d="M139.199,111.507l-13.578,13.57 -2.444,-2.446 13.576,-13.569 2.446,2.445zM107.154,79.106l-13.95,13.942 -2.073,-2.07 13.95,-13.944 2.073,2.072z" fill="#2A317D"/>
  <path d="M76.711,30.833l-34.212,34.19c-1.288,-2.307 -2.164,-4.756 -2.64,-7.287l29.56,-29.544c2.53,0.494 4.982,1.368 7.292,2.64zM87.927,38.96L50.94,73.832c-1.324,-0.872 -2.585,-1.853 -3.76,-2.961 -0.606,-0.57 -1.178,-1.156 -1.714,-1.774l37.437,-35.3c0.656,0.506 1.278,1.046 1.881,1.617 1.176,1.108 2.234,2.295 3.143,3.546z" fill="#FFF"/>
</svg>
