<?xml version="1.0" ?>
<svg xmlns="http://www.w3.org/2000/svg" width="18" height="18" viewBox="0 0 18 18">
  <path d="M8.88,6.138a3.141,3.141 0,1 0,0 6.284,3.141 3.141,0 1,0 0,-6.284zM15.902,8.495a7.065,7.065 0,0 0,-6.237 -6.237L9.665,0.64h-1.57v1.618a7.065,7.065 0,0 0,-6.237 6.237L0.24,8.495v1.57h1.618a7.065,7.065 0,0 0,6.237 6.237v1.618h1.57v-1.618a7.065,7.065 0,0 0,6.237 -6.237h1.618v-1.57h-1.618zM8.88,14.778A5.494,5.494 0,0 1,3.382 9.28,5.494 5.494,0 0,1 8.88,3.782a5.494,5.494 0,0 1,5.498 5.498,5.494 5.494,0 0,1 -5.498,5.498z" fill="@color/denimBlue"/>
</svg>
