<?xml version="1.0" ?>
<svg xmlns="http://www.w3.org/2000/svg" width="14" height="18" viewBox="0 0 14 18">
  <path d="M12.858,14.64l0.382,-0.375 0.76,0.747 -0.382,0.376C11.846,17.129 9.521,18 7.193,18c-2.195,0 -4.39,-0.776 -6.118,-2.325L1.075,16.7L0,16.7v-2.813l2.862,1.057L1.854,14.944c3.14,2.762 7.986,2.663 11.004,-0.302zM12.921,1.3L14,1.3v2.81h-2.862L11.138,3.053h1.008C9.006,0.291 4.16,0.39 1.142,3.356L0.76,3.73 0,2.984l0.378,-0.372C2.15,0.871 4.475,0 6.803,0c2.195,0 4.39,0.776 6.118,2.325L12.921,1.3z" fill="#223BC1"/>
  <path d="M7,14c-2.76,0 -5,-2.24 -5,-5.003 0,-1.284 0.49,-2.495 1.351,-3.416C4.291,4.581 5.6,4 7,4c2.761,0 5,2.24 5,5 0,2.761 -2.24,5 -5,5zM7,13.12c2.274,0 4.12,-1.845 4.12,-4.12 0,-2.274 -1.845,-4.12 -4.12,-4.12 -1.154,0 -2.232,0.478 -3.006,1.303 -0.71,0.76 -1.114,1.756 -1.114,2.814 0,2.278 1.845,4.123 4.12,4.123zM5.409,10.805c0.042,-0.15 0.08,-0.301 0.13,-0.447 0.054,-0.171 0.1,-0.194 0.258,-0.11 0.272,0.143 0.556,0.22 0.857,0.259 0.194,0.023 0.385,0.003 0.563,-0.074 0.336,-0.146 0.388,-0.534 0.103,-0.77 -0.097,-0.08 -0.207,-0.14 -0.32,-0.188 -0.294,-0.129 -0.602,-0.226 -0.876,-0.394 -0.45,-0.269 -0.738,-0.64 -0.702,-1.187 0.039,-0.62 0.388,-1.006 0.957,-1.213 0.233,-0.084 0.236,-0.08 0.236,-0.326v-0.25c0.003,-0.184 0.036,-0.216 0.22,-0.222 0.058,-0.004 0.113,0 0.171,0 0.392,0 0.392,0 0.395,0.39 0,0.279 0,0.279 0.278,0.321 0.21,0.032 0.414,0.094 0.608,0.181 0.107,0.049 0.149,0.123 0.117,0.236 -0.049,0.168 -0.094,0.34 -0.15,0.508 -0.051,0.158 -0.1,0.181 -0.251,0.107 -0.308,-0.15 -0.628,-0.21 -0.964,-0.191 -0.088,0.003 -0.175,0.016 -0.259,0.052 -0.291,0.126 -0.34,0.449 -0.09,0.65 0.126,0.1 0.268,0.174 0.417,0.236 0.258,0.106 0.517,0.21 0.763,0.346 0.783,0.433 0.993,1.413 0.443,2.082 -0.2,0.243 -0.46,0.405 -0.76,0.489 -0.133,0.035 -0.19,0.106 -0.184,0.242 0.006,0.136 0,0.269 0,0.404 0,0.12 -0.062,0.185 -0.181,0.188 -0.146,0.003 -0.291,0.003 -0.434,0 -0.126,-0.003 -0.187,-0.074 -0.187,-0.197 0,-0.097 -0.004,-0.198 -0.004,-0.295 -0.003,-0.216 -0.01,-0.226 -0.216,-0.258 -0.269,-0.042 -0.53,-0.104 -0.773,-0.223 -0.2,-0.097 -0.22,-0.146 -0.165,-0.346z" fill="#CF0A2C"/>
</svg>
