<?xml version="1.0" ?>
<svg xmlns="http://www.w3.org/2000/svg" width="13" height="20" viewBox="0 0 13 20">
  <path d="M11.437,10.748L8.779,7.474v0.533l2.293,3.052c0.297,0.395 0.461,0.893 0.46,1.4v6.096h-3.42c-1.207,0 -2.19,-1.046 -2.19,-2.332L5.922,14.161h-0.467v2.062c0,1.56 1.192,2.83 2.658,2.83h3.654c0.129,0 0.233,-0.111 0.233,-0.249L12,12.459c0,-0.62 -0.2,-1.227 -0.563,-1.711z" fill="#223BC1" stroke-width=".526" stroke="#1F34C4"/>
  <path d="M5.561,9.505c0.179,0.006 0.345,0.08 0.468,0.208l3.419,3.605 0.37,-0.346 -3.42,-3.605c-0.215,-0.227 -0.508,-0.357 -0.822,-0.366 -0.318,-0.01 -0.614,0.104 -0.84,0.316l-0.025,0.025c-0.435,0.432 -0.465,1.112 -0.068,1.58l2.192,2.568v0.781c0,1.395 0.883,2.661 2.2,3.15l0.179,-0.473c-1.12,-0.415 -1.87,-1.491 -1.87,-2.677v-0.873c0,-0.06 -0.022,-0.118 -0.06,-0.164L5.031,10.597c-0.225,-0.266 -0.208,-0.653 0.051,-0.91 0.13,-0.122 0.3,-0.182 0.478,-0.181z" fill="#223BC1" stroke-width=".526" stroke="#1F34C4"/>
  <path d="M8.727,1.411C8.727,0.806 8.217,0.316 7.588,0.316L1.139,0.316C0.51,0.316 0,0.806 0,1.411L0,12.906c0,0.606 0.51,1.095 1.14,1.095h5.41c0.044,-0.257 0.044,-0.437 0,-0.538 -0.045,-0.102 -0.134,-0.204 -0.267,-0.304l-3.789,0.03 -0.109,-0.135c0.04,-0.153 0.048,-0.312 0.02,-0.467 -0.084,-0.453 -0.458,-0.818 -0.928,-0.901 -0.163,-0.031 -0.33,-0.025 -0.497,0.014l-0.14,-0.105L0.84,2.646l0.132,-0.106c0.075,0.012 0.146,0.018 0.213,0.018 0.638,0 1.156,-0.498 1.156,-1.111 0,-0.06 -0.007,-0.124 -0.02,-0.197l0.111,-0.126h3.85l0.111,0.126c-0.012,0.073 -0.019,0.137 -0.019,0.197 0,0.615 0.516,1.111 1.156,1.111 0.067,0 0.138,-0.006 0.213,-0.018l0.131,0.106 -0.002,7.822 0.855,0.91L8.727,1.411z" fill="#CF0A2C"/>
  <path d="M4.015,9.872c-0.09,-0.012 -0.179,-0.03 -0.266,-0.05 -1.163,-0.287 -2.027,-1.367 -2.027,-2.654 0,-1.505 1.182,-2.727 2.644,-2.727 0.696,0 1.332,0.28 1.804,0.737 0.513,0.497 0.835,1.205 0.835,1.99 0,0.55 -0.158,1.062 -0.43,1.49 -0.384,-0.171 -0.869,-0.225 -1.32,-0.155 -0.739,0.115 -1.164,0.709 -1.24,1.369zM3.318,6.216c-0.116,-0.032 -0.144,-0.02 -0.2,0.1 -0.07,0.144 -0.105,0.3 -0.13,0.461 -0.018,0.124 -0.024,0.128 -0.15,0.13l-0.17,0.002c-0.071,0 -0.112,0.037 -0.114,0.112 -0.002,0.085 -0.002,0.172 0,0.26 0.002,0.07 0.04,0.108 0.109,0.108 0.078,0 0.155,0.004 0.234,0 0.078,-0.004 0.12,0.03 0.14,0.11 0.049,0.18 0.143,0.335 0.283,0.454 0.388,0.33 0.956,0.204 1.207,-0.265 0.078,-0.147 0.138,-0.301 0.2,-0.456 0.036,-0.089 0.079,-0.174 0.137,-0.25 0.116,-0.148 0.303,-0.12 0.376,0.055 0.021,0.05 0.029,0.102 0.03,0.154 0.012,0.202 -0.024,0.393 -0.11,0.577 -0.043,0.09 -0.03,0.12 0.062,0.15 0.097,0.033 0.196,0.06 0.294,0.09 0.065,0.019 0.108,-0.006 0.137,-0.07 0.05,-0.116 0.086,-0.238 0.105,-0.364 0.024,-0.166 0.024,-0.166 0.185,-0.166 0.227,-0.002 0.227,-0.002 0.227,-0.236 0,-0.035 0.002,-0.068 0,-0.103 -0.004,-0.11 -0.023,-0.13 -0.13,-0.131h-0.144c-0.142,0 -0.14,-0.002 -0.19,-0.141 -0.119,-0.34 -0.342,-0.55 -0.702,-0.573 -0.316,-0.021 -0.532,0.151 -0.687,0.42 -0.098,0.164 -0.154,0.348 -0.229,0.524 -0.028,0.068 -0.062,0.134 -0.108,0.192 -0.137,0.17 -0.362,0.139 -0.446,-0.062 -0.045,-0.107 -0.057,-0.22 -0.043,-0.337 0.022,-0.18 0.067,-0.35 0.15,-0.512 0.048,-0.095 0.035,-0.122 -0.064,-0.155 -0.085,-0.03 -0.173,-0.052 -0.259,-0.078z" fill="#CF0A2C"/>
</svg>
