<?xml version="1.0" ?>
<svg xmlns="http://www.w3.org/2000/svg" width="24" height="24" viewBox="0 0 24 24">
  <path d="M21.886,9.537c0.73,0.123 1.26,0.753 1.25,1.49v1.933c0,0.74 -0.53,1.367 -1.26,1.489l-1.452,0.242c-0.143,0.453 -0.33,0.904 -0.56,1.352l0.856,1.202c0.428,0.601 0.358,1.422 -0.163,1.943l-1.369,1.37c-0.285,0.285 -0.664,0.443 -1.066,0.443 -0.317,0 -0.623,-0.098 -0.877,-0.281l-1.197,-0.856c-0.432,0.223 -0.884,0.41 -1.353,0.56l-0.246,1.453c-0.122,0.729 -0.75,1.26 -1.49,1.26h-1.937c-0.74,0 -1.367,-0.531 -1.49,-1.26l-0.241,-1.453c-0.458,-0.148 -0.894,-0.327 -1.307,-0.537l-1.215,0.865c-0.255,0.184 -0.557,0.28 -0.873,0.28 -0.402,0 -0.78,-0.157 -1.066,-0.443l-1.368,-1.368c-0.525,-0.52 -0.593,-1.34 -0.163,-1.944l0.85,-1.183c-0.228,-0.434 -0.418,-0.886 -0.568,-1.348l-1.471,-0.251c-0.73,-0.122 -1.26,-0.75 -1.26,-1.49v-1.933c0,-0.739 0.53,-1.366 1.26,-1.489l1.433,-0.242c0.147,-0.47 0.33,-0.923 0.552,-1.357l-0.866,-1.216c-0.427,-0.6 -0.358,-1.421 0.164,-1.943l1.372,-1.367c0.28,-0.286 0.663,-0.445 1.067,-0.445 0.317,0 0.623,0.098 0.877,0.281l1.188,0.855c0.434,-0.228 0.886,-0.418 1.348,-0.568l0.25,-1.471c0.123,-0.73 0.75,-1.26 1.49,-1.26h1.934c0.739,0 1.366,0.53 1.489,1.26l0.241,1.433c0.48,0.15 0.95,0.343 1.408,0.58l1.201,-0.856c0.256,-0.184 0.557,-0.281 0.874,-0.281 0.401,0 0.78,0.157 1.066,0.443l1.368,1.368c0.524,0.52 0.592,1.341 0.163,1.944l-0.856,1.197c0.223,0.433 0.41,0.884 0.56,1.353l1.453,0.246zM21.61,11.051l-1.903,-0.322c-0.3,-0.046 -0.545,-0.27 -0.618,-0.565 -0.173,-0.668 -0.435,-1.301 -0.784,-1.886 -0.154,-0.263 -0.141,-0.594 0.035,-0.838l1.12,-1.574 -1.335,-1.335 -1.565,1.125c-0.25,0.176 -0.575,0.188 -0.838,0.034 -0.602,-0.355 -1.25,-0.62 -1.93,-0.792 -0.296,-0.074 -0.52,-0.318 -0.571,-0.621l-0.318,-1.891L11.02,2.386l-0.327,1.919c-0.051,0.295 -0.272,0.535 -0.565,0.616 -0.655,0.169 -1.29,0.437 -1.882,0.792 -0.262,0.154 -0.592,0.142 -0.842,-0.035L5.838,4.563 4.503,5.898l1.129,1.587c0.177,0.246 0.193,0.572 0.04,0.834 -0.342,0.582 -0.6,1.22 -0.77,1.89 -0.073,0.295 -0.318,0.519 -0.62,0.57l-1.892,0.318v1.884l1.92,0.327c0.295,0.051 0.535,0.272 0.615,0.565 0.17,0.655 0.437,1.29 0.793,1.882 0.154,0.262 0.141,0.592 -0.035,0.842l-1.116,1.565 1.336,1.335 1.585,-1.128c0.128,-0.095 0.287,-0.144 0.447,-0.144 0.134,0 0.27,0.035 0.387,0.103 0.586,0.336 1.208,0.59 1.846,0.756 0.293,0.075 0.514,0.315 0.565,0.617l0.318,1.904h1.884l0.322,-1.903c0.046,-0.299 0.27,-0.544 0.566,-0.618 0.667,-0.173 1.3,-0.435 1.886,-0.783 0.263,-0.155 0.593,-0.142 0.838,0.034l1.573,1.12 1.336,-1.335 -1.121,-1.578c-0.176,-0.25 -0.189,-0.575 -0.034,-0.839 0.348,-0.584 0.61,-1.217 0.783,-1.884 0.075,-0.293 0.315,-0.515 0.617,-0.566l1.909,-0.318L21.61,11.05z" fill="#AAADCB"/>
  <path d="M11.995,7.096c2.701,0 4.895,2.194 4.895,4.895 0,2.7 -2.194,4.894 -4.895,4.894 -2.7,0 -4.894,-2.193 -4.894,-4.894 0,-2.7 2.194,-4.895 4.894,-4.895zM11.995,15.346c1.851,0 3.355,-1.504 3.355,-3.355 0,-1.85 -1.504,-3.355 -3.355,-3.355 -1.85,0 -3.354,1.504 -3.354,3.355 0,1.85 1.504,3.354 3.354,3.354z" fill="#AAADCB"/>
</svg>
