<?xml version="1.0" ?>
<svg xmlns="http://www.w3.org/2000/svg" width="20" height="20" viewBox="0 0 20 20">
  <path d="M19.532,13.06l-2.089,-1.691c0.053,-0.353 0.08,-0.685 0.08,-1.009 0,-0.324 -0.027,-0.656 -0.08,-1.009l2.089,-1.691a0.39,0.39 0,0 0,0.093 -0.507l-1.902,-3.186a0.42,0.42 0,0 0,-0.5 -0.176l-2.555,0.903a7.479,7.479 0,0 0,-1.809 -1.007l-0.47,-2.596a0.41,0.41 0,0 0,-0.407 -0.331L8.178,0.76a0.41,0.41 0,0 0,-0.407 0.33L7.3,3.688a7.479,7.479 0,0 0,-1.81 1.007l-2.554,-0.903a0.42,0.42 0,0 0,-0.5 0.176L0.535,7.153a0.39,0.39 0,0 0,0.093 0.507l2.089,1.691c-0.053,0.353 -0.08,0.685 -0.08,1.009 0,0.324 0.027,0.656 0.08,1.009L0.628,13.06a0.39,0.39 0,0 0,-0.093 0.507l1.902,3.186a0.42,0.42 0,0 0,0.5 0.176l2.555,-0.903A7.479,7.479 0,0 0,7.3 17.033l0.47,2.596a0.41,0.41 0,0 0,0.407 0.331h3.804c0.2,0 0.372,-0.14 0.407,-0.33l0.47,-2.597a7.479,7.479 0,0 0,1.81 -1.007l2.554,0.903c0.188,0.065 0.4,-0.007 0.5,-0.176l1.901,-3.186a0.39,0.39 0,0 0,-0.092 -0.507zM10.08,14.36c-2.28,0 -4.135,-1.795 -4.135,-4 0,-2.206 1.855,-4 4.135,-4s4.135,1.795 4.135,4 -1.855,4 -4.135,4z" fill="#FFF"/>
</svg>
