<?xml version="1.0" ?>
<svg xmlns="http://www.w3.org/2000/svg" width="24" height="24" viewBox="0 0 24 24">
  <path d="M12.399,23.44A11.505,11.505 0,0 1,0.885 11.924,11.505 11.505,0 0,1 12.399,0.411a11.505,11.505 0,0 1,11.514 11.514,11.505 11.505,0 0,1 -11.514,11.514zM12.917,13.568v-7.29c0,-0.436 -0.38,-0.787 -0.817,-0.787a0.793,0.793 0,0 0,-0.774 0.788v7.402c0,0.014 0.029,0.07 0.029,0.112a0.736,0.736 0,0 0,0.21 0.634l4.208,4.207c0.282,0.282 0.803,0.282 1.084,0a0.759,0.759 0,0 0,0 -1.098l-3.94,-3.968z" fill="#FFD32A"/>
</svg>
