<?xml version="1.0" ?>
<svg xmlns="http://www.w3.org/2000/svg" width="17" height="16" viewBox="0 0 17 16">
  <path d="M8.06,12.216l4.17,2.498c0.19,0.113 0.435,0.052 0.549,-0.138 0.053,-0.089 0.07,-0.195 0.046,-0.297l-1.106,-4.703 3.678,-3.162c0.168,-0.144 0.187,-0.397 0.043,-0.564 -0.069,-0.08 -0.166,-0.13 -0.27,-0.138l-4.845,-0.408L8.428,0.861c-0.087,-0.203 -0.322,-0.297 -0.525,-0.21 -0.095,0.04 -0.17,0.116 -0.21,0.21L5.794,5.304 0.95,5.712c-0.22,0.019 -0.383,0.212 -0.365,0.432 0.01,0.105 0.059,0.201 0.138,0.27l3.678,3.162 -1.106,4.703c-0.05,0.215 0.083,0.43 0.298,0.481 0.102,0.024 0.208,0.007 0.297,-0.046l4.17,-2.498z" fill="@color/ratingsYellow" stroke-width="1" stroke="@color/ratingsYellow"/>
</svg>
