<?xml version="1.0" ?>
<svg xmlns="http://www.w3.org/2000/svg" width="22" height="19" viewBox="0 0 22 19">
  <path d="M21.992,4.706v0.884c0,0.984 -0.605,1.86 -1.514,2.225v10.482c-0.01,0.393 -0.334,0.705 -0.727,0.703L2.2,19c-0.387,-0.01 -0.694,-0.33 -0.684,-0.709L1.516,7.807C0.61,7.442 0.005,6.57 0,5.59v-0.846c-0.001,-0.332 0.102,-0.656 0.294,-0.927L2.504,0.689C2.81,0.257 3.309,0 3.84,0h14.673c0.576,0.002 1.11,0.303 1.404,0.794L22,4.274h-0.068c0.039,0.14 0.06,0.285 0.06,0.432zM12.852,12.896L9.14,12.896v4.684h3.71v-4.685zM19.048,7.926c-0.315,-0.07 -0.613,-0.202 -0.876,-0.387 -0.23,0.363 -0.539,0.675 -0.904,0.911 -1.294,0.839 -3,0.57 -3.971,-0.575 -0.185,0.22 -0.401,0.412 -0.642,0.57 -1.285,0.847 -2.989,0.59 -3.965,-0.546 -0.274,0.317 -0.612,0.575 -0.995,0.756 -1.4,0.66 -3.059,0.156 -3.855,-1.121 -0.268,0.19 -0.573,0.325 -0.896,0.396v9.65h4.767v-5.384,-0.006c-0.004,-0.391 0.311,-0.71 0.706,-0.714h5.134c0.395,0 0.719,0.313 0.73,0.714v5.39h4.767L19.048,7.926zM17.15,5.589c0.003,-0.363 0.28,-0.665 0.641,-0.702 0.392,-0.04 0.744,0.241 0.785,0.634l0.025,0.275c0.099,0.449 0.503,0.77 0.971,0.77 0.549,0 0.991,-0.438 0.991,-0.976v-0.886c0,-0.034 -0.009,-0.068 -0.026,-0.096l-1.847,-3.09c-0.036,-0.06 -0.104,-0.098 -0.176,-0.098L3.84,1.42c-0.067,0 -0.13,0.032 -0.167,0.085L1.464,4.63c-0.023,0.033 -0.035,0.071 -0.035,0.112v0.847c0,0.484 0.36,0.896 0.849,0.966 0.543,0.078 1.046,-0.293 1.122,-0.805l0.014,-0.209c0.025,-0.373 0.338,-0.662 0.713,-0.662 0.394,0 0.715,0.317 0.715,0.71 0,0.102 -0.006,0.203 -0.018,0.288l-0.007,0.101c0.008,0.85 0.71,1.538 1.576,1.54 0.873,0.001 1.58,-0.695 1.582,-1.552 0,-0.393 0.32,-0.71 0.715,-0.71 0.393,0 0.714,0.317 0.714,0.712v0.015c0.005,0.858 0.715,1.551 1.588,1.547 0.873,-0.005 1.575,-0.705 1.57,-1.564 0,-0.393 0.321,-0.71 0.715,-0.711h0.038c0.394,0 0.715,0.318 0.715,0.711 -0.002,0.853 0.695,1.55 1.563,1.558 0.872,0.009 1.585,-0.68 1.596,-1.506 -0.026,-0.141 -0.039,-0.285 -0.039,-0.43z" fill="#B2B2B2"/>
</svg>
