<?xml version="1.0" ?>
<svg xmlns="http://www.w3.org/2000/svg" width="24" height="24" viewBox="0 0 24 24">
  <path d="M19.22,14.516h-2.66l1.132,-1.662c2.139,-2.898 1.83,-7.66 -0.662,-10.191A7.021,7.021 0,0 0,11.991 0.54a7.023,7.023 0,0 0,-5.039 2.122c-2.49,2.53 -2.8,7.294 -0.67,10.18l1.14,1.673L4.63,14.515L0.56,23.203h22.73l-4.07,-8.687zM12.057,5.073c1.434,0 2.601,1.186 2.601,2.644 0,1.458 -1.167,2.644 -2.601,2.644S9.456,9.175 9.456,7.717c0,-1.458 1.167,-2.644 2.601,-2.644zM5.1,15.271h2.837l4.054,5.952 4.054,-5.952h2.706l3.363,7.176L1.737,22.447L5.1,15.271z" fill="#2A317D"/>
</svg>
