<?xml version="1.0" ?>
<svg xmlns="http://www.w3.org/2000/svg" width="15" height="14" viewBox="0 0 15 14">
  <path d="M12.895,0.765h-1.76v-0.255c0,-0.282 -0.224,-0.51 -0.5,-0.51s-0.5,0.228 -0.5,0.51v0.255h-5.27v-0.255c0,-0.282 -0.224,-0.51 -0.5,-0.51s-0.5,0.228 -0.5,0.51v0.255h-1.76c-1.161,0.003 -2.102,0.962 -2.105,2.146v8.943c0.003,1.184 0.944,2.143 2.105,2.146h10.79c1.161,-0.003 2.102,-0.962 2.105,-2.146L15,2.91c-0.003,-1.184 -0.944,-2.143 -2.105,-2.146zM2.105,1.785h1.76v0.254c0,0.282 0.224,0.51 0.5,0.51s0.5,-0.228 0.5,-0.51v-0.255h5.27v0.255c0,0.282 0.224,0.51 0.5,0.51s0.5,-0.228 0.5,-0.51v-0.255h1.76c0.61,0 1.105,0.505 1.105,1.127v1.208h-13v-1.208c0,-0.622 0.495,-1.127 1.105,-1.127zM12.895,13h-10.79c-0.297,0 -0.58,-0.122 -0.789,-0.337 -0.207,-0.216 -0.321,-0.508 -0.316,-0.81v-6.715h13v6.715c0.005,0.302 -0.109,0.594 -0.316,0.81 -0.208,0.215 -0.492,0.337 -0.789,0.337z" fill="#223BC1"/>
</svg>
