<?xml version="1.0" ?>
<svg xmlns="http://www.w3.org/2000/svg" width="18" height="18" viewBox="0 0 18 18">
  <path d="M8.044,0c1.788,0 3.264,1.35 3.36,3.055l0.006,0.18v0.587l0.1,0.1L14.2,3.922l0.087,0.008c0.17,0.031 0.31,0.152 0.356,0.314l0.016,0.08 0.74,6.793 -0.927,-0.027 -0.677,-6.202 -0.1,-0.09L11.51,4.798l-0.1,0.101v1.187l-0.008,0.079a0.454,0.454 0,0 1,-0.452 0.36,0.454 0.454,0 0,1 -0.454,-0.368l-0.006,-0.079L10.49,4.899l-0.1,-0.1L5.699,4.799l-0.1,0.1v1.187l-0.008,0.079a0.454,0.454 0,0 1,-0.453 0.36,0.454 0.454,0 0,1 -0.453,-0.368l-0.007,-0.079L4.678,4.899l-0.1,-0.1L2.394,4.799l-0.1,0.09L0.98,16.911l0.097,0.111 0.745,0.02 3.526,0.08 1.955,0.034 1.835,0.024 1.715,0.012 1.595,0.002 0.64,-0.004 0.386,0.708L0.459,17.898l-0.078,-0.006a0.467,0.467 0,0 1,-0.265 -0.14A0.429,0.429 0,0 1,0 17.49l0.002,-0.082 1.43,-13.092 0.017,-0.081a0.453,0.453 0,0 1,0.363 -0.305l0.085,-0.007h2.681l0.1,-0.1v-0.59l0.006,-0.183C4.784,1.353 6.252,0 8.044,0zM8.044,0.876c-1.285,0 -2.353,0.964 -2.44,2.195l-0.006,0.158v0.593l0.1,0.1h4.692l0.1,-0.1v-0.59l-0.005,-0.16C10.398,1.845 9.335,0.875 8.045,0.875zM17.258,16.053a0.357,0.357 0,0 0,-0.482 0.067c-0.062,0.08 -0.129,0.158 -0.198,0.232a0.314,0.314 0,0 0,0.03 0.46,0.354 0.354,0 0,0 0.228,0.082c0.095,0 0.19,-0.037 0.258,-0.11 0.082,-0.088 0.16,-0.18 0.235,-0.275a0.315,0.315 0,0 0,-0.071 -0.456zM17.684,14.387c-0.217,-0.036 -0.43,0.069 -0.478,0.233 -0.026,0.09 -0.057,0.181 -0.093,0.27 -0.066,0.16 0.053,0.332 0.265,0.381 0.04,0.01 0.08,0.014 0.119,0.014 0.171,0 0.33,-0.084 0.383,-0.215 0.043,-0.105 0.08,-0.213 0.11,-0.32 0.048,-0.165 -0.09,-0.327 -0.306,-0.363zM15.724,17.142a3.221,3.221 0,0 1,-0.255 0.152c-0.158,0.084 -0.228,0.303 -0.156,0.489 0.052,0.136 0.166,0.217 0.285,0.217 0.043,0 0.087,-0.01 0.128,-0.033 0.103,-0.055 0.205,-0.115 0.303,-0.18 0.151,-0.1 0.205,-0.325 0.121,-0.503 -0.084,-0.178 -0.275,-0.242 -0.426,-0.142z" fill="#3F4349"/>
  <path d="M13.772,11.924v1.967l-1.113,0.951a0.233,0.233 0,0 0,0 0.367c0.059,0.05 0.137,0.076 0.214,0.076a0.331,0.331 0,0 0,0.215 -0.076l1.203,-1.027A0.242,0.242 0,0 0,14.38 14v-2.075c0,-0.143 -0.136,-0.26 -0.304,-0.26 -0.168,0 -0.304,0.117 -0.304,0.26z" fill="#3F4349"/>
  <path d="M17.717,11.368a0.283,0.283 0,0 0,-0.283 0.283v0.785a3.629,3.629 0,0 0,-3.054 -1.676c-0.967,0 -1.876,0.376 -2.56,1.06a3.596,3.596 0,0 0,-1.06 2.56c0,0.967 0.376,1.876 1.06,2.56A3.597,3.597 0,0 0,14.38 18h0.014c0.102,0 0.205,-0.004 0.306,-0.013a0.283,0.283 0,1 0,-0.047 -0.563c-0.086,0.007 -0.173,0.01 -0.26,0.01H14.38a3.058,3.058 0,0 1,-3.055 -3.054,3.058 3.058,0 0,1 3.055,-3.055c1.085,0 2.084,0.579 2.63,1.5h-0.779a0.283,0.283 0,1 0,0 0.565h0.864a0.9,0.9 0,0 0,0.496 -0.149,0.905 0.905,0 0,0 0.409,-0.756v-0.834a0.283,0.283 0,0 0,-0.283 -0.283z" fill="#3F4349"/>
</svg>
