<svg xmlns="http://www.w3.org/2000/svg" width="40" height="40" viewBox="0 0 40 40">
  <g id="Grupo_196313" transform="translate(-0.001 0)">
    <g id="Grupo_196063" transform="translate(0.001 0)">
      <ellipse id="Elipse_1677" cx="20" cy="20" rx="20" ry="20" transform="translate(0)" fill="rgba(61,195,44,0.14)"/>
      <ellipse id="Elipse_1678" cx="16.837" cy="16.837" rx="16.837" ry="16.837" transform="translate(3.163 3.163)" fill="#3dc32c"/>
      <g id="Grupo_196062" transform="translate(10.956 12.756)">
        <path id="Trazado_47191" d="M2346.7,601.318h0a1.262,1.262,0,0,1-.962-.456l-5.73-7.013a1.244,1.244,0,1,1,1.923-1.578l4.782,5.842,8.924-10.834a1.243,1.243,0,0,1,1.923,1.578l-9.885,12.005A1.3,1.3,0,0,1,2346.7,601.318Z" transform="translate(-2339.727 -586.827)" fill="#fff"/>
      </g>
    </g>
  </g>
</svg>
