<?xml version="1.0" ?>
<svg xmlns="http://www.w3.org/2000/svg" width="66" height="40" viewBox="0 0 66 40">
  <path d="M15.27,11.834h32.64c1.52,0 2.753,1.225 2.753,2.736 0,1.51 -1.233,2.735 -2.753,2.735h15.337c1.52,0 2.753,1.224 2.753,2.735 0,1.51 -1.232,2.735 -2.753,2.735h-15.73c-1.52,0 -2.753,1.224 -2.753,2.735 0,1.51 1.233,2.735 2.753,2.735h9.831c1.52,0 2.753,1.225 2.753,2.735 0,1.51 -1.232,2.735 -2.753,2.735h-15.73c1.52,0 2.753,1.225 2.753,2.735 0,1.51 -1.233,2.735 -2.753,2.735L3.078,39.185c-1.52,0 -2.752,-1.224 -2.752,-2.735 0,-1.51 1.232,-2.735 2.753,-2.735h15.73c-1.52,0 -2.753,-1.224 -2.753,-2.735 0,-1.51 1.233,-2.735 2.753,-2.735h-8.652c-1.52,0 -2.753,-1.225 -2.753,-2.735 0,-1.51 1.233,-2.735 2.753,-2.735h4.001c1.917,0 3.471,-1.225 3.471,-2.735 0,-1.007 -0.786,-1.919 -2.36,-2.735 -1.52,0 -2.752,-1.225 -2.752,-2.735 0,-1.511 1.232,-2.736 2.753,-2.736zM3.079,22.774c1.52,0 2.752,1.225 2.752,2.736 0,1.51 -1.232,2.735 -2.752,2.735 -1.52,0 -2.753,-1.225 -2.753,-2.735 0,-1.51 1.232,-2.735 2.753,-2.735z" fill="#223BC1"/>
  <path d="M43.48,35.79c1.194,-0.77 2.256,-1.73 2.948,-2.504m1.116,-1.287c0.572,-0.7 1.086,-1.43 1.543,-2.187 1.005,-1.665 1.732,-3.452 2.178,-5.293 0.451,-1.863 0.616,-3.78 0.494,-5.684 -0.107,-1.66 -0.434,-3.31 -0.98,-4.901 -0.542,-1.579 -1.3,-3.1 -2.276,-4.518 -0.581,-0.845 -1.24,-1.654 -1.976,-2.416 -1.08,-1.119 -2.267,-2.075 -3.528,-2.867 -1.355,-0.851 -2.796,-1.513 -4.286,-1.986 -1.866,-0.592 -3.808,-0.886 -5.75,-0.882 -1.512,0.003 -3.025,0.187 -4.503,0.552 -1.664,0.412 -3.285,1.052 -4.811,1.924 -1.342,0.766 -2.612,1.71 -3.775,2.833 -1.46,1.411 -2.646,3 -3.554,4.7 -0.888,1.665 -1.511,3.435 -1.867,5.247 -0.366,1.867 -0.449,3.78 -0.246,5.667 0.262,2.447 1.002,4.852 2.225,7.065 0.782,1.416 1.76,2.753 2.938,3.972 1.868,1.935 4.053,3.382 6.394,4.339 2.847,1.163 5.927,1.6 8.953,1.308 2.54,-0.245 5.044,-1.004 7.341,-2.28" fill="#FFF" stroke-linecap="round" stroke-width=".98" stroke="#223BC1"/>
  <path d="M25.487,18.62c-0.573,-0.512 -1.461,-0.472 -1.985,0.089 -0.523,0.56 -0.483,1.431 0.09,1.944l6.61,5.916c0.802,0.717 2.046,0.662 2.778,-0.123l0.06,-0.068 9.433,-11.116c0.496,-0.584 0.415,-1.451 -0.182,-1.937 -0.596,-0.486 -1.482,-0.406 -1.978,0.178l-8.868,10.45 -5.958,-5.332z" fill="#CF202E"/>
</svg>
