<?xml version="1.0" ?>
<svg xmlns="http://www.w3.org/2000/svg" width="54" height="39" viewBox="0 0 54 39">
  <path d="M18.5,3.75L38.5,3.75A14.75,14.75 0,0 1,53.25 18.5L53.25,18.5A14.75,14.75 0,0 1,38.5 33.25L18.5,33.25A14.75,14.75 0,0 1,3.75 18.5L3.75,18.5A14.75,14.75 0,0 1,18.5 3.75z" fill="#00000000" stroke-width="1.5" stroke="#E5E5EA"/>
  <path d="M18.5,18.5m-14,0a14,14 0,1 1,28 0a14,14 0,1 1,-28 0" fill="#000"/>
  <path d="M18.5,18.5m-14,0a14,14 0,1 1,28 0a14,14 0,1 1,-28 0" fill="#FFF"/>
</svg>
