<?xml version="1.0" ?>
<svg xmlns="http://www.w3.org/2000/svg" width="13" height="17" viewBox="0 0 13 17">
  <path d="M2.805,16.327c-0.16,0 -0.29,-0.107 -0.29,-0.24v-2.703c0,-0.131 0.13,-0.238 0.29,-0.238 0.16,0 0.29,0.107 0.29,0.238v2.704c0,0.132 -0.13,0.239 -0.29,0.239z" fill="#AAB2B9"/>
  <path d="M3.342,13.384H2.268c-0.182,0 -0.33,-0.12 -0.33,-0.27V11.51h1.733v1.604c0,0.15 -0.147,0.27 -0.329,0.27zM2.174,1.087h1.262v3.174H2.174z" fill="#E5E5EE"/>
  <path d="M4.708,12.352H0.902c-0.165,0 -0.3,-0.11 -0.3,-0.246V3.857c0,-0.136 0.135,-0.246 0.3,-0.246h3.806c0.166,0 0.3,0.11 0.3,0.246v8.249c0,0.136 -0.134,0.246 -0.3,0.246zM4.703,1.383H0.907c-0.168,0 -0.305,-0.112 -0.305,-0.25V0.505C0.602,0.366 0.74,0.254 0.907,0.254h3.796c0.168,0 0.305,0.112 0.305,0.25v0.629c0,0.138 -0.137,0.25 -0.305,0.25zM11.72,8.64H7.67c-0.143,0 -0.258,-0.094 -0.258,-0.212V7.193c0,-0.117 0.115,-0.212 0.258,-0.212h4.051c0.143,0 0.259,0.095 0.259,0.212v1.235c0,0.118 -0.116,0.213 -0.259,0.213z" fill="#FFF"/>
  <path d="M1.826,5.672H0.602c-0.16,0 -0.29,-0.107 -0.29,-0.24 0,-0.131 0.13,-0.238 0.29,-0.238h1.224c0.161,0 0.291,0.107 0.291,0.239s-0.13,0.239 -0.29,0.239z" fill="#C1C8D2"/>
  <path d="M1.439,7.379H0.602c-0.16,0 -0.29,-0.107 -0.29,-0.24 0,-0.131 0.13,-0.238 0.29,-0.238h0.837c0.16,0 0.29,0.107 0.29,0.239s-0.13,0.239 -0.29,0.239zM1.826,9.085H0.602c-0.16,0 -0.29,-0.107 -0.29,-0.239s0.13,-0.239 0.29,-0.239h1.224c0.161,0 0.291,0.107 0.291,0.24 0,0.131 -0.13,0.238 -0.29,0.238zM1.439,10.792H0.602c-0.16,0 -0.29,-0.107 -0.29,-0.239s0.13,-0.239 0.29,-0.239h0.837c0.16,0 0.29,0.107 0.29,0.24 0,0.131 -0.13,0.238 -0.29,0.238z" fill="#FFF"/>
  <path d="M4.703,0.015L0.907,0.015c-0.328,0 -0.595,0.22 -0.595,0.49v0.628c0,0.27 0.267,0.49 0.595,0.49h0.976v1.749L0.902,3.372c-0.325,0 -0.59,0.218 -0.59,0.485v8.249c0,0.267 0.265,0.485 0.59,0.485h0.746v0.523c0,0.28 0.278,0.51 0.62,0.51h1.074c0.342,0 0.62,-0.23 0.62,-0.51v-0.523h0.746c0.326,0 0.59,-0.218 0.59,-0.485v-6.57c0,-0.132 -0.13,-0.239 -0.29,-0.239 -0.16,0 -0.29,0.107 -0.29,0.24v6.569c0,0.004 -0.005,0.007 -0.01,0.007L0.902,12.113c-0.005,0 -0.01,-0.003 -0.01,-0.007L0.892,3.857c0,-0.004 0.005,-0.007 0.01,-0.007h3.806c0.005,0 0.01,0.003 0.01,0.007v0.537c0,0.132 0.13,0.24 0.29,0.24 0.16,0 0.29,-0.108 0.29,-0.24v-0.537c0,-0.267 -0.264,-0.485 -0.59,-0.485h-0.981v-1.75h0.976c0.328,0 0.595,-0.22 0.595,-0.49L5.298,0.506c0,-0.27 -0.267,-0.49 -0.595,-0.49zM3.38,13.114c0,0.017 -0.017,0.032 -0.039,0.032L2.268,13.146c-0.022,0 -0.039,-0.015 -0.039,-0.032v-0.523h1.152v0.523zM3.145,3.372h-0.681v-1.75h0.68v1.75zM4.716,1.132c0,0.007 -0.006,0.012 -0.014,0.012L0.907,1.144c-0.008,0 -0.014,-0.005 -0.014,-0.011L0.893,0.505c0,-0.007 0.006,-0.012 0.014,-0.012h3.796c0.008,0 0.014,0.005 0.014,0.012v0.628zM12.357,9.7l-0.592,-0.437v-0.385c0.282,-0.02 0.504,-0.213 0.504,-0.45L12.269,7.193c0,-0.249 -0.246,-0.451 -0.549,-0.451L7.67,6.742c-0.303,0 -0.549,0.202 -0.549,0.451v1.235c0,0.237 0.222,0.43 0.504,0.45v0.385l-0.591,0.438c-0.264,0.195 -0.415,0.473 -0.415,0.764v5.02c0,0.378 0.375,0.686 0.834,0.686h4.485c0.46,0 0.834,-0.308 0.834,-0.686v-5.02c0,-0.29 -0.15,-0.57 -0.414,-0.764zM8.205,9.13v-0.25h2.98v0.25h-2.98zM7.701,7.22h3.987v1.182L7.701,8.402L7.701,7.22zM12.19,15.485c0,0.115 -0.113,0.208 -0.253,0.208L7.452,15.693c-0.14,0 -0.252,-0.093 -0.252,-0.208v-5.02c0,-0.156 0.08,-0.305 0.221,-0.41l0.605,-0.447h3.337l0.605,0.448c0.141,0.104 0.222,0.253 0.222,0.41v5.02z" fill="#434C54"/>
</svg>
