<?xml version="1.0" ?>
<svg xmlns="http://www.w3.org/2000/svg" width="16" height="16" viewBox="0 0 16 16">
  <path d="M6.628,3.218H2.876c-0.273,0 -0.495,-0.208 -0.495,-0.464V0.897c0,-0.257 0.222,-0.465 0.495,-0.465h3.752c0.273,0 0.495,0.208 0.495,0.465v1.857c0,0.256 -0.222,0.464 -0.495,0.464z" fill="#F9F9FD"/>
  <path d="M7.06,11.812H2.444c-0.14,0 -0.252,-0.105 -0.252,-0.236V8.362c0,-0.13 0.113,-0.236 0.252,-0.236H7.06c0.14,0 0.252,0.106 0.252,0.236v3.214c0,0.13 -0.113,0.236 -0.252,0.236z" fill="#FFF"/>
  <path d="M15.552,8.77a0.469,0.469 0,0 0,-0.344 -0.147h-5.01a0.469,0.469 0,0 0,-0.344 0.148,0.409 0.409,0 0,0 -0.106,0.34l0.74,4.763c0.058,0.372 0.403,0.652 0.804,0.652h2.823c0.4,0 0.746,-0.28 0.804,-0.652l0.74,-4.762a0.41,0.41 0,0 0,-0.107 -0.341zM14.446,13.81a0.33,0.33 0,0 1,-0.33 0.268h-2.824a0.33,0.33 0,0 1,-0.331 -0.268l-0.736,-4.74h4.957l-0.736,4.74zM8.61,4.358L6.677,2.967v-0.501c0.382,-0.023 0.686,-0.322 0.686,-0.687L7.363,-0.078c0,-0.38 -0.33,-0.688 -0.734,-0.688L2.876,-0.766c-0.405,0 -0.734,0.309 -0.734,0.688L2.142,1.78c0,0.364 0.304,0.664 0.686,0.687v0.5L0.893,4.359c-0.313,0.225 -0.5,0.58 -0.5,0.95v7.998c0,0.64 0.555,1.16 1.237,1.16h6.244c0.682,0 1.237,-0.52 1.237,-1.16L9.111,5.308c0,-0.37 -0.187,-0.725 -0.5,-0.95zM3.306,2.468h2.892v0.385L3.306,2.853v-0.385zM2.62,1.779L2.62,-0.078c0,-0.132 0.115,-0.24 0.256,-0.24h3.752c0.141,0 0.256,0.108 0.256,0.24L6.884,1.78c0,0.133 -0.115,0.24 -0.256,0.24L2.876,2.02c-0.141,0 -0.256,-0.107 -0.256,-0.24zM8.633,13.306c0,0.393 -0.34,0.712 -0.759,0.712L1.63,14.018c-0.419,0 -0.76,-0.32 -0.76,-0.712L0.87,5.308a0.74,0.74 0,0 1,0.314 -0.595l1.964,-1.412h3.208L8.32,4.713a0.74,0.74 0,0 1,0.313 0.595v7.998z" fill="#464749"/>
</svg>
