<?xml version="1.0" ?>
<svg xmlns="http://www.w3.org/2000/svg" width="26" height="25" viewBox="0 0 26 25">
  <path d="M12.036,22.918c-5.544,-0.854 -9.453,-5.912 -8.882,-11.494l-0.877,0.886a0.618,0.618 0,0 1,-0.692 -1.027L3.97,9.38a0.618,0.618 0,0 1,0.858 0.168l1.6,2.072a0.618,0.618 0,1 1,-1.025 0.691l-0.966,-1.133a9.292,9.292 0,0 0,5.925 10.08,9.232 9.232,0 0,0 11.055,-3.715A9.279,9.279 0,0 0,20.024 5.94,9.253 9.253,0 0,0 8.397,4.899a0.618,0.618 0,0 1,-0.692 -1.027,10.5 10.5,0 0,1 11.676,-0.037 10.55,10.55 0,0 1,4.53 10.784,10.48 10.48,0 0,1 -11.875,8.3z" fill="#B2B2B2" stroke-width=".2" stroke="#B2B2B2"/>
  <path d="M9.63,16.156c0.398,0 0.751,-0.072 1.06,-0.217 0.309,-0.145 0.553,-0.345 0.732,-0.598 0.179,-0.254 0.267,-0.541 0.265,-0.861 0.002,-0.368 -0.103,-0.675 -0.317,-0.923 -0.213,-0.249 -0.512,-0.402 -0.899,-0.46v-0.046a1.33,1.33 0,0 0,0.729 -0.458,1.27 1.27,0 0,0 0.271,-0.83 1.454,1.454 0,0 0,-0.22 -0.789,1.616 1.616,0 0,0 -0.63,-0.578c-0.272,-0.145 -0.595,-0.217 -0.968,-0.217 -0.356,0 -0.68,0.067 -0.971,0.201a1.789,1.789 0,0 0,-0.704 0.56,1.43 1.43,0 0,0 -0.28,0.83h0.85a0.766,0.766 0,0 1,0.165 -0.46,0.996 0.996,0 0,1 0.399,-0.295c0.164,-0.069 0.34,-0.103 0.53,-0.103 0.199,0 0.371,0.038 0.518,0.113 0.147,0.076 0.26,0.18 0.341,0.314 0.08,0.134 0.12,0.29 0.12,0.47a0.863,0.863 0,0 1,-0.523 0.816,1.316 1.316,0 0,1 -0.57,0.116h-0.491v0.716h0.491c0.27,0 0.499,0.043 0.689,0.128 0.19,0.085 0.335,0.202 0.435,0.35 0.1,0.15 0.149,0.321 0.149,0.516 0,0.188 -0.05,0.353 -0.15,0.496a0.99,0.99 0,0 1,-0.417 0.334c-0.177,0.08 -0.38,0.12 -0.61,0.12 -0.208,0 -0.397,-0.035 -0.567,-0.103a1.02,1.02 0,0 1,-0.414 -0.291,0.757 0.757,0 0,1 -0.175,-0.448h-0.892c0.014,0.317 0.109,0.595 0.286,0.834 0.177,0.24 0.418,0.427 0.724,0.561a2.57,2.57 0,0 0,1.044 0.202zM15.244,15.099v-1.54h1.54v-0.764h-1.54v-1.537h-0.764l-0.001,1.537h-1.536v0.764h1.536v1.54h0.765zM20.292,16.076v-5.818h-0.855l-1.451,0.95v0.84l1.392,-0.91h0.034v4.938h0.88z" fill="#B2B2B2"/>
</svg>
