<?xml version="1.0" ?>
<svg xmlns="http://www.w3.org/2000/svg" width="22" height="22" viewBox="0 0 22 22">
  <path d="M18.847,1h-7.59a0.586,0.586 0,0 0,-0.414 0.172l-9.214,9.213c-0.839,0.84 -0.839,2.205 0,3.045l6.942,6.941c0.405,0.406 0.946,0.629 1.522,0.629 0.576,0 1.117,-0.223 1.522,-0.629l9.213,-9.213a0.586,0.586 0,0 0,0.172 -0.415v-7.59A2.156,2.156 0,0 0,18.847 1zM19.828,10.5 L10.787,19.543a0.973,0.973 0,0 1,-0.694 0.285,0.973 0.973,0 0,1 -0.694,-0.285L2.458,12.6a0.983,0.983 0,0 1,0 -1.387l9.041,-9.042h7.348c0.54,0 0.981,0.44 0.981,0.981v7.348z" fill="#B2B2B2" stroke-width=".4" stroke="#B2B2B2"/>
  <path d="M15.835,4.324a1.83,1.83 0,0 0,-1.302 0.539c-0.347,0.348 -0.539,0.81 -0.539,1.302s0.192,0.954 0.54,1.302c0.347,0.347 0.81,0.539 1.301,0.539 0.492,0 0.954,-0.192 1.302,-0.54 0.348,-0.347 0.54,-0.81 0.54,-1.301a1.83,1.83 0,0 0,-0.54 -1.302,1.83 1.83,0 0,0 -1.302,-0.54zM16.309,6.638a0.664,0.664 0,0 1,-0.474 0.196,0.664 0.664,0 0,1 -0.473,-0.196 0.665,0.665 0,0 1,-0.196 -0.473c0,-0.179 0.07,-0.347 0.196,-0.473a0.664,0.664 0,0 1,0.473 -0.197c0.179,0 0.347,0.07 0.474,0.197a0.665,0.665 0,0 1,0 0.946z" fill="#B2B2B2" stroke-width=".4" stroke="#B2B2B2"/>
</svg>
