<svg id="vector" xmlns="http://www.w3.org/2000/svg" width="24" height="24" viewBox="0 0 24 24"><path fill="#CF202E" d="M10.832,1.932c-1.707,0 -3.134,1.218 -3.365,2.804l-0.024,0.23 -0.008,0.227 -0.002,0.74h6.795l0.001,-0.74c0,-1.718 -1.393,-3.133 -3.155,-3.253l-0.242,-0.008zM3.544,6.437h15.031c0.6,4.012 0.678,6.504 0.237,7.475 -0.4,0.88 -1.25,0.777 -1.943,1.1 -1.12,0.524 -2.116,1.243 -2.284,2.17 -0.444,2.45 0.12,4.204 1.69,5.265L2,22 3.544,6.437z" stroke-opacity="0.2" fill-rule="evenodd" fill-opacity="0.2" id="path_0"/><path fill="#CF202E" d="M10.832,1c2.185,0 3.99,1.65 4.107,3.734l0.006,0.22v0.717l0.123,0.123h3.286l0.107,0.01a0.553,0.553 0,0 1,0.435 0.383l0.019,0.098 0.905,8.302 -1.133,-0.033 -0.827,-7.58 -0.122,-0.109h-2.67l-0.123,0.123v1.451l-0.01,0.096a0.555,0.555 0,0 1,-0.552 0.44,0.555 0.555,0 0,1 -0.554,-0.45l-0.008,-0.096L13.821,6.988l-0.123,-0.123L7.965,6.865l-0.123,0.123v1.451l-0.009,0.096a0.555,0.555 0,0 1,-0.553 0.44,0.555 0.555,0 0,1 -0.554,-0.45l-0.008,-0.096L6.718,6.988l-0.122,-0.123h-2.67l-0.122,0.11L2.199,21.67l0.119,0.136 0.91,0.024 4.31,0.099 2.389,0.041L12.17,22l2.096,0.015 1.95,0.002 0.558,-0.004 0.695,0.865L1.561,22.878l-0.095,-0.008a0.57,0.57 0,0 1,-0.324 -0.17,0.524 0.524,0 0,1 -0.142,-0.323l0.003,-0.1L2.75,6.273l0.021,-0.1a0.554,0.554 0,0 1,0.443 -0.372l0.105,-0.008h3.277l0.123,-0.123v-0.72l0.006,-0.224C6.846,2.653 8.641,1 10.832,1zM10.832,2.071c-1.572,0 -2.877,1.178 -2.983,2.682l-0.007,0.193v0.725l0.123,0.123h5.733l0.123,-0.123v-0.72l-0.007,-0.197c-0.105,-1.498 -1.403,-2.683 -2.982,-2.683z" stroke-width=".2" fill-rule="nonzero" stroke="#CF202E" id="path_1"/><path fill="#CF202E" d="M22.093,20.62a0.436,0.436 0,0 0,-0.589 0.083,4.398 4.398,0 0,1 -0.242,0.283 0.384,0.384 0,0 0,0.036 0.562c0.08,0.067 0.18,0.1 0.279,0.1a0.43,0.43 0,0 0,0.315 -0.135,5.2 5.2,0 0,0 0.287,-0.335 0.385,0.385 0,0 0,-0.086 -0.557zM22.614,18.584c-0.265,-0.044 -0.527,0.084 -0.584,0.285a3.27,3.27 0,0 1,-0.114 0.33c-0.08,0.196 0.065,0.405 0.324,0.466a0.636,0.636 0,0 0,0.145 0.017c0.21,0 0.403,-0.103 0.468,-0.263 0.053,-0.129 0.098,-0.26 0.136,-0.391 0.057,-0.202 -0.11,-0.4 -0.375,-0.444zM20.219,21.951c-0.102,0.067 -0.207,0.13 -0.313,0.186 -0.192,0.103 -0.278,0.37 -0.19,0.597 0.063,0.167 0.202,0.266 0.348,0.266a0.332,0.332 0,0 0,0.157 -0.04,4.66 4.66,0 0,0 0.37,-0.22c0.185,-0.122 0.251,-0.397 0.148,-0.615 -0.103,-0.217 -0.336,-0.295 -0.52,-0.174zM18.07,16.317v2.404l-1.361,1.163a0.285,0.285 0,0 0,0 0.448,0.405 0.405,0 0,0 0.262,0.093c0.095,0 0.19,-0.031 0.263,-0.093l1.47,-1.255c0.07,-0.06 0.108,-0.14 0.108,-0.224v-2.536c0,-0.175 -0.166,-0.317 -0.37,-0.317 -0.206,0 -0.372,0.142 -0.372,0.317z" fill-rule="nonzero" id="path_2"/><path fill="#CF202E" d="M22.654,14.894a0.346,0.346 0,0 0,-0.345 0.346v0.96a4.435,4.435 0,0 0,-3.734 -2.05c-1.182,0 -2.293,0.461 -3.129,1.297a4.396,4.396 0,0 0,-1.296 3.128c0,1.182 0.46,2.293 1.296,3.13A4.396,4.396 0,0 0,18.576 23h0.016c0.125,0 0.25,-0.005 0.374,-0.016a0.346,0.346 0,1 0,-0.057 -0.689c-0.105,0.01 -0.211,0.014 -0.317,0.014h-0.017a3.738,3.738 0,0 1,-3.733 -3.734,3.738 3.738,0 0,1 3.733,-3.733c1.327,0 2.547,0.707 3.214,1.832h-0.95a0.346,0.346 0,1 0,0 0.692h1.055a1.1,1.1 0,0 0,0.606 -0.182c0.3,-0.198 0.5,-0.538 0.5,-0.925v-1.02a0.346,0.346 0,0 0,-0.346 -0.345z" stroke-width=".15" stroke="#CF202E" fill-rule="nonzero" id="path_3"/></svg>