<svg id="vector" xmlns="http://www.w3.org/2000/svg" width="19" height="21" viewBox="0 0 19 21"><path fill="#CF202E" d="M1.515,19.467c0.293,-4.052 2.976,-6.106 7.985,-6.106 5.01,0 7.692,2.054 7.985,6.106H1.515zM9.5,9.172c-1.901,0 -3.448,-1.788 -3.448,-3.986 0,-2.117 1.45,-3.653 3.448,-3.653 1.966,0 3.448,1.57 3.448,3.653 0,2.198 -1.547,3.986 -3.448,3.986z" stroke-opacity="0.2" fill-rule="evenodd" fill-opacity="0.2" id="path_0"/><path fill="#CF202E" d="M9.5,11.828c-6.126,0 -9.5,2.985 -9.5,8.406 0,0.423 0.333,0.766 0.744,0.766h17.512a0.755,0.755 0,0 0,0.744 -0.766c0,-5.42 -3.374,-8.406 -9.5,-8.406zM1.515,19.468c0.293,-4.053 2.976,-6.107 7.985,-6.107 5.01,0 7.692,2.054 7.985,6.106L1.515,19.467zM9.5,0C6.686,0 4.564,2.23 4.564,5.186c0,3.043 2.214,5.518 4.936,5.518s4.936,-2.475 4.936,-5.518C14.436,2.23 12.314,0 9.5,0zM9.5,9.172c-1.901,0 -3.448,-1.788 -3.448,-3.986 0,-2.117 1.45,-3.653 3.448,-3.653 1.966,0 3.448,1.57 3.448,3.653 0,2.198 -1.547,3.986 -3.448,3.986z" fill-rule="nonzero" id="path_1"/></svg>