<?xml version="1.0" ?>
<svg xmlns="http://www.w3.org/2000/svg" width="24" height="24" viewBox="0 0 24 24">
  <path d="M12.44,24.001C6.08,24.001 0.924,18.846 0.924,12.487 0.925,6.128 6.08,0.973 12.439,0.973c6.36,0 11.515,5.155 11.515,11.514 0,6.36 -5.156,11.514 -11.515,11.514zM18.541,7.851a0.556,0.556 0,0 0,-0.783 0l-7.132,6.874 -2.993,-2.873c-0.224,-0.215 -0.587,-0.215 -0.783,0 -0.224,0.214 -0.224,0.563 0,0.751l3.384,3.25a0.564,0.564 0,0 0,0.392 0.16c0.14,0 0.28,-0.053 0.391,-0.16l7.524,-7.25a0.505,0.505 0,0 0,0 -0.752z" fill="#20BE79"/>
</svg>
