<?xml version="1.0" ?>
<svg xmlns="http://www.w3.org/2000/svg" width="30" height="22" viewBox="0 0 30 22">
  <path d="M1.873,0.003h26.23c1.033,0 1.873,0.839 1.873,1.874v17.798c0,1.034 -0.84,1.874 -1.874,1.874H1.873C0.838,21.549 0,20.709 0,19.675V1.877C0,0.842 0.84,0.003 1.873,0.003z" fill="#26A6D1"/>
  <path d="M4.834,7.497l-2.96,6.55h3.543l0.44,-1.044L6.86,13.003l0.439,1.044h3.9v-0.797l0.348,0.797h2.018l0.347,-0.814v0.814h8.113l0.986,-1.017 0.924,1.017 4.166,0.009 -2.97,-3.266 2.97,-3.293L24,7.497l-0.96,0.998 -0.894,-0.998L13.32,7.497l-0.758,1.69 -0.776,-1.69L8.251,7.497v0.77l-0.394,-0.77L4.834,7.497zM5.519,8.427h1.728l1.963,4.442L9.21,8.427h1.892l1.517,3.185 1.398,-3.185h1.882v4.7h-1.145l-0.01,-3.683 -1.67,3.683L12.05,13.127l-1.68,-3.683v3.683L8.014,13.127l-0.447,-1.054L5.152,12.073l-0.446,1.053L3.443,13.126l2.076,-4.7zM16.948,8.427h4.658l1.425,1.539 1.47,-1.54h1.425l-2.165,2.363 2.165,2.335h-1.49l-1.424,-1.556 -1.478,1.556h-4.586L16.948,8.427zM6.36,9.222l-0.796,1.877h1.59L6.36,9.222zM18.098,9.4v0.858h2.541v0.956h-2.541v0.937h2.85l1.325,-1.38L21.005,9.4h-2.907L18.098,9.4z" fill="#FFF"/>
</svg>
