<?xml version="1.0" ?>
<svg xmlns="http://www.w3.org/2000/svg" width="32" height="32" viewBox="0 0 32 32">
  <path d="M16,16m-15,0a15,15 0,1 1,30 0a15,15 0,1 1,-30 0" fill="#FFF" stroke-width=".568" stroke="#EFEFEF"/>
  <path d="M13.478,6.171c-0.218,-0.228 -0.572,-0.228 -0.79,0L9.333,9.671l0.79,0.825 2.4,-2.504L12.523,23.5h1.12L13.643,7.992l2.4,2.504 0.79,-0.825 -3.355,-3.5zM22.709,20.67l-2.4,2.505L20.309,7.667L19.191,7.667v15.508l-2.4,-2.504 -0.791,0.825 3.354,3.5c0.11,0.114 0.253,0.17 0.396,0.17 0.143,0 0.286,-0.056 0.395,-0.17l3.355,-3.5 -0.79,-0.825z" fill="#D5D5D5"/>
</svg>
