<?xml version="1.0" ?>
<svg xmlns="http://www.w3.org/2000/svg" width="34" height="48" viewBox="0 0 34 48">
  <path d="M0,41.424a16.984,6.424 0,1 0,33.968 0a16.984,6.424 0,1 0,-33.968 0z" fill="#223BC1"/>
  <path d="M6,41.136a10.935,4.136 0,1 0,21.87 0a10.935,4.136 0,1 0,-21.87 0z" fill="#223BC1"/>
  <path d="M17,0C8.754,0 2.046,6.661 2.046,14.849c0,10.16 13.382,25.077 13.952,25.707 0.535,0.592 1.47,0.591 2.004,0 0.57,-0.63 13.952,-15.546 13.952,-25.707C31.954,6.66 25.245,0 17,0zM17,22.32c-4.149,0 -7.524,-3.352 -7.524,-7.471 0,-4.12 3.376,-7.471 7.524,-7.471s7.523,3.351 7.523,7.47c0,4.12 -3.375,7.471 -7.523,7.471z" fill="#223BC1"/>
</svg>
