<svg xmlns="http://www.w3.org/2000/svg" width="30.585" height="30.624" viewBox="0 0 30.585 30.624">
  <g id="Grupo_196070" data-name="Grupo 196070" transform="translate(0.5 -0.063)">
    <rect id="Rectángulo_150331" data-name="Rectángulo 150331" width="30" height="30" transform="translate(-0.175 0.063)" fill="none"/>
    <path id="Trazado_47389" data-name="Trazado 47389" d="M14.793,0A14.793,14.793,0,1,1,0,14.793,14.793,14.793,0,0,1,14.793,0Z" transform="translate(0 0.602)" fill="#f99898" stroke="#000" stroke-width="1"/>
    <g id="Grupo_196065" data-name="Grupo 196065" transform="translate(0.77 1.359)">
      <g id="Grupo_196066" data-name="Grupo 196066" transform="translate(0 0)">
        <path id="Trazado_47287" data-name="Trazado 47287" d="M4.707,73.49a7.293,7.293,0,0,1,4.8-1.761,9.284,9.284,0,0,0,1.261-.133,5.68,5.68,0,0,0,2.046-.651c.967-.507,3.113-1.363,3.113-1.363h5l.992.632a8.028,8.028,0,0,0,3.986,1.378c.9.07,1.839.136,2.383.136a8.326,8.326,0,0,1,4.279,1.334c-1.945,5.871-6.531,10.586-14.206,10.52A14.394,14.394,0,0,1,4.707,73.49Z" transform="translate(-4.517 -55.057)" fill="#ff001d" fill-rule="evenodd"/>
        <path id="Trazado_47288" data-name="Trazado 47288" d="M80.328,73.006a8.742,8.742,0,0,1-5.007-2.312,3.435,3.435,0,0,1,1.019.446,7.606,7.606,0,0,0,3.988.932c.9.07,1.839.136,2.383.136a8.751,8.751,0,0,1,4.379,1.4c-.086.258-.086.442-.184.693a9.125,9.125,0,0,0-4.195-1.158C82.166,73.142,81.232,73.063,80.328,73.006Z" transform="translate(-58.939 -56.103)" fill-rule="evenodd"/>
        <path id="Trazado_47289" data-name="Trazado 47289" d="M4.586,74.745c-.1-.232-.123-.51-.213-.747a7.821,7.821,0,0,1,4.992-1.784,9.285,9.285,0,0,0,1.261-.133,5.68,5.68,0,0,0,2.046-.651,11.461,11.461,0,0,1,3.069-.722s-2.1,1.149-3.069,1.656a5.676,5.676,0,0,1-2.046.651,9.317,9.317,0,0,1-1.261.133,8.1,8.1,0,0,0-4.778,1.6Z" transform="translate(-4.373 -56.11)" fill-rule="evenodd"/>
        <path id="Trazado_47290" data-name="Trazado 47290" d="M53.539,40.12a2.133,2.133,0,0,1,4.265.014l.488,4.912a2.674,2.674,0,1,1-5.242,0l.488-4.912Z" transform="translate(-41.743 -31.321)" fill="#fac7a5" fill-rule="evenodd"/>
        <path id="Trazado_47291" data-name="Trazado 47291" d="M52.4,10.9C51.322,9.849,47.65,8.027,45.415,9.68a2.833,2.833,0,0,0-.98,1.311c-.944,2.567.42,3.889.718,5.73h7.453c.565-2.369,1.124-4.244-.206-5.82Z" transform="translate(-34.9 -9.015)" fill="#404040" fill-rule="evenodd"/>
        <path id="Trazado_47292" data-name="Trazado 47292" d="M58.494,9.018a8,8,0,0,1,4.59,1.882c1.33,1.576.771,3.451.206,5.82h.386c.565-2.369,1.124-4.244-.206-5.82A7.856,7.856,0,0,0,58.494,9.018Z" transform="translate(-45.973 -9.015)" fill="#363636" fill-rule="evenodd"/>
        <path id="Trazado_47293" data-name="Trazado 47293" d="M46.1,16.72c-.3-1.84-1.662-3.163-.718-5.73a2.835,2.835,0,0,1,.98-1.311A3.45,3.45,0,0,1,48.1,9.038a3.832,3.832,0,0,0-2.686.642,2.833,2.833,0,0,0-.98,1.311c-.944,2.567.42,3.889.718,5.73Z" transform="translate(-34.9 -9.014)" fill="#5c5c5c" fill-rule="evenodd"/>
        <path id="Trazado_47294" data-name="Trazado 47294" d="M46.24,35.371c.3-.07.693.507.874,1.288S47.2,38.13,46.9,38.2s-.693-.507-.874-1.288S45.939,35.441,46.24,35.371Z" transform="translate(-36.305 -29.292)" fill="#fac7a5" fill-rule="evenodd"/>
        <path id="Trazado_47295" data-name="Trazado 47295" d="M46.959,38.175a.23.23,0,0,1-.062.025c-.3.07-.693-.507-.874-1.288s-.083-1.471.218-1.541a.263.263,0,0,1,.174.024c-.252.145-.324.792-.156,1.517A1.974,1.974,0,0,0,46.959,38.175Z" transform="translate(-36.305 -29.292)" fill="#fbcfb2" fill-rule="evenodd"/>
        <path id="Trazado_47296" data-name="Trazado 47296" d="M60.91,35.371c-.3-.07-.693.507-.874,1.288s-.083,1.471.218,1.541.693-.507.874-1.288S61.211,35.441,60.91,35.371Zm-1.518,8.995a1.991,1.991,0,0,1-.15-.518h0a1.665,1.665,0,0,0-1.555-1.424,2.592,2.592,0,0,1-.764-.121c-3.608-1.162-2.075-4.093-2.075-4.093V38.2a2.129,2.129,0,0,1,1.445-2.018.817.817,0,0,1,.554-.206,2.134,2.134,0,0,1,2.1,1.771,2.19,2.19,0,0,1,.05.466l.322,3.325.147,1.482a2.674,2.674,0,0,1,.047.351A2.73,2.73,0,0,1,59.392,44.366Z" transform="translate(-42.918 -29.292)" fill="#f9ab8e" fill-rule="evenodd"/>
        <path id="Trazado_47297" data-name="Trazado 47297" d="M53.2,20.692c4.746,0,2.119.944,2.716,2.336a5.812,5.812,0,0,1,.791,2.161c0,2.482-1.571,4.5-3.507,4.5s-3.507-2.015-3.507-4.5a5.6,5.6,0,0,1,.61-2.161c.6-1.392-1.589-2.336,2.9-2.336Z" transform="translate(-39.202 -18.001)" fill="#fac7a5" fill-rule="evenodd"/>
        <path id="Trazado_47298" data-name="Trazado 47298" d="M74.629,21.347c1.42.319-.007,1.122.449,2.185a5.812,5.812,0,0,1,.791,2.161,5.256,5.256,0,0,1-.892,2.995,6.782,6.782,0,0,0,.5-2.6,7.055,7.055,0,0,0-.791-2.428C74.285,22.6,75.349,21.773,74.629,21.347Z" transform="translate(-58.362 -18.505)" fill="#f9ab8e" fill-rule="evenodd"/>
        <path id="Trazado_47299" data-name="Trazado 47299" d="M56.767,31.525a1.349,1.349,0,0,1,.174-.173,1.47,1.47,0,0,1,.364-.207.883.883,0,0,1,.244-.069.085.085,0,0,0-.024-.168.864.864,0,0,0-.594.313A1.034,1.034,0,0,0,56.767,31.525Zm4.083,0a1.356,1.356,0,0,0-.174-.173,1.474,1.474,0,0,0-.364-.207.883.883,0,0,0-.244-.069.085.085,0,1,1,.025-.168.865.865,0,0,1,.594.313A1.036,1.036,0,0,1,60.85,31.525Z" transform="translate(-44.644 -25.862)" fill="#404040" fill-rule="evenodd"/>
        <path id="Trazado_47300" data-name="Trazado 47300" d="M53.406,29.678q-.1.008-.2.008c-1.935,0-3.507-2.015-3.507-4.5a5.6,5.6,0,0,1,.61-2.161c.6-1.392-1.589-2.336,2.9-2.336h.21c-4.222.028-2.111.965-2.7,2.336a5.6,5.6,0,0,0-.61,2.161C50.1,27.583,51.566,29.542,53.406,29.678Z" transform="translate(-39.202 -18.001)" fill="#fbcfb2" fill-rule="evenodd"/>
        <path id="Trazado_47301" data-name="Trazado 47301" d="M62.956,36.881A2.948,2.948,0,0,0,63.345,38a.338.338,0,0,1,.083.354c-.047.082-.162.095-.324.034a.11.11,0,0,0-.078.206c.3.114.5.024.593-.13a.55.55,0,0,0-.1-.6,2.616,2.616,0,0,1-.345-1.015.11.11,0,0,0-.218.029Zm.491,2.313a1.365,1.365,0,0,1-.735.014.616.616,0,0,1-.392-.3.11.11,0,1,0-.209.07.835.835,0,0,0,.521.439,1.515,1.515,0,0,0,.792,0,.11.11,0,0,0,.023-.219Z" transform="translate(-48.752 -30.363)" fill="#404040" fill-rule="evenodd"/>
        <ellipse id="Elipse_2208" data-name="Elipse 2208" cx="0.187" cy="0.264" rx="0.187" ry="0.264" transform="translate(12.675 5.563)" fill="#404040"/>
        <ellipse id="Elipse_2209" data-name="Elipse 2209" cx="0.187" cy="0.264" rx="0.187" ry="0.264" transform="translate(15.168 5.563)" fill="#404040"/>
      </g>
    </g>
  </g>
</svg>
