<svg xmlns="http://www.w3.org/2000/svg" width="22" height="22" viewBox="0 0 22 22">
  <g id="Grupo_198805" data-name="Grupo 198805" transform="translate(-8 -9)">
    <rect id="Rectángulo_150721" data-name="Rectángulo 150721" width="22" height="22" transform="translate(8 9)" fill="none"/>
    <path id="person_FILL0_wght200_GRAD0_opsz24_1_" data-name="person_FILL0_wght200_GRAD0_opsz24 (1)" d="M208.176-737.608a3.374,3.374,0,0,1-2.475-1.029,3.374,3.374,0,0,1-1.029-2.475,3.374,3.374,0,0,1,1.029-2.475,3.374,3.374,0,0,1,2.475-1.029,3.375,3.375,0,0,1,2.475,1.029,3.374,3.374,0,0,1,1.029,2.475,3.374,3.374,0,0,1-1.029,2.475A3.374,3.374,0,0,1,208.176-737.608ZM200-729.162v-1.923a2.391,2.391,0,0,1,.421-1.353,2.827,2.827,0,0,1,1.133-.978,16.563,16.563,0,0,1,3.309-1.189,14.176,14.176,0,0,1,3.313-.4,14.175,14.175,0,0,1,3.313.4,16.564,16.564,0,0,1,3.309,1.189,2.827,2.827,0,0,1,1.133.978,2.391,2.391,0,0,1,.421,1.353v1.923Zm1.168-1.168h14.016v-.755a1.212,1.212,0,0,0-.25-.73,2.015,2.015,0,0,0-.693-.577,14.82,14.82,0,0,0-2.974-1.07,13.058,13.058,0,0,0-3.091-.372,13.058,13.058,0,0,0-3.091.372,14.82,14.82,0,0,0-2.974,1.07,2.015,2.015,0,0,0-.693.577,1.212,1.212,0,0,0-.25.73Zm7.008-8.445a2.249,2.249,0,0,0,1.65-.686,2.249,2.249,0,0,0,.686-1.65,2.25,2.25,0,0,0-.686-1.65,2.25,2.25,0,0,0-1.65-.686,2.25,2.25,0,0,0-1.65.686,2.25,2.25,0,0,0-.686,1.65,2.249,2.249,0,0,0,.686,1.65A2.249,2.249,0,0,0,208.176-738.776ZM208.176-741.112ZM208.176-730.331Z" transform="translate(-188.709 757.001)"/>
  </g>
</svg>
