<?xml version="1.0" ?>
<svg xmlns="http://www.w3.org/2000/svg" width="118" height="118" viewBox="0 0 118 118">
  <path d="M59.072,58.621m-58.619,0a58.619,58.619 0,1 1,117.238 0a58.619,58.619 0,1 1,-117.238 0" fill="#2ECC71"/>
  <path d="M59.504,59.053m-43.087,0a43.087,43.087 0,1 1,86.174 0a43.087,43.087 0,1 1,-86.174 0" fill="#F9FFFC"/>
  <path d="M75.294,47.621a1.636,1.636 0,0 0,-2.313 0L53.384,67.217l-7.532,-7.532a1.636,1.636 0,0 0,-2.313 2.313l8.689,8.689a1.636,1.636 0,0 0,2.313 0l20.753,-20.753a1.636,1.636 0,0 0,0 -2.313z" fill="#2ECC71" stroke-width="6.727" stroke="#2ECC71"/>
</svg>
