<?xml version="1.0" ?>
<svg xmlns="http://www.w3.org/2000/svg" width="31" height="20" viewBox="0 0 31 20">
  <g>
    <path d="M26.243,13.975s-0.192,-0.886 -0.256,-1.156l-2.692,-0.003c-0.081,0.208 -0.441,1.16 -0.441,1.16h-2.208l3.121,-7.068c0.222,-0.503 0.597,-0.64 1.101,-0.64h1.624l1.701,7.707h-1.95zM17.135,14.088c-0.943,-0.01 -1.85,-0.197 -2.342,-0.412l0.296,-1.726 0.27,0.122c0.69,0.289 1.138,0.405 1.98,0.405 0.603,0 1.25,-0.236 1.256,-0.753 0.004,-0.338 -0.27,-0.579 -1.09,-0.957 -0.797,-0.369 -1.853,-0.987 -1.84,-2.095 0.011,-1.498 1.475,-2.544 3.552,-2.544 0.814,0 1.467,0.167 1.883,0.323l-0.284,1.672 -0.19,-0.089c-0.387,-0.156 -0.884,-0.306 -1.572,-0.295 -0.823,0 -1.205,0.343 -1.205,0.663 -0.004,0.361 0.446,0.6 1.18,0.957 1.213,0.55 1.774,1.218 1.766,2.095 -0.016,1.6 -1.45,2.634 -3.66,2.634zM13.477,13.972h-2.101l1.314,-7.713h2.102l-1.315,7.713zM6.307,13.966l-1.883,-6.43c1.353,0.866 2.506,2.24 2.912,3.196l0.22,0.794 2.058,-5.258h2.227l-3.31,7.697 -2.225,0.001zM2.363,6.194h3.258c0.44,0.016 0.794,0.156 0.916,0.626l0.708,3.408c-0.696,-1.783 -2.374,-3.266 -4.91,-3.88l0.028,-0.154zM29.743,0.214L0.786,0.214C0.35,0.215 0,0.567 0,1.002v18.213c0,0.434 0.351,0.786 0.786,0.786h28.958c0.434,0 0.786,-0.352 0.786,-0.786L30.53,1.001c0,-0.435 -0.352,-0.786 -0.786,-0.786z" fill="#152F8F"/>
  </g>
  <path d="M25.158,9.012l-0.142,-0.664c-0.107,0.29 -0.291,0.756 -0.28,0.736l-0.837,2.155h1.746l-0.487,-2.227" fill="#152F8F"/>
</svg>
