<?xml version="1.0" ?>
<svg xmlns="http://www.w3.org/2000/svg" width="26" height="26" viewBox="0 0 26 26">
  <path d="M20.853,4.245m-4.245,0a4.245,4.245 0,1 1,8.49 0a4.245,4.245 0,1 1,-8.49 0" fill="#FCD249"/>
  <path d="M18.428,5.644c-1.049,-1.816 -0.601,-4.085 0.96,-5.382 -0.225,0.082 -0.445,0.184 -0.659,0.307C16.699,1.741 16.003,4.338 17.175,6.369c1.173,2.03 3.77,2.725 5.8,1.553 0.213,-0.123 0.411,-0.263 0.595,-0.416 -1.904,0.703 -4.093,-0.044 -5.142,-1.861z" fill="#F9B938"/>
  <path d="M20.852,4.246m-2.798,0a2.798,2.798 0,1 1,5.596 0a2.798,2.798 0,1 1,-5.596 0" fill="#F9B938"/>
  <path d="M19.561,4.99c-0.66,-1.143 -0.42,-2.558 0.497,-3.428 -0.207,0.062 -0.41,0.147 -0.605,0.26 -1.338,0.773 -1.797,2.484 -1.024,3.823 0.773,1.338 2.484,1.797 3.823,1.024 0.195,-0.113 0.37,-0.246 0.527,-0.394 -1.212,0.36 -2.557,-0.14 -3.218,-1.284z" fill="#E59C1C"/>
  <path d="M16.782,4.245m-4.245,0a4.245,4.245 0,1 1,8.49 0a4.245,4.245 0,1 1,-8.49 0" fill="#FCD249"/>
  <path d="M14.358,5.644C13.309,3.829 13.757,1.56 15.317,0.263 15.092,0.344 14.872,0.446 14.659,0.569 12.629,1.741 11.933,4.338 13.105,6.369c1.173,2.03 3.769,2.725 5.8,1.553 0.213,-0.123 0.411,-0.263 0.595,-0.416 -1.904,0.703 -4.093,-0.044 -5.142,-1.861z" fill="#F9B938"/>
  <path d="M16.782,4.246m-2.798,0a2.798,2.798 0,1 1,5.596 0a2.798,2.798 0,1 1,-5.596 0" fill="#F9B938"/>
  <path d="M15.491,4.99c-0.66,-1.143 -0.421,-2.558 0.497,-3.428 -0.207,0.062 -0.41,0.147 -0.605,0.26 -1.339,0.773 -1.797,2.484 -1.025,3.823 0.773,1.338 2.485,1.797 3.823,1.024 0.195,-0.113 0.371,-0.246 0.528,-0.394 -1.213,0.36 -2.558,-0.14 -3.218,-1.284z" fill="#E59C1C"/>
  <path d="M17.137,7.115L10.3,0.224c-0.296,-0.296 -0.78,-0.296 -1.076,0l-6.839,6.89h14.753z" fill="#91CE91"/>
  <path d="M10.299,0.224c-0.296,-0.296 -0.78,-0.296 -1.076,0L2.384,7.114h2.04L10.781,0.71 10.299,0.224z" fill="#5EAA5E"/>
  <path d="M9.223,2.27L4.43,7.115h10.662L10.299,2.27c-0.296,-0.296 -0.78,-0.296 -1.076,0z" fill="#5EAA5E"/>
  <path d="M10.299,2.27c-0.296,-0.296 -0.78,-0.296 -1.076,0L4.43,7.115h1.36l4.65,-4.702 -0.141,-0.143z" fill="#4D964D"/>
  <path d="M25.999,19.994v3.636c0,1.306 -1.064,2.37 -2.37,2.37H2.37C1.064,26 0,24.935 0,23.63V9.432c0,-1.306 1.063,-2.37 2.37,-2.37h21.258c1.306,0 2.37,1.064 2.37,2.37v3.622" fill="#DD9A5E"/>
  <path d="M1.466,23.63L1.466,9.433c0,-1.307 1.063,-2.37 2.37,-2.37L2.37,7.063C1.064,7.063 0,8.126 0,9.433L0,23.629c0,1.307 1.063,2.37 2.37,2.37h1.465c-1.307,0 -2.37,-1.063 -2.37,-2.37zM25.999,13.183h-6.046c-1.842,0 -3.348,1.507 -3.348,3.348 0,1.842 1.506,3.348 3.348,3.348h6.046L25.999,13.183z" fill="#D38D54"/>
  <path d="M16.684,15.812c-0.051,0.232 -0.08,0.472 -0.08,0.719 0,1.841 1.507,3.348 3.349,3.348h6.046V18.44h-6.046c-1.595,0 -2.938,-1.13 -3.27,-2.63z" fill="#C17B48"/>
  <path d="M20.045,16.515m-1.883,0a1.883,1.883 0,1 1,3.766 0a1.883,1.883 0,1 1,-3.766 0" fill="#DADADA"/>
  <path d="M21.188,17.393c-1.004,-0.27 -1.6,-1.302 -1.331,-2.307 0.043,-0.163 0.107,-0.314 0.188,-0.454 -0.832,0 -1.594,0.554 -1.82,1.396 -0.268,1.005 0.328,2.037 1.333,2.306 0.841,0.226 1.702,-0.156 2.118,-0.877 -0.161,0 -0.325,-0.02 -0.488,-0.064z" fill="#c0c0c0"/>
  <path d="M1.917,24.539c0.014,-0.216 0.201,-0.38 0.418,-0.365h0.03c0.217,0.003 0.39,0.181 0.388,0.398 -0.006,0.545 -0.872,0.495 -0.836,-0.033zM23.212,24.959h-0.052c-0.217,0 -0.393,-0.175 -0.393,-0.392 0,-0.217 0.176,-0.392 0.393,-0.392h0.052c0.217,0 0.393,0.176 0.393,0.392 0,0.217 -0.176,0.393 -0.393,0.393zM21.317,24.959h-0.053c-0.217,0 -0.392,-0.175 -0.392,-0.392 0,-0.217 0.175,-0.392 0.392,-0.392h0.053c0.216,0 0.392,0.176 0.392,0.392 0,0.217 -0.175,0.393 -0.392,0.393zM19.421,24.959h-0.052c-0.217,0 -0.393,-0.175 -0.393,-0.392 0,-0.217 0.176,-0.392 0.393,-0.392h0.052c0.217,0 0.393,0.176 0.393,0.392 0,0.217 -0.176,0.393 -0.393,0.393zM17.526,24.959h-0.053c-0.217,0 -0.392,-0.175 -0.392,-0.392 0,-0.217 0.175,-0.392 0.392,-0.392h0.053c0.216,0 0.392,0.176 0.392,0.392 0,0.217 -0.176,0.393 -0.392,0.393zM15.63,24.959h-0.053c-0.216,0 -0.392,-0.175 -0.392,-0.392 0,-0.217 0.176,-0.392 0.392,-0.392h0.053c0.217,0 0.392,0.176 0.392,0.392 0,0.217 -0.175,0.393 -0.392,0.393zM13.734,24.959h-0.052c-0.217,0 -0.393,-0.175 -0.393,-0.392 0,-0.217 0.176,-0.392 0.393,-0.392h0.052c0.217,0 0.393,0.176 0.393,0.392 0,0.217 -0.176,0.393 -0.393,0.393zM11.839,24.959h-0.053c-0.217,0 -0.392,-0.175 -0.392,-0.392 0,-0.217 0.176,-0.392 0.392,-0.392h0.053c0.217,0 0.392,0.176 0.392,0.392 0,0.217 -0.175,0.393 -0.392,0.393zM9.943,24.959h-0.052c-0.217,0 -0.393,-0.175 -0.393,-0.392 0,-0.217 0.176,-0.392 0.393,-0.392h0.052c0.217,0 0.393,0.176 0.393,0.392 0,0.217 -0.176,0.393 -0.393,0.393zM8.048,24.959h-0.053c-0.217,0 -0.392,-0.175 -0.392,-0.392 0,-0.523 0.837,-0.525 0.837,0 0,0.217 -0.176,0.393 -0.392,0.393zM6.152,24.959h-0.053c-0.216,0 -0.392,-0.175 -0.392,-0.392 0,-0.523 0.837,-0.525 0.837,0 0,0.217 -0.175,0.393 -0.392,0.393zM4.256,24.959h-0.052c-0.217,0 -0.393,-0.175 -0.393,-0.392 0,-0.217 0.176,-0.392 0.393,-0.392h0.052c0.217,0 0.393,0.176 0.393,0.392 0,0.217 -0.176,0.393 -0.393,0.393zM24.566,24.069l-0.02,-0.001c-0.216,-0.01 -0.383,-0.195 -0.373,-0.411l0.001,-0.027v-0.007c0,-0.217 0.176,-0.392 0.392,-0.392 0.217,0 0.393,0.175 0.393,0.392v0.007c0,0.021 0,0.043 -0.002,0.065 -0.01,0.21 -0.184,0.373 -0.392,0.373zM1.433,23.589c-0.217,0 -0.392,-0.175 -0.392,-0.392v-0.053c0,-0.216 0.175,-0.392 0.392,-0.392 0.217,0 0.392,0.176 0.392,0.392v0.053c0,0.217 -0.175,0.392 -0.392,0.392zM24.566,22.173c-0.216,0 -0.392,-0.176 -0.392,-0.393v-0.052c0,-0.217 0.176,-0.393 0.392,-0.393 0.217,0 0.393,0.176 0.393,0.393v0.052c0,0.217 -0.176,0.393 -0.393,0.393zM1.433,21.693c-0.217,0 -0.392,-0.175 -0.392,-0.392v-0.052c0,-0.217 0.175,-0.393 0.392,-0.393 0.217,0 0.392,0.176 0.392,0.393v0.052c0,0.217 -0.175,0.393 -0.392,0.393zM1.433,19.798c-0.217,0 -0.392,-0.176 -0.392,-0.392v-0.053c0,-0.217 0.175,-0.392 0.392,-0.392 0.217,0 0.392,0.175 0.392,0.392v0.053c0,0.216 -0.175,0.392 -0.392,0.392zM1.433,17.903c-0.217,0 -0.392,-0.176 -0.392,-0.393v-0.052c0,-0.217 0.175,-0.393 0.392,-0.393 0.525,0 0.524,0.838 0,0.838zM1.433,16.007c-0.217,0 -0.392,-0.176 -0.392,-0.392v-0.053c0,-0.217 0.175,-0.392 0.392,-0.392 0.217,0 0.392,0.175 0.392,0.392v0.053c0,0.216 -0.175,0.392 -0.392,0.392zM1.433,14.111c-0.217,0 -0.392,-0.175 -0.392,-0.392v-0.053c0,-0.216 0.175,-0.392 0.392,-0.392 0.217,0 0.392,0.176 0.392,0.392v0.053c0,0.217 -0.175,0.392 -0.392,0.392zM1.433,12.216c-0.217,0 -0.392,-0.176 -0.392,-0.393v-0.052c0,-0.217 0.175,-0.393 0.392,-0.393 0.217,0 0.392,0.176 0.392,0.393v0.052c0,0.217 -0.175,0.393 -0.392,0.393zM24.566,11.716c-0.216,0 -0.392,-0.175 -0.392,-0.392v-0.052c0,-0.217 0.176,-0.393 0.392,-0.393 0.217,0 0.393,0.176 0.393,0.393v0.052c0,0.217 -0.176,0.393 -0.393,0.393zM1.433,10.32c-0.217,0 -0.392,-0.176 -0.392,-0.392v-0.053c0,-0.217 0.175,-0.392 0.392,-0.392 0.217,0 0.392,0.175 0.392,0.392v0.053c0,0.217 -0.175,0.392 -0.392,0.392zM24.173,9.43L24.173,9.4c-0.03,-0.522 0.783,-0.594 0.786,0.027 0,0.217 -0.174,0.393 -0.391,0.394 -0.221,0 -0.393,-0.177 -0.394,-0.39zM2.299,8.89c-0.499,0 -0.56,-0.775 0.045,-0.787 0.504,-0.013 0.575,0.787 -0.045,0.787zM23.203,8.887h-0.052c-0.217,0 -0.393,-0.175 -0.393,-0.392 0,-0.217 0.176,-0.392 0.393,-0.392h0.052c0.217,0 0.393,0.175 0.393,0.392 0,0.217 -0.176,0.392 -0.393,0.392zM21.308,8.887h-0.053c-0.217,0 -0.392,-0.175 -0.392,-0.392 0,-0.217 0.175,-0.392 0.392,-0.392h0.053c0.216,0 0.392,0.175 0.392,0.392 0,0.217 -0.176,0.392 -0.392,0.392zM19.412,8.887h-0.052c-0.217,0 -0.393,-0.175 -0.393,-0.392 0,-0.217 0.176,-0.392 0.393,-0.392h0.052c0.217,0 0.393,0.175 0.393,0.392 0,0.217 -0.176,0.392 -0.393,0.392zM17.517,8.887h-0.053c-0.217,0 -0.392,-0.175 -0.392,-0.392 0,-0.217 0.175,-0.392 0.392,-0.392h0.053c0.216,0 0.392,0.175 0.392,0.392 0,0.217 -0.176,0.392 -0.392,0.392zM15.621,8.887h-0.053c-0.216,0 -0.392,-0.175 -0.392,-0.392 0,-0.217 0.176,-0.392 0.392,-0.392h0.053c0.217,0 0.392,0.175 0.392,0.392 0,0.217 -0.175,0.392 -0.392,0.392zM13.725,8.887h-0.052c-0.217,0 -0.393,-0.175 -0.393,-0.392 0,-0.217 0.176,-0.392 0.393,-0.392h0.052c0.217,0 0.393,0.175 0.393,0.392 0,0.217 -0.176,0.392 -0.393,0.392zM11.83,8.887h-0.053c-0.217,0 -0.392,-0.175 -0.392,-0.392 0,-0.217 0.175,-0.392 0.392,-0.392h0.053c0.217,0 0.392,0.175 0.392,0.392 0,0.217 -0.176,0.392 -0.392,0.392zM9.934,8.887h-0.052c-0.217,0 -0.393,-0.175 -0.393,-0.392 0,-0.523 0.838,-0.525 0.838,0 0,0.217 -0.176,0.392 -0.393,0.392zM8.039,8.887h-0.053c-0.217,0 -0.392,-0.175 -0.392,-0.392 0,-0.217 0.175,-0.392 0.392,-0.392h0.053c0.216,0 0.392,0.175 0.392,0.392 0,0.217 -0.176,0.392 -0.392,0.392zM6.143,8.887h-0.053c-0.216,0 -0.392,-0.175 -0.392,-0.392 0,-0.217 0.176,-0.392 0.392,-0.392h0.053c0.217,0 0.392,0.175 0.392,0.392 0,0.217 -0.175,0.392 -0.392,0.392zM4.247,8.887h-0.052c-0.217,0 -0.393,-0.175 -0.393,-0.392 0,-0.217 0.176,-0.392 0.393,-0.392h0.052c0.217,0 0.393,0.175 0.393,0.392 0,0.217 -0.176,0.392 -0.393,0.392z" fill="#EAB883"/>
</svg>
