<?xml version="1.0" ?>
<svg xmlns="http://www.w3.org/2000/svg" width="24" height="24" viewBox="0 0 24 24">
  <path d="M12.16,22.6C17.8596,22.6 22.48,17.9796 22.48,12.28C22.48,6.5804 17.8596,1.96 12.16,1.96C6.4604,1.96 1.84,6.5804 1.84,12.28C1.84,17.9796 6.4604,22.6 12.16,22.6Z" fill="#FFFFFF" stroke-width="2.4" stroke="#FFD32A"/>
  <path d="M16.0114,16.485C16.4728,16.9497 16.4826,17.6727 16.0104,18.1451C15.571,18.5847 14.801,18.5847 14.3615,18.1452L10.5945,14.3785C10.3467,14.1302 10.2344,13.8094 10.2621,13.5028C10.2572,13.4744 10.2502,13.4328 10.24,13.3715L10.24,6.7454C10.24,6.0962 10.7762,5.56 11.4128,5.56C12.0682,5.56 12.6235,6.0891 12.6235,6.7454L12.6235,13.0729L16.0114,16.485Z" fill="#FFD32A" stroke-width="1" stroke="#00000000"/>
</svg>
