<?xml version="1.0" ?>
<svg xmlns="http://www.w3.org/2000/svg" width="14" height="14" viewBox="0 0 14 14">
  <path d="M13.3636,0L8.2727,0C7.9213,0 7.6363,0.2849 7.6363,0.6364C7.6363,0.9878 7.9213,1.2727 8.2727,1.2727L11.8273,1.2727L5.2773,7.8228C5.0288,8.0712 5.0288,8.4742 5.2773,8.7227C5.4015,8.8469 5.5644,8.9091 5.7273,8.9091C5.8901,8.9091 6.053,8.8469 6.1772,8.7227L12.7273,2.1727L12.7273,5.7273C12.7273,6.0787 13.0122,6.3637 13.3637,6.3637C13.7151,6.3637 14,6.0787 14,5.7273L14,0.6364C14,0.2849 13.7151,0 13.3636,0Z" fill="#949091" stroke-width="1" stroke="#00000000"/>
  <path d="M10.8182,6.3636C10.4667,6.3636 10.1818,6.6486 10.1818,7L10.1818,12.7273L1.2727,12.7273L1.2727,3.8182L7,3.8182C7.3514,3.8182 7.6364,3.5333 7.6364,3.1818C7.6364,2.8304 7.3514,2.5455 7,2.5455L0.6364,2.5455C0.2849,2.5455 0,2.8304 0,3.1818L0,13.3637C0,13.7151 0.2849,14 0.6364,14L10.8182,14C11.1696,14 11.4546,13.7151 11.4546,13.3636L11.4546,7C11.4545,6.6486 11.1696,6.3636 10.8182,6.3636Z" fill="#949091" stroke-width="1" stroke="#00000000"/>
</svg>
