<svg xmlns="http://www.w3.org/2000/svg" xmlns:xlink="http://www.w3.org/1999/xlink" width="21" height="21" viewBox="0 0 21 21">
  <defs>
    <clipPath id="clip-path">
      <rect id="Rectángulo_148571" data-name="Rectángulo 148571" width="21" height="21" transform="translate(-23092 -24785)" fill="#fff" stroke="#707070" stroke-width="1"/>
    </clipPath>
  </defs>
  <g id="Enmascarar_grupo_1" data-name="Enmascarar grupo 1" transform="translate(23092 24785)" clip-path="url(#clip-path)">
    <path id="receipt_long_FILL0_wght400_GRAD0_opsz48" d="M119.615-860.074a2.522,2.522,0,0,1-1.852-.763A2.522,2.522,0,0,1,117-862.69V-865.8h3.163V-880l1.489,1.494L123.142-880l1.489,1.494L126.121-880l1.489,1.494L129.1-880l1.494,1.494L132.094-880l1.494,1.494L135.083-880v17.31a2.522,2.522,0,0,1-.763,1.852,2.522,2.522,0,0,1-1.852.763Zm12.852-1.494a1.1,1.1,0,0,0,.809-.311,1.1,1.1,0,0,0,.311-.81v-14.82H121.658V-865.8h9.689v3.113a1.1,1.1,0,0,0,.311.81A1.1,1.1,0,0,0,132.467-861.569Zm-9.49-12.005v-1.494h5.978v1.494Zm0,3.338v-1.494h5.978v1.494Zm8.294-3.338a.717.717,0,0,1-.523-.224.717.717,0,0,1-.224-.523.717.717,0,0,1,.224-.523.717.717,0,0,1,.523-.224.717.717,0,0,1,.523.224.717.717,0,0,1,.224.523.717.717,0,0,1-.224.523A.717.717,0,0,1,131.272-873.574Zm0,3.213a.717.717,0,0,1-.523-.224.717.717,0,0,1-.224-.523.717.717,0,0,1,.224-.523.717.717,0,0,1,.523-.224.717.717,0,0,1,.523.224.717.717,0,0,1,.224.523.717.717,0,0,1-.224.523A.717.717,0,0,1,131.272-870.361Zm-11.681,8.792h10.262v-2.74H118.494v1.619a1.088,1.088,0,0,0,.315.81A1.067,1.067,0,0,0,119.59-861.569Zm-1.1,0v0Z" transform="translate(-23207 -23904)"/>
  </g>
</svg>
