<svg xmlns="http://www.w3.org/2000/svg" width="22" height="22" viewBox="0 0 22 22">
  <g id="Grupo_198805" data-name="Grupo 198805" transform="translate(-8 -9)">
    <rect id="Rectángulo_150721" data-name="Rectángulo 150721" width="22" height="22" transform="translate(8 9)" fill="none"/>
    <path id="Trazado_51294" data-name="Trazado 51294" d="M5.5,2.518H3.4V4.8H2V1H5.5ZM16,4.8V1H12.5V2.518h2.1V4.8ZM5.5,16.185H3.4V13.907H2v3.8H5.5Zm9.1-2.278v2.278H12.5V17.7H16v-3.8ZM12.5,4.8h-7v9.111h7Zm1.4,9.111a1.467,1.467,0,0,1-1.4,1.518h-7a1.467,1.467,0,0,1-1.4-1.518V4.8A1.467,1.467,0,0,1,5.5,3.278h7A1.467,1.467,0,0,1,13.9,4.8ZM11.1,6.315H6.9V7.833h4.2Zm0,2.278H6.9v1.518h4.2Zm0,2.278H6.9v1.518h4.2Z" transform="translate(10 29) rotate(-90)" stroke="#f5f5f5" stroke-width="0.3"/>
  </g>
</svg>
